<svg width="290" height="20" viewBox="0 0 290 20" fill="none" xmlns="http://www.w3.org/2000/svg">
<path d="M8.86375 12.12L9.66375 15H12.4038L8.04375 1.04C7.42375 1.04 6.82375 1.08 6.22375 1.12C5.62375 1.18 5.14375 1.26 4.78375 1.36L0.50375 15H3.06375L3.90375 12.12H8.86375ZM8.26375 9.96H4.54375L6.44375 3.48L8.26375 9.96ZM16.4936 12.76C16.2736 12.52 16.1736 12.12 16.1736 11.56V7.04H18.7536C18.8336 6.5 18.9136 5.82 18.9936 5.02H16.1736V1.92C15.2536 1.92 14.4136 2.04 13.6136 2.26V11.84C13.6136 13 13.8736 13.84 14.4336 14.4C14.9736 14.96 15.7736 15.24 16.8136 15.24C17.4736 15.24 18.0736 15.12 18.5936 14.88C18.7336 14.22 18.8336 13.54 18.8736 12.82C18.6736 12.92 18.4336 13 18.1936 13.06C17.9536 13.12 17.7136 13.14 17.4936 13.14C17.0336 13.14 16.6936 13.02 16.4936 12.76ZM26.6639 4.96C26.3839 4.86 26.0239 4.8 25.5839 4.8C25.1039 4.8 24.6639 4.96 24.2639 5.24C23.8639 5.54 23.5439 5.94 23.3039 6.44L23.1639 5.02H20.7839V15H23.3439V7.66C23.6039 7.46 23.9239 7.3 24.2839 7.2C24.6439 7.1 24.9839 7.04 25.3239 7.04C25.6639 7.04 26.0439 7.08 26.4439 7.12C26.5039 6.84 26.5639 6.52 26.6039 6.12C26.6439 5.72 26.6639 5.34 26.6639 4.96ZM34.637 5.64C33.977 5.08 32.937 4.78 31.537 4.78C30.857 4.78 30.217 4.86 29.597 4.98C28.977 5.1 28.417 5.28 27.937 5.48C27.877 5.76 27.837 6.1 27.817 6.46C27.777 6.82 27.777 7.16 27.777 7.46C28.317 7.24 28.857 7.08 29.417 6.96C29.957 6.84 30.597 6.78 31.317 6.78C31.957 6.78 32.417 6.92 32.697 7.16C32.957 7.42 33.097 7.82 33.097 8.38V8.5L32.617 8.54C31.217 8.66 30.137 8.86 29.337 9.14C28.537 9.42 27.957 9.82 27.637 10.3C27.297 10.78 27.137 11.4 27.137 12.16C27.137 12.82 27.277 13.38 27.557 13.84C27.837 14.3 28.217 14.64 28.697 14.88C29.177 15.12 29.737 15.24 30.357 15.24C31.697 15.24 32.637 14.68 33.157 13.56L33.297 15H35.617V8.24C35.617 7.08 35.277 6.2 34.637 5.64ZM32.237 13.06C31.877 13.24 31.477 13.32 31.057 13.32C30.597 13.32 30.237 13.2 29.977 12.96C29.717 12.72 29.597 12.4 29.597 11.98C29.597 11.62 29.657 11.32 29.817 11.08C29.977 10.84 30.277 10.66 30.737 10.5C31.197 10.34 31.877 10.24 32.757 10.16L33.097 10.14V12.32C32.877 12.64 32.597 12.88 32.237 13.06ZM39.6505 14.66C40.3705 15.06 41.2305 15.24 42.2305 15.24C42.6105 15.24 42.9905 15.2 43.3705 15.12C43.7505 15.04 44.0705 14.94 44.3105 14.8C44.4505 14.1 44.5505 13.4 44.5905 12.7C44.3105 12.86 43.9905 12.98 43.6505 13.06C43.3105 13.14 42.9705 13.18 42.6505 13.18C41.8105 13.18 41.1705 12.92 40.6905 12.38C40.2105 11.84 39.9905 11.06 39.9905 10.04C39.9905 9.02 40.2105 8.24 40.6705 7.7C41.1105 7.18 41.7905 6.9 42.6705 6.9C43.2705 6.9 43.8305 7 44.3505 7.18C44.4105 6.92 44.4705 6.6 44.5105 6.22C44.5505 5.84 44.5705 5.48 44.5905 5.12C43.9505 4.9 43.1905 4.78 42.3105 4.78C40.7705 4.78 39.5705 5.22 38.6905 6.1C37.8105 6.98 37.3905 8.28 37.3905 10.04C37.3905 11.18 37.5705 12.14 37.9705 12.92C38.3705 13.7 38.9305 14.28 39.6505 14.66ZM47.6192 14.66C48.3392 15.06 49.1992 15.24 50.1992 15.24C50.5792 15.24 50.9592 15.2 51.3392 15.12C51.7192 15.04 52.0392 14.94 52.2792 14.8C52.4192 14.1 52.5192 13.4 52.5592 12.7C52.2792 12.86 51.9592 12.98 51.6192 13.06C51.2792 13.14 50.9392 13.18 50.6192 13.18C49.7792 13.18 49.1392 12.92 48.6592 12.38C48.1792 11.84 47.9592 11.06 47.9592 10.04C47.9592 9.02 48.1792 8.24 48.6392 7.7C49.0792 7.18 49.7592 6.9 50.6392 6.9C51.2392 6.9 51.7992 7 52.3192 7.18C52.3792 6.92 52.4392 6.6 52.4792 6.22C52.5192 5.84 52.5392 5.48 52.5592 5.12C51.9192 4.9 51.1592 4.78 50.2792 4.78C48.7392 4.78 47.5392 5.22 46.6592 6.1C45.7792 6.98 45.3592 8.28 45.3592 10.04C45.3592 11.18 45.5392 12.14 45.9392 12.92C46.3392 13.7 46.8992 14.28 47.6192 14.66ZM54.7925 2.94C55.0725 3.22 55.4325 3.36 55.8725 3.36C56.1525 3.36 56.3925 3.3 56.6325 3.16C56.8525 3.04 57.0325 2.86 57.1525 2.62C57.2725 2.4 57.3525 2.14 57.3525 1.86C57.3525 1.42 57.2125 1.06 56.9325 0.779999C56.6525 0.5 56.2925 0.359999 55.8725 0.359999C55.4325 0.359999 55.0725 0.5 54.7925 0.779999C54.5125 1.06 54.3725 1.42 54.3725 1.86C54.3725 2.3 54.5125 2.66 54.7925 2.94ZM54.5925 5.02V15H57.1525V5.02H54.5925ZM61.2702 14.62C61.9902 15.04 62.8502 15.24 63.8702 15.24C64.8702 15.24 65.7302 15.04 66.4502 14.62C67.1702 14.2 67.7302 13.6 68.1102 12.82C68.4902 12.04 68.6902 11.1 68.6902 10.02C68.6902 8.94 68.4902 8 68.1302 7.2C67.7502 6.42 67.1902 5.82 66.4702 5.4C65.7502 5 64.8702 4.78 63.8702 4.78C62.8502 4.78 61.9902 5 61.2702 5.4C60.5502 5.82 59.9902 6.42 59.6302 7.2C59.2502 8 59.0702 8.94 59.0702 10.02C59.0702 11.1 59.2502 12.04 59.6302 12.82C59.9902 13.6 60.5502 14.2 61.2702 14.62ZM66.0502 10.02C66.0502 12.14 65.3102 13.18 63.8702 13.18C63.1302 13.18 62.5902 12.92 62.2302 12.4C61.8702 11.88 61.6902 11.1 61.6902 10.02C61.6902 8.94 61.8502 8.14 62.2102 7.62C62.5702 7.1 63.1102 6.84 63.8702 6.84C64.6102 6.84 65.1502 7.12 65.5102 7.64C65.8702 8.16 66.0502 8.96 66.0502 10.02ZM63.3702 0.619999L62.6302 3.54H62.6902C63.2502 3.5 63.7902 3.34 64.3102 3.02C64.8102 2.72 65.2302 2.32 65.5902 1.82C65.9302 1.32 66.1702 0.779999 66.2902 0.2C65.8502 0.2 65.3502 0.239999 64.7902 0.319999C64.2302 0.4 63.7702 0.5 63.3702 0.619999ZM78.3277 5.74C77.7877 5.1 76.9877 4.78 75.9077 4.78C75.2277 4.78 74.6877 4.94 74.2477 5.24C73.8077 5.54 73.4277 5.98 73.1277 6.56L72.9477 5.02H70.6277V15H73.1877V7.62C73.4077 7.4 73.6677 7.22 73.9677 7.06C74.2677 6.92 74.5877 6.84 74.9477 6.84C75.5277 6.84 75.9477 7.02 76.2077 7.34C76.4477 7.66 76.5877 8.16 76.5877 8.84V15H79.1477V8.28C79.1477 7.22 78.8677 6.38 78.3277 5.74ZM95.0122 5.02H92.5122L90.2722 12.56L87.7922 5.02H85.1522L89.1322 15.58C88.8922 16.26 88.5722 16.72 88.2122 16.98C87.8522 17.24 87.3922 17.36 86.8322 17.36C86.6322 17.36 86.4322 17.34 86.1922 17.28C86.1122 17.84 86.0522 18.52 86.0322 19.36C86.3722 19.44 86.7122 19.48 87.0522 19.48C88.1322 19.48 89.0122 19.18 89.7122 18.56C90.3922 17.94 90.9322 17.06 91.3322 15.9L95.0122 5.02ZM110.776 2.72C109.636 1.44 107.876 0.799999 105.476 0.799999C103.936 0.799999 102.596 0.94 101.436 1.18V15H105.556C107.076 15 108.336 14.74 109.376 14.18C110.396 13.62 111.176 12.82 111.696 11.76C112.216 10.72 112.476 9.44 112.476 7.94C112.476 5.74 111.896 4 110.776 2.72ZM108.756 11.58C108.076 12.38 107.036 12.76 105.616 12.76H104.036V3.12C104.476 3.08 104.956 3.04 105.496 3.04C106.956 3.04 108.036 3.46 108.716 4.28C109.396 5.12 109.756 6.34 109.756 7.94C109.756 9.58 109.416 10.78 108.756 11.58ZM122.853 10.16C122.873 9.84 122.893 9.52 122.893 9.2C122.893 8.36 122.733 7.6 122.413 6.92C122.093 6.26 121.613 5.74 120.973 5.36C120.333 4.98 119.533 4.78 118.573 4.78C117.533 4.78 116.673 5 115.993 5.44C115.293 5.88 114.773 6.48 114.433 7.24C114.093 8.02 113.933 8.92 113.933 9.92C113.933 11.62 114.353 12.94 115.213 13.86C116.053 14.78 117.393 15.24 119.193 15.24C120.293 15.24 121.313 15.02 122.273 14.58C122.413 14.04 122.533 13.34 122.613 12.48C121.573 12.98 120.513 13.22 119.433 13.22C118.553 13.22 117.873 13.06 117.413 12.72C116.953 12.38 116.653 11.8 116.533 10.98H122.773C122.813 10.74 122.833 10.48 122.853 10.16ZM117.093 7.36C117.433 6.98 117.913 6.78 118.553 6.78C119.173 6.78 119.633 7 119.913 7.4C120.193 7.8 120.353 8.38 120.373 9.12H116.493C116.553 8.34 116.753 7.76 117.093 7.36ZM125.848 15.06C126.408 15.18 127.028 15.24 127.688 15.24C128.568 15.24 129.328 15.12 129.928 14.84C130.528 14.58 130.988 14.22 131.288 13.74C131.568 13.28 131.728 12.74 131.728 12.14C131.728 11.38 131.508 10.78 131.108 10.3C130.688 9.82 130.028 9.44 129.148 9.14L128.208 8.82C127.728 8.68 127.388 8.52 127.188 8.34C126.988 8.16 126.888 7.94 126.888 7.66C126.888 7.38 127.008 7.16 127.248 7C127.488 6.84 127.908 6.76 128.488 6.76C128.948 6.76 129.388 6.8 129.788 6.88C130.188 6.96 130.588 7.06 131.028 7.2C131.188 6.54 131.268 5.88 131.308 5.24C130.508 4.94 129.488 4.78 128.288 4.78C126.968 4.78 125.988 5.06 125.328 5.6C124.668 6.14 124.348 6.86 124.348 7.78C124.348 8.6 124.568 9.26 125.028 9.74C125.468 10.22 126.128 10.6 126.988 10.88L127.848 11.16C128.288 11.32 128.588 11.48 128.788 11.64C128.968 11.8 129.068 12.02 129.068 12.28C129.068 12.62 128.928 12.86 128.668 13.02C128.388 13.18 127.988 13.26 127.448 13.26C126.548 13.26 125.628 13.04 124.668 12.56C124.448 13.24 124.348 13.9 124.348 14.54C124.768 14.76 125.268 14.94 125.848 15.06ZM140.535 5.64C139.875 5.08 138.835 4.78 137.435 4.78C136.755 4.78 136.115 4.86 135.495 4.98C134.875 5.1 134.315 5.28 133.835 5.48C133.775 5.76 133.735 6.1 133.715 6.46C133.675 6.82 133.675 7.16 133.675 7.46C134.215 7.24 134.755 7.08 135.315 6.96C135.855 6.84 136.495 6.78 137.215 6.78C137.855 6.78 138.315 6.92 138.595 7.16C138.855 7.42 138.995 7.82 138.995 8.38V8.5L138.515 8.54C137.115 8.66 136.035 8.86 135.235 9.14C134.435 9.42 133.855 9.82 133.535 10.3C133.195 10.78 133.035 11.4 133.035 12.16C133.035 12.82 133.175 13.38 133.455 13.84C133.735 14.3 134.115 14.64 134.595 14.88C135.075 15.12 135.635 15.24 136.255 15.24C137.595 15.24 138.535 14.68 139.055 13.56L139.195 15H141.515V8.24C141.515 7.08 141.175 6.2 140.535 5.64ZM138.135 13.06C137.775 13.24 137.375 13.32 136.955 13.32C136.495 13.32 136.135 13.2 135.875 12.96C135.615 12.72 135.495 12.4 135.495 11.98C135.495 11.62 135.555 11.32 135.715 11.08C135.875 10.84 136.175 10.66 136.635 10.5C137.095 10.34 137.775 10.24 138.655 10.16L138.995 10.14V12.32C138.775 12.64 138.495 12.88 138.135 13.06ZM149.75 4.96C149.47 4.86 149.11 4.8 148.67 4.8C148.19 4.8 147.75 4.96 147.35 5.24C146.95 5.54 146.63 5.94 146.39 6.44L146.25 5.02H143.87V15H146.43V7.66C146.69 7.46 147.01 7.3 147.37 7.2C147.73 7.1 148.07 7.04 148.41 7.04C148.75 7.04 149.13 7.08 149.53 7.12C149.59 6.84 149.65 6.52 149.69 6.12C149.73 5.72 149.75 5.34 149.75 4.96ZM157.055 4.96C156.775 4.86 156.415 4.8 155.975 4.8C155.495 4.8 155.055 4.96 154.655 5.24C154.255 5.54 153.935 5.94 153.695 6.44L153.555 5.02H151.175V15H153.735V7.66C153.995 7.46 154.315 7.3 154.675 7.2C155.035 7.1 155.375 7.04 155.715 7.04C156.055 7.04 156.435 7.08 156.835 7.12C156.895 6.84 156.955 6.52 156.995 6.12C157.035 5.72 157.055 5.34 157.055 4.96ZM159.727 14.62C160.447 15.04 161.307 15.24 162.327 15.24C163.327 15.24 164.187 15.04 164.907 14.62C165.627 14.2 166.187 13.6 166.567 12.82C166.947 12.04 167.147 11.1 167.147 10.02C167.147 8.94 166.947 8 166.587 7.2C166.207 6.42 165.647 5.82 164.927 5.4C164.207 5 163.327 4.78 162.327 4.78C161.307 4.78 160.447 5 159.727 5.4C159.007 5.82 158.447 6.42 158.087 7.2C157.707 8 157.527 8.94 157.527 10.02C157.527 11.1 157.707 12.04 158.087 12.82C158.447 13.6 159.007 14.2 159.727 14.62ZM164.507 10.02C164.507 12.14 163.767 13.18 162.327 13.18C161.587 13.18 161.047 12.92 160.687 12.4C160.327 11.88 160.147 11.1 160.147 10.02C160.147 8.94 160.307 8.14 160.667 7.62C161.027 7.1 161.567 6.84 162.327 6.84C163.067 6.84 163.607 7.12 163.967 7.64C164.327 8.16 164.507 8.96 164.507 10.02ZM169.645 14.46C170.085 14.98 170.745 15.24 171.625 15.24C172.205 15.24 172.685 15.16 173.065 15C173.125 14.72 173.185 14.38 173.225 14.02C173.265 13.66 173.305 13.32 173.325 13C173.085 13.12 172.805 13.16 172.505 13.16C172.165 13.16 171.925 13.08 171.765 12.88C171.605 12.68 171.545 12.4 171.545 12.02V0.799999C170.665 0.799999 169.825 0.919999 168.985 1.16V12.16C168.985 13.16 169.205 13.94 169.645 14.46ZM175.543 14.46C175.983 14.98 176.643 15.24 177.523 15.24C178.103 15.24 178.583 15.16 178.963 15C179.023 14.72 179.083 14.38 179.123 14.02C179.163 13.66 179.203 13.32 179.223 13C178.983 13.12 178.703 13.16 178.403 13.16C178.063 13.16 177.823 13.08 177.663 12.88C177.503 12.68 177.443 12.4 177.443 12.02V0.799999C176.563 0.799999 175.723 0.919999 174.883 1.16V12.16C174.883 13.16 175.103 13.94 175.543 14.46ZM182.266 14.62C182.986 15.04 183.846 15.24 184.866 15.24C185.866 15.24 186.726 15.04 187.446 14.62C188.166 14.2 188.726 13.6 189.106 12.82C189.486 12.04 189.686 11.1 189.686 10.02C189.686 8.94 189.486 8 189.126 7.2C188.746 6.42 188.186 5.82 187.466 5.4C186.746 5 185.866 4.78 184.866 4.78C183.846 4.78 182.986 5 182.266 5.4C181.546 5.82 180.986 6.42 180.626 7.2C180.246 8 180.066 8.94 180.066 10.02C180.066 11.1 180.246 12.04 180.626 12.82C180.986 13.6 181.546 14.2 182.266 14.62ZM187.046 10.02C187.046 12.14 186.306 13.18 184.866 13.18C184.126 13.18 183.586 12.92 183.226 12.4C182.866 11.88 182.686 11.1 182.686 10.02C182.686 8.94 182.846 8.14 183.206 7.62C183.566 7.1 184.106 6.84 184.866 6.84C185.606 6.84 186.146 7.12 186.506 7.64C186.866 8.16 187.046 8.96 187.046 10.02ZM204.732 0.799999C203.852 0.799999 203.012 0.919999 202.172 1.16V4.84C201.732 4.8 201.292 4.78 200.852 4.78C199.052 4.78 197.732 5.26 196.932 6.18C196.132 7.1 195.732 8.42 195.732 10.14C195.732 11.3 195.892 12.24 196.232 13C196.552 13.76 197.012 14.34 197.612 14.7C198.192 15.06 198.872 15.24 199.652 15.24C200.272 15.24 200.792 15.12 201.212 14.84C201.612 14.56 201.952 14.16 202.232 13.62L202.372 15H204.732V0.799999ZM202.172 12.52C201.692 12.96 201.132 13.18 200.492 13.18C199.772 13.18 199.232 12.94 198.872 12.42C198.512 11.92 198.352 11.12 198.352 10.04C198.352 9 198.532 8.2 198.912 7.66C199.292 7.12 199.932 6.84 200.832 6.84C201.332 6.84 201.772 6.88 202.172 6.96V12.52ZM215.588 10.16C215.608 9.84 215.628 9.52 215.628 9.2C215.628 8.36 215.468 7.6 215.148 6.92C214.828 6.26 214.348 5.74 213.708 5.36C213.068 4.98 212.268 4.78 211.308 4.78C210.268 4.78 209.408 5 208.728 5.44C208.028 5.88 207.508 6.48 207.168 7.24C206.828 8.02 206.668 8.92 206.668 9.92C206.668 11.62 207.088 12.94 207.948 13.86C208.788 14.78 210.128 15.24 211.928 15.24C213.028 15.24 214.048 15.02 215.008 14.58C215.148 14.04 215.268 13.34 215.348 12.48C214.308 12.98 213.248 13.22 212.168 13.22C211.288 13.22 210.608 13.06 210.148 12.72C209.688 12.38 209.388 11.8 209.268 10.98H215.508C215.548 10.74 215.568 10.48 215.588 10.16ZM209.828 7.36C210.168 6.98 210.648 6.78 211.288 6.78C211.908 6.78 212.368 7 212.648 7.4C212.928 7.8 213.088 8.38 213.108 9.12H209.228C209.288 8.34 209.488 7.76 209.828 7.36ZM218.278 14.46C218.718 14.98 219.377 15.24 220.258 15.24C220.838 15.24 221.318 15.16 221.698 15C221.758 14.72 221.818 14.38 221.858 14.02C221.898 13.66 221.938 13.32 221.958 13C221.717 13.12 221.438 13.16 221.138 13.16C220.798 13.16 220.558 13.08 220.398 12.88C220.238 12.68 220.178 12.4 220.178 12.02V0.799999C219.298 0.799999 218.458 0.919999 217.618 1.16V12.16C217.618 13.16 217.838 13.94 218.278 14.46ZM236.563 2.3C236.603 1.86 236.623 1.48 236.643 1.16H226.543C226.483 1.46 226.443 1.82 226.403 2.26C226.363 2.7 226.323 3.08 226.323 3.4H230.163V15H232.783V3.4H236.423C236.463 3.12 236.523 2.74 236.563 2.3ZM243.739 5.64C243.079 5.08 242.039 4.78 240.639 4.78C239.959 4.78 239.319 4.86 238.699 4.98C238.079 5.1 237.519 5.28 237.039 5.48C236.979 5.76 236.939 6.1 236.919 6.46C236.879 6.82 236.879 7.16 236.879 7.46C237.419 7.24 237.959 7.08 238.519 6.96C239.059 6.84 239.699 6.78 240.419 6.78C241.059 6.78 241.519 6.92 241.799 7.16C242.059 7.42 242.199 7.82 242.199 8.38V8.5L241.719 8.54C240.319 8.66 239.239 8.86 238.439 9.14C237.639 9.42 237.059 9.82 236.739 10.3C236.399 10.78 236.239 11.4 236.239 12.16C236.239 12.82 236.379 13.38 236.659 13.84C236.939 14.3 237.319 14.64 237.799 14.88C238.279 15.12 238.839 15.24 239.459 15.24C240.799 15.24 241.739 14.68 242.259 13.56L242.399 15H244.719V8.24C244.719 7.08 244.379 6.2 243.739 5.64ZM241.339 13.06C240.979 13.24 240.579 13.32 240.159 13.32C239.699 13.32 239.339 13.2 239.079 12.96C238.819 12.72 238.699 12.4 238.699 11.98C238.699 11.62 238.759 11.32 238.919 11.08C239.079 10.84 239.379 10.66 239.839 10.5C240.299 10.34 240.979 10.24 241.859 10.16L242.199 10.14V12.32C241.979 12.64 241.699 12.88 241.339 13.06ZM247.672 14.46C248.112 14.98 248.772 15.24 249.652 15.24C250.232 15.24 250.712 15.16 251.092 15C251.152 14.72 251.212 14.38 251.252 14.02C251.292 13.66 251.332 13.32 251.352 13C251.112 13.12 250.832 13.16 250.532 13.16C250.192 13.16 249.952 13.08 249.792 12.88C249.632 12.68 249.572 12.4 249.572 12.02V0.799999C248.692 0.799999 247.852 0.919999 247.012 1.16V12.16C247.012 13.16 247.232 13.94 247.672 14.46ZM261.115 10.16C261.135 9.84 261.155 9.52 261.155 9.2C261.155 8.36 260.995 7.6 260.675 6.92C260.355 6.26 259.875 5.74 259.235 5.36C258.595 4.98 257.795 4.78 256.835 4.78C255.795 4.78 254.935 5 254.255 5.44C253.555 5.88 253.035 6.48 252.695 7.24C252.355 8.02 252.195 8.92 252.195 9.92C252.195 11.62 252.615 12.94 253.475 13.86C254.315 14.78 255.655 15.24 257.455 15.24C258.555 15.24 259.575 15.02 260.535 14.58C260.675 14.04 260.795 13.34 260.875 12.48C259.835 12.98 258.775 13.22 257.695 13.22C256.815 13.22 256.135 13.06 255.675 12.72C255.215 12.38 254.915 11.8 254.795 10.98H261.035C261.075 10.74 261.095 10.48 261.115 10.16ZM255.355 7.36C255.695 6.98 256.175 6.78 256.815 6.78C257.435 6.78 257.895 7 258.175 7.4C258.455 7.8 258.615 8.38 258.635 9.12H254.755C254.815 8.34 255.015 7.76 255.355 7.36ZM270.945 5.74C270.405 5.1 269.605 4.78 268.525 4.78C267.845 4.78 267.305 4.94 266.865 5.24C266.425 5.54 266.045 5.98 265.745 6.56L265.565 5.02H263.245V15H265.805V7.62C266.025 7.4 266.285 7.22 266.585 7.06C266.885 6.92 267.205 6.84 267.565 6.84C268.145 6.84 268.565 7.02 268.825 7.34C269.065 7.66 269.205 8.16 269.205 8.84V15H271.765V8.28C271.765 7.22 271.485 6.38 270.945 5.74ZM277.001 12.76C276.781 12.52 276.681 12.12 276.681 11.56V7.04H279.261C279.341 6.5 279.421 5.82 279.501 5.02H276.681V1.92C275.761 1.92 274.921 2.04 274.121 2.26V11.84C274.121 13 274.381 13.84 274.941 14.4C275.481 14.96 276.281 15.24 277.321 15.24C277.981 15.24 278.581 15.12 279.101 14.88C279.241 14.22 279.341 13.54 279.381 12.82C279.181 12.92 278.941 13 278.701 13.06C278.461 13.12 278.221 13.14 278.001 13.14C277.541 13.14 277.201 13.02 277.001 12.76ZM282.579 14.62C283.299 15.04 284.159 15.24 285.179 15.24C286.179 15.24 287.039 15.04 287.759 14.62C288.479 14.2 289.039 13.6 289.419 12.82C289.799 12.04 289.999 11.1 289.999 10.02C289.999 8.94 289.799 8 289.439 7.2C289.059 6.42 288.499 5.82 287.779 5.4C287.059 5 286.179 4.78 285.179 4.78C284.159 4.78 283.299 5 282.579 5.4C281.859 5.82 281.299 6.42 280.939 7.2C280.559 8 280.379 8.94 280.379 10.02C280.379 11.1 280.559 12.04 280.939 12.82C281.299 13.6 281.859 14.2 282.579 14.62ZM287.359 10.02C287.359 12.14 286.619 13.18 285.179 13.18C284.439 13.18 283.899 12.92 283.539 12.4C283.179 11.88 282.999 11.1 282.999 10.02C282.999 8.94 283.159 8.14 283.519 7.62C283.879 7.1 284.419 6.84 285.179 6.84C285.919 6.84 286.459 7.12 286.819 7.64C287.179 8.16 287.359 8.96 287.359 10.02Z" fill="url(#paint0_linear)"/>
<defs>
<linearGradient id="paint0_linear" x1="0.500002" y1="-8" x2="289.5" y2="-8" gradientUnits="userSpaceOnUse">
<stop stop-color="#EC0000" stop-opacity="0.62"/>
<stop offset="1" stop-color="#9C27B0" stop-opacity="0.59"/>
</linearGradient>
</defs>
</svg>