<svg xmlns="http://www.w3.org/2000/svg" width="104.59" height="26.12" xmlns:v="https://vecta.io/nano"><path d="M91.49 12.91V2.94c.79-.1 1.69-.14 2.7-.14 1.9 0 3.34.43 4.34 1.3 1 .86 1.49 2.12 1.49 3.78 0 1.73-.5 3-1.51 3.81-1.01.82-2.38 1.22-4.1 1.22zm9.47 12.56h3.63L98.29 15c1.51-.55 2.72-1.44 3.62-2.66s1.35-2.76 1.35-4.61c0-1.39-.31-2.66-.94-3.81-.62-1.15-1.61-2.08-2.97-2.77C97.99.45 96.28.11 94.22.11s-4.03.2-5.9.61v24.8h3.17v-9.9h3.92zM79.11.82v10.51H68.17V.31c-.48 0-1.01.05-1.6.14-.59.1-1.11.22-1.57.36V25.5h3.17V14.24h10.94V25.5h3.13V.31c-.48 0-1.02.05-1.62.14-.6.1-1.1.22-1.51.37m-26.6 9.86c2.27 0 3.27 1.48 3.31 4.14h-6.84c.29-2.74 1.48-4.14 3.53-4.14m7.81 4.46c0-4.53-2.34-8.03-7.7-8.03-5.61 0-8.24 3.92-8.24 9.25 0 5.9 2.81 9.57 9.25 9.57 2.12 0 4.03-.36 5.61-1.15.25-1.08.47-2.59.58-3.78-1.76.86-3.67 1.33-5.61 1.33-3.13 0-4.75-1.08-5.18-4.21h11.12c.1-.68.17-1.97.17-2.98M33.33 7.11c-2.45 0-5.04.47-7.31 1.15V25.5h4.61V11.04a12.16 12.16 0 0 1 2.59-.29c2.45 0 3.38 1.01 3.38 3.38V25.5h4.61V13.63c0-3.89-1.87-6.52-7.88-6.52M11.27 22.09c-4.25 0-6.44-3.13-6.44-9.03 0-5.94 2.16-9.03 6.41-9.03 4.21 0 6.41 3.13 6.41 9.03-.01 6-2.13 9.03-6.38 9.03m0 4.03c7.09 0 11.19-4.79 11.19-13.06C22.46 5.03 18.54 0 11.23 0 4.07 0 0 4.9 0 13.06c0 8.05 3.93 13.06 11.27 13.06" fill="#7b868c"/></svg>