<svg xmlns="http://www.w3.org/2000/svg" viewBox="0 0 280 77.61"><defs><style>.cls-1{fill:#6ccad4;}.cls-2{fill:#00b4be;}</style></defs><g id="Capa_2" data-name="Capa 2"><g id="Layer_1" data-name="Layer 1"><path class="cls-1" d="M32.05,77.61q-15.52,0-23.79-8.84T0,43.23V25.42H62.9V45.17q0,15.4-8.13,23.92T32.05,77.61m-.34-13.85Q52,63.76,52,45.86v-7.1H11v5.72q0,19.27,20.69,19.28"/><path class="cls-1" d="M17.84,16.67a8.34,8.34,0,1,1,8.34-8.33,8.33,8.33,0,0,1-8.34,8.33"/><path class="cls-1" d="M44.24,16.67a8.34,8.34,0,1,1,8.33-8.33,8.33,8.33,0,0,1-8.33,8.33"/><path class="cls-1" d="M81.2,66.12a7.73,7.73,0,0,1,1.5-4.81,17.48,17.48,0,0,1,5.61-4.19l-1.53-1.68a11.15,11.15,0,0,1-2-2.84,6.72,6.72,0,0,1-.66-2.9,5.9,5.9,0,0,1,1.95-4.65,7.72,7.72,0,0,1,5.25-1.71,7.27,7.27,0,0,1,5,1.65,5.85,5.85,0,0,1,1.85,4.58,6.19,6.19,0,0,1-1.43,3.94,19.37,19.37,0,0,1-5.17,4l9.24,9.34A16.08,16.08,0,0,0,103,63.62a22.29,22.29,0,0,0,1.54-4.11h2a22.48,22.48,0,0,1-4.27,8.71l5.44,5.48h-2.76l-4-4a17.27,17.27,0,0,1-3.35,2.69,12.86,12.86,0,0,1-3.22,1.3,16.08,16.08,0,0,1-4,.45A9.93,9.93,0,0,1,83.64,72,7.33,7.33,0,0,1,81.2,66.12Zm9.3,6.15a12.66,12.66,0,0,0,4.8-.89,13.2,13.2,0,0,0,4.28-3L89.7,58.47a24.31,24.31,0,0,0-4,2.5,6.5,6.5,0,0,0-1.8,2.24A6.57,6.57,0,0,0,83.32,66a5.75,5.75,0,0,0,1.91,4.58A7.71,7.71,0,0,0,90.5,72.27ZM86.31,49.65a5.68,5.68,0,0,0,.82,3,18.93,18.93,0,0,0,3.11,3.56A15.59,15.59,0,0,0,94.75,53,5.21,5.21,0,0,0,96,49.49a4.09,4.09,0,0,0-1.27-3.12,4.82,4.82,0,0,0-3.43-1.19,5.34,5.34,0,0,0-3.67,1.18A4.18,4.18,0,0,0,86.31,49.65Z"/><path class="cls-2" d="M106.51,18.32q0,7.79-4.08,11.76t-12,4H83.06V3.17H91.4q7.39,0,11.26,3.87T106.51,18.32Zm-2.34.09q0-6.64-3.37-10T90.9,5.07H85.21V32.16h5.12Q104.16,32.16,104.17,18.41Z"/><path class="cls-2" d="M112.79,4.71c0-1.35.44-2,1.33-2a1.18,1.18,0,0,1,1,.53,2.56,2.56,0,0,1,.37,1.5,2.6,2.6,0,0,1-.37,1.5,1.15,1.15,0,0,1-1,.55C113.23,6.76,112.79,6.08,112.79,4.71Zm2.38,29.35h-2.09v-23h2.09Z"/><path class="cls-2" d="M127.89,34.06l-8.87-23h2.15l5.94,15.62A49.44,49.44,0,0,1,128.89,32H129c.58-1.91,1.17-3.68,1.78-5.28l5.94-15.58h2.15l-8.87,23Z"/><path class="cls-2" d="M152,34.49a10,10,0,0,1-7.8-3.09q-2.8-3.09-2.8-8.64a13.48,13.48,0,0,1,2.7-8.8,8.93,8.93,0,0,1,7.29-3.31,7.88,7.88,0,0,1,6.41,2.83,11.71,11.71,0,0,1,2.34,7.69v1.69H143.59q0,4.74,2.21,7.23a7.78,7.78,0,0,0,6.2,2.49,19.52,19.52,0,0,0,3.46-.27,21.19,21.19,0,0,0,3.77-1.18V33a16.63,16.63,0,0,1-3.59,1.15A20.33,20.33,0,0,1,152,34.49Zm-.61-22a6.87,6.87,0,0,0-5.32,2.19A10.34,10.34,0,0,0,143.72,21h14.2a10.05,10.05,0,0,0-1.73-6.25A5.73,5.73,0,0,0,151.39,12.51Z"/><path class="cls-2" d="M175.52,10.65a17.67,17.67,0,0,1,3.13.3l-.4,2a12.22,12.22,0,0,0-3-.36,5.81,5.81,0,0,0-4.82,2.5,10.18,10.18,0,0,0-1.88,6.3V34.06h-2.09v-23h1.78l.21,4.15h.15a9.68,9.68,0,0,1,3-3.56A7,7,0,0,1,175.52,10.65Z"/><path class="cls-2" d="M197.56,28.08a5.48,5.48,0,0,1-2.34,4.75,11.47,11.47,0,0,1-6.66,1.66,15.91,15.91,0,0,1-7.31-1.42V30.81a16.08,16.08,0,0,0,7.31,1.73,9.6,9.6,0,0,0,5.17-1.13,3.44,3.44,0,0,0,1.76-3,3.7,3.7,0,0,0-1.4-2.92,15.74,15.74,0,0,0-4.62-2.32A26.11,26.11,0,0,1,184.63,21a6.58,6.58,0,0,1-2.1-2,5.15,5.15,0,0,1-.71-2.76A4.7,4.7,0,0,1,184,12.15a10.51,10.51,0,0,1,6-1.5,18.15,18.15,0,0,1,7.06,1.4l-.78,1.9a16.6,16.6,0,0,0-6.28-1.4,9.1,9.1,0,0,0-4.46.93,2.86,2.86,0,0,0-1.65,2.58,3.55,3.55,0,0,0,1.28,2.87,17.55,17.55,0,0,0,5,2.41,24.58,24.58,0,0,1,4.52,2,6.64,6.64,0,0,1,2.13,2A5,5,0,0,1,197.56,28.08Z"/><path class="cls-2" d="M203.18,4.71c0-1.35.45-2,1.34-2a1.19,1.19,0,0,1,1,.53,2.56,2.56,0,0,1,.37,1.5,2.6,2.6,0,0,1-.37,1.5,1.17,1.17,0,0,1-1,.55C203.63,6.76,203.18,6.08,203.18,4.71Zm2.39,29.35h-2.09v-23h2.09Z"/><path class="cls-2" d="M221.67,10.65a9.45,9.45,0,0,1,4.31.91,8.55,8.55,0,0,1,3.26,3.11h.13c-.09-1.78-.13-3.52-.13-5.22V1.18h2.07V34.06h-1.37l-.53-3.5h-.17a8.51,8.51,0,0,1-7.52,3.93c-3.17,0-5.6-1-7.27-3s-2.52-4.85-2.52-8.62c0-4,.83-7,2.5-9.11A8.67,8.67,0,0,1,221.67,10.65Zm0,1.9A6.5,6.5,0,0,0,216,15.19c-1.26,1.77-1.89,4.32-1.89,7.67q0,9.77,7.59,9.77c2.59,0,4.49-.76,5.7-2.26s1.82-4,1.82-7.46v-.36c0-3.55-.6-6.11-1.79-7.66S224.34,12.55,221.67,12.55Z"/><path class="cls-2" d="M253,34.06l-.53-3.63h-.17a10.92,10.92,0,0,1-3.56,3.14,9.55,9.55,0,0,1-4.32.92,7.45,7.45,0,0,1-5.26-1.74A6.16,6.16,0,0,1,237.25,28a5.91,5.91,0,0,1,2.8-5.22c1.86-1.24,4.57-1.9,8.1-2l4.38-.12V19.12a7.78,7.78,0,0,0-1.34-4.94,5.15,5.15,0,0,0-4.29-1.67,14.28,14.28,0,0,0-6.61,1.78l-.78-1.82A17.39,17.39,0,0,1,247,10.69q3.78,0,5.65,2t1.87,6.13V34.06Zm-8.45-1.48a7.9,7.9,0,0,0,5.8-2.1,7.87,7.87,0,0,0,2.12-5.84V22.38l-4,.17c-3.23.15-5.53.66-6.9,1.51a4.33,4.33,0,0,0-2.06,4,4.29,4.29,0,0,0,1.32,3.35A5.34,5.34,0,0,0,244.52,32.58Z"/><path class="cls-2" d="M270.36,10.65a9.48,9.48,0,0,1,4.31.91,8.62,8.62,0,0,1,3.26,3.11h.12q-.12-2.67-.12-5.22V1.18H280V34.06h-1.38l-.53-3.5h-.16a8.51,8.51,0,0,1-7.53,3.93q-4.75,0-7.27-3c-1.67-2-2.51-4.85-2.51-8.62,0-4,.83-7,2.49-9.11A8.69,8.69,0,0,1,270.36,10.65Zm0,1.9a6.49,6.49,0,0,0-5.65,2.64c-1.26,1.77-1.89,4.32-1.89,7.67q0,9.77,7.58,9.77c2.59,0,4.5-.76,5.71-2.26s1.82-4,1.82-7.46v-.36c0-3.55-.6-6.11-1.79-7.66S273,12.55,270.36,12.55Z"/><path class="cls-2" d="M119.51,45.3c0-1.31.42-2,1.28-2a1.15,1.15,0,0,1,1,.51,2.57,2.57,0,0,1,.35,1.45,2.63,2.63,0,0,1-.35,1.45,1.13,1.13,0,0,1-1,.53C119.93,47.28,119.51,46.62,119.51,45.3Zm2.31,28.4h-2V51.47h2Z"/><path class="cls-2" d="M144.76,73.7V59.29q0-3.36-1.41-4.88A5.68,5.68,0,0,0,139,52.89c-2.66,0-4.6.67-5.84,2s-1.85,3.52-1.85,6.53V73.7h-2V51.47H131l.39,3.05h.12c1.44-2.32,4-3.47,7.71-3.47q7.56,0,7.56,8.11V73.7Z"/><path class="cls-2" d="M162.84,74.11a9.51,9.51,0,0,1-7.47-3q-2.7-3-2.7-8.38c0-3.68.94-6.55,2.8-8.6a9.87,9.87,0,0,1,7.67-3.07,15.38,15.38,0,0,1,5.52,1l-.55,1.8a16.2,16.2,0,0,0-5-1,7.59,7.59,0,0,0-6.19,2.52c-1.41,1.68-2.11,4.11-2.11,7.27a10.68,10.68,0,0,0,2.11,7,7.19,7.19,0,0,0,5.88,2.55,14.52,14.52,0,0,0,5.63-1.08v1.88A12.83,12.83,0,0,1,162.84,74.11Z"/><path class="cls-2" d="M175.88,73.7h-2V41.88h2Z"/><path class="cls-2" d="M185.08,51.47v14.4c0,2.24.47,3.86,1.41,4.88a5.72,5.72,0,0,0,4.38,1.52q4,0,5.84-2c1.25-1.34,1.87-3.51,1.87-6.53V51.47h2V73.7h-1.72l-.36-3.07h-.13q-2.16,3.48-7.7,3.48-7.59,0-7.59-8.12V51.47Z"/><path class="cls-2" d="M221.81,67.91a5.31,5.31,0,0,1-2.27,4.6,11.06,11.06,0,0,1-6.44,1.6A15.42,15.42,0,0,1,206,72.74V70.55a15.63,15.63,0,0,0,7.08,1.68,9.44,9.44,0,0,0,5-1.09,3.35,3.35,0,0,0,1.7-2.92,3.53,3.53,0,0,0-1.36-2.82A15,15,0,0,0,214,63.15a25.08,25.08,0,0,1-4.69-2.08,6.27,6.27,0,0,1-2-2,4.91,4.91,0,0,1-.69-2.67,4.55,4.55,0,0,1,2.1-3.94,10.17,10.17,0,0,1,5.86-1.45,17.55,17.55,0,0,1,6.83,1.34l-.76,1.84a16.15,16.15,0,0,0-6.07-1.34,8.7,8.7,0,0,0-4.32.9,2.76,2.76,0,0,0-1.59,2.49,3.43,3.43,0,0,0,1.24,2.78,17,17,0,0,0,4.83,2.33,23.7,23.7,0,0,1,4.38,2,6.29,6.29,0,0,1,2.05,2A4.77,4.77,0,0,1,221.81,67.91Z"/><path class="cls-2" d="M227.25,45.3c0-1.31.43-2,1.29-2a1.15,1.15,0,0,1,1,.51,2.57,2.57,0,0,1,.35,1.45,2.63,2.63,0,0,1-.35,1.45,1.12,1.12,0,0,1-1,.53Q227.25,47.28,227.25,45.3Zm2.31,28.4h-2V51.47h2Z"/><path class="cls-2" d="M255.38,62.56c0,3.62-.88,6.46-2.63,8.49a9.11,9.11,0,0,1-7.28,3.06,9.46,9.46,0,0,1-5.16-1.41,9,9,0,0,1-3.41-4,14.74,14.74,0,0,1-1.19-6.09c0-3.63.88-6.45,2.64-8.48a9.1,9.1,0,0,1,7.24-3,8.93,8.93,0,0,1,7.19,3.07C254.51,56.17,255.38,59,255.38,62.56Zm-17.54,0a11.31,11.31,0,0,0,2,7.14,7.59,7.59,0,0,0,11.39,0,11.25,11.25,0,0,0,2-7.14q0-4.61-2-7.14a6.9,6.9,0,0,0-5.71-2.53,6.82,6.82,0,0,0-5.68,2.52C238.5,57.09,237.84,59.48,237.84,62.56ZM243.48,48c1-1.08,2-2.25,3-3.51a24.3,24.3,0,0,0,2-2.87h2.88V42a21.89,21.89,0,0,1-2.5,2.82q-1.77,1.76-3.9,3.54h-1.43Z"/><path class="cls-2" d="M277,73.7V59.29q0-3.36-1.41-4.88a5.68,5.68,0,0,0-4.38-1.52c-2.66,0-4.6.67-5.84,2s-1.85,3.52-1.85,6.53V73.7h-2V51.47h1.72l.38,3.05h.13c1.44-2.32,4-3.47,7.71-3.47q7.56,0,7.56,8.11V73.7Z"/></g></g></svg>