<?xml version="1.0" encoding="UTF-8" standalone="no"?>
<svg
   xmlns:dc="http://purl.org/dc/elements/1.1/"
   xmlns:cc="http://creativecommons.org/ns#"
   xmlns:rdf="http://www.w3.org/1999/02/22-rdf-syntax-ns#"
   xmlns:svg="http://www.w3.org/2000/svg"
   xmlns="http://www.w3.org/2000/svg"
   xmlns:sodipodi="http://sodipodi.sourceforge.net/DTD/sodipodi-0.dtd"
   xmlns:inkscape="http://www.inkscape.org/namespaces/inkscape"
   width="34.493507"
   height="39.000458"
   version="1.1"
   id="svg39"
   sodipodi:docname="workday.svg"
   inkscape:version="0.92.4 (5da689c313, 2019-01-14)">
  <metadata
     id="metadata43">
    <rdf:RDF>
      <cc:Work
         rdf:about="">
        <dc:format>image/svg+xml</dc:format>
        <dc:type
           rdf:resource="http://purl.org/dc/dcmitype/StillImage" />
        <dc:title></dc:title>
      </cc:Work>
    </rdf:RDF>
  </metadata>
  <sodipodi:namedview
     pagecolor="#ffffff"
     bordercolor="#666666"
     borderopacity="1"
     objecttolerance="10"
     gridtolerance="10"
     guidetolerance="10"
     inkscape:pageopacity="0"
     inkscape:pageshadow="2"
     inkscape:window-width="1920"
     inkscape:window-height="1017"
     id="namedview41"
     showgrid="false"
     inkscape:zoom="6.0512821"
     inkscape:cx="-48.98606"
     inkscape:cy="14.000229"
     inkscape:window-x="-8"
     inkscape:window-y="-8"
     inkscape:window-maximized="1"
     inkscape:current-layer="svg39"
     fit-margin-top="0"
     fit-margin-left="0"
     fit-margin-right="0"
     fit-margin-bottom="0" />
  <defs
     id="defs17">
    <clipPath
       id="A">
      <path
         d="m 24.376,6.477 a 17.617,17.617 0 0 1 16.76,10.469 1.11,1.11 0 0 1 0.131,0.718 0.989,0.989 0 0 1 -1.891,0.182 A 15.622,15.622 0 0 0 28.577,8.79 16.931,16.931 0 0 0 21.427,8.788 15.177,15.177 0 0 0 12.861,14.142 14.242,14.242 0 0 0 10.619,17.85 0.986,0.986 0 0 1 8.779,17.143 17.616,17.616 0 0 1 24.376,6.477"
         id="path2"
         inkscape:connector-curvature="0"
         style="clip-rule:evenodd;fill:none" />
    </clipPath>
    <clipPath
       id="B">
      <path
         d="m 40.287,19.439 a 1.948,1.948 0 0 1 -1.813,-1.251 14.693,14.693 0 0 0 -5.327,-6.384 14.486,14.486 0 0 0 -4.788,-2.074 16.012,16.012 0 0 0 -6.744,0.004 14.296,14.296 0 0 0 -8.023,5.038 13.298,13.298 0 0 0 -2.087,3.457 1.935,1.935 0 0 1 -1.468,1.178 1.739,1.739 0 0 1 -0.335,0.03 1.952,1.952 0 0 1 -1.822,-2.648 18.643,18.643 0 0 1 23.338,-10.226 18.759,18.759 0 0 1 8.427,6.045 18.539,18.539 0 0 1 2.373,3.944 2.06,2.06 0 0 1 0.191,1.325 1.943,1.943 0 0 1 -1.697,1.547 1.677,1.677 0 0 1 -0.224,0.014 M 15.154,10.636 a 16.731,16.731 0 0 0 -5.481,6.871 l 0.058,-0.039 a 15.279,15.279 0 0 1 2.397,-3.955 19.701,19.701 0 0 1 3.025,-2.877 m 19.986,0.224 a 16.666,16.666 0 0 1 5.124,6.608 l 0.014,0.025 0.032,-0.032 -0.046,-0.104 A 16.594,16.594 0 0 0 35.139,10.86 M 24.994,7.431 24.408,7.442 A 16.6,16.6 0 0 0 21.817,7.733 19.001,19.001 0 0 1 26.243,7.477 Q 25.624,7.432 24.994,7.431"
         id="path5"
         inkscape:connector-curvature="0"
         style="clip-rule:evenodd;fill:none" />
    </clipPath>
    <clipPath
       id="C">
      <path
         d="M 8.302,22.094 H 41.698 V 44.5 H 8.302 Z"
         id="path8"
         inkscape:connector-curvature="0"
         style="fill:none" />
    </clipPath>
    <clipPath
       id="D">
      <path
         d="m 7.751,21.376 h 35.28 V 46.072 H 7.751 Z"
         id="path11"
         inkscape:connector-curvature="0"
         style="fill:none" />
    </clipPath>
    <clipPath
       id="E">
      <path
         d="m 8.302,22.579 a 1.018,1.018 0 0 1 0.797,-0.471 l 3.043,0.014 a 1.055,1.055 0 0 1 0.946,0.946 l 2.967,12.168 0.834,3.766 0.422,3.452 a 43.549,43.549 0 0 1 0.926,-4.883 q 1.947,-7.258 3.893,-14.516 a 1.196,1.196 0 0 1 1.171,-0.944 l 3.389,-0.009 a 1.347,1.347 0 0 1 1.399,0.946 l 2.891,10.593 a 63.423,63.423 0 0 1 1.685,6.881 l 0.316,1.937 a 96.451,96.451 0 0 1 2.092,-10.884 l 1.925,-8.619 a 1.164,1.164 0 0 1 1.244,-0.85 l 2.74,0.014 a 0.794,0.794 0 0 1 0.661,1.097 q -2.749,10.137 -5.49,20.276 a 1.18,1.18 0 0 1 -1.122,0.974 l -4.246,0.019 A 1.023,1.023 0 0 1 29.653,43.712 L 25.89,29.759 a 31.603,31.603 0 0 1 -0.827,-4.957 41.223,41.223 0 0 1 -0.744,4.442 q -1.924,7.184 -3.861,14.368 c -0.145,0.776 -1.032,0.93 -1.692,0.88 -1.316,-0.025 -2.63,0.03 -3.944,-0.025 A 0.952,0.952 0 0 1 13.908,43.661 Q 11.138,33.566 8.374,23.468 A 5.18,5.18 0 0 1 8.303,22.579"
         id="path14"
         inkscape:connector-curvature="0"
         style="clip-rule:evenodd;fill:none" />
    </clipPath>
  </defs>
  <g
     transform="translate(-7.7517014,-5.4995419)"
     id="g37">
    <g
       clip-path="url(#A)"
       id="g21">
      <path
         d="M -0.105,-2.354 H 50.104 V 27.292 H -0.105 Z"
         id="path19"
         inkscape:connector-curvature="0"
         style="fill:#f69f1a" />
    </g>
    <g
       clip-path="url(#B)"
       id="g25">
      <path
         d="M -1.069,-3.32 H 51.07 V 28.259 H -1.069 Z"
         id="path23"
         inkscape:connector-curvature="0"
         style="fill:#f69f1a" />
    </g>
    <g
       clip-path="url(#C)"
       id="g35">
      <g
         clip-path="url(#D)"
         id="g33">
        <g
           clip-path="url(#E)"
           id="g31">
          <g
             clip-path="url(#D)"
             id="g29">
            <path
               d="M -0.518,13.274 H 50.518 V 53.32 H -0.518 Z"
               id="path27"
               inkscape:connector-curvature="0"
               style="fill:#0067ab" />
          </g>
        </g>
      </g>
    </g>
  </g>
</svg>
