<?xml version="1.0" standalone="no"?>
<!DOCTYPE svg PUBLIC "-//W3C//DTD SVG 1.1//EN" "http://www.w3.org/Graphics/SVG/1.1/DTD/svg11.dtd" >
<svg xmlns="http://www.w3.org/2000/svg" xmlns:xlink="http://www.w3.org/1999/xlink" version="1.1">
<metadata>
Created by FontForge 20170731 at Tue Jul 27 20:39:43 2021
 By Aleksey,,,
(c) 2018 Banco Santander, S.A. All rights reserved.
</metadata>
<defs>
<font id="SantanderText-Light" horiz-adv-x="1126" >
  <font-face 
    font-family="Santander Text Light"
    font-weight="300"
    font-stretch="normal"
    units-per-em="2048"
    panose-1="2 11 3 4 2 2 1 2 1 4"
    ascent="1638"
    descent="-410"
    x-height="1012"
    cap-height="1427"
    bbox="-625 -623 2324 2243"
    underline-thickness="102"
    underline-position="-307"
    unicode-range="U+000D-FEFF"
  />
<missing-glyph horiz-adv-x="1337" 
d="M193 0h952v1417h-952v-1417zM272 74v1269h793v-1269h-793z" />
    <glyph glyph-name="fi" unicode="fi" horiz-adv-x="991" 
d="M174 1114q0 332 305 332q78 0 162 -25q0 -38 -8 -84q-71 23 -146 23q-109 0 -162 -59.5t-53 -186.5v-102h361q-5 -61 -10 -82h-351v-930h-98v1114zM768 1425q31 0 50.5 -20t19.5 -53q0 -32 -19.5 -53t-50.5 -21t-51.5 20.5t-20.5 53.5t20.5 53t51.5 20zM719 0v1012h96
v-1012h-96z" />
    <glyph glyph-name="fl" unicode="fl" horiz-adv-x="1091" 
d="M174 1114q0 332 305 332q78 0 162 -25q0 -38 -8 -84q-71 23 -146 23q-109 0 -162 -59.5t-53 -186.5v-102h361q-5 -61 -10 -82h-351v-930h-98v1114zM971 61q56 0 114 25q-4 -48 -12 -86q-67 -23 -129 -23q-109 0 -167 61.5t-58 184.5v1194q44 17 96 17v-1203
q0 -170 156 -170z" />
    <glyph glyph-name="f_f" unicode="ff" horiz-adv-x="1183" 
d="M1032 1360q-122 0 -179.5 -60.5t-57.5 -193.5v-94h379q-2 -27 -11 -82h-368v-930h-99v930h-424v-930h-98v1120q0 162 80 244t225 82q82 0 162 -25q0 -36 -8 -86q-67 25 -146 25q-102 0 -158.5 -59.5t-56.5 -182.5v-106h424v96q0 338 330 338q86 0 166 -25q0 -36 -8 -86
q-67 25 -152 25z" />
    <glyph glyph-name="f_f_i" unicode="ffi" horiz-adv-x="1515" 
d="M1012 1360q-109 0 -162 -59.5t-53 -186.5v-102h360q-3 -39 -10 -82h-350v-930h-99v930h-426v-930h-98v1108q0 338 320 338q81 0 161 -25q0 -36 -8 -86q-67 25 -145 25q-116 0 -173 -61t-57 -193v-94h426v102q0 332 303 332q80 0 164 -25q-3 -42 -10 -84q-71 23 -143 23z
M1290 1425q32 0 52 -19.5t20 -53.5q0 -32 -20 -53t-52 -21q-30 0 -49.5 20.5t-19.5 53.5t19.5 53t49.5 20zM1241 0v1012h98v-1012h-98z" />
    <glyph glyph-name="f_f_l" unicode="ffl" horiz-adv-x="1615" 
d="M1012 1360q-109 0 -162 -59.5t-53 -186.5v-102h360q-3 -39 -10 -82h-350v-930h-99v930h-426v-930h-98v1108q0 338 320 338q81 0 161 -25q0 -36 -8 -86q-67 25 -145 25q-116 0 -173 -61t-57 -193v-94h426v102q0 332 303 332q80 0 164 -25q-3 -42 -10 -84q-71 23 -143 23z
M1495 61q58 0 113 25q0 -28 -13 -86q-64 -23 -127 -23q-109 0 -168 62t-59 184v1194q47 17 98 17v-1203q0 -170 156 -170z" />
    <glyph glyph-name=".notdef" horiz-adv-x="1337" 
d="M193 0h952v1417h-952v-1417zM272 74v1269h793v-1269h-793z" />
    <glyph glyph-name=".null" horiz-adv-x="0" 
 />
    <glyph glyph-name="nonmarkingreturn" horiz-adv-x="682" 
 />
    <glyph glyph-name="NULL" horiz-adv-x="0" 
 />
    <glyph glyph-name="NULL" horiz-adv-x="0" 
 />
    <glyph glyph-name="CR" unicode="&#xd;" horiz-adv-x="425" 
 />
    <glyph glyph-name="space" unicode=" " horiz-adv-x="425" 
 />
    <glyph glyph-name="exclam" unicode="!" horiz-adv-x="622" 
d="M270 430l-8 987q47 15 103 15l-13 -1002h-82zM311 -14q-34 0 -58 24t-24 58q0 32 24 55.5t58 23.5q33 0 56.5 -23.5t23.5 -55.5q0 -34 -23 -58t-57 -24z" />
    <glyph glyph-name="quotedbl" unicode="&#x22;" horiz-adv-x="696" 
d="M188 1018l-10 399q39 17 86 17l-10 -416h-66zM444 1018l-12 399q42 17 88 17l-12 -416h-64z" />
    <glyph glyph-name="numbersign" unicode="#" 
d="M1085 901h-235l-80 -395h256q0 -36 -10 -78h-260l-86 -428h-80l84 428h-338l-86 -428h-80l84 428h-223q0 32 12 78h227l78 395h-246q0 32 11 78h249l87 432q31 16 86 16l-91 -448h338l86 432q31 16 86 16l-90 -448h232q0 -32 -11 -78zM690 506l78 395h-338l-80 -395h340z
" />
    <glyph glyph-name="dollar" unicode="$" horiz-adv-x="987" 
d="M891 346q0 -152 -94 -254t-265 -119v-227l-81 -2v227q-207 7 -342 97q0 48 12 88q69 -44 157.5 -69t172.5 -28v633l-15 6q-58 25 -103.5 51.5t-88 62.5t-71 76.5t-45.5 93.5t-17 114q0 151 92.5 241t247.5 105v209q30 12 79 12v-217q167 -3 312 -74q-2 -33 -17 -88
q-132 71 -295 74v-598l35 -15q164 -72 245 -166.5t81 -232.5zM209 1096q0 -56 17.5 -102t52.5 -81.5t75.5 -62t96.5 -53.5v557q-111 -15 -176.5 -82t-65.5 -176zM532 61q123 15 192 90.5t69 190.5q0 107 -60 179.5t-201 135.5v-596z" />
    <glyph glyph-name="percent" unicode="%" horiz-adv-x="1654" 
d="M406 688q-140 0 -214.5 100.5t-74.5 280.5t74.5 278.5t214.5 98.5q138 0 210 -98.5t72 -278.5q0 -181 -72 -281t-210 -100zM406 -10l737 1427q44 8 96 8l-739 -1425q-52 -10 -94 -10zM406 764q196 0 196 305t-196 305q-102 0 -151.5 -79.5t-49.5 -225.5q0 -305 201 -305z
M1255 -29q-140 0 -214 100.5t-74 280.5t74 278.5t214 98.5q138 0 210.5 -98.5t72.5 -278.5q0 -181 -72.5 -281t-210.5 -100zM1255 47q197 0 197 305t-197 305q-200 0 -200 -305t200 -305z" />
    <glyph glyph-name="ampersand" unicode="&#x26;" horiz-adv-x="1404" 
d="M1380 0h-129l-211 217q-175 -244 -487 -244q-190 0 -311 114.5t-121 307.5q0 147 86.5 261t249.5 173q-129 153 -129 297t96.5 232t280.5 88q160 0 305 -68q0 -52 -19 -90q-129 66 -278 66q-143 0 -214 -62.5t-71 -167.5q0 -78 39 -145.5t125 -157.5l432 -450
q89 183 117 465q35 10 92 10q-24 -330 -141 -547zM557 61q271 0 418 226l-457 473l-4 4q-132 -36 -214.5 -134.5t-82.5 -228.5q0 -156 93.5 -248t246.5 -92z" />
    <glyph glyph-name="quotesingle" unicode="'" horiz-adv-x="442" 
d="M188 1018l-10 399q39 17 86 17l-10 -416h-66z" />
    <glyph glyph-name="parenleft" unicode="(" horiz-adv-x="614" 
d="M467 -434q-132 231 -203 479.5t-71 568.5q0 593 274 1045q42 0 78 -25q-258 -456 -258 -1020q0 -305 68 -552.5t194 -477.5q-41 -18 -82 -18z" />
    <glyph glyph-name="parenright" unicode=")" horiz-adv-x="614" 
d="M147 -434q-41 0 -84 18q127 229 195 476.5t68 553.5q0 570 -258 1020q41 25 79 25q273 -450 273 -1045q0 -320 -70.5 -569t-202.5 -479z" />
    <glyph glyph-name="asterisk" unicode="*" horiz-adv-x="860" 
d="M770 1163l-305 -78l201 -239q-15 -15 -33 -27q-17 -14 -37 -22l-166 262l-166 -262q-14 6 -37 22q-15 10 -32 27l202 244l-305 75q0 13 8 41q9 25 19 41l291 -117l-21 312q24 4 41 4q23 0 43 -4l-20 -314l290 117q11 -19 17 -39q8 -34 10 -43z" />
    <glyph glyph-name="plus" unicode="+" 
d="M944 729q0 -39 -10 -84h-330v-336h-84v336h-338q0 35 11 84h327v338h84v-338h340z" />
    <glyph glyph-name="comma" unicode="," horiz-adv-x="475" 
d="M139 -303q35 195 49 446q52 21 107 21q-25 -303 -90 -467h-66z" />
    <glyph glyph-name="hyphen" unicode="-" horiz-adv-x="753" 
d="M94 563q0 41 10 86h553q0 -41 -10 -86h-553z" />
    <glyph glyph-name="period" unicode="." horiz-adv-x="475" 
d="M240 -16q-35 0 -60.5 25t-25.5 59t25.5 59t60.5 25q34 0 58 -25t24 -59t-24 -59t-58 -25z" />
    <glyph glyph-name="slash" unicode="/" horiz-adv-x="667" 
d="M20 -123l531 1665q55 10 96 10l-536 -1675h-91z" />
    <glyph glyph-name="zero" unicode="0" 
d="M557 -29q-231 0 -338.5 189t-107.5 549q0 363 106.5 550t339.5 187q235 0 342 -187t107 -550q0 -738 -449 -738zM557 63q95 0 162.5 42.5t108 127.5t59 201.5t18.5 274.5t-18.5 274.5t-58.5 201t-108 127t-163 42.5t-162.5 -42.5t-107.5 -127t-58 -201t-18 -274.5
q0 -321 80.5 -483.5t265.5 -162.5z" />
    <glyph glyph-name="one" unicode="1" 
d="M639 90h344q-4 -54 -12 -90h-789q4 47 13 90h344v1251q-198 -31 -404 -110q0 27 10 94q247 103 494 121v-1356z" />
    <glyph glyph-name="two" unicode="2" 
d="M225 92h721q0 -52 -12 -92h-809v39q0 53 13 104.5t32.5 93.5t54 87t65 78t78.5 75t82 68.5t87 66.5q143 106 212.5 207t69.5 232q0 148 -91.5 225.5t-266.5 77.5q-164 0 -318 -80q0 49 9 96q155 76 321 76q220 0 334.5 -103.5t114.5 -285.5q0 -106 -41 -198.5
t-110.5 -166t-180.5 -155.5q-57 -43 -89 -68t-79 -65t-74.5 -71.5t-56.5 -71.5t-44.5 -82t-21.5 -87z" />
    <glyph glyph-name="three" unicode="3" 
d="M655 748q336 -56 336 -355q0 -203 -141 -312.5t-408 -109.5q-140 0 -284 35q0 52 12 90q112 -33 266 -33q225 0 340 83t115 247q0 156 -109 229.5t-333 73.5h-148v90h141q176 0 287 78t111 219q0 120 -88.5 195.5t-264.5 75.5q-180 0 -325 -68q0 48 10 92q133 68 324 68
q215 0 328.5 -95.5t113.5 -252.5q0 -132 -82 -223.5t-201 -126.5z" />
    <glyph glyph-name="four" unicode="4" 
d="M1053 483q0 -49 -13 -90h-196v-393h-96v393h-668q0 34 4 88q114 236 292.5 486t368.5 448q48 10 99 10v-942h209zM184 483h564v811q-163 -182 -312.5 -394.5t-251.5 -416.5z" />
    <glyph glyph-name="five" unicode="5" 
d="M489 872q222 0 340.5 -109.5t118.5 -332.5q0 -224 -134 -341.5t-374 -117.5q-159 0 -286 37q0 49 12 90q107 -35 268 -35q195 0 304.5 90.5t109.5 272.5q0 358 -393 358q-133 0 -256 -36l59 669h657q-5 -71 -10 -92h-555l-45 -473q95 20 184 20z" />
    <glyph glyph-name="six" unicode="6" 
d="M596 883q188 0 294.5 -120.5t106.5 -324.5q0 -217 -112 -342t-303 -125q-461 0 -461 699q0 399 137 587.5t426 188.5q132 0 238 -41q0 -29 -11 -90q-98 39 -227 39q-240 0 -352 -159t-115 -511q130 199 379 199zM580 63q147 0 232 98.5t85 272.5q0 167 -84 263t-235 96
q-100 0 -193 -46t-168 -137q9 -284 98.5 -415.5t264.5 -131.5z" />
    <glyph glyph-name="seven" unicode="7" 
d="M115 1417h884q0 -28 -8 -74q-425 -670 -579 -1343h-105q152 654 567 1325h-772q4 50 13 92z" />
    <glyph glyph-name="eight" unicode="8" 
d="M682 741q158 -52 246 -153t88 -238q0 -178 -126 -278.5t-331 -100.5q-207 0 -330 98t-123 273q0 140 86 235t248 146q-139 53 -212.5 149t-73.5 226q0 158 108.5 253t304.5 95q192 0 299 -92.5t107 -249.5q0 -245 -291 -363zM252 1100q0 -118 79 -201.5t224 -120.5l18 -6
q301 112 301 328q0 120 -79.5 191t-229.5 71q-151 0 -232 -72t-81 -190zM563 57q160 0 257.5 76t97.5 213q0 115 -83 203t-241 127l-49 14q-178 -53 -259 -136.5t-81 -205.5q0 -142 98.5 -216.5t259.5 -74.5z" />
    <glyph glyph-name="nine" unicode="9" 
d="M545 1448q461 0 461 -698q0 -399 -137.5 -588t-426.5 -189q-131 0 -237 41q0 35 10 90q96 -38 227 -38q240 0 352 158.5t115 510.5q-129 -198 -379 -198q-188 0 -294.5 120.5t-106.5 323.5q0 217 112.5 342t303.5 125zM549 627q211 0 360 182q-9 284 -98 415.5
t-264 131.5q-147 0 -232.5 -98.5t-85.5 -272.5q0 -167 84.5 -262.5t235.5 -95.5z" />
    <glyph glyph-name="colon" unicode=":" horiz-adv-x="475" 
d="M240 809q-35 0 -60.5 24.5t-25.5 59.5q0 34 25.5 58t60.5 24q34 0 58 -24t24 -58q0 -35 -24 -59.5t-58 -24.5zM240 -16q-35 0 -60.5 25t-25.5 59t25.5 59t60.5 25q34 0 58 -25t24 -59t-24 -59t-58 -25z" />
    <glyph glyph-name="semicolon" unicode=";" horiz-adv-x="475" 
d="M240 809q-35 0 -60.5 24.5t-25.5 59.5q0 34 25.5 58t60.5 24q34 0 58 -24t24 -58q0 -35 -24 -59.5t-58 -24.5zM139 -303q35 195 49 446q52 21 107 21q-25 -303 -90 -467h-66z" />
    <glyph glyph-name="less" unicode="&#x3c;" 
d="M922 936l-625 -250l629 -250q0 -41 -13 -88l-729 303q0 37 6 74l736 303q0 -61 -4 -92z" />
    <glyph glyph-name="equal" unicode="=" 
d="M182 815q0 35 11 84h751q0 -39 -10 -84h-752zM182 475q0 35 11 84h751q0 -39 -10 -84h-752z" />
    <glyph glyph-name="greater" unicode="&#x3e;" 
d="M211 1028l731 -305q0 -22 -8 -72l-735 -303q0 44 6 90l624 250l-630 252q0 30 12 88z" />
    <glyph glyph-name="question" unicode="?" horiz-adv-x="944" 
d="M338 401q-4 46 -4 68q0 96 37.5 166.5t124.5 132.5q114 81 172.5 158.5t58.5 177.5q0 114 -76 183t-233 69q-186 0 -326 -90q0 44 10 92q138 88 328 88q193 0 295 -91.5t102 -248.5q0 -66 -20 -122t-60.5 -104t-82 -84t-105.5 -81q-79 -55 -111 -114.5t-32 -141.5
q0 -40 2 -58h-80zM389 -23q-34 0 -58 24t-24 58q0 32 24 56t58 24q33 0 56.5 -23.5t23.5 -56.5q0 -34 -23 -58t-57 -24z" />
    <glyph glyph-name="at" unicode="@" horiz-adv-x="1804" 
d="M893 1446q175 0 323.5 -59t249 -161.5t157 -243t56.5 -300.5q0 -241 -100.5 -390t-253.5 -149q-81 0 -131.5 47.5t-63.5 120.5q-90 -149 -251 -149q-158 0 -248 118t-90 332q0 210 95 325.5t294 115.5q147 0 276 -56v-632q0 -62 35 -106t94 -44q110 0 185 123t75 338
q0 203 -85.5 360t-246 245.5t-372.5 88.5q-202 0 -358 -93t-242 -264t-86 -395q0 -246 88.5 -425.5t247 -272t368.5 -92.5q209 0 371 78q0 -49 -8 -80q-166 -72 -365 -72q-175 0 -320.5 61t-247.5 171.5t-158 271.5t-56 356q0 244 96 433t271 294t401 105zM897 233
q140 0 231 127v592q-90 35 -202 35q-159 0 -233.5 -97.5t-74.5 -273.5q0 -182 72.5 -282.5t206.5 -100.5z" />
    <glyph glyph-name="A" unicode="A" horiz-adv-x="1130" 
d="M999 0l-129 389h-616l-129 -389h-98l477 1411q47 14 117 14l483 -1425h-105zM285 479h557l-279 838z" />
    <glyph glyph-name="B" unicode="B" horiz-adv-x="1169" 
d="M764 750q144 -33 223.5 -130t79.5 -229q0 -182 -121 -286.5t-350 -104.5h-403v1417q174 29 319 29q496 0 496 -367q0 -119 -66.5 -204t-177.5 -125zM907 1069q0 145 -95 217t-304 72q-99 0 -215 -17v-555h287q149 0 238 75t89 208zM588 88q183 0 281 80.5t98 224.5
q0 141 -98 222t-281 81h-295v-608h295z" />
    <glyph glyph-name="C" unicode="C" horiz-adv-x="1120" 
d="M713 -29q-192 0 -330.5 92.5t-208.5 258t-70 387.5q0 343 160 540t436 197q205 0 332 -76q0 -44 -14 -88q-126 72 -313 72q-230 0 -363 -168t-133 -477q0 -303 136.5 -474.5t373.5 -171.5q183 0 313 68q-3 -49 -14 -102q-144 -58 -305 -58z" />
    <glyph glyph-name="D" unicode="D" horiz-adv-x="1294" 
d="M508 1446q140 0 253.5 -35t193 -99t132.5 -154.5t78 -199t25 -235.5q0 -339 -174 -531t-502 -192h-321v1417q161 29 315 29zM516 90q278 0 424.5 165.5t146.5 469.5q0 193 -61.5 332.5t-193 219t-324.5 79.5q-84 0 -215 -15v-1251h223z" />
    <glyph glyph-name="E" unicode="E" horiz-adv-x="1054" 
d="M293 90h665q-4 -54 -12 -90h-753v1417h755q-4 -58 -12 -90h-643v-553h584q0 -48 -13 -92h-571v-592z" />
    <glyph glyph-name="F" unicode="F" horiz-adv-x="972" 
d="M903 1327h-610v-553h586q-4 -55 -15 -92h-571v-682h-100v1417h722q0 -36 -12 -90z" />
    <glyph glyph-name="G" unicode="G" horiz-adv-x="1277" 
d="M1016 741h102v-690q-177 -80 -375 -80q-160 0 -282.5 53t-200 151t-117 234t-39.5 306q0 350 169.5 540.5t476.5 190.5q211 0 354 -70q-5 -37 -19 -92q-143 70 -337 70q-256 0 -398.5 -165.5t-142.5 -471.5q0 -311 137 -482.5t401 -171.5q138 0 271 46v632z" />
    <glyph glyph-name="H" unicode="H" horiz-adv-x="1323" 
d="M1030 1411q50 16 98 16v-1427h-98v684h-737v-684h-100v1411q50 16 100 16v-651h737v635z" />
    <glyph glyph-name="I" unicode="I" horiz-adv-x="485" 
d="M193 0v1411q50 16 100 16v-1427h-100z" />
    <glyph glyph-name="J" unicode="J" horiz-adv-x="700" 
d="M141 -12q-74 0 -125 10q0 23 9 88q44 -10 106 -10q146 0 221.5 82.5t75.5 283.5v969q50 16 100 16v-995q0 -235 -99 -339.5t-288 -104.5z" />
    <glyph glyph-name="K" unicode="K" horiz-adv-x="1089" 
d="M193 0v1411q50 16 100 16v-1427h-100zM442 739l623 -739h-127l-608 731v14l590 672h116z" />
    <glyph glyph-name="L" unicode="L" horiz-adv-x="884" 
d="M193 0v1411q50 16 100 16v-1337h575q-5 -68 -10 -90h-665z" />
    <glyph glyph-name="M" unicode="M" horiz-adv-x="1738" 
d="M1483 1427l102 -1427h-98l-47 680q-2 40 -17 261.5t-20 342.5q-104 -291 -225 -604l-273 -680h-74l-301 758q-111 287 -194 532q-2 -48 -39 -631l-47 -659h-96l102 1411q53 16 123 16l491 -1288l488 1272q49 16 125 16z" />
    <glyph glyph-name="N" unicode="N" horiz-adv-x="1333" 
d="M1044 1411q54 16 97 16v-1427h-84l-608 987q-72 116 -164 289q2 -156 2 -490v-786h-94v1411q50 16 94 16l569 -919q104 -168 195 -340q0 26 -3.5 237t-3.5 324v682z" />
    <glyph glyph-name="O" unicode="O" horiz-adv-x="1376" 
d="M690 -29q-187 0 -320 92.5t-199.5 257.5t-66.5 388q0 341 154 539t430 198q187 0 319.5 -92t198.5 -257t66 -388q0 -344 -153 -541t-429 -197zM690 63q230 0 354.5 170t124.5 476q0 304 -125.5 474.5t-355.5 170.5t-355.5 -170.5t-125.5 -474.5q0 -303 126.5 -474.5
t356.5 -171.5z" />
    <glyph glyph-name="P" unicode="P" horiz-adv-x="1085" 
d="M510 1446q137 0 237.5 -34t158.5 -96t85 -140.5t27 -176.5q0 -215 -134.5 -331.5t-383.5 -116.5h-207v-551h-100v1417q161 29 317 29zM500 639q204 1 309.5 91.5t105.5 262.5q0 365 -403 365q-111 0 -219 -17v-704z" />
    <glyph glyph-name="Q" unicode="Q" horiz-adv-x="1376" 
d="M1274 -113q-49 -44 -76 -57l-205 223q-130 -82 -303 -82q-187 0 -320 92.5t-199.5 257.5t-66.5 388q0 341 154 539t430 198q187 0 319.5 -92t198.5 -257t66 -388q0 -402 -205 -598zM690 63q135 0 238 62l-189 203l72 61l190 -207q168 165 168 527q0 304 -125.5 474.5
t-355.5 170.5t-355.5 -170.5t-125.5 -474.5q0 -303 126.5 -474.5t356.5 -171.5z" />
    <glyph glyph-name="R" unicode="R" horiz-adv-x="1091" 
d="M920 0l-385 616h-244v-616h-98v1415q148 29 305 29q249 0 372 -110t123 -302q0 -75 -19 -137t-51.5 -106t-79 -77.5t-98 -53.5t-112.5 -31l403 -627h-116zM291 1341v-636h229q81 0 146.5 17.5t117 55t79.5 101t28 149.5q0 328 -393 328q-108 0 -207 -15z" />
    <glyph glyph-name="S" unicode="S" horiz-adv-x="1050" 
d="M492 -29q-231 0 -392 103q3 55 13 88q173 -103 381 -103q168 0 263 75.5t95 205.5q0 123 -69 196t-228 132l-98 37q-82 31 -141 64.5t-107 79.5t-72 107.5t-24 139.5q0 169 113 259.5t319 90.5q192 0 356 -76q-6 -50 -16 -86q-165 74 -336 74q-158 0 -245 -68t-87 -192
q0 -65 19 -114t60.5 -85t90.5 -61.5t125 -53.5l102 -36q168 -62 254 -154.5t86 -249.5q0 -169 -120 -271t-342 -102z" />
    <glyph glyph-name="T" unicode="T" horiz-adv-x="1040" 
d="M1024 1417q-4 -58 -12 -90h-445v-1327h-100v1327h-451q0 31 13 90h995z" />
    <glyph glyph-name="U" unicode="U" horiz-adv-x="1318" 
d="M657 -29q-225 0 -355 133t-130 351v956q54 16 100 16v-968q0 -185 102.5 -290.5t282.5 -105.5q184 0 287 105.5t103 292.5v950q50 16 98 16v-972q0 -218 -130.5 -351t-357.5 -133z" />
    <glyph glyph-name="V" unicode="V" horiz-adv-x="1124" 
d="M997 1417h101l-484 -1417h-106l-481 1417h106l432 -1308z" />
    <glyph glyph-name="W" unicode="W" horiz-adv-x="1886" 
d="M1737 1417h102l-422 -1417h-117l-356 1249l-358 -1249h-119l-420 1417h107l372 -1313l373 1313h92l373 -1308z" />
    <glyph glyph-name="X" unicode="X" horiz-adv-x="1087" 
d="M1061 0h-113l-405 651l-404 -651h-114l467 733l-429 684h115l369 -596l366 596h113l-428 -678z" />
    <glyph glyph-name="Y" unicode="Y" horiz-adv-x="1038" 
d="M1034 1417l-463 -891v-526h-100v526l-467 891h111l405 -801l408 801h106z" />
    <glyph glyph-name="Z" unicode="Z" horiz-adv-x="1089" 
d="M223 90h795q-4 -56 -12 -90h-912q0 36 6 74l766 1253h-784q4 54 12 90h901q0 -26 -10 -76z" />
    <glyph glyph-name="bracketleft" unicode="[" horiz-adv-x="624" 
d="M193 -434v2236h385q0 -9 -11 -78h-280v-2080h291q0 -4 -11 -78h-374z" />
    <glyph glyph-name="backslash" unicode="\" horiz-adv-x="641" 
d="M621 -123h-91l-516 1659q45 18 84 18z" />
    <glyph glyph-name="bracketright" unicode="]" horiz-adv-x="624" 
d="M432 1802v-2236h-385q3 40 12 78h281v2080h-293q3 38 12 78h373z" />
    <glyph glyph-name="asciicircum" unicode="^" 
d="M885 561h-92l-273 772l-276 -772h-90l311 848q41 14 106 14z" />
    <glyph glyph-name="underscore" unicode="_" horiz-adv-x="1077" 
d="M94 -291q4 54 10 72h879q0 -42 -10 -72h-879z" />
    <glyph glyph-name="grave" unicode="`" horiz-adv-x="430" 
d="M328 1192h-17q-64 44 -122 128.5t-87 176.5q71 0 121 -20z" />
    <glyph glyph-name="a" unicode="a" horiz-adv-x="1017" 
d="M494 1036q175 0 261.5 -80t86.5 -249v-707h-92l-7 154q-47 -79 -133.5 -129t-199.5 -50q-146 0 -231 78.5t-85 212.5q0 83 30.5 145t99.5 111.5t188 80.5t290 44l41 2v53q0 133 -64 191.5t-196 58.5q-183 0 -336 -86q0 25 9 86q145 84 338 84zM426 57q97 0 183.5 44
t133.5 112v360l-36 -2q-151 -12 -254 -38t-159 -66t-78.5 -86.5t-22.5 -108.5q0 -97 60.5 -156t172.5 -59z" />
    <glyph glyph-name="b" unicode="b" horiz-adv-x="1083" 
d="M571 1036q191 0 297.5 -134t106.5 -382q0 -265 -117.5 -405t-355.5 -140q-188 0 -326 66h-2v1376q47 17 98 17v-566q113 168 299 168zM500 59q191 0 284 118.5t93 340.5q0 210 -84.5 322t-245.5 112q-160 0 -275 -137v-715q106 -41 228 -41z" />
    <glyph glyph-name="c" unicode="c" horiz-adv-x="878" 
d="M553 -25q-214 0 -335.5 139t-121.5 392q0 257 121.5 393.5t337.5 136.5q126 0 233 -49q0 -24 -10 -82q-101 45 -217 45q-174 0 -269 -117t-95 -329q0 -206 95.5 -325.5t268.5 -119.5q135 0 230 62q-2 -27 -15 -88q-39 -27 -100 -42.5t-123 -15.5z" />
    <glyph glyph-name="d" unicode="d" horiz-adv-x="1081" 
d="M809 1417q44 17 98 17v-1434h-92l-6 141q-55 -82 -126 -124t-171 -42q-192 0 -299 134t-107 383q0 265 118 404.5t356 139.5q124 0 229 -30v411zM535 59q158 0 274 138v714q-106 41 -227 41q-375 0 -375 -458q0 -210 84 -322.5t244 -112.5z" />
    <glyph glyph-name="e" unicode="e" horiz-adv-x="1026" 
d="M915 586q0 -75 -6 -105h-712q7 -213 105.5 -317.5t270.5 -104.5q174 0 301 93q-5 -61 -16 -97q-125 -80 -289 -80q-227 0 -350 139.5t-123 397.5q0 152 44.5 267.5t142.5 186t241 70.5q191 0 291 -123.5t100 -326.5zM522 952q-150 0 -232 -104.5t-91 -284.5h618v25
q0 166 -74 265t-221 99z" />
    <glyph glyph-name="f" unicode="f" horiz-adv-x="661" 
d="M510 1360q-122 0 -180 -60.5t-58 -193.5v-94h379q-3 -39 -10 -82h-369v-930h-98v1108q0 338 330 338q86 0 166 -25q0 -36 -8 -86q-67 25 -152 25z" />
    <glyph glyph-name="g" unicode="g" horiz-adv-x="1081" 
d="M580 1036q181 0 327 -65v-989q0 -221 -118.5 -331t-325.5 -110q-143 0 -270 56q4 51 10 88q122 -58 258 -58q76 0 137.5 19t109.5 59t74.5 107.5t26.5 158.5v170q-55 -82 -126 -124t-171 -42q-192 0 -299 134t-107 383q0 265 118 404.5t356 139.5zM535 59q158 0 274 138
v714q-106 41 -227 41q-375 0 -375 -458q0 -210 84 -322.5t244 -112.5z" />
    <glyph glyph-name="h" unicode="h" horiz-adv-x="1095" 
d="M604 1036q161 0 244.5 -91.5t83.5 -264.5v-680h-98v653q0 299 -261 299q-168 0 -301 -151v-801h-98v1417q47 17 98 17v-584q127 186 332 186z" />
    <glyph glyph-name="i" unicode="i" horiz-adv-x="448" 
d="M223 1278q-30 0 -49.5 20.5t-19.5 53.5t19.5 53t49.5 20q33 0 52.5 -19.5t19.5 -53.5q0 -32 -20 -53t-52 -21zM174 0v1012h98v-1012h-98z" />
    <glyph glyph-name="j" unicode="j" horiz-adv-x="448" 
d="M221 1278q-30 0 -49.5 20.5t-19.5 53.5t19.5 53t49.5 20q33 0 52.5 -19.5t19.5 -53.5q0 -32 -20 -53t-52 -21zM33 -463q-50 0 -103 17q2 20 11 79q42 -10 79 -10q76 0 115 41.5t39 132.5v1215h98v-1209q0 -266 -239 -266z" />
    <glyph glyph-name="k" unicode="k" horiz-adv-x="950" 
d="M174 0v1417q47 17 98 17v-1434h-98zM422 537l504 -537h-121l-494 528v11l461 473h117z" />
    <glyph glyph-name="l" unicode="l" horiz-adv-x="548" 
d="M401 -23q-109 0 -168 62t-59 184v1194q47 17 98 17v-1203q0 -170 156 -170q57 0 115 25q-3 -41 -13 -86q-67 -23 -129 -23z" />
    <glyph glyph-name="m" unicode="m" horiz-adv-x="1744" 
d="M1247 1036q163 0 248.5 -91t85.5 -261v-684h-98v657q0 295 -269 295q-163 0 -296 -143q14 -55 14 -129v-680h-98v653q0 299 -261 299q-168 0 -301 -151v-801h-98v1012h92l6 -162q129 186 332 186q231 0 299 -184q70 94 149 139t195 45z" />
    <glyph glyph-name="n" unicode="n" horiz-adv-x="1095" 
d="M604 1036q161 0 244.5 -91.5t83.5 -264.5v-680h-98v653q0 299 -261 299q-168 0 -301 -151v-801h-98v1012h92l6 -162q129 186 332 186z" />
    <glyph glyph-name="o" unicode="o" horiz-adv-x="1069" 
d="M535 -25q-211 0 -325 141.5t-114 389.5q0 244 114.5 387t324.5 143t323 -143t113 -387q0 -249 -113 -390t-323 -141zM535 59q164 0 249.5 118t85.5 329q0 208 -85.5 327t-249.5 119q-165 0 -251.5 -119t-86.5 -327q0 -211 86.5 -329t251.5 -118z" />
    <glyph glyph-name="p" unicode="p" horiz-adv-x="1083" 
d="M571 1036q191 0 297.5 -134t106.5 -382q0 -265 -117.5 -405t-355.5 -140q-122 0 -230 31v-440h-98v1446h92l6 -144q113 168 299 168zM500 59q191 0 284 118.5t93 340.5q0 210 -84.5 322t-245.5 112q-160 0 -275 -137v-715q106 -41 228 -41z" />
    <glyph glyph-name="q" unicode="q" horiz-adv-x="1083" 
d="M580 1036q181 0 327 -65v-1405h-98v575q-55 -82 -126 -124t-171 -42q-192 0 -299 134t-107 383q0 265 118 404.5t356 139.5zM535 59q158 0 274 138v714q-106 41 -227 41q-375 0 -375 -458q0 -210 84 -322.5t244 -112.5z" />
    <glyph glyph-name="r" unicode="r" horiz-adv-x="710" 
d="M567 1032q69 0 127 -18q0 -46 -10 -88q-57 16 -127 16q-182 0 -285 -164v-778h-98v1012h94l4 -174q45 92 120.5 143t174.5 51z" />
    <glyph glyph-name="s" unicode="s" horiz-adv-x="880" 
d="M412 -25q-81 0 -166.5 21t-147.5 59q2 38 17 84q63 -40 144 -60t149 -20q128 0 200 49t72 140q0 84 -49.5 131t-165.5 82l-80 24q-131 38 -200.5 105.5t-69.5 183.5q0 127 90.5 194.5t247.5 67.5q162 0 295 -51q-3 -42 -15 -84q-122 51 -274 51q-115 0 -181.5 -44
t-66.5 -130q0 -82 54 -130.5t165 -82.5l80 -24q142 -44 206 -109.5t64 -175.5q0 -129 -98 -205t-270 -76z" />
    <glyph glyph-name="t" unicode="t" horiz-adv-x="671" 
d="M262 274q0 -115 49 -164t142 -49q86 0 159 37q-3 -49 -14 -88q-82 -35 -166 -35q-125 0 -196.5 70.5t-71.5 220.5v1028q47 17 98 17v-299h356q0 -37 -10 -82h-346v-656z" />
    <glyph glyph-name="u" unicode="u" horiz-adv-x="1097" 
d="M823 1012h99v-1012h-93l-6 162q-130 -187 -331 -187q-160 0 -244 92t-84 265v680h98v-654q0 -152 64.5 -225.5t195.5 -73.5q167 0 301 152v801z" />
    <glyph glyph-name="v" unicode="v" horiz-adv-x="931" 
d="M811 1012h102l-401 -1012h-94l-400 1012h105l342 -918z" />
    <glyph glyph-name="w" unicode="w" horiz-adv-x="1583" 
d="M1456 1012h98l-358 -1012h-94l-309 874l-314 -874h-90l-360 1012h104l305 -903l312 903h88l317 -908z" />
    <glyph glyph-name="x" unicode="x" horiz-adv-x="878" 
d="M854 0h-115l-303 432l-301 -432h-110l360 508l-348 504h113l288 -428l297 428h109l-352 -504z" />
    <glyph glyph-name="y" unicode="y" horiz-adv-x="933" 
d="M813 1012h100l-409 -1143q-63 -176 -137.5 -252t-192.5 -76q-43 0 -70 8q0 37 7 84q48 -6 53 -6q92 0 152.5 63.5t117.5 231.5l-416 1090h105l356 -971z" />
    <glyph glyph-name="z" unicode="z" horiz-adv-x="937" 
d="M219 86h639q-3 -46 -12 -86h-758q0 43 4 61l610 865h-604q3 40 13 86h725q0 -31 -7 -62z" />
    <glyph glyph-name="braceleft" unicode="{" horiz-adv-x="706" 
d="M373 -141q0 -115 39.5 -165t138.5 -50h117q0 -32 -11 -78h-106q-145 0 -207.5 74t-62.5 219v563q0 94 -39 149.5t-138 69.5v78q100 11 138.5 63.5t38.5 151.5v575q0 145 62.5 219t207.5 74h117q0 -32 -11 -78h-106q-98 0 -138 -51t-40 -164v-579q0 -215 -168 -250
q87 -19 127.5 -88t40.5 -170v-563z" />
    <glyph glyph-name="bar" unicode="|" horiz-adv-x="552" 
d="M233 -434v2062q54 14 86 14v-2076h-86z" />
    <glyph glyph-name="braceright" unicode="}" horiz-adv-x="706" 
d="M426 946q0 -95 38.5 -150t137.5 -69v-78q-100 -11 -138 -63.5t-38 -151.5v-575q0 -145 -62.5 -219t-207.5 -74h-117q0 36 10 78h107q98 0 138 51t40 164v579q0 215 168 250q-87 19 -127.5 88t-40.5 170v563q0 115 -39.5 165t-138.5 50h-117q0 36 10 78h107
q145 0 207.5 -74t62.5 -219v-563z" />
    <glyph glyph-name="asciitilde" unicode="~" 
d="M719 596q-45 0 -92 23t-79 50.5t-70.5 50.5t-69.5 23q-45 0 -72 -31.5t-49 -105.5q-33 3 -74 15q28 109 73 153.5t115 44.5q40 0 84 -23t76 -50.5t73.5 -50.5t78.5 -23q94 0 127 145q28 -2 73 -14q-26 -112 -78 -159.5t-116 -47.5z" />
    <glyph glyph-name="uni00A0" unicode="&#xa0;" horiz-adv-x="425" 
 />
    <glyph glyph-name="exclamdown" unicode="&#xa1;" horiz-adv-x="622" 
d="M309 1034q34 0 58 -24t24 -58q0 -32 -24 -56t-58 -24q-33 0 -56.5 23.5t-23.5 56.5q0 34 23 58t57 24zM350 592l8 -989q-62 -15 -100 -15l10 1004h82z" />
    <glyph glyph-name="cent" unicode="&#xa2;" horiz-adv-x="886" 
d="M799 313q-4 -49 -15 -88q-82 -57 -223 -57v-193h-82v199q-181 25 -281 160.5t-100 363.5q0 232 100 366.5t281 158.5v188q29 16 82 16v-198q129 0 236 -49q0 -27 -11 -82q-101 45 -221 45h-4v-893h6q135 0 232 63zM199 696q0 -179 73 -294t207 -144v877
q-135 -28 -207.5 -142t-72.5 -297z" />
    <glyph glyph-name="sterling" unicode="&#xa3;" horiz-adv-x="1062" 
d="M266 94h654q0 -50 -13 -94h-803v88q124 51 186 125t62 199q0 36 -6 88l-20 215h-244v80h235l-18 176q-6 93 -6 116q0 183 102.5 271t286.5 88q92 0 190 -25q0 -40 -8 -90q-95 25 -180 25q-291 0 -291 -275q0 -59 6 -106l19 -180h366q-3 -30 -10 -80h-348l20 -209
q7 -51 7 -84q0 -113 -45.5 -191.5t-141.5 -136.5z" />
    <glyph glyph-name="currency" unicode="&#xa4;" horiz-adv-x="1165" 
d="M961 721q0 -140 -78 -240l125 -123l-64 -63l-123 123q-104 -80 -237 -80q-134 0 -238 80l-125 -123l-61 63l123 123q-78 100 -78 240q0 133 76 235l-123 123l61 64l125 -123q106 82 240 82q136 0 237 -82l125 123l64 -64l-125 -123q76 -102 76 -235zM293 721
q0 -132 83.5 -213.5t207.5 -81.5q123 0 206.5 81.5t83.5 213.5q0 131 -83.5 213t-206.5 82q-124 0 -207.5 -82t-83.5 -213z" />
    <glyph glyph-name="yen" unicode="&#xa5;" horiz-adv-x="1071" 
d="M926 651h-340v-202h348q0 -21 -10 -78h-338v-371h-101v371h-344v78h344v202h-344v76h314l-410 690h113l381 -661l379 661h106l-408 -690h322q-6 -57 -12 -76z" />
    <glyph glyph-name="brokenbar" unicode="&#xa6;" horiz-adv-x="552" 
d="M233 731v897q54 14 86 14v-911h-86zM233 -434v829h86v-829h-86z" />
    <glyph glyph-name="section" unicode="&#xa7;" horiz-adv-x="1056" 
d="M735 457q108 -36 158.5 -91.5t50.5 -132.5q0 -262 -430 -262q-217 0 -391 80q0 47 16 90q192 -86 381 -86q324 0 324 178q0 76 -79.5 120.5t-272.5 80.5q-187 35 -289.5 105t-102.5 192q0 93 63 154t187 86q-106 36 -157.5 88t-51.5 141q0 126 108 186t300 60
q172 0 350 -53q0 -45 -14 -80q-158 51 -338 51q-307 0 -307 -164q0 -36 14.5 -63.5t38.5 -46.5t69.5 -36t92 -28.5t120.5 -26.5q66 -13 120 -29.5t105 -41.5t85.5 -55.5t55 -73.5t20.5 -94q0 -91 -58 -154t-168 -94zM197 739q0 -93 83.5 -148t256.5 -85q40 -6 69 -14
q258 29 258 202q0 89 -79.5 142t-233.5 84q-11 3 -35.5 8t-36.5 8q-141 -12 -211.5 -63.5t-70.5 -133.5z" />
    <glyph glyph-name="dieresis" unicode="&#xa8;" horiz-adv-x="665" 
d="M172 1282q-31 0 -50.5 20t-19.5 52q0 30 19.5 48.5t50.5 18.5q30 0 48 -18.5t18 -48.5q0 -32 -18.5 -52t-47.5 -20zM496 1282q-29 0 -48.5 19.5t-19.5 50.5q0 32 19 50.5t49 18.5q31 0 49 -18.5t18 -50.5q0 -31 -18.5 -50.5t-48.5 -19.5z" />
    <glyph glyph-name="copyright" unicode="&#xa9;" horiz-adv-x="1855" 
d="M926 -147q-170 0 -321.5 64t-261.5 175t-174.5 269t-64.5 337q0 178 64.5 335t174 268t261.5 175t322 64q171 0 323 -64t262.5 -175t175 -268t64.5 -335q0 -179 -64.5 -337t-175 -269t-262.5 -175t-323 -64zM926 -76q210 0 382.5 100.5t271.5 278t99 395.5
q0 216 -99 392.5t-271.5 277t-382.5 100.5q-209 0 -380.5 -100.5t-269.5 -277t-98 -392.5q0 -163 57.5 -307t157 -246.5t238 -161.5t295.5 -59zM946 252q-184 0 -299 122t-115 322t114 322.5t298 122.5q139 0 227 -49q0 -47 -12 -74q-85 51 -213 51q-149 0 -240.5 -101
t-91.5 -270q0 -170 93.5 -272t244.5 -102q123 0 211 43q0 -41 -10 -80q-100 -35 -207 -35z" />
    <glyph glyph-name="ordfeminine" unicode="&#xaa;" horiz-adv-x="905" 
d="M377 1438q274 0 274 -267v-563h-82l-6 129q-35 -67 -100 -108t-150 -41q-109 0 -173 62.5t-64 168.5q0 139 109.5 202t353.5 87l24 2v57q0 98 -44.5 147.5t-156.5 49.5q-125 0 -245 -70q0 47 8 78q109 66 252 66zM334 659q70 0 132 36.5t97 92.5v256l-22 -2
q-206 -19 -292.5 -66.5t-86.5 -150.5q0 -74 45.5 -120t126.5 -46z" />
    <glyph glyph-name="guillemotleft" unicode="&#xab;" horiz-adv-x="993" 
d="M410 102l-316 461l318 461q32 -8 75 -35l-290 -426l290 -426q-30 -21 -77 -35zM827 102l-315 461l317 461q34 -8 76 -35l-291 -426l291 -426q-29 -21 -78 -35z" />
    <glyph glyph-name="logicalnot" unicode="&#xac;" 
d="M193 731h751v-461h-84v377h-678q0 35 11 84z" />
    <glyph glyph-name="uni00AD" unicode="&#xad;" horiz-adv-x="753" 
d="M94 563q0 41 10 86h553q0 -41 -10 -86h-553z" />
    <glyph glyph-name="registered" unicode="&#xae;" horiz-adv-x="925" 
d="M463 1444q159 0 272 -109t113 -274q0 -167 -112.5 -277t-272.5 -110q-161 0 -273 109.5t-112 277.5q0 165 112 274t273 109zM463 721q139 0 236.5 96t97.5 244q0 147 -97.5 241.5t-236.5 94.5q-140 0 -238 -95t-98 -241q0 -148 98.5 -244t237.5 -96zM604 1155
q0 -47 -25 -80t-71 -45l125 -174h-58l-118 168h-62v-168h-49v416q44 8 100 8q75 0 116.5 -33t41.5 -92zM395 1235v-166h60q100 0 100 84t-109 84q-37 0 -51 -2z" />
    <glyph glyph-name="macron" unicode="&#xaf;" horiz-adv-x="649" 
d="M102 1313q0 24 13 78h432q0 -33 -10 -78h-435z" />
    <glyph glyph-name="degree" unicode="&#xb0;" horiz-adv-x="780" 
d="M391 868q-124 0 -204.5 77.5t-80.5 211.5q0 132 79.5 210.5t203.5 78.5q123 0 205 -80t82 -209q0 -134 -80.5 -211.5t-204.5 -77.5zM391 936q89 0 148 60.5t59 160.5q0 98 -60 159.5t-147 61.5q-89 0 -148 -60.5t-59 -160.5t59.5 -160.5t147.5 -60.5z" />
    <glyph glyph-name="plusminus" unicode="&#xb1;" 
d="M522 471v322h-342q0 39 10 84h332v331h82v-331h338q0 -39 -10 -84h-328v-322h-82zM180 268q0 39 10 84h752q0 -39 -10 -84h-752z" />
    <glyph glyph-name="two.sups" unicode="&#xb2;" horiz-adv-x="714" 
d="M174 1022h430q0 -38 -8 -66h-508v29q0 92 55.5 155.5t169.5 123.5q102 52 136 90.5t34 99.5q0 73 -51 112.5t-147 39.5q-102 0 -193 -39q0 21 8 75q93 35 201 35q131 0 200.5 -57t69.5 -156q0 -80 -40 -134.5t-146 -108.5q-102 -52 -153 -96.5t-58 -102.5z" />
    <glyph glyph-name="three.sups" unicode="&#xb3;" horiz-adv-x="731" 
d="M399 1325q207 -26 207 -178q0 -209 -340 -209q-92 0 -174 16q0 30 10 68q78 -16 164 -16q129 0 190.5 34.5t61.5 108.5q0 139 -244 139h-98q0 45 8 66h78q225 0 225 137q0 56 -47.5 86.5t-138.5 30.5q-121 0 -203 -33q0 37 8 70q77 32 201 32q127 0 196.5 -46.5
t69.5 -133.5q0 -136 -174 -172z" />
    <glyph glyph-name="acute" unicode="&#xb4;" horiz-adv-x="430" 
d="M102 1192l105 285q47 20 121 20q-29 -92 -87.5 -176.5t-123.5 -128.5h-15z" />
    <glyph glyph-name="uni00B5" unicode="&#xb5;" 
d="M840 1012h98v-1012h-92l-6 160q-63 -91 -143 -138t-189 -47q-148 0 -232 78q5 -195 5 -233v-254h-97v715q-2 16 -2 51v680h99v-654q0 -152 64 -225.5t196 -73.5q169 0 299 152v801z" />
    <glyph glyph-name="paragraph" unicode="&#xb6;" horiz-adv-x="1128" 
d="M547 -260v809h-70q-409 0 -409 432q0 231 108.5 333.5t315.5 102.5h442v-1677h-72v1603h-241v-1603h-74z" />
    <glyph glyph-name="periodcentered" unicode="&#xb7;" horiz-adv-x="581" 
d="M291 592q-35 0 -60.5 24.5t-25.5 59.5t25.5 60.5t60.5 25.5q34 0 59 -25.5t25 -60.5t-25 -59.5t-59 -24.5z" />
    <glyph glyph-name="cedilla" unicode="&#xb8;" horiz-adv-x="507" 
d="M240 -119q73 -15 119.5 -53t46.5 -96q0 -71 -48.5 -111.5t-138.5 -40.5q-59 0 -117 23q0 24 11 57q43 -18 102 -18q119 0 119 90q0 45 -47 72t-129 30l59 178l68 -2z" />
    <glyph glyph-name="one.sups" unicode="&#xb9;" horiz-adv-x="610" 
d="M84 1608q173 64 295 71v-723h-84v643q-96 -20 -219 -65q0 43 8 74z" />
    <glyph glyph-name="ordmasculine" unicode="&#xba;" horiz-adv-x="823" 
d="M412 588q-162 0 -248 113.5t-86 312.5q0 196 86.5 311t247.5 115q162 0 249 -114.5t87 -311.5q0 -198 -87 -312t-249 -114zM412 666q120 0 181.5 91.5t61.5 256.5q0 163 -61.5 256.5t-181.5 93.5q-119 0 -181.5 -93.5t-62.5 -256.5q0 -165 62 -256.5t182 -91.5z" />
    <glyph glyph-name="guillemotright" unicode="&#xbb;" horiz-adv-x="993" 
d="M164 102q-45 13 -76 35l291 426l-291 426q43 28 76 35l317 -461zM584 102q-49 14 -78 35l291 426l-291 426q42 27 76 35l317 -461z" />
    <glyph glyph-name="onequarter" unicode="&#xbc;" horiz-adv-x="1556" 
d="M295 713v643q-90 -18 -219 -66q0 43 8 74q176 65 295 72v-723h-84zM958 1417q41 8 97 8l-740 -1425q-52 -10 -94 -10zM1325 242q-4 -38 -12 -68h-121v-174h-76v174h-416q0 26 7 66q73 123 182 251.5t219 221.5q29 6 84 6v-477h133zM782 242h334v393q-207 -193 -334 -393z
" />
    <glyph glyph-name="onehalf" unicode="&#xbd;" horiz-adv-x="1585" 
d="M295 713v643q-90 -18 -219 -66q0 43 8 74q176 65 295 72v-723h-84zM973 1417q44 8 96 8l-739 -1425q-52 -10 -94 -10zM924 66h430q0 -38 -8 -66h-508v29q0 92 55.5 155t169.5 123q101 52 135.5 91t34.5 100q0 72 -51.5 111.5t-147.5 39.5q-101 0 -192 -39q0 40 8 76
q93 35 201 35q131 0 200.5 -57t69.5 -156q0 -81 -40 -135.5t-146 -108.5q-103 -53 -153.5 -97t-57.5 -101z" />
    <glyph glyph-name="threequarters" unicode="&#xbe;" horiz-adv-x="1564" 
d="M606 903q0 -209 -340 -209q-87 0 -174 17q0 29 10 67q78 -16 164 -16q129 0 190.5 34.5t61.5 108.5q0 139 -244 139h-98q0 45 8 66h78q225 0 225 137q0 56 -47.5 86.5t-138.5 30.5q-121 0 -203 -33q0 37 8 70q79 33 201 33q127 0 196.5 -47t69.5 -134q0 -136 -174 -172
q207 -26 207 -178zM1120 1417q44 8 97 8l-740 -1425q-52 -10 -94 -10zM1462 242q0 -32 -10 -68h-121v-174h-78v174h-413q0 32 6 66q72 123 181 251t218 222q31 6 86 6v-477h131zM922 242h331v391q-208 -197 -331 -391z" />
    <glyph glyph-name="questiondown" unicode="&#xbf;" horiz-adv-x="944" 
d="M555 1034q34 0 58 -24t24 -58q0 -32 -24 -56t-58 -24q-32 0 -56 24t-24 56q0 34 24 58t56 24zM606 612q4 -50 4 -69q0 -96 -37 -166.5t-122 -132.5q-115 -81 -173.5 -158t-58.5 -176q0 -115 75.5 -184.5t231.5 -69.5q183 0 326 92q0 -38 -8 -92q-141 -88 -330 -88
q-193 0 -295 91t-102 247q0 66 20 122.5t60 104.5t82.5 84.5t105.5 79.5q80 57 111.5 115.5t31.5 140.5v59h78z" />
    <glyph glyph-name="Agrave" unicode="&#xc0;" horiz-adv-x="1130" 
d="M676 1569q-68 29 -139 93.5t-117 131.5q24 8 69 8q38 0 62 -8l149 -225h-24zM999 0l-129 389h-616l-129 -389h-98l477 1411q47 14 117 14l483 -1425h-105zM285 479h557l-279 838z" />
    <glyph glyph-name="Aacute" unicode="&#xc1;" horiz-adv-x="1130" 
d="M754 1794q-46 -67 -117 -131.5t-139 -93.5h-25l150 225q24 8 61 8q46 0 70 -8zM999 0l-129 389h-616l-129 -389h-98l477 1411q47 14 117 14l483 -1425h-105zM285 479h557l-279 838z" />
    <glyph glyph-name="Acircumflex" unicode="&#xc2;" horiz-adv-x="1130" 
d="M565 1747q-108 -119 -223 -178h-39l201 233q24 8 61 8q33 0 60 -8l200 -233h-45q-105 55 -215 178zM999 0l-129 389h-616l-129 -389h-98l477 1411q47 14 117 14l483 -1425h-105zM285 479h557l-279 838z" />
    <glyph glyph-name="Atilde" unicode="&#xc3;" horiz-adv-x="1130" 
d="M385 1640v-81h-76v92q0 64 30 96.5t81 32.5q32 0 74.5 -24t76 -52t69 -52t56.5 -24q24 0 39 16.5t15 49.5v84h75v-95q0 -127 -116 -127q-39 0 -95.5 37t-106 74t-73.5 37q-25 0 -37 -14.5t-12 -49.5zM999 0l-129 389h-616l-129 -389h-98l477 1411q47 14 117 14l483 -1425
h-105zM285 479h557l-279 838z" />
    <glyph glyph-name="Adieresis" unicode="&#xc4;" horiz-adv-x="1130" 
d="M377 1612q-31 0 -50.5 19.5t-19.5 51.5q0 30 20 50t50 20q31 0 50 -19.5t19 -50.5q0 -32 -19 -51.5t-50 -19.5zM748 1612q-31 0 -51.5 19.5t-20.5 51.5q0 31 20.5 50.5t51.5 19.5q29 0 48 -19.5t19 -50.5q0 -32 -18.5 -51.5t-48.5 -19.5zM999 0l-129 389h-616l-129 -389
h-98l477 1411q47 14 117 14l483 -1425h-105zM285 479h557l-279 838z" />
    <glyph glyph-name="Aring" unicode="&#xc5;" horiz-adv-x="1130" 
d="M565 1536q-80 0 -132 50t-52 128q0 76 53 125t131 49q79 0 132 -50t53 -126q0 -75 -53 -125.5t-132 -50.5zM565 1829q-50 0 -85.5 -32.5t-35.5 -82.5q0 -54 33.5 -87.5t87.5 -33.5q53 0 87 33.5t34 85.5q0 51 -35 84t-86 33zM999 0l-129 389h-616l-129 -389h-98l477 1411
q47 14 117 14l483 -1425h-105zM285 479h557l-279 838z" />
    <glyph glyph-name="AE" unicode="&#xc6;" horiz-adv-x="1712" 
d="M950 90h666q0 -50 -12 -90h-752v397h-561q-111 -220 -189 -397h-106q160 351 367.5 729t412.5 688h830q0 -49 -13 -90h-643v-553h586q-4 -57 -12 -92h-574v-592zM338 487h514v840h-33q-227 -343 -481 -840z" />
    <glyph glyph-name="Ccedilla" unicode="&#xc7;" horiz-adv-x="1120" 
d="M209 709q0 -303 136.5 -474.5t373.5 -171.5q183 0 313 68q-3 -49 -14 -102q-141 -58 -301 -58l-31 -90q73 -15 119.5 -53t46.5 -96q0 -71 -48 -111.5t-138 -40.5q-60 0 -117 23q0 27 10 57q43 -18 103 -18q118 0 118 90q0 45 -47 72t-129 30l47 139q-260 23 -403.5 220.5
t-143.5 515.5q0 343 160 540t436 197q205 0 332 -76q0 -44 -14 -88q-126 72 -313 72q-230 0 -363 -168t-133 -477z" />
    <glyph glyph-name="Egrave" unicode="&#xc8;" horiz-adv-x="1054" 
d="M680 1569q-68 29 -139 93.5t-117 131.5q24 8 70 8q37 0 61 -8l150 -225h-25zM293 90h665q-4 -54 -12 -90h-753v1417h755q-4 -58 -12 -90h-643v-553h584q0 -48 -13 -92h-571v-592z" />
    <glyph glyph-name="Eacute" unicode="&#xc9;" horiz-adv-x="1054" 
d="M760 1794q-46 -67 -117 -131.5t-139 -93.5h-25l150 225q24 8 61 8q46 0 70 -8zM293 90h665q-4 -54 -12 -90h-753v1417h755q-4 -58 -12 -90h-643v-553h584q0 -48 -13 -92h-571v-592z" />
    <glyph glyph-name="Ecircumflex" unicode="&#xca;" horiz-adv-x="1054" 
d="M571 1747q-108 -119 -223 -178h-39l201 233q24 8 61 8q33 0 60 -8l200 -233h-45q-105 55 -215 178zM293 90h665q-4 -54 -12 -90h-753v1417h755q-4 -58 -12 -90h-643v-553h584q0 -48 -13 -92h-571v-592z" />
    <glyph glyph-name="Edieresis" unicode="&#xcb;" horiz-adv-x="1054" 
d="M383 1612q-31 0 -50.5 19.5t-19.5 51.5q0 30 20 50t50 20q31 0 50.5 -19.5t19.5 -50.5q0 -32 -19.5 -51.5t-50.5 -19.5zM754 1612q-31 0 -51.5 19.5t-20.5 51.5q0 31 20.5 50.5t51.5 19.5q29 0 48 -19.5t19 -50.5q0 -32 -18.5 -51.5t-48.5 -19.5zM293 90h665
q-4 -54 -12 -90h-753v1417h755q-4 -58 -12 -90h-643v-553h584q0 -48 -13 -92h-571v-592z" />
    <glyph glyph-name="Igrave" unicode="&#xcc;" horiz-adv-x="485" 
d="M377 1569h-25q-68 29 -139 93.5t-117 131.5q24 8 70 8q37 0 61 -8zM193 0v1411q50 16 100 16v-1427h-100z" />
    <glyph glyph-name="Iacute" unicode="&#xcd;" horiz-adv-x="485" 
d="M152 1569l149 225q24 8 61 8q46 0 70 -8q-46 -67 -117 -131.5t-139 -93.5h-24zM193 0v1411q50 16 100 16v-1427h-100z" />
    <glyph glyph-name="Icircumflex" unicode="&#xce;" horiz-adv-x="485" 
d="M27 1569l159 223q27 6 56 6q28 0 55 -6l160 -223h-35q-111 73 -180 164q-71 -93 -179 -164h-36zM193 0v1411q50 16 100 16v-1427h-100z" />
    <glyph glyph-name="Idieresis" unicode="&#xcf;" horiz-adv-x="485" 
d="M121 1612q-32 0 -51 20t-19 51t19 50.5t51 19.5q29 0 47 -19.5t18 -50.5t-18 -51t-47 -20zM367 1612q-29 0 -48.5 20t-19.5 51t19.5 50.5t48.5 19.5q31 0 50 -19.5t19 -50.5t-19 -51t-50 -20zM193 0v1411q50 16 100 16v-1427h-100z" />
    <glyph glyph-name="Eth" unicode="&#xd0;" horiz-adv-x="1294" 
d="M508 1446q140 0 253.5 -35t193 -99t132.5 -154.5t78 -199t25 -235.5q0 -339 -174 -531t-502 -192h-321v688h-164q0 44 12 78h152v651q161 29 315 29zM516 90q278 0 424.5 165.5t146.5 469.5q0 193 -61.5 332.5t-193 219t-324.5 79.5q-84 0 -215 -15v-575h360
q-4 -50 -14 -78h-346v-598h223z" />
    <glyph glyph-name="Ntilde" unicode="&#xd1;" horiz-adv-x="1333" 
d="M481 1640v-81h-75v92q0 64 29.5 96.5t80.5 32.5q32 0 74.5 -24t76.5 -52t69.5 -52t56.5 -24q23 0 38 16.5t15 49.5v84h76v-95q0 -127 -117 -127q-39 0 -95.5 37t-106 74t-73.5 37q-25 0 -37 -14.5t-12 -49.5zM1044 1411q54 16 97 16v-1427h-84l-608 987q-72 116 -164 289
q2 -156 2 -490v-786h-94v1411q50 16 94 16l569 -919q104 -168 195 -340q0 26 -3.5 237t-3.5 324v682z" />
    <glyph glyph-name="Ograve" unicode="&#xd2;" horiz-adv-x="1376" 
d="M821 1569h-24q-68 29 -139 93.5t-117 131.5q24 8 69 8q38 0 62 -8zM690 -29q-187 0 -320 92.5t-199.5 257.5t-66.5 388q0 341 154 539t430 198q187 0 319.5 -92t198.5 -257t66 -388q0 -344 -153 -541t-429 -197zM690 63q230 0 354.5 170t124.5 476q0 304 -125.5 474.5
t-355.5 170.5t-355.5 -170.5t-125.5 -474.5q0 -303 126.5 -474.5t356.5 -171.5z" />
    <glyph glyph-name="Oacute" unicode="&#xd3;" horiz-adv-x="1376" 
d="M596 1569l149 225q24 8 62 8q46 0 70 -8q-46 -67 -117 -131.5t-139 -93.5h-25zM690 -29q-187 0 -320 92.5t-199.5 257.5t-66.5 388q0 341 154 539t430 198q187 0 319.5 -92t198.5 -257t66 -388q0 -344 -153 -541t-429 -197zM690 63q230 0 354.5 170t124.5 476
q0 304 -125.5 474.5t-355.5 170.5t-355.5 -170.5t-125.5 -474.5q0 -303 126.5 -474.5t356.5 -171.5z" />
    <glyph glyph-name="Ocircumflex" unicode="&#xd4;" horiz-adv-x="1376" 
d="M426 1569l201 233q24 8 61 8q33 0 60 -8l200 -233h-45q-105 55 -215 178q-108 -119 -223 -178h-39zM690 -29q-187 0 -320 92.5t-199.5 257.5t-66.5 388q0 341 154 539t430 198q187 0 319.5 -92t198.5 -257t66 -388q0 -344 -153 -541t-429 -197zM690 63q230 0 354.5 170
t124.5 476q0 304 -125.5 474.5t-355.5 170.5t-355.5 -170.5t-125.5 -474.5q0 -303 126.5 -474.5t356.5 -171.5z" />
    <glyph glyph-name="Otilde" unicode="&#xd5;" horiz-adv-x="1376" 
d="M829 1556q-39 0 -95 37t-105.5 74t-73.5 37q-25 0 -37 -14.5t-12 -49.5v-81h-76v92q0 64 30 96.5t81 32.5q32 0 74.5 -24t76 -52t69 -52t56.5 -24q23 0 38 16.5t15 49.5v84h76v-95q0 -127 -117 -127zM690 -29q-187 0 -320 92.5t-199.5 257.5t-66.5 388q0 341 154 539
t430 198q187 0 319.5 -92t198.5 -257t66 -388q0 -344 -153 -541t-429 -197zM690 63q230 0 354.5 170t124.5 476q0 304 -125.5 474.5t-355.5 170.5t-355.5 -170.5t-125.5 -474.5q0 -303 126.5 -474.5t356.5 -171.5z" />
    <glyph glyph-name="Odieresis" unicode="&#xd6;" horiz-adv-x="1376" 
d="M500 1612q-31 0 -50.5 19.5t-19.5 51.5q0 30 20 50t50 20q31 0 50 -19.5t19 -50.5q0 -32 -19 -51.5t-50 -19.5zM870 1612q-31 0 -51 19.5t-20 51.5q0 31 20 50.5t51 19.5q29 0 48.5 -19.5t19.5 -50.5q0 -32 -19 -51.5t-49 -19.5zM690 -29q-187 0 -320 92.5t-199.5 257.5
t-66.5 388q0 341 154 539t430 198q187 0 319.5 -92t198.5 -257t66 -388q0 -344 -153 -541t-429 -197zM690 63q230 0 354.5 170t124.5 476q0 304 -125.5 474.5t-355.5 170.5t-355.5 -170.5t-125.5 -474.5q0 -303 126.5 -474.5t356.5 -171.5z" />
    <glyph glyph-name="multiply" unicode="&#xd7;" 
d="M895 965l-277 -277l277 -278l-55 -56l-277 279l-278 -279l-56 56l279 278l-279 277l56 55l278 -277l277 277z" />
    <glyph glyph-name="Oslash" unicode="&#xd8;" horiz-adv-x="1376" 
d="M1124 1241q148 -196 148 -532q0 -344 -153 -541t-429 -197q-236 0 -385 146l-155 -215q-29 37 -41 73l145 199q-150 197 -150 535q0 341 154 539t430 198q236 0 385 -146l156 213q27 -38 35 -79zM207 709q0 -286 108 -449l699 959q-123 135 -326 135
q-230 0 -355.5 -170.5t-125.5 -474.5zM690 63q230 0 354.5 170t124.5 476q0 280 -106 448l-698 -960q125 -134 325 -134z" />
    <glyph glyph-name="Ugrave" unicode="&#xd9;" horiz-adv-x="1318" 
d="M795 1569h-25q-68 29 -139 93.5t-117 131.5q24 8 70 8q37 0 61 -8zM657 -29q-225 0 -355 133t-130 351v956q54 16 100 16v-968q0 -185 102.5 -290.5t282.5 -105.5q184 0 287 105.5t103 292.5v950q50 16 98 16v-972q0 -218 -130.5 -351t-357.5 -133z" />
    <glyph glyph-name="Uacute" unicode="&#xda;" horiz-adv-x="1318" 
d="M567 1569l150 225q24 8 61 8q46 0 70 -8q-46 -67 -117 -131.5t-139 -93.5h-25zM657 -29q-225 0 -355 133t-130 351v956q54 16 100 16v-968q0 -185 102.5 -290.5t282.5 -105.5q184 0 287 105.5t103 292.5v950q50 16 98 16v-972q0 -218 -130.5 -351t-357.5 -133z" />
    <glyph glyph-name="Ucircumflex" unicode="&#xdb;" horiz-adv-x="1318" 
d="M397 1569l201 233q24 8 61 8q33 0 60 -8l201 -233h-46q-105 55 -215 178q-108 -119 -223 -178h-39zM657 -29q-225 0 -355 133t-130 351v956q54 16 100 16v-968q0 -185 102.5 -290.5t282.5 -105.5q184 0 287 105.5t103 292.5v950q50 16 98 16v-972q0 -218 -130.5 -351
t-357.5 -133z" />
    <glyph glyph-name="Udieresis" unicode="&#xdc;" horiz-adv-x="1318" 
d="M471 1612q-31 0 -50.5 19.5t-19.5 51.5q0 30 20 50t50 20q31 0 50.5 -19.5t19.5 -50.5q0 -32 -19.5 -51.5t-50.5 -19.5zM842 1612q-31 0 -51.5 19.5t-20.5 51.5q0 31 20.5 50.5t51.5 19.5q29 0 48 -19.5t19 -50.5q0 -32 -18.5 -51.5t-48.5 -19.5zM657 -29
q-225 0 -355 133t-130 351v956q54 16 100 16v-968q0 -185 102.5 -290.5t282.5 -105.5q184 0 287 105.5t103 292.5v950q50 16 98 16v-972q0 -218 -130.5 -351t-357.5 -133z" />
    <glyph glyph-name="Yacute" unicode="&#xdd;" horiz-adv-x="1038" 
d="M709 1794q-46 -67 -117 -131.5t-139 -93.5h-25l150 225q24 8 61 8q46 0 70 -8zM1034 1417l-463 -891v-526h-100v526l-467 891h111l405 -801l408 801h106z" />
    <glyph glyph-name="Thorn" unicode="&#xde;" horiz-adv-x="1085" 
d="M510 1184q133 0 232.5 -33t159 -93t88 -138.5t28.5 -174.5q0 -216 -135 -335t-383 -119h-207v-291h-100v1411q50 16 100 16v-256q124 13 217 13zM500 379q203 0 309 93.5t106 266.5q0 357 -409 357q-116 0 -213 -15v-704z" />
    <glyph glyph-name="germandbls" unicode="&#xdf;" horiz-adv-x="1122" 
d="M727 762q140 -30 218.5 -129t78.5 -256q0 -191 -114.5 -294t-299.5 -103q-100 0 -176 28q0 38 8 88q73 -28 156 -28q147 0 236.5 78.5t89.5 232.5q0 163 -96 246.5t-277 83.5h-57v82h53q139 0 220 78.5t81 205.5q0 132 -73.5 207.5t-215.5 75.5q-136 0 -210.5 -83
t-74.5 -239v-1036h-100v1044q0 187 101 294.5t286 107.5q184 0 284.5 -98t100.5 -265q0 -116 -60 -204t-159 -117z" />
    <glyph glyph-name="agrave" unicode="&#xe0;" horiz-adv-x="1017" 
d="M553 1192q-64 44 -122 128.5t-87 176.5q71 0 121 -20l104 -285h-16zM494 1036q175 0 261.5 -80t86.5 -249v-707h-92l-7 154q-47 -79 -133.5 -129t-199.5 -50q-146 0 -231 78.5t-85 212.5q0 83 30.5 145t99.5 111.5t188 80.5t290 44l41 2v53q0 133 -64 191.5t-196 58.5
q-183 0 -336 -86q0 25 9 86q145 84 338 84zM426 57q97 0 183.5 44t133.5 112v360l-36 -2q-151 -12 -254 -38t-159 -66t-78.5 -86.5t-22.5 -108.5q0 -97 60.5 -156t172.5 -59z" />
    <glyph glyph-name="aacute" unicode="&#xe1;" horiz-adv-x="1017" 
d="M647 1497q-29 -92 -87.5 -176.5t-123.5 -128.5h-14l104 285q47 20 121 20zM494 1036q175 0 261.5 -80t86.5 -249v-707h-92l-7 154q-47 -79 -133.5 -129t-199.5 -50q-146 0 -231 78.5t-85 212.5q0 83 30.5 145t99.5 111.5t188 80.5t290 44l41 2v53q0 133 -64 191.5
t-196 58.5q-183 0 -336 -86q0 25 9 86q145 84 338 84zM426 57q97 0 183.5 44t133.5 112v360l-36 -2q-151 -12 -254 -38t-159 -66t-78.5 -86.5t-22.5 -108.5q0 -97 60.5 -156t172.5 -59z" />
    <glyph glyph-name="acircumflex" unicode="&#xe2;" horiz-adv-x="1017" 
d="M492 1419q-85 -114 -189 -221h-51l188 287q16 4 54 4q35 0 49 -4l190 -287h-57q-91 91 -184 221zM494 1036q175 0 261.5 -80t86.5 -249v-707h-92l-7 154q-47 -79 -133.5 -129t-199.5 -50q-146 0 -231 78.5t-85 212.5q0 83 30.5 145t99.5 111.5t188 80.5t290 44l41 2v53
q0 133 -64 191.5t-196 58.5q-183 0 -336 -86q0 25 9 86q145 84 338 84zM426 57q97 0 183.5 44t133.5 112v360l-36 -2q-151 -12 -254 -38t-159 -66t-78.5 -86.5t-22.5 -108.5q0 -97 60.5 -156t172.5 -59z" />
    <glyph glyph-name="atilde" unicode="&#xe3;" horiz-adv-x="1017" 
d="M346 1315v-80h-61v96q0 115 94 115q30 0 64.5 -23.5t61 -51.5t55.5 -51.5t48 -23.5q47 0 47 66v80h60v-96q0 -58 -26.5 -86.5t-72.5 -28.5q-37 0 -82 37.5t-84.5 74.5t-62.5 37q-22 0 -31.5 -14.5t-9.5 -50.5zM494 1036q175 0 261.5 -80t86.5 -249v-707h-92l-7 154
q-47 -79 -133.5 -129t-199.5 -50q-146 0 -231 78.5t-85 212.5q0 83 30.5 145t99.5 111.5t188 80.5t290 44l41 2v53q0 133 -64 191.5t-196 58.5q-183 0 -336 -86q0 25 9 86q145 84 338 84zM426 57q97 0 183.5 44t133.5 112v360l-36 -2q-151 -12 -254 -38t-159 -66
t-78.5 -86.5t-22.5 -108.5q0 -97 60.5 -156t172.5 -59z" />
    <glyph glyph-name="adieresis" unicode="&#xe4;" horiz-adv-x="1017" 
d="M330 1282q-31 0 -50.5 20t-19.5 52q0 30 19.5 48.5t50.5 18.5q29 0 47 -18t18 -49q0 -32 -18 -52t-47 -20zM653 1282q-29 0 -48 19.5t-19 50.5q0 32 18.5 50.5t48.5 18.5q31 0 49.5 -18.5t18.5 -50.5q0 -31 -18.5 -50.5t-49.5 -19.5zM494 1036q175 0 261.5 -80t86.5 -249
v-707h-92l-7 154q-47 -79 -133.5 -129t-199.5 -50q-146 0 -231 78.5t-85 212.5q0 83 30.5 145t99.5 111.5t188 80.5t290 44l41 2v53q0 133 -64 191.5t-196 58.5q-183 0 -336 -86q0 25 9 86q145 84 338 84zM426 57q97 0 183.5 44t133.5 112v360l-36 -2q-151 -12 -254 -38
t-159 -66t-78.5 -86.5t-22.5 -108.5q0 -97 60.5 -156t172.5 -59z" />
    <glyph glyph-name="aring" unicode="&#xe5;" horiz-adv-x="1017" 
d="M492 1180q-78 0 -130.5 51.5t-52.5 128.5q0 79 52 129.5t131 50.5t130.5 -51.5t51.5 -128.5q0 -78 -50.5 -129t-131.5 -51zM492 1479q-52 0 -84.5 -33.5t-32.5 -85.5q0 -51 33 -86t84 -35q55 0 85.5 34.5t30.5 86.5q0 48 -32 83.5t-84 35.5zM494 1036q175 0 261.5 -80
t86.5 -249v-707h-92l-7 154q-47 -79 -133.5 -129t-199.5 -50q-146 0 -231 78.5t-85 212.5q0 83 30.5 145t99.5 111.5t188 80.5t290 44l41 2v53q0 133 -64 191.5t-196 58.5q-183 0 -336 -86q0 25 9 86q145 84 338 84zM426 57q97 0 183.5 44t133.5 112v360l-36 -2
q-151 -12 -254 -38t-159 -66t-78.5 -86.5t-22.5 -108.5q0 -97 60.5 -156t172.5 -59z" />
    <glyph glyph-name="ae" unicode="&#xe6;" horiz-adv-x="1648" 
d="M1538 612q0 -70 -6 -100h-713q0 -228 99.5 -340.5t277.5 -112.5q174 0 301 93q-5 -61 -16 -97q-125 -80 -289 -80q-263 0 -385 185q-60 -83 -160.5 -134t-232.5 -51q-147 0 -233.5 70t-86.5 195q0 79 29.5 139t95 106.5t178.5 73.5t273 33l53 2v4q1 13 3 27.5t5 31.5
t4 27q4 36 4 55q0 116 -69.5 165.5t-202.5 49.5q-166 0 -322 -88q2 26 11 86q142 84 329 84q265 0 328 -166q117 166 332 166q127 0 217.5 -56.5t133 -151t42.5 -216.5zM1141 952q-140 0 -222 -95.5t-96 -264.5h617v22q0 149 -76.5 243.5t-222.5 94.5zM426 57
q113 0 201.5 46.5t144.5 119.5q-53 121 -53 289v4l-47 -2q-111 -4 -194.5 -19t-137 -38.5t-87 -57.5t-47 -71.5t-13.5 -85.5q0 -87 62.5 -136t170.5 -49z" />
    <glyph glyph-name="ccedilla" unicode="&#xe7;" horiz-adv-x="878" 
d="M553 -25l-33 -94q73 -15 119.5 -53t46.5 -96q0 -71 -48 -111.5t-138 -40.5q-60 0 -117 23q0 27 10 57q43 -18 103 -18q118 0 118 90q0 45 -47 72t-129 30l49 146q-185 22 -288 158t-103 368q0 257 121.5 393.5t337.5 136.5q126 0 233 -49q0 -24 -10 -82q-101 45 -217 45
q-174 0 -269 -117t-95 -329q0 -206 95.5 -325.5t268.5 -119.5q135 0 230 62q-2 -27 -15 -88q-39 -27 -100 -42.5t-123 -15.5z" />
    <glyph glyph-name="egrave" unicode="&#xe8;" horiz-adv-x="1026" 
d="M584 1192q-64 44 -122 128.5t-87 176.5q71 0 121 -20l104 -285h-16zM915 586q0 -75 -6 -105h-712q7 -213 105.5 -317.5t270.5 -104.5q174 0 301 93q-5 -61 -16 -97q-125 -80 -289 -80q-227 0 -350 139.5t-123 397.5q0 152 44.5 267.5t142.5 186t241 70.5
q191 0 291 -123.5t100 -326.5zM522 952q-150 0 -232 -104.5t-91 -284.5h618v25q0 166 -74 265t-221 99z" />
    <glyph glyph-name="eacute" unicode="&#xe9;" horiz-adv-x="1026" 
d="M676 1497q-29 -92 -87.5 -176.5t-123.5 -128.5h-14l104 285q47 20 121 20zM915 586q0 -75 -6 -105h-712q7 -213 105.5 -317.5t270.5 -104.5q174 0 301 93q-5 -61 -16 -97q-125 -80 -289 -80q-227 0 -350 139.5t-123 397.5q0 152 44.5 267.5t142.5 186t241 70.5
q191 0 291 -123.5t100 -326.5zM522 952q-150 0 -232 -104.5t-91 -284.5h618v25q0 166 -74 265t-221 99z" />
    <glyph glyph-name="ecircumflex" unicode="&#xea;" horiz-adv-x="1026" 
d="M520 1419q-89 -119 -188 -221h-51l188 287q16 4 53 4q35 0 49 -4l191 -287h-57q-94 94 -185 221zM915 586q0 -75 -6 -105h-712q7 -213 105.5 -317.5t270.5 -104.5q174 0 301 93q-5 -61 -16 -97q-125 -80 -289 -80q-227 0 -350 139.5t-123 397.5q0 152 44.5 267.5
t142.5 186t241 70.5q191 0 291 -123.5t100 -326.5zM522 952q-150 0 -232 -104.5t-91 -284.5h618v25q0 166 -74 265t-221 99z" />
    <glyph glyph-name="edieresis" unicode="&#xeb;" horiz-adv-x="1026" 
d="M358 1282q-31 0 -50 20t-19 52q0 31 19 49t50 18q30 0 48 -18.5t18 -48.5q0 -32 -18.5 -52t-47.5 -20zM682 1282q-29 0 -48.5 19.5t-19.5 50.5q0 32 19 50.5t49 18.5q31 0 49.5 -18.5t18.5 -50.5q0 -31 -18.5 -50.5t-49.5 -19.5zM915 586q0 -75 -6 -105h-712
q7 -213 105.5 -317.5t270.5 -104.5q174 0 301 93q-5 -61 -16 -97q-125 -80 -289 -80q-227 0 -350 139.5t-123 397.5q0 152 44.5 267.5t142.5 186t241 70.5q191 0 291 -123.5t100 -326.5zM522 952q-150 0 -232 -104.5t-91 -284.5h618v25q0 166 -74 265t-221 99z" />
    <glyph glyph-name="igrave" unicode="&#xec;" horiz-adv-x="448" 
d="M301 1192h-16q-64 44 -122 128.5t-87 176.5q71 0 121 -20zM174 0v1012h98v-1012h-98z" />
    <glyph glyph-name="iacute" unicode="&#xed;" horiz-adv-x="448" 
d="M154 1192l104 285q47 20 121 20q-29 -92 -87.5 -176.5t-123.5 -128.5h-14zM174 0v1012h98v-1012h-98z" />
    <glyph glyph-name="icircumflex" unicode="&#xee;" horiz-adv-x="448" 
d="M268 1479l148 -285h-35q-25 19 -57.5 60.5t-49.5 68.5t-53 84q-3 -5 -22.5 -36t-24 -38t-20.5 -31.5t-23.5 -34t-21 -26t-25 -27.5t-23.5 -20h-30l145 283q18 6 45 6q19 0 47 -4zM174 0v1012h98v-1012h-98z" />
    <glyph glyph-name="idieresis" unicode="&#xef;" horiz-adv-x="448" 
d="M90 1282q-30 0 -48.5 19.5t-18.5 50.5t18 50t49 19q29 0 47.5 -19t18.5 -50t-18.5 -50.5t-47.5 -19.5zM358 1282q-29 0 -48 19.5t-19 50.5t19 50t48 19t47.5 -19t18.5 -50t-18.5 -50.5t-47.5 -19.5zM174 0v1012h98v-1012h-98z" />
    <glyph glyph-name="eth" unicode="&#xf0;" horiz-adv-x="1056" 
d="M690 1245q119 -121 184.5 -290.5t65.5 -379.5q0 -600 -420 -600q-194 0 -302.5 128t-108.5 362q0 239 105 369.5t304 130.5q177 0 291 -109q-57 203 -195 338l-243 -164q0 50 8 86l182 123q-113 91 -264 137q19 43 53 70q161 -47 289 -154l229 156q0 -38 -10 -90zM524 59
q166 0 244 129t78 394q0 94 -17 194q-136 105 -292 105q-330 0 -330 -414q0 -196 82.5 -302t234.5 -106z" />
    <glyph glyph-name="ntilde" unicode="&#xf1;" horiz-adv-x="1095" 
d="M395 1315v-80h-61v96q0 115 94 115q30 0 64.5 -23.5t61 -51.5t55.5 -51.5t48 -23.5q48 0 48 66v80h59v-96q0 -58 -26 -86.5t-72 -28.5q-29 0 -64 23.5t-62 51t-56 51t-48 23.5q-22 0 -31.5 -14.5t-9.5 -50.5zM604 1036q161 0 244.5 -91.5t83.5 -264.5v-680h-98v653
q0 299 -261 299q-168 0 -301 -151v-801h-98v1012h92l6 -162q129 186 332 186z" />
    <glyph glyph-name="ograve" unicode="&#xf2;" horiz-adv-x="1069" 
d="M610 1192h-16q-64 44 -122 128.5t-87 176.5q71 0 121 -20zM535 -25q-211 0 -325 141.5t-114 389.5q0 244 114.5 387t324.5 143t323 -143t113 -387q0 -249 -113 -390t-323 -141zM535 59q164 0 249.5 118t85.5 329q0 208 -85.5 327t-249.5 119q-165 0 -251.5 -119
t-86.5 -327q0 -211 86.5 -329t251.5 -118z" />
    <glyph glyph-name="oacute" unicode="&#xf3;" horiz-adv-x="1069" 
d="M463 1192l104 285q47 20 121 20q-29 -92 -87.5 -176.5t-123.5 -128.5h-14zM535 -25q-211 0 -325 141.5t-114 389.5q0 244 114.5 387t324.5 143t323 -143t113 -387q0 -249 -113 -390t-323 -141zM535 59q164 0 249.5 118t85.5 329q0 208 -85.5 327t-249.5 119
q-165 0 -251.5 -119t-86.5 -327q0 -211 86.5 -329t251.5 -118z" />
    <glyph glyph-name="ocircumflex" unicode="&#xf4;" horiz-adv-x="1069" 
d="M532 1419q-89 -119 -188 -221h-51l188 287q16 4 54 4q35 0 49 -4l190 -287h-57q-94 94 -185 221zM535 1036q210 0 323 -143t113 -387q0 -249 -113 -390t-323 -141q-211 0 -325 141.5t-114 389.5q0 244 114.5 387t324.5 143zM535 59q164 0 249.5 118t85.5 329
q0 208 -85.5 327t-249.5 119q-165 0 -251.5 -119t-86.5 -327q0 -211 86.5 -329t251.5 -118z" />
    <glyph glyph-name="otilde" unicode="&#xf5;" horiz-adv-x="1069" 
d="M657 1231q-37 0 -82 37.5t-84.5 74.5t-62.5 37q-22 0 -31.5 -14.5t-9.5 -50.5v-80h-61v96q0 115 94 115q30 0 64.5 -23.5t61 -51.5t55.5 -51.5t48 -23.5q47 0 47 66v80h60v-96q0 -58 -26.5 -86.5t-72.5 -28.5zM535 -25q-211 0 -325 141.5t-114 389.5q0 244 114.5 387
t324.5 143t323 -143t113 -387q0 -249 -113 -390t-323 -141zM535 59q164 0 249.5 118t85.5 329q0 208 -85.5 327t-249.5 119q-165 0 -251.5 -119t-86.5 -327q0 -211 86.5 -329t251.5 -118z" />
    <glyph glyph-name="odieresis" unicode="&#xf6;" horiz-adv-x="1069" 
d="M371 1282q-31 0 -50.5 20t-19.5 52q0 30 19.5 48.5t50.5 18.5q29 0 47 -18t18 -49q0 -32 -18 -52t-47 -20zM694 1282q-29 0 -48 19.5t-19 50.5q0 32 18.5 50.5t48.5 18.5q31 0 49.5 -18.5t18.5 -50.5q0 -31 -18.5 -50.5t-49.5 -19.5zM535 -25q-211 0 -325 141.5
t-114 389.5q0 244 114.5 387t324.5 143t323 -143t113 -387q0 -249 -113 -390t-323 -141zM535 59q164 0 249.5 118t85.5 329q0 208 -85.5 327t-249.5 119q-165 0 -251.5 -119t-86.5 -327q0 -211 86.5 -329t251.5 -118z" />
    <glyph glyph-name="divide" unicode="&#xf7;" 
d="M561 905q-32 0 -54 22.5t-22 53.5t22 53.5t54 22.5q31 0 53.5 -22.5t22.5 -53.5t-22.5 -53.5t-53.5 -22.5zM182 645q0 35 11 84h751q0 -39 -10 -84h-752zM561 324q-32 0 -54 22t-22 53t22 53.5t54 22.5q31 0 53.5 -22.5t22.5 -53.5t-22.5 -53t-53.5 -22z" />
    <glyph glyph-name="oslash" unicode="&#xf8;" horiz-adv-x="1073" 
d="M850 905q125 -140 125 -399q0 -249 -114.5 -390t-325.5 -141q-158 0 -267 86l-112 -163q-31 35 -43 71l100 146q-117 142 -117 391q0 244 114.5 387t324.5 143q150 0 260 -80l108 160q31 -46 39 -78zM197 506q0 -193 73 -309l471 686q-81 69 -206 69q-164 0 -251 -119.5
t-87 -326.5zM535 59q166 0 252.5 118t86.5 329q0 201 -79 317l-476 -686q84 -78 216 -78z" />
    <glyph glyph-name="ugrave" unicode="&#xf9;" horiz-adv-x="1097" 
d="M602 1192q-64 44 -122 128.5t-87 176.5q71 0 121 -20l104 -285h-16zM823 1012h99v-1012h-93l-6 162q-130 -187 -331 -187q-160 0 -244 92t-84 265v680h98v-654q0 -152 64.5 -225.5t195.5 -73.5q167 0 301 152v801z" />
    <glyph glyph-name="uacute" unicode="&#xfa;" horiz-adv-x="1097" 
d="M694 1497q-29 -92 -87.5 -176.5t-123.5 -128.5h-14l104 285q47 20 121 20zM823 1012h99v-1012h-93l-6 162q-130 -187 -331 -187q-160 0 -244 92t-84 265v680h98v-654q0 -152 64.5 -225.5t195.5 -73.5q167 0 301 152v801z" />
    <glyph glyph-name="ucircumflex" unicode="&#xfb;" horiz-adv-x="1097" 
d="M539 1419q-85 -114 -189 -221h-51l188 287q16 4 54 4q35 0 49 -4l190 -287h-57q-91 91 -184 221zM823 1012h99v-1012h-93l-6 162q-130 -187 -331 -187q-160 0 -244 92t-84 265v680h98v-654q0 -152 64.5 -225.5t195.5 -73.5q167 0 301 152v801z" />
    <glyph glyph-name="udieresis" unicode="&#xfc;" horiz-adv-x="1097" 
d="M379 1282q-31 0 -50.5 20t-19.5 52q0 30 19.5 48.5t50.5 18.5q29 0 47 -18t18 -49q0 -32 -18 -52t-47 -20zM702 1282q-29 0 -48 19.5t-19 50.5q0 32 18.5 50.5t48.5 18.5q31 0 49.5 -18.5t18.5 -50.5q0 -31 -18.5 -50.5t-49.5 -19.5zM823 1012h99v-1012h-93l-6 162
q-130 -187 -331 -187q-160 0 -244 92t-84 265v680h98v-654q0 -152 64.5 -225.5t195.5 -73.5q167 0 301 152v801z" />
    <glyph glyph-name="yacute" unicode="&#xfd;" horiz-adv-x="933" 
d="M621 1497q-29 -92 -87.5 -176.5t-123.5 -128.5h-15l105 285q47 20 121 20zM813 1012h100l-409 -1143q-63 -176 -137.5 -252t-192.5 -76q-43 0 -70 8q0 37 7 84q48 -6 53 -6q92 0 152.5 63.5t117.5 231.5l-416 1090h105l356 -971z" />
    <glyph glyph-name="thorn" unicode="&#xfe;" horiz-adv-x="1083" 
d="M571 1036q191 0 297.5 -134t106.5 -382q0 -265 -117.5 -405t-355.5 -140q-122 0 -230 31v-440h-98v1446h2v405q47 17 98 17v-564q55 82 126 124t171 42zM500 59q191 0 284 118.5t93 340.5q0 210 -84.5 322t-245.5 112q-160 0 -275 -137v-715q106 -41 228 -41z" />
    <glyph glyph-name="ydieresis" unicode="&#xff;" horiz-adv-x="933" 
d="M303 1282q-31 0 -50.5 20t-19.5 52q0 30 19.5 48.5t50.5 18.5q29 0 47.5 -18.5t18.5 -48.5q0 -32 -18.5 -52t-47.5 -20zM627 1282q-29 0 -48.5 19.5t-19.5 50.5q0 32 19 50.5t49 18.5q31 0 49 -18.5t18 -50.5q0 -31 -18.5 -50.5t-48.5 -19.5zM813 1012h100l-409 -1143
q-63 -176 -137.5 -252t-192.5 -76q-43 0 -70 8q0 37 7 84q48 -6 53 -6q92 0 152.5 63.5t117.5 231.5l-416 1090h105l356 -971z" />
    <glyph glyph-name="Amacron" unicode="&#x100;" horiz-adv-x="1130" 
d="M795 1729q0 -27 -11 -76h-446q0 36 12 76h445zM999 0l-129 389h-616l-129 -389h-98l477 1411q47 14 117 14l483 -1425h-105zM285 479h557l-279 838z" />
    <glyph glyph-name="amacron" unicode="&#x101;" horiz-adv-x="1017" 
d="M715 1391q0 -33 -10 -78h-435q0 24 13 78h432zM494 1036q175 0 261.5 -80t86.5 -249v-707h-92l-7 154q-47 -79 -133.5 -129t-199.5 -50q-146 0 -231 78.5t-85 212.5q0 83 30.5 145t99.5 111.5t188 80.5t290 44l41 2v53q0 133 -64 191.5t-196 58.5q-183 0 -336 -86
q0 25 9 86q145 84 338 84zM426 57q97 0 183.5 44t133.5 112v360l-36 -2q-151 -12 -254 -38t-159 -66t-78.5 -86.5t-22.5 -108.5q0 -97 60.5 -156t172.5 -59z" />
    <glyph glyph-name="Abreve" unicode="&#x102;" horiz-adv-x="1130" 
d="M567 1567q-107 0 -171.5 57.5t-82.5 157.5q36 8 74 8q17 -74 63 -114t117 -40q150 0 181 154q33 0 73 -8q-16 -100 -80.5 -157.5t-173.5 -57.5zM999 0l-129 389h-616l-129 -389h-98l477 1411q47 14 117 14l483 -1425h-105zM285 479h557l-279 838z" />
    <glyph glyph-name="abreve" unicode="&#x103;" horiz-adv-x="1017" 
d="M494 1192q-117 0 -179.5 73t-70.5 193q24 8 71 8q17 -202 179 -202q82 0 126 54.5t52 147.5q44 0 71 -8q-11 -118 -72.5 -192t-176.5 -74zM494 1036q175 0 261.5 -80t86.5 -249v-707h-92l-7 154q-47 -79 -133.5 -129t-199.5 -50q-146 0 -231 78.5t-85 212.5
q0 83 30.5 145t99.5 111.5t188 80.5t290 44l41 2v53q0 133 -64 191.5t-196 58.5q-183 0 -336 -86q0 25 9 86q145 84 338 84zM426 57q97 0 183.5 44t133.5 112v360l-36 -2q-151 -12 -254 -38t-159 -66t-78.5 -86.5t-22.5 -108.5q0 -97 60.5 -156t172.5 -59z" />
    <glyph glyph-name="Aogonek" unicode="&#x104;" horiz-adv-x="1130" 
d="M1018 -360q49 0 94 18q0 -5 -10 -70q-45 -18 -98 -18q-83 0 -132 45t-49 127q0 71 40.5 133.5t133.5 128.5l-127 385h-616l-129 -389h-98l477 1411q47 14 117 14l483 -1425h-33q-168 -115 -168 -244q0 -58 31 -87t84 -29zM285 479h557l-279 838z" />
    <glyph glyph-name="aogonek" unicode="&#x105;" horiz-adv-x="1017" 
d="M772 -360q49 0 94 18q0 -5 -10 -70q-45 -18 -98 -18q-83 0 -131.5 45t-48.5 127q0 139 172 260l-7 152q-47 -79 -133.5 -129t-199.5 -50q-146 0 -231 78.5t-85 212.5q0 83 30.5 145t99.5 111.5t188 80.5t290 44l41 2v53q0 133 -64 191.5t-196 58.5q-183 0 -336 -86
q0 25 9 86q145 84 338 84q175 0 261.5 -80t86.5 -249v-707h-17q-168 -115 -168 -244q0 -58 31 -87t84 -29zM426 57q97 0 183.5 44t133.5 112v360l-36 -2q-151 -12 -254 -38t-159 -66t-78.5 -86.5t-22.5 -108.5q0 -97 60.5 -156t172.5 -59z" />
    <glyph glyph-name="Cacute" unicode="&#x106;" horiz-adv-x="1120" 
d="M600 1569l150 225q24 8 61 8q46 0 70 -8q-46 -67 -117 -131.5t-139 -93.5h-25zM713 -29q-192 0 -330.5 92.5t-208.5 258t-70 387.5q0 343 160 540t436 197q205 0 332 -76q0 -44 -14 -88q-126 72 -313 72q-230 0 -363 -168t-133 -477q0 -303 136.5 -474.5t373.5 -171.5
q183 0 313 68q-3 -49 -14 -102q-144 -58 -305 -58z" />
    <glyph glyph-name="cacute" unicode="&#x107;" horiz-adv-x="878" 
d="M453 1192l104 285q47 20 121 20q-29 -92 -87.5 -176.5t-123.5 -128.5h-14zM553 -25q-214 0 -335.5 139t-121.5 392q0 257 121.5 393.5t337.5 136.5q126 0 233 -49q0 -24 -10 -82q-101 45 -217 45q-174 0 -269 -117t-95 -329q0 -206 95.5 -325.5t268.5 -119.5
q135 0 230 62q-2 -27 -15 -88q-39 -27 -100 -42.5t-123 -15.5z" />
    <glyph glyph-name="Ccircumflex" unicode="&#x108;" horiz-adv-x="1120" 
d="M430 1569l201 233q24 8 61 8q33 0 60 -8l200 -233h-45q-105 55 -215 178q-108 -119 -223 -178h-39zM713 -29q-192 0 -330.5 92.5t-208.5 258t-70 387.5q0 343 160 540t436 197q205 0 332 -76q0 -44 -14 -88q-126 72 -313 72q-230 0 -363 -168t-133 -477
q0 -303 136.5 -474.5t373.5 -171.5q183 0 313 68q-3 -49 -14 -102q-144 -58 -305 -58z" />
    <glyph glyph-name="ccircumflex" unicode="&#x109;" horiz-adv-x="878" 
d="M524 1419q-89 -119 -188 -221h-51l188 287q16 4 53 4q35 0 49 -4l191 -287h-57q-94 94 -185 221zM561 59q135 0 230 62q-2 -27 -15 -88q-39 -27 -100 -42.5t-123 -15.5q-214 0 -335.5 139t-121.5 392q0 257 121.5 393.5t337.5 136.5q126 0 233 -49q0 -24 -10 -82
q-101 45 -217 45q-174 0 -269 -117t-95 -329q0 -206 95.5 -325.5t268.5 -119.5z" />
    <glyph glyph-name="Cdotaccent" unicode="&#x10a;" horiz-adv-x="1120" 
d="M692 1612q-31 0 -50 19t-19 50q0 32 19 52t50 20q30 0 49 -20t19 -52t-19 -50.5t-49 -18.5zM713 -29q-192 0 -330.5 92.5t-208.5 258t-70 387.5q0 343 160 540t436 197q205 0 332 -76q0 -44 -14 -88q-126 72 -313 72q-230 0 -363 -168t-133 -477q0 -303 136.5 -474.5
t373.5 -171.5q183 0 313 68q-3 -49 -14 -102q-144 -58 -305 -58z" />
    <glyph glyph-name="cdotaccent" unicode="&#x10b;" horiz-adv-x="878" 
d="M524 1278q-30 0 -49.5 20.5t-19.5 53.5t19.5 53t49.5 20q32 0 52 -19.5t20 -53.5q0 -32 -20 -53t-52 -21zM553 -25q-214 0 -335.5 139t-121.5 392q0 257 121.5 393.5t337.5 136.5q126 0 233 -49q0 -24 -10 -82q-101 45 -217 45q-174 0 -269 -117t-95 -329
q0 -206 95.5 -325.5t268.5 -119.5q135 0 230 62q-2 -27 -15 -88q-39 -27 -100 -42.5t-123 -15.5z" />
    <glyph glyph-name="Ccaron" unicode="&#x10c;" horiz-adv-x="1120" 
d="M952 1810l-202 -235q-27 -6 -60 -6q-32 0 -59 6l-201 235h43q109 -56 217 -180q101 117 221 180h41zM713 -29q-192 0 -330.5 92.5t-208.5 258t-70 387.5q0 343 160 540t436 197q205 0 332 -76q0 -44 -14 -88q-126 72 -313 72q-230 0 -363 -168t-133 -477
q0 -303 136.5 -474.5t373.5 -171.5q183 0 313 68q-3 -49 -14 -102q-144 -58 -305 -58z" />
    <glyph glyph-name="ccaron" unicode="&#x10d;" horiz-adv-x="878" 
d="M526 1196q-37 0 -51 4l-190 287h59q87 -90 182 -219q91 119 191 219h49l-188 -287q-16 -4 -52 -4zM561 59q135 0 230 62q-2 -27 -15 -88q-39 -27 -100 -42.5t-123 -15.5q-214 0 -335.5 139t-121.5 392q0 257 121.5 393.5t337.5 136.5q126 0 233 -49q0 -24 -10 -82
q-101 45 -217 45q-174 0 -269 -117t-95 -329q0 -206 95.5 -325.5t268.5 -119.5z" />
    <glyph glyph-name="Dcaron" unicode="&#x10e;" horiz-adv-x="1294" 
d="M561 1569q-32 0 -59 6l-201 235h43q109 -56 217 -180q101 117 221 180h41l-202 -235q-27 -6 -60 -6zM508 1446q140 0 253.5 -35t193 -99t132.5 -154.5t78 -199t25 -235.5q0 -339 -174 -531t-502 -192h-321v1417q161 29 315 29zM516 90q278 0 424.5 165.5t146.5 469.5
q0 193 -61.5 332.5t-193 219t-324.5 79.5q-84 0 -215 -15v-1251h223z" />
    <glyph glyph-name="dcaron" unicode="&#x10f;" horiz-adv-x="1081" 
d="M1083 1417q63 19 99 19q-15 -197 -92 -351h-33q23 161 26 332zM809 1006v411q44 17 98 17v-1434h-92l-6 141q-55 -82 -126 -124t-171 -42q-192 0 -299 134t-107 383q0 265 118 404.5t356 139.5q124 0 229 -30zM535 59q158 0 274 138v714q-106 41 -227 41
q-375 0 -375 -458q0 -210 84 -322.5t244 -112.5z" />
    <glyph glyph-name="Dcroat" unicode="&#x110;" horiz-adv-x="1294" 
d="M508 1446q140 0 253.5 -35t193 -99t132.5 -154.5t78 -199t25 -235.5q0 -339 -174 -531t-502 -192h-321v688h-164q0 44 12 78h152v651q161 29 315 29zM516 90q278 0 424.5 165.5t146.5 469.5q0 193 -61.5 332.5t-193 219t-324.5 79.5q-84 0 -215 -15v-575h360
q-4 -50 -14 -78h-346v-598h223z" />
    <glyph glyph-name="dcroat" unicode="&#x111;" horiz-adv-x="1081" 
d="M1075 1272q0 -34 -12 -68h-156v-1204h-92l-6 141q-55 -82 -126 -124t-171 -42q-192 0 -299 134t-107 383q0 265 118 404.5t356 139.5q124 0 229 -30v198h-344q0 30 10 68h334v145q44 17 98 17v-162h168zM535 59q158 0 274 138v714q-106 41 -227 41q-375 0 -375 -458
q0 -210 84 -322.5t244 -112.5z" />
    <glyph glyph-name="Emacron" unicode="&#x112;" horiz-adv-x="1054" 
d="M799 1729q0 -27 -11 -76h-446q0 36 12 76h445zM293 90h665q-4 -54 -12 -90h-753v1417h755q-4 -58 -12 -90h-643v-553h584q0 -48 -13 -92h-571v-592z" />
    <glyph glyph-name="emacron" unicode="&#x113;" horiz-adv-x="1026" 
d="M743 1391q0 -33 -10 -78h-434q0 28 12 78h432zM915 586q0 -75 -6 -105h-712q7 -213 105.5 -317.5t270.5 -104.5q174 0 301 93q-5 -61 -16 -97q-125 -80 -289 -80q-227 0 -350 139.5t-123 397.5q0 152 44.5 267.5t142.5 186t241 70.5q191 0 291 -123.5t100 -326.5z
M522 952q-150 0 -232 -104.5t-91 -284.5h618v25q0 166 -74 265t-221 99z" />
    <glyph glyph-name="Ebreve" unicode="&#x114;" horiz-adv-x="1054" 
d="M571 1567q-107 0 -171.5 57.5t-82.5 157.5q36 8 74 8q17 -74 63 -114t117 -40q150 0 181 154q33 0 73 -8q-16 -100 -80.5 -157.5t-173.5 -57.5zM293 90h665q-4 -54 -12 -90h-753v1417h755q-4 -58 -12 -90h-643v-553h584q0 -48 -13 -92h-571v-592z" />
    <glyph glyph-name="ebreve" unicode="&#x115;" horiz-adv-x="1026" 
d="M522 1192q-117 0 -179.5 73t-70.5 193q24 8 72 8q17 -202 178 -202q82 0 126 54.5t52 147.5q45 0 72 -8q-11 -118 -73 -192t-177 -74zM915 586q0 -75 -6 -105h-712q7 -213 105.5 -317.5t270.5 -104.5q174 0 301 93q-5 -61 -16 -97q-125 -80 -289 -80q-227 0 -350 139.5
t-123 397.5q0 152 44.5 267.5t142.5 186t241 70.5q191 0 291 -123.5t100 -326.5zM522 952q-150 0 -232 -104.5t-91 -284.5h618v25q0 166 -74 265t-221 99z" />
    <glyph glyph-name="Edotaccent" unicode="&#x116;" horiz-adv-x="1054" 
d="M571 1612q-31 0 -50 19t-19 50q0 32 19 52t50 20q30 0 49 -20t19 -52t-19 -50.5t-49 -18.5zM293 90h665q-4 -54 -12 -90h-753v1417h755q-4 -58 -12 -90h-643v-553h584q0 -48 -13 -92h-571v-592z" />
    <glyph glyph-name="edotaccent" unicode="&#x117;" horiz-adv-x="1026" 
d="M520 1278q-30 0 -49.5 20.5t-19.5 53.5t19.5 53t49.5 20q32 0 52 -19.5t20 -53.5q0 -32 -20 -53t-52 -21zM915 586q0 -75 -6 -105h-712q7 -213 105.5 -317.5t270.5 -104.5q174 0 301 93q-5 -61 -16 -97q-125 -80 -289 -80q-227 0 -350 139.5t-123 397.5q0 152 44.5 267.5
t142.5 186t241 70.5q191 0 291 -123.5t100 -326.5zM522 952q-150 0 -232 -104.5t-91 -284.5h618v25q0 166 -74 265t-221 99z" />
    <glyph glyph-name="Eogonek" unicode="&#x118;" horiz-adv-x="1054" 
d="M870 0q-168 -115 -168 -244q0 -58 31 -87t84 -29q49 0 94 18q0 -5 -10 -70q-45 -18 -98 -18q-83 0 -131.5 45t-48.5 127q0 69 40 131t130 127h-600v1417h755q-4 -58 -12 -90h-643v-553h584q0 -48 -13 -92h-571v-592h665q-4 -54 -12 -90h-76z" />
    <glyph glyph-name="eogonek" unicode="&#x119;" horiz-adv-x="1026" 
d="M915 586q0 -75 -6 -105h-712q7 -213 105.5 -317.5t270.5 -104.5q174 0 301 93q-5 -61 -16 -97q-54 -36 -121 -55q-168 -115 -168 -244q0 -58 31 -87t84 -29q49 0 94 18q0 -5 -10 -70q-45 -18 -98 -18q-83 0 -132 45t-49 127q0 124 142 238q-25 -5 -62 -5
q-227 0 -350 139.5t-123 397.5q0 152 44.5 267.5t142.5 186t241 70.5q191 0 291 -123.5t100 -326.5zM522 952q-150 0 -232 -104.5t-91 -284.5h618v25q0 166 -74 265t-221 99z" />
    <glyph glyph-name="Ecaron" unicode="&#x11a;" horiz-adv-x="1054" 
d="M569 1569q-32 0 -59 6l-201 235h43q109 -56 217 -180q100 116 222 180h40l-202 -235q-27 -6 -60 -6zM293 90h665q-4 -54 -12 -90h-753v1417h755q-4 -58 -12 -90h-643v-553h584q0 -48 -13 -92h-571v-592z" />
    <glyph glyph-name="ecaron" unicode="&#x11b;" horiz-adv-x="1026" 
d="M522 1196q-37 0 -51 4l-190 287h59q87 -90 182 -219q91 119 191 219h49l-189 -287q-16 -4 -51 -4zM915 586q0 -75 -6 -105h-712q7 -213 105.5 -317.5t270.5 -104.5q174 0 301 93q-5 -61 -16 -97q-125 -80 -289 -80q-227 0 -350 139.5t-123 397.5q0 152 44.5 267.5
t142.5 186t241 70.5q191 0 291 -123.5t100 -326.5zM522 952q-150 0 -232 -104.5t-91 -284.5h618v25q0 166 -74 265t-221 99z" />
    <glyph glyph-name="Gcircumflex" unicode="&#x11c;" horiz-adv-x="1277" 
d="M729 1747q-108 -119 -223 -178h-39l201 233q24 8 61 8q32 0 59 -8l201 -233h-45q-105 55 -215 178zM1016 741h102v-690q-177 -80 -375 -80q-160 0 -282.5 53t-200 151t-117 234t-39.5 306q0 350 169.5 540.5t476.5 190.5q211 0 354 -70q-5 -37 -19 -92q-143 70 -337 70
q-256 0 -398.5 -165.5t-142.5 -471.5q0 -311 137 -482.5t401 -171.5q138 0 271 46v632z" />
    <glyph glyph-name="gcircumflex" unicode="&#x11d;" horiz-adv-x="1081" 
d="M549 1419q-85 -114 -189 -221h-51l189 287q16 4 53 4q35 0 49 -4l191 -287h-58q-91 91 -184 221zM580 1036q181 0 327 -65v-989q0 -221 -118.5 -331t-325.5 -110q-143 0 -270 56q4 51 10 88q122 -58 258 -58q76 0 137.5 19t109.5 59t74.5 107.5t26.5 158.5v170
q-55 -82 -126 -124t-171 -42q-192 0 -299 134t-107 383q0 265 118 404.5t356 139.5zM535 59q158 0 274 138v714q-106 41 -227 41q-375 0 -375 -458q0 -210 84 -322.5t244 -112.5z" />
    <glyph glyph-name="Gbreve" unicode="&#x11e;" horiz-adv-x="1277" 
d="M729 1567q-107 0 -171.5 57.5t-82.5 157.5q36 8 74 8q17 -74 63 -114t117 -40q149 0 180 154q34 0 74 -8q-16 -100 -80.5 -157.5t-173.5 -57.5zM1016 741h102v-690q-177 -80 -375 -80q-160 0 -282.5 53t-200 151t-117 234t-39.5 306q0 350 169.5 540.5t476.5 190.5
q211 0 354 -70q-5 -37 -19 -92q-143 70 -337 70q-256 0 -398.5 -165.5t-142.5 -471.5q0 -311 137 -482.5t401 -171.5q138 0 271 46v632z" />
    <glyph glyph-name="gbreve" unicode="&#x11f;" horiz-adv-x="1081" 
d="M551 1192q-117 0 -179.5 73t-70.5 193q24 8 72 8q17 -202 178 -202q82 0 126 54.5t52 147.5q45 0 72 -8q-11 -118 -73 -192t-177 -74zM580 1036q181 0 327 -65v-989q0 -221 -118.5 -331t-325.5 -110q-143 0 -270 56q4 51 10 88q122 -58 258 -58q76 0 137.5 19t109.5 59
t74.5 107.5t26.5 158.5v170q-55 -82 -126 -124t-171 -42q-192 0 -299 134t-107 383q0 265 118 404.5t356 139.5zM535 59q158 0 274 138v714q-106 41 -227 41q-375 0 -375 -458q0 -210 84 -322.5t244 -112.5z" />
    <glyph glyph-name="Gdotaccent" unicode="&#x120;" horiz-adv-x="1277" 
d="M729 1612q-31 0 -50.5 19t-19.5 50q0 32 19.5 52t50.5 20q30 0 49 -20t19 -52t-19 -50.5t-49 -18.5zM1016 741h102v-690q-177 -80 -375 -80q-160 0 -282.5 53t-200 151t-117 234t-39.5 306q0 350 169.5 540.5t476.5 190.5q211 0 354 -70q-5 -37 -19 -92q-143 70 -337 70
q-256 0 -398.5 -165.5t-142.5 -471.5q0 -311 137 -482.5t401 -171.5q138 0 271 46v632z" />
    <glyph glyph-name="gdotaccent" unicode="&#x121;" horiz-adv-x="1081" 
d="M549 1278q-30 0 -50 20.5t-20 53.5t20 53t50 20q33 0 52.5 -19.5t19.5 -53.5q0 -32 -20 -53t-52 -21zM580 1036q181 0 327 -65v-989q0 -221 -118.5 -331t-325.5 -110q-143 0 -270 56q4 51 10 88q122 -58 258 -58q76 0 137.5 19t109.5 59t74.5 107.5t26.5 158.5v170
q-55 -82 -126 -124t-171 -42q-192 0 -299 134t-107 383q0 265 118 404.5t356 139.5zM535 59q158 0 274 138v714q-106 41 -227 41q-375 0 -375 -458q0 -210 84 -322.5t244 -112.5z" />
    <glyph glyph-name="uni0122" unicode="&#x122;" horiz-adv-x="1277" 
d="M1016 741h102v-690q-177 -80 -375 -80q-160 0 -282.5 53t-200 151t-117 234t-39.5 306q0 350 169.5 540.5t476.5 190.5q211 0 354 -70q-5 -37 -19 -92q-143 70 -337 70q-256 0 -398.5 -165.5t-142.5 -471.5q0 -311 137 -482.5t401 -171.5q138 0 271 46v632zM666 -485
q22 155 28 331q63 19 97 19q-12 -195 -93 -350h-32z" />
    <glyph glyph-name="uni0123" unicode="&#x123;" horiz-adv-x="1081" 
d="M627 1497q-24 -164 -29 -332q-59 -18 -96 -18q12 197 92 350h33zM580 1036q181 0 327 -65v-989q0 -221 -118.5 -331t-325.5 -110q-143 0 -270 56q4 51 10 88q122 -58 258 -58q76 0 137.5 19t109.5 59t74.5 107.5t26.5 158.5v170q-55 -82 -126 -124t-171 -42
q-192 0 -299 134t-107 383q0 265 118 404.5t356 139.5zM535 59q158 0 274 138v714q-106 41 -227 41q-375 0 -375 -458q0 -210 84 -322.5t244 -112.5z" />
    <glyph glyph-name="Hcircumflex" unicode="&#x124;" horiz-adv-x="1323" 
d="M664 1747q-107 -118 -224 -178h-39l201 233q24 8 62 8q32 0 59 -8l201 -233h-45q-105 55 -215 178zM1030 1411q50 16 98 16v-1427h-98v684h-737v-684h-100v1411q50 16 100 16v-651h737v635z" />
    <glyph glyph-name="hcircumflex" unicode="&#x125;" horiz-adv-x="1095" 
d="M551 1747q-108 -119 -223 -178h-39l200 233q24 8 62 8q32 0 59 -8l201 -233h-45q-105 55 -215 178zM604 1036q161 0 244.5 -91.5t83.5 -264.5v-680h-98v653q0 299 -261 299q-168 0 -301 -151v-801h-98v1417q47 17 98 17v-584q127 186 332 186z" />
    <glyph glyph-name="Hbar" unicode="&#x126;" horiz-adv-x="1323" 
d="M1309 1137q-3 -32 -13 -78h-168v-1059h-98v684h-737v-684h-100v1059h-179q0 36 11 78h168v274q50 16 100 16v-290h737v274q50 16 98 16v-290h181zM1030 776v283h-737v-283h737z" />
    <glyph glyph-name="hbar" unicode="&#x127;" horiz-adv-x="1095" 
d="M604 1036q161 0 244.5 -91.5t83.5 -264.5v-680h-98v653q0 299 -261 299q-168 0 -301 -151v-801h-98v1204h-194q0 30 10 68h184v145q47 17 98 17v-162h318q0 -34 -12 -68h-306v-354q127 186 332 186z" />
    <glyph glyph-name="Itilde" unicode="&#x128;" horiz-adv-x="485" 
d="M362 1565q-32 0 -66.5 22.5t-59 50t-52.5 50t-47 22.5q-24 0 -34.5 -14t-10.5 -49v-80h-67v92q0 67 23.5 98t74.5 31q27 0 54.5 -15t49.5 -37t42.5 -44t41 -37t37.5 -15q47 0 47 66v80h70v-94q0 -66 -25.5 -96.5t-77.5 -30.5zM193 0v1411q50 16 100 16v-1427h-100z" />
    <glyph glyph-name="itilde" unicode="&#x129;" horiz-adv-x="448" 
d="M322 1231q-25 0 -55 22.5t-52.5 50t-45 50t-34.5 22.5q-23 0 -33 -13.5t-10 -47.5v-80h-61v88q0 123 94 123q26 0 55 -23t50.5 -51t44 -51t36.5 -23q45 0 45 64v80h64v-88q0 -123 -98 -123zM174 0v1012h98v-1012h-98z" />
    <glyph glyph-name="Imacron" unicode="&#x12a;" horiz-adv-x="485" 
d="M51 1653q0 36 12 76h373q-3 -34 -12 -76h-373zM193 0v1411q50 16 100 16v-1427h-100z" />
    <glyph glyph-name="imacron" unicode="&#x12b;" horiz-adv-x="448" 
d="M41 1315q0 24 12 78h357q0 -29 -11 -78h-358zM174 0v1012h98v-1012h-98z" />
    <glyph glyph-name="Ibreve" unicode="&#x12c;" horiz-adv-x="485" 
d="M242 1567q-94 0 -149 56.5t-68 150.5q21 8 69 8q25 -144 148 -144q63 0 98 35t49 109q30 0 66 -8q-11 -94 -64 -150.5t-149 -56.5zM193 0v1411q50 16 100 16v-1427h-100z" />
    <glyph glyph-name="ibreve" unicode="&#x12d;" horiz-adv-x="448" 
d="M225 1198q-178 0 -188 254q21 8 67 8q3 -90 31 -139t90 -49q112 0 119 188q44 0 68 -8q-3 -117 -49 -185.5t-138 -68.5zM174 0v1012h98v-1012h-98z" />
    <glyph glyph-name="Iogonek" unicode="&#x12e;" horiz-adv-x="485" 
d="M264 -358q46 0 86 18q-2 -19 -10 -72q-32 -16 -90 -16q-79 0 -124.5 43.5t-45.5 124.5q0 66 29.5 123.5t105.5 136.5h-22v1411q50 16 100 16v-1427q-135 -141 -135 -250q0 -52 27.5 -80t78.5 -28z" />
    <glyph glyph-name="iogonek" unicode="&#x12f;" horiz-adv-x="448" 
d="M223 1278q-30 0 -49.5 20.5t-19.5 53.5t19.5 53t49.5 20q33 0 52.5 -19.5t19.5 -53.5q0 -32 -20 -53t-52 -21zM240 -358q46 0 86 18q-1 -7 -11 -72q-32 -16 -90 -16q-79 0 -124.5 43.5t-45.5 124.5q0 66 29.5 123.5t105.5 136.5h-16v1012h98v-1012h-4
q-135 -141 -135 -250q0 -52 28 -80t79 -28z" />
    <glyph glyph-name="Idotaccent" unicode="&#x130;" horiz-adv-x="485" 
d="M244 1612q-31 0 -50.5 19t-19.5 50q0 32 19.5 52t50.5 20q29 0 48 -20t19 -52t-18.5 -50.5t-48.5 -18.5zM193 0v1411q50 16 100 16v-1427h-100z" />
    <glyph glyph-name="dotlessi" unicode="&#x131;" horiz-adv-x="448" 
d="M174 0v1012h98v-1012h-98z" />
    <glyph glyph-name="IJ" unicode="&#x132;" horiz-adv-x="1187" 
d="M193 0v1411q50 16 100 16v-1427h-100zM627 -12q-74 0 -125 10q0 30 8 88q44 -10 106 -10q146 0 221.5 82.5t75.5 283.5v969q50 16 101 16v-995q0 -235 -99 -339.5t-288 -104.5z" />
    <glyph glyph-name="ij" unicode="&#x133;" horiz-adv-x="897" 
d="M223 1278q-30 0 -49.5 20.5t-19.5 53.5t19.5 53t49.5 20q33 0 52.5 -19.5t19.5 -53.5q0 -32 -20 -53t-52 -21zM670 1278q-30 0 -50 20.5t-20 53.5t20 53t50 20q32 0 51.5 -19.5t19.5 -53.5q0 -33 -19.5 -53.5t-51.5 -20.5zM174 0v1012h98v-1012h-98zM481 -463
q-49 0 -102 17q3 33 10 79q42 -10 80 -10q76 0 115 41.5t39 132.5v1215h98v-1209q0 -266 -240 -266z" />
    <glyph glyph-name="Jcircumflex" unicode="&#x134;" horiz-adv-x="700" 
d="M264 1569l160 223q27 6 55 6q29 0 56 -6l159 -223h-35q-111 73 -180 164q-72 -95 -178 -164h-37zM141 -12q-74 0 -125 10q0 23 9 88q44 -10 106 -10q146 0 221.5 82.5t75.5 283.5v969q50 16 100 16v-995q0 -235 -99 -339.5t-288 -104.5z" />
    <glyph glyph-name="jcircumflex" unicode="&#x135;" horiz-adv-x="448" 
d="M266 1479l148 -285h-35q-25 19 -57.5 60.5t-49.5 68.5t-53 84q-3 -5 -22.5 -36t-24 -38t-20.5 -31.5t-23.5 -34t-21 -26t-25 -27.5t-23.5 -20h-30l145 283q18 6 45 6q19 0 47 -4zM174 -203v1215h98v-1209q0 -266 -239 -266q-50 0 -103 17q2 20 11 79q42 -10 79 -10
q76 0 115 41.5t39 132.5z" />
    <glyph glyph-name="uni0136" unicode="&#x136;" horiz-adv-x="1089" 
d="M193 0v1411q50 16 100 16v-1427h-100zM442 739l623 -739h-127l-608 731v14l590 672h116zM539 -485q22 155 28 331q63 19 97 19q-12 -195 -93 -350h-32z" />
    <glyph glyph-name="uni0137" unicode="&#x137;" horiz-adv-x="950" 
d="M174 0v1417q47 17 98 17v-1434h-98zM422 537l504 -537h-121l-494 528v11l461 473h117zM459 -485q22 155 28 331q63 19 97 19q-12 -197 -92 -350h-33z" />
    <glyph glyph-name="kgreenlandic" unicode="&#x138;" horiz-adv-x="950" 
d="M174 0v1012h100v-1012h-100zM416 537l510 -537h-121l-502 528v11l469 473h117z" />
    <glyph glyph-name="Lacute" unicode="&#x139;" horiz-adv-x="884" 
d="M203 1569l149 225q24 8 62 8q45 0 69 -8q-46 -67 -117 -131.5t-139 -93.5h-24zM193 0v1411q50 16 100 16v-1337h575q-5 -68 -10 -90h-665z" />
    <glyph glyph-name="lacute" unicode="&#x13a;" horiz-adv-x="548" 
d="M193 1569l149 225q24 8 61 8q46 0 70 -8q-46 -67 -117 -131.5t-139 -93.5h-24zM401 -23q-109 0 -168 62t-59 184v1194q47 17 98 17v-1203q0 -170 156 -170q57 0 115 25q-3 -41 -13 -86q-67 -23 -129 -23z" />
    <glyph glyph-name="uni013B" unicode="&#x13b;" horiz-adv-x="884" 
d="M193 0v1411q50 16 100 16v-1337h575q-5 -68 -10 -90h-665zM469 -485q24 164 29 331q63 19 96 19q-12 -197 -92 -350h-33z" />
    <glyph glyph-name="uni013C" unicode="&#x13c;" horiz-adv-x="548" 
d="M401 -23q-109 0 -168 62t-59 184v1194q47 17 98 17v-1203q0 -170 156 -170q57 0 115 25q-3 -41 -13 -86q-67 -23 -129 -23zM299 -485q24 164 29 331q63 19 96 19q-12 -197 -92 -350h-33z" />
    <glyph glyph-name="Lcaron" unicode="&#x13d;" horiz-adv-x="884" 
d="M639 1085q24 164 29 332q63 19 96 19q-13 -199 -92 -351h-33zM193 0v1411q50 16 100 16v-1337h575q-5 -68 -10 -90h-665z" />
    <glyph glyph-name="lcaron" unicode="&#x13e;" horiz-adv-x="548" 
d="M414 1085q22 155 28 332q63 19 97 19q-12 -196 -93 -351h-32zM401 -23q-109 0 -168 62t-59 184v1194q47 17 98 17v-1203q0 -170 156 -170q57 0 115 25q-3 -41 -13 -86q-67 -23 -129 -23z" />
    <glyph glyph-name="Ldot" unicode="&#x13f;" horiz-adv-x="884" 
d="M193 0v1411q50 16 100 16v-1337h575q-5 -68 -10 -90h-665zM666 754q-35 0 -59.5 25.5t-24.5 60.5t24.5 59.5t59.5 24.5t59.5 -24.5t24.5 -59.5t-24.5 -60.5t-59.5 -25.5z" />
    <glyph glyph-name="ldot" unicode="&#x140;" horiz-adv-x="647" 
d="M401 -23q-109 0 -168 62t-59 184v1194q47 17 98 17v-1203q0 -170 156 -170q57 0 115 25q-3 -41 -13 -86q-67 -23 -129 -23zM508 727q-31 0 -51.5 20.5t-20.5 53.5q0 32 20.5 51.5t51.5 19.5q32 0 52 -19.5t20 -51.5t-20 -53t-52 -21z" />
    <glyph glyph-name="Lslash" unicode="&#x141;" horiz-adv-x="884" 
d="M293 90h575q-5 -68 -10 -90h-665v586l-160 -99q0 63 10 99l150 92v733q50 16 100 16v-688l303 185q0 -56 -12 -99l-291 -178v-557z" />
    <glyph glyph-name="lslash" unicode="&#x142;" horiz-adv-x="548" 
d="M428 61q57 0 115 25q-3 -41 -13 -86q-67 -23 -129 -23q-109 0 -168 62t-59 184v477l-151 -102q0 40 8 94l143 96v629q47 17 98 17v-582l236 158q-4 -58 -12 -95l-224 -149v-535q0 -170 156 -170z" />
    <glyph glyph-name="Nacute" unicode="&#x143;" horiz-adv-x="1333" 
d="M852 1794q-46 -67 -117 -131.5t-139 -93.5h-25l150 225q24 8 61 8q46 0 70 -8zM1044 1411q54 16 97 16v-1427h-84l-608 987q-72 116 -164 289q2 -156 2 -490v-786h-94v1411q50 16 94 16l569 -919q104 -168 195 -340q0 26 -3.5 237t-3.5 324v682z" />
    <glyph glyph-name="nacute" unicode="&#x144;" horiz-adv-x="1095" 
d="M696 1497q-29 -92 -87.5 -176.5t-123.5 -128.5h-14l104 285q47 20 121 20zM604 1036q161 0 244.5 -91.5t83.5 -264.5v-680h-98v653q0 299 -261 299q-168 0 -301 -151v-801h-98v1012h92l6 -162q129 186 332 186z" />
    <glyph glyph-name="uni0145" unicode="&#x145;" horiz-adv-x="1333" 
d="M1044 1411q54 16 97 16v-1427h-84l-608 987q-72 116 -164 289q2 -156 2 -490v-786h-94v1411q50 16 94 16l569 -919q104 -168 195 -340q0 26 -3.5 237t-3.5 324v682zM596 -485q24 164 29 331q63 19 96 19q-12 -197 -92 -350h-33z" />
    <glyph glyph-name="uni0146" unicode="&#x146;" horiz-adv-x="1095" 
d="M604 1036q161 0 244.5 -91.5t83.5 -264.5v-680h-98v653q0 299 -261 299q-168 0 -301 -151v-801h-98v1012h92l6 -162q129 186 332 186zM492 -485q22 155 28 331q63 19 96 19q-12 -197 -92 -350h-32z" />
    <glyph glyph-name="Ncaron" unicode="&#x147;" horiz-adv-x="1333" 
d="M662 1569q-33 0 -60 6l-201 235h43q111 -57 218 -180q101 117 221 180h41l-203 -235q-27 -6 -59 -6zM1044 1411q54 16 97 16v-1427h-84l-608 987q-72 116 -164 289q2 -156 2 -490v-786h-94v1411q50 16 94 16l569 -919q104 -168 195 -340q0 26 -3.5 237t-3.5 324v682z" />
    <glyph glyph-name="ncaron" unicode="&#x148;" horiz-adv-x="1095" 
d="M543 1196q-37 0 -51 4l-191 287h59q91 -94 183 -219q94 123 190 219h49l-188 -287q-16 -4 -51 -4zM604 1036q161 0 244.5 -91.5t83.5 -264.5v-680h-98v653q0 299 -261 299q-168 0 -301 -151v-801h-98v1012h92l6 -162q129 186 332 186z" />
    <glyph glyph-name="napostrophe" unicode="&#x149;" horiz-adv-x="1302" 
d="M139 971q51 227 54 446q56 21 98 21q-8 -223 -82 -467h-70zM811 1036q160 0 243 -91.5t83 -264.5v-680h-99v653q0 152 -63.5 225.5t-194.5 73.5q-172 0 -301 -151v-801h-98v1012h92l6 -162q124 186 332 186z" />
    <glyph glyph-name="Eng" unicode="&#x14a;" horiz-adv-x="1333" 
d="M1044 1411q54 16 97 16v-1441q0 -235 -93.5 -340t-275.5 -105q-54 0 -119 10q0 50 9 93q48 -11 108 -11q136 0 205 82t69 273v32l-595 967q-72 116 -164 289q2 -156 2 -490v-786h-94v1411q50 16 94 16l569 -919q97 -156 188 -330v55h5q-5 400 -5 496v682z" />
    <glyph glyph-name="eng" unicode="&#x14b;" horiz-adv-x="1097" 
d="M604 1036q161 0 244.5 -91.5t83.5 -264.5v-870q0 -269 -217 -269q-33 0 -74 13q4 49 10 77q24 -6 54 -6q129 0 129 166v862q0 299 -261 299q-168 0 -301 -151v-801h-98v1012h92l6 -162q129 186 332 186z" />
    <glyph glyph-name="Omacron" unicode="&#x14c;" horiz-adv-x="1376" 
d="M459 1653q0 36 12 76h444q0 -31 -10 -76h-446zM690 -29q-187 0 -320 92.5t-199.5 257.5t-66.5 388q0 341 154 539t430 198q187 0 319.5 -92t198.5 -257t66 -388q0 -344 -153 -541t-429 -197zM690 63q230 0 354.5 170t124.5 476q0 304 -125.5 474.5t-355.5 170.5
t-355.5 -170.5t-125.5 -474.5q0 -303 126.5 -474.5t356.5 -171.5z" />
    <glyph glyph-name="omacron" unicode="&#x14d;" horiz-adv-x="1069" 
d="M311 1313q0 24 13 78h432q0 -29 -11 -78h-434zM535 -25q-211 0 -325 141.5t-114 389.5q0 244 114.5 387t324.5 143t323 -143t113 -387q0 -249 -113 -390t-323 -141zM535 59q164 0 249.5 118t85.5 329q0 208 -85.5 327t-249.5 119q-165 0 -251.5 -119t-86.5 -327
q0 -211 86.5 -329t251.5 -118z" />
    <glyph glyph-name="Obreve" unicode="&#x14e;" horiz-adv-x="1376" 
d="M688 1567q-107 0 -171.5 57.5t-82.5 157.5q36 8 74 8q17 -74 63 -114t117 -40q149 0 180 154q34 0 74 -8q-16 -100 -80.5 -157.5t-173.5 -57.5zM690 -29q-187 0 -320 92.5t-199.5 257.5t-66.5 388q0 341 154 539t430 198q187 0 319.5 -92t198.5 -257t66 -388
q0 -344 -153 -541t-429 -197zM690 63q230 0 354.5 170t124.5 476q0 304 -125.5 474.5t-355.5 170.5t-355.5 -170.5t-125.5 -474.5q0 -303 126.5 -474.5t356.5 -171.5z" />
    <glyph glyph-name="obreve" unicode="&#x14f;" horiz-adv-x="1069" 
d="M535 1192q-117 0 -179.5 73t-70.5 193q24 8 71 8q17 -202 179 -202q82 0 126 54.5t52 147.5q44 0 71 -8q-11 -118 -72.5 -192t-176.5 -74zM535 -25q-211 0 -325 141.5t-114 389.5q0 244 114.5 387t324.5 143t323 -143t113 -387q0 -249 -113 -390t-323 -141zM535 59
q164 0 249.5 118t85.5 329q0 208 -85.5 327t-249.5 119q-165 0 -251.5 -119t-86.5 -327q0 -211 86.5 -329t251.5 -118z" />
    <glyph glyph-name="Ohungarumlaut" unicode="&#x150;" horiz-adv-x="1376" 
d="M481 1569l154 225q20 10 65 10q36 0 48 -4q-37 -67 -108.5 -136.5t-135.5 -94.5h-23zM719 1569l151 225q22 10 68 10q35 0 47 -4q-36 -65 -107.5 -133t-138.5 -98h-20zM690 -29q-187 0 -320 92.5t-199.5 257.5t-66.5 388q0 341 154 539t430 198q187 0 319.5 -92
t198.5 -257t66 -388q0 -344 -153 -541t-429 -197zM690 63q230 0 354.5 170t124.5 476q0 304 -125.5 474.5t-355.5 170.5t-355.5 -170.5t-125.5 -474.5q0 -303 126.5 -474.5t356.5 -171.5z" />
    <glyph glyph-name="ohungarumlaut" unicode="&#x151;" horiz-adv-x="1069" 
d="M340 1188l139 291q36 16 109 16q-93 -202 -230 -307h-18zM578 1188l139 291q36 16 106 16q-94 -215 -227 -307h-18zM535 -25q-211 0 -325 141.5t-114 389.5q0 244 114.5 387t324.5 143t323 -143t113 -387q0 -249 -113 -390t-323 -141zM535 59q164 0 249.5 118t85.5 329
q0 208 -85.5 327t-249.5 119q-165 0 -251.5 -119t-86.5 -327q0 -211 86.5 -329t251.5 -118z" />
    <glyph glyph-name="OE" unicode="&#x152;" horiz-adv-x="1783" 
d="M1022 90h666q0 -46 -13 -90h-964q-295 0 -451 185.5t-156 523.5q0 343 153.5 525.5t451.5 182.5h968q0 -53 -12 -90h-643v-553h586q-4 -50 -13 -92h-573v-592zM711 90h213v1237h-215q-502 0 -502 -618q0 -302 129 -460.5t375 -158.5z" />
    <glyph glyph-name="oe" unicode="&#x153;" horiz-adv-x="1796" 
d="M1686 582q0 -49 -7 -84h-712q3 -220 101 -329.5t273 -109.5q172 0 301 93q-4 -56 -14 -97q-130 -80 -293 -80q-153 0 -258.5 68t-156.5 199q-46 -129 -144 -198t-241 -69q-212 0 -325.5 141.5t-113.5 389.5q0 245 113.5 387.5t325.5 142.5q143 0 240 -68t143 -196
q46 123 140 193.5t232 70.5q102 0 180 -35.5t124 -98.5t69 -143.5t23 -176.5zM535 59q165 0 250 117.5t85 329.5q0 209 -84.5 327.5t-250.5 118.5q-167 0 -252.5 -118.5t-85.5 -327.5q0 -212 85.5 -329.5t252.5 -117.5zM1286 952q-143 0 -224 -99t-93 -273h618
q0 167 -73.5 269.5t-227.5 102.5z" />
    <glyph glyph-name="Racute" unicode="&#x154;" horiz-adv-x="1091" 
d="M723 1794q-46 -67 -117 -131.5t-139 -93.5h-25l150 225q24 8 61 8q46 0 70 -8zM920 0l-385 616h-244v-616h-98v1415q148 29 305 29q249 0 372 -110t123 -302q0 -75 -19 -137t-51.5 -106t-79 -77.5t-98 -53.5t-112.5 -31l403 -627h-116zM291 1341v-636h229
q81 0 146.5 17.5t117 55t79.5 101t28 149.5q0 328 -393 328q-108 0 -207 -15z" />
    <glyph glyph-name="racute" unicode="&#x155;" horiz-adv-x="710" 
d="M610 1497q-29 -92 -87.5 -176.5t-123.5 -128.5h-14l104 285q47 20 121 20zM567 1032q69 0 127 -18q0 -46 -10 -88q-57 16 -127 16q-182 0 -285 -164v-778h-98v1012h94l4 -174q45 92 120.5 143t174.5 51z" />
    <glyph glyph-name="uni0156" unicode="&#x156;" horiz-adv-x="1091" 
d="M633 627l403 -627h-116l-385 616h-244v-616h-98v1415q148 29 305 29q249 0 372 -110t123 -302q0 -75 -19 -137t-51.5 -106t-79 -77.5t-98 -53.5t-112.5 -31zM291 1341v-636h229q81 0 146.5 17.5t117 55t79.5 101t28 149.5q0 328 -393 328q-108 0 -207 -15zM506 -485
q24 164 29 331q63 19 96 19q-12 -197 -92 -350h-33z" />
    <glyph glyph-name="uni0157" unicode="&#x157;" horiz-adv-x="710" 
d="M567 1032q69 0 127 -18q0 -46 -10 -88q-57 16 -127 16q-182 0 -285 -164v-778h-98v1012h94l4 -174q45 92 120.5 143t174.5 51zM145 -485q24 164 29 331q63 19 96 19q-12 -197 -92 -350h-33z" />
    <glyph glyph-name="Rcaron" unicode="&#x158;" horiz-adv-x="1091" 
d="M535 1569q-33 0 -60 6l-201 235h43q111 -57 218 -180q101 117 221 180h41l-203 -235q-27 -6 -59 -6zM920 0l-385 616h-244v-616h-98v1415q148 29 305 29q249 0 372 -110t123 -302q0 -75 -19 -137t-51.5 -106t-79 -77.5t-98 -53.5t-112.5 -31l403 -627h-116zM291 1341
v-636h229q81 0 146.5 17.5t117 55t79.5 101t28 149.5q0 328 -393 328q-108 0 -207 -15z" />
    <glyph glyph-name="rcaron" unicode="&#x159;" horiz-adv-x="710" 
d="M457 1192q-31 0 -45 4l-148 283h35q25 -18 57.5 -59t50 -68t52.5 -84q6 10 22.5 36.5t23.5 37t21 32t22.5 33t21 26.5t24.5 26t24 20h31l-145 -281q-14 -6 -47 -6zM567 1032q69 0 127 -18q0 -46 -10 -88q-57 16 -127 16q-182 0 -285 -164v-778h-98v1012h94l4 -174
q45 92 120.5 143t174.5 51z" />
    <glyph glyph-name="Sacute" unicode="&#x15a;" horiz-adv-x="1050" 
d="M442 1569l150 225q24 8 61 8q46 0 70 -8q-46 -67 -117 -131.5t-139 -93.5h-25zM492 -29q-231 0 -392 103q3 55 13 88q173 -103 381 -103q168 0 263 75.5t95 205.5q0 123 -69 196t-228 132l-98 37q-82 31 -141 64.5t-107 79.5t-72 107.5t-24 139.5q0 169 113 259.5
t319 90.5q192 0 356 -76q-6 -50 -16 -86q-165 74 -336 74q-158 0 -245 -68t-87 -192q0 -65 19 -114t60.5 -85t90.5 -61.5t125 -53.5l102 -36q168 -62 254 -154.5t86 -249.5q0 -169 -120 -271t-342 -102z" />
    <glyph glyph-name="sacute" unicode="&#x15b;" horiz-adv-x="880" 
d="M367 1192l104 285q47 20 121 20q-29 -92 -87.5 -176.5t-123.5 -128.5h-14zM412 -25q-81 0 -166.5 21t-147.5 59q2 38 17 84q63 -40 144 -60t149 -20q128 0 200 49t72 140q0 84 -49.5 131t-165.5 82l-80 24q-131 38 -200.5 105.5t-69.5 183.5q0 127 90.5 194.5t247.5 67.5
q162 0 295 -51q-3 -42 -15 -84q-122 51 -274 51q-115 0 -181.5 -44t-66.5 -130q0 -82 54 -130.5t165 -82.5l80 -24q142 -44 206 -109.5t64 -175.5q0 -129 -98 -205t-270 -76z" />
    <glyph glyph-name="Scircumflex" unicode="&#x15c;" horiz-adv-x="1050" 
d="M272 1569l201 233q24 8 62 8q32 0 59 -8l201 -233h-45q-105 55 -215 178q-107 -118 -224 -178h-39zM492 -29q-231 0 -392 103q3 55 13 88q173 -103 381 -103q168 0 263 75.5t95 205.5q0 123 -69 196t-228 132l-98 37q-82 31 -141 64.5t-107 79.5t-72 107.5t-24 139.5
q0 169 113 259.5t319 90.5q192 0 356 -76q-6 -50 -16 -86q-165 74 -336 74q-158 0 -245 -68t-87 -192q0 -65 19 -114t60.5 -85t90.5 -61.5t125 -53.5l102 -36q168 -62 254 -154.5t86 -249.5q0 -169 -120 -271t-342 -102z" />
    <glyph glyph-name="scircumflex" unicode="&#x15d;" horiz-adv-x="880" 
d="M436 1419q-89 -119 -188 -221h-51l188 287q16 4 53 4q35 0 49 -4l191 -287h-57q-94 94 -185 221zM510 541q142 -44 206 -109.5t64 -175.5q0 -129 -98 -205t-270 -76q-81 0 -166.5 21t-147.5 59q2 38 17 84q63 -40 144 -60t149 -20q128 0 200 49t72 140q0 84 -49.5 131
t-165.5 82l-80 24q-131 38 -200.5 105.5t-69.5 183.5q0 127 90.5 194.5t247.5 67.5q162 0 295 -51q-3 -42 -15 -84q-122 51 -274 51q-115 0 -181.5 -44t-66.5 -130q0 -82 54 -130.5t165 -82.5z" />
    <glyph glyph-name="Scedilla" unicode="&#x15e;" horiz-adv-x="1050" 
d="M954 344q0 -158 -105 -258t-300 -113l-33 -92q73 -15 119.5 -53t46.5 -96q0 -71 -48 -111.5t-138 -40.5q-60 0 -117 23q0 27 10 57q43 -18 103 -18q118 0 118 90q0 45 -47 72t-129 30l45 137q-222 3 -379 103q3 55 13 88q173 -103 381 -103q168 0 263 75.5t95 205.5
q0 123 -69 196t-228 132l-98 37q-82 31 -141 64.5t-107 79.5t-72 107.5t-24 139.5q0 169 113 259.5t319 90.5q192 0 356 -76q-6 -50 -16 -86q-165 74 -336 74q-158 0 -245 -68t-87 -192q0 -65 19 -114t60.5 -85t90.5 -61.5t125 -53.5l102 -36q168 -62 254 -154.5t86 -249.5z
" />
    <glyph glyph-name="scedilla" unicode="&#x15f;" horiz-adv-x="880" 
d="M780 256q0 -118 -82.5 -192.5t-230.5 -86.5l-33 -96q73 -15 119.5 -53t46.5 -96q0 -71 -48 -111.5t-138 -40.5q-60 0 -117 23q0 27 10 57q43 -18 103 -18q118 0 118 90q0 45 -47 72t-129 30l47 141q-80 2 -161 22.5t-140 57.5q2 38 17 84q63 -40 144 -60t149 -20
q128 0 200 49t72 140q0 84 -49.5 131t-165.5 82l-80 24q-131 38 -200.5 105.5t-69.5 183.5q0 127 90.5 194.5t247.5 67.5q162 0 295 -51q-3 -42 -15 -84q-122 51 -274 51q-115 0 -181.5 -44t-66.5 -130q0 -82 54 -130.5t165 -82.5l80 -24q142 -44 206 -109.5t64 -175.5z" />
    <glyph glyph-name="Scaron" unicode="&#x160;" horiz-adv-x="1050" 
d="M795 1810l-203 -235q-27 -6 -60 -6q-32 0 -59 6l-201 235h43q109 -56 217 -180q100 116 222 180h41zM492 -29q-231 0 -392 103q3 55 13 88q173 -103 381 -103q168 0 263 75.5t95 205.5q0 123 -69 196t-228 132l-98 37q-82 31 -141 64.5t-107 79.5t-72 107.5t-24 139.5
q0 169 113 259.5t319 90.5q192 0 356 -76q-6 -50 -16 -86q-165 74 -336 74q-158 0 -245 -68t-87 -192q0 -65 19 -114t60.5 -85t90.5 -61.5t125 -53.5l102 -36q168 -62 254 -154.5t86 -249.5q0 -169 -120 -271t-342 -102z" />
    <glyph glyph-name="scaron" unicode="&#x161;" horiz-adv-x="880" 
d="M438 1196q-37 0 -51 4l-190 287h59q87 -90 182 -219q91 119 191 219h49l-189 -287q-16 -4 -51 -4zM510 541q142 -44 206 -109.5t64 -175.5q0 -129 -98 -205t-270 -76q-81 0 -166.5 21t-147.5 59q2 38 17 84q63 -40 144 -60t149 -20q128 0 200 49t72 140q0 84 -49.5 131
t-165.5 82l-80 24q-131 38 -200.5 105.5t-69.5 183.5q0 127 90.5 194.5t247.5 67.5q162 0 295 -51q-3 -42 -15 -84q-122 51 -274 51q-115 0 -181.5 -44t-66.5 -130q0 -82 54 -130.5t165 -82.5z" />
    <glyph glyph-name="uni0162" unicode="&#x162;" horiz-adv-x="1040" 
d="M567 0h-14l-41 -119q73 -15 119.5 -53t46.5 -96q0 -71 -48 -111.5t-138 -40.5q-60 0 -117 23q0 27 10 57q43 -18 102 -18q119 0 119 90q0 45 -47 72t-129 30l55 166h-18v1327h-451q0 31 13 90h995q-4 -58 -12 -90h-445v-1327z" />
    <glyph glyph-name="uni0163" unicode="&#x163;" horiz-adv-x="671" 
d="M262 274q0 -115 49 -164t142 -49q86 0 159 37q-3 -49 -14 -88q-82 -35 -166 -35h-4l-33 -94q73 -15 119.5 -53t46.5 -96q0 -71 -48 -111.5t-138 -40.5q-59 0 -117 23q0 27 10 57q44 -18 103 -18q118 0 118 90q0 45 -47 72t-129 30l49 148q-198 38 -198 284v1028
q47 17 98 17v-299h356q0 -37 -10 -82h-346v-656z" />
    <glyph glyph-name="Tcaron" unicode="&#x164;" horiz-adv-x="1040" 
d="M520 1569q-32 0 -59 6l-201 235h43q109 -56 217 -180q101 117 221 180h41l-202 -235q-27 -6 -60 -6zM1024 1417q-4 -58 -12 -90h-445v-1327h-100v1327h-451q0 31 13 90h995z" />
    <glyph glyph-name="tcaron" unicode="&#x165;" horiz-adv-x="671" 
d="M604 1434q-15 -184 -92 -328h-33q23 150 29 311q53 17 96 17zM262 274q0 -115 49 -164t142 -49q86 0 159 37q-3 -49 -14 -88q-82 -35 -166 -35q-125 0 -196.5 70.5t-71.5 220.5v1028q47 17 98 17v-299h356q0 -37 -10 -82h-346v-656z" />
    <glyph glyph-name="Tbar" unicode="&#x166;" horiz-adv-x="1040" 
d="M1012 1327h-445v-528h328q0 -48 -10 -82h-318v-717h-100v717h-291q0 32 8 82h283v528h-451q0 31 13 90h995q-4 -58 -12 -90z" />
    <glyph glyph-name="tbar" unicode="&#x167;" horiz-adv-x="671" 
d="M262 274q0 -115 49 -164t142 -49q86 0 159 37q-3 -49 -14 -88q-82 -35 -166 -35q-125 0 -196.5 70.5t-71.5 220.5v316h-189q0 25 11 67h178v645q47 17 98 17v-299h356q0 -37 -10 -82h-346v-281h318q-4 -40 -11 -67h-307v-308z" />
    <glyph glyph-name="Utilde" unicode="&#x168;" horiz-adv-x="1318" 
d="M801 1556q-39 0 -95.5 37t-106 74t-73.5 37q-25 0 -37 -14.5t-12 -49.5v-81h-76v92q0 64 30 96.5t81 32.5q32 0 74.5 -24t76 -52t69 -52t56.5 -24q24 0 39 16.5t15 49.5v84h76v-95q0 -127 -117 -127zM657 -29q-225 0 -355 133t-130 351v956q54 16 100 16v-968
q0 -185 102.5 -290.5t282.5 -105.5q184 0 287 105.5t103 292.5v950q50 16 98 16v-972q0 -218 -130.5 -351t-357.5 -133z" />
    <glyph glyph-name="utilde" unicode="&#x169;" horiz-adv-x="1097" 
d="M393 1315v-80h-61v96q0 115 94 115q30 0 64.5 -23.5t61 -51.5t55.5 -51.5t48 -23.5q47 0 47 66v80h60v-96q0 -58 -26 -86.5t-72 -28.5q-29 0 -64 23.5t-62 51t-56 51t-48 23.5q-22 0 -31.5 -14.5t-9.5 -50.5zM823 1012h99v-1012h-93l-6 162q-130 -187 -331 -187
q-160 0 -244 92t-84 265v680h98v-654q0 -152 64.5 -225.5t195.5 -73.5q167 0 301 152v801z" />
    <glyph glyph-name="Umacron" unicode="&#x16a;" horiz-adv-x="1318" 
d="M430 1653q0 36 12 76h445q0 -31 -10 -76h-447zM657 -29q-225 0 -355 133t-130 351v956q54 16 100 16v-968q0 -185 102.5 -290.5t282.5 -105.5q184 0 287 105.5t103 292.5v950q50 16 98 16v-972q0 -218 -130.5 -351t-357.5 -133z" />
    <glyph glyph-name="umacron" unicode="&#x16b;" horiz-adv-x="1097" 
d="M762 1391q0 -33 -10 -78h-435q0 24 13 78h432zM823 1012h99v-1012h-93l-6 162q-130 -187 -331 -187q-160 0 -244 92t-84 265v680h98v-654q0 -152 64.5 -225.5t195.5 -73.5q167 0 301 152v801z" />
    <glyph glyph-name="Ubreve" unicode="&#x16c;" horiz-adv-x="1318" 
d="M659 1567q-107 0 -171 57.5t-82 157.5q36 8 73 8q17 -74 63 -114t117 -40q150 0 181 154q33 0 73 -8q-16 -100 -80.5 -157.5t-173.5 -57.5zM657 -29q-225 0 -355 133t-130 351v956q54 16 100 16v-968q0 -185 102.5 -290.5t282.5 -105.5q184 0 287 105.5t103 292.5v950
q50 16 98 16v-972q0 -218 -130.5 -351t-357.5 -133z" />
    <glyph glyph-name="ubreve" unicode="&#x16d;" horiz-adv-x="1097" 
d="M541 1192q-117 0 -179.5 73t-70.5 193q24 8 71 8q17 -202 179 -202q82 0 126 54.5t52 147.5q45 0 72 -8q-11 -118 -73 -192t-177 -74zM823 1012h99v-1012h-93l-6 162q-130 -187 -331 -187q-160 0 -244 92t-84 265v680h98v-654q0 -152 64.5 -225.5t195.5 -73.5
q167 0 301 152v801z" />
    <glyph glyph-name="Uring" unicode="&#x16e;" horiz-adv-x="1318" 
d="M659 1536q-80 0 -132 50t-52 128q0 76 53 125t131 49q79 0 132 -50t53 -126q0 -75 -53 -125.5t-132 -50.5zM659 1593q53 0 87 33.5t34 85.5q0 51 -35 84t-86 33q-50 0 -85 -32.5t-35 -82.5q0 -54 33 -87.5t87 -33.5zM657 -29q-225 0 -355 133t-130 351v956q54 16 100 16
v-968q0 -185 102.5 -290.5t282.5 -105.5q184 0 287 105.5t103 292.5v950q50 16 98 16v-972q0 -218 -130.5 -351t-357.5 -133z" />
    <glyph glyph-name="uring" unicode="&#x16f;" horiz-adv-x="1097" 
d="M541 1180q-78 0 -130.5 51.5t-52.5 128.5q0 79 52 129.5t131 50.5t130.5 -51.5t51.5 -128.5q0 -78 -50.5 -129t-131.5 -51zM541 1479q-52 0 -84.5 -33.5t-32.5 -85.5q0 -51 33 -86t84 -35q55 0 85.5 34.5t30.5 86.5q0 48 -32 83.5t-84 35.5zM823 1012h99v-1012h-93
l-6 162q-130 -187 -331 -187q-160 0 -244 92t-84 265v680h98v-654q0 -152 64.5 -225.5t195.5 -73.5q167 0 301 152v801z" />
    <glyph glyph-name="Uhungarumlaut" unicode="&#x170;" horiz-adv-x="1318" 
d="M453 1569l153 225q20 10 66 10q35 0 47 -4q-37 -67 -108.5 -136.5t-135.5 -94.5h-22zM690 1569l152 225q22 10 67 10q35 0 47 -4q-37 -65 -107.5 -133t-137.5 -98h-21zM657 -29q-225 0 -355 133t-130 351v956q54 16 100 16v-968q0 -185 102.5 -290.5t282.5 -105.5
q184 0 287 105.5t103 292.5v950q50 16 98 16v-972q0 -218 -130.5 -351t-357.5 -133z" />
    <glyph glyph-name="uhungarumlaut" unicode="&#x171;" horiz-adv-x="1097" 
d="M594 1495q-94 -203 -229 -307h-19l139 291q36 16 109 16zM602 1188h-18l139 291q36 16 106 16q-94 -215 -227 -307zM823 1012h99v-1012h-93l-6 162q-130 -187 -331 -187q-160 0 -244 92t-84 265v680h98v-654q0 -152 64.5 -225.5t195.5 -73.5q167 0 301 152v801z" />
    <glyph glyph-name="Uogonek" unicode="&#x172;" horiz-adv-x="1318" 
d="M1047 1411q50 16 98 16v-972q0 -154 -67 -269t-191 -170q-162 -112 -162 -239q0 -58 31 -87.5t84 -29.5q49 0 94 18q0 -3 -10 -69q-48 -19 -99 -19q-83 0 -131.5 45t-48.5 127q0 118 117 218q-50 -9 -105 -9q-225 0 -355 133t-130 351v956q54 16 100 16v-968
q0 -185 102.5 -290.5t282.5 -105.5q184 0 287 105.5t103 292.5v950z" />
    <glyph glyph-name="uogonek" unicode="&#x173;" horiz-adv-x="1097" 
d="M844 -360q49 0 94 18q0 -5 -10 -70q-45 -18 -99 -18q-83 0 -131.5 45t-48.5 127q0 71 42 135t138 131l-6 154q-130 -187 -331 -187q-160 0 -244 92t-84 265v680h98v-654q0 -152 64.5 -225.5t195.5 -73.5q167 0 301 152v801h99v-1012h-25q-168 -115 -168 -244
q0 -58 31 -87t84 -29z" />
    <glyph glyph-name="Wcircumflex" unicode="&#x174;" horiz-adv-x="1886" 
d="M944 1747q-108 -119 -223 -178h-39l201 233q24 8 61 8q33 0 60 -8l200 -233h-45q-105 55 -215 178zM1737 1417h102l-422 -1417h-117l-356 1249l-358 -1249h-119l-420 1417h107l372 -1313l373 1313h92l373 -1308z" />
    <glyph glyph-name="wcircumflex" unicode="&#x175;" horiz-adv-x="1583" 
d="M791 1419q-85 -114 -189 -221h-51l188 287q16 4 54 4q35 0 49 -4l190 -287h-57q-91 91 -184 221zM1456 1012h98l-358 -1012h-94l-309 874l-314 -874h-90l-360 1012h104l305 -903l312 903h88l317 -908z" />
    <glyph glyph-name="Ycircumflex" unicode="&#x176;" horiz-adv-x="1038" 
d="M522 1747q-108 -119 -223 -178h-39l201 233q24 8 61 8q33 0 60 -8l200 -233h-45q-105 55 -215 178zM1034 1417l-463 -891v-526h-100v526l-467 891h111l405 -801l408 801h106z" />
    <glyph glyph-name="ycircumflex" unicode="&#x177;" horiz-adv-x="933" 
d="M465 1419q-85 -114 -189 -221h-51l189 287q16 4 53 4q35 0 49 -4l191 -287h-58q-91 91 -184 221zM813 1012h100l-409 -1143q-63 -176 -137.5 -252t-192.5 -76q-43 0 -70 8q0 37 7 84q48 -6 53 -6q92 0 152.5 63.5t117.5 231.5l-416 1090h105l356 -971z" />
    <glyph glyph-name="Ydieresis" unicode="&#x178;" horiz-adv-x="1038" 
d="M334 1612q-31 0 -50.5 19.5t-19.5 51.5q0 30 20 50t50 20q31 0 50 -19.5t19 -50.5q0 -32 -19 -51.5t-50 -19.5zM705 1612q-31 0 -51.5 19.5t-20.5 51.5q0 31 20.5 50.5t51.5 19.5q29 0 48 -19.5t19 -50.5q0 -32 -18.5 -51.5t-48.5 -19.5zM1034 1417l-463 -891v-526h-100
v526l-467 891h111l405 -801l408 801h106z" />
    <glyph glyph-name="Zacute" unicode="&#x179;" horiz-adv-x="1089" 
d="M727 1794q-46 -67 -117 -131.5t-139 -93.5h-25l150 225q24 8 61 8q46 0 70 -8zM223 90h795q-4 -56 -12 -90h-912q0 36 6 74l766 1253h-784q4 54 12 90h901q0 -26 -10 -76z" />
    <glyph glyph-name="zacute" unicode="&#x17a;" horiz-adv-x="937" 
d="M623 1497q-29 -92 -87.5 -176.5t-123.5 -128.5h-15l105 285q47 20 121 20zM219 86h639q-3 -46 -12 -86h-758q0 43 4 61l610 865h-604q3 40 13 86h725q0 -31 -7 -62z" />
    <glyph glyph-name="Zdotaccent" unicode="&#x17b;" horiz-adv-x="1089" 
d="M539 1612q-31 0 -50.5 19t-19.5 50q0 32 19.5 52t50.5 20q29 0 48 -20t19 -52t-18.5 -50.5t-48.5 -18.5zM223 90h795q-4 -56 -12 -90h-912q0 36 6 74l766 1253h-784q4 54 12 90h901q0 -26 -10 -76z" />
    <glyph glyph-name="zdotaccent" unicode="&#x17c;" horiz-adv-x="937" 
d="M469 1278q-30 0 -50 20.5t-20 53.5t20 53t50 20q33 0 52.5 -19.5t19.5 -53.5q0 -32 -20 -53t-52 -21zM219 86h639q-3 -46 -12 -86h-758q0 43 4 61l610 865h-604q3 40 13 86h725q0 -31 -7 -62z" />
    <glyph glyph-name="Zcaron" unicode="&#x17d;" horiz-adv-x="1089" 
d="M537 1569q-33 0 -60 6l-201 235h43q111 -57 218 -180q101 117 221 180h41l-203 -235q-27 -6 -59 -6zM223 90h795q-4 -56 -12 -90h-912q0 36 6 74l766 1253h-784q4 54 12 90h901q0 -26 -10 -76z" />
    <glyph glyph-name="zcaron" unicode="&#x17e;" horiz-adv-x="937" 
d="M469 1196q-37 0 -51 4l-191 287h60q87 -90 182 -219q94 123 190 219h50l-189 -287q-16 -4 -51 -4zM219 86h639q-3 -46 -12 -86h-758q0 43 4 61l610 865h-604q3 40 13 86h725q0 -31 -7 -62z" />
    <glyph glyph-name="longs" unicode="&#x17f;" horiz-adv-x="638" 
d="M174 0v1124q0 322 315 322q81 0 158 -25q0 -36 -8 -86q-64 23 -145 23q-113 0 -167.5 -59.5t-54.5 -186.5v-1112h-98z" />
    <glyph glyph-name="uni018F" unicode="&#x18f;" horiz-adv-x="1269" 
d="M578 1446q587 0 587 -744q0 -223 -56.5 -384.5t-177.5 -254t-298 -92.5q-134 0 -236 52t-165.5 148t-95.5 224t-32 287v51h959q-5 305 -120.5 462t-369.5 157q-228 0 -407 -123q0 66 10 100q171 117 402 117zM633 66q207 0 313 150.5t117 426.5h-856q8 -277 116 -427
t310 -150z" />
    <glyph glyph-name="florin" unicode="&#x192;" horiz-adv-x="755" 
d="M590 1360q-89 0 -125.5 -51t-36.5 -154v-213h252q-5 -58 -10 -80h-242v-600q0 -287 -256 -287q-78 0 -139 25q4 60 8 86q58 -25 125 -25q164 0 164 205v596h-224v80h224v217q0 287 254 287q66 0 139 -25q-3 -39 -10 -86q-62 25 -123 25z" />
    <glyph glyph-name="Aringacute" unicode="&#x1fa;" horiz-adv-x="1130" 
d="M754 2234q-46 -67 -117 -131.5t-139 -93.5h-25l150 225q27 9 61 9q43 0 70 -9zM565 1536q-80 0 -132 50t-52 128q0 76 53 125t131 49q79 0 132 -50t53 -126q0 -75 -53 -125.5t-132 -50.5zM565 1829q-50 0 -85.5 -32.5t-35.5 -82.5q0 -54 33.5 -87.5t87.5 -33.5
q53 0 87 33.5t34 85.5q0 51 -35 84t-86 33zM999 0l-129 389h-616l-129 -389h-98l477 1411q47 14 117 14l483 -1425h-105zM285 479h557l-279 838z" />
    <glyph glyph-name="aringacute" unicode="&#x1fb;" horiz-adv-x="1017" 
d="M647 1962q-29 -92 -87.5 -176.5t-123.5 -128.5h-14l104 285q47 20 121 20zM492 1180q-78 0 -130.5 51.5t-52.5 128.5q0 79 52 129.5t131 50.5t130.5 -51.5t51.5 -128.5q0 -78 -50.5 -129t-131.5 -51zM492 1479q-52 0 -84.5 -33.5t-32.5 -85.5q0 -51 33 -86t84 -35
q55 0 85.5 34.5t30.5 86.5q0 48 -32 83.5t-84 35.5zM494 1036q175 0 261.5 -80t86.5 -249v-707h-92l-7 154q-47 -79 -133.5 -129t-199.5 -50q-146 0 -231 78.5t-85 212.5q0 83 30.5 145t99.5 111.5t188 80.5t290 44l41 2v53q0 133 -64 191.5t-196 58.5q-183 0 -336 -86
q0 25 9 86q145 84 338 84zM426 57q97 0 183.5 44t133.5 112v360l-36 -2q-151 -12 -254 -38t-159 -66t-78.5 -86.5t-22.5 -108.5q0 -97 60.5 -156t172.5 -59z" />
    <glyph glyph-name="AEacute" unicode="&#x1fc;" horiz-adv-x="1712" 
d="M1343 1794q-46 -67 -117 -131.5t-139 -93.5h-24l149 225q24 8 62 8q45 0 69 -8zM950 90h666q0 -50 -12 -90h-752v397h-561q-111 -220 -189 -397h-106q160 351 367.5 729t412.5 688h830q0 -49 -13 -90h-643v-553h586q-4 -57 -12 -92h-574v-592zM338 487h514v840h-33
q-227 -343 -481 -840z" />
    <glyph glyph-name="aeacute" unicode="&#x1fd;" horiz-adv-x="1648" 
d="M977 1497q-29 -92 -87.5 -176.5t-123.5 -128.5h-14l104 285q47 20 121 20zM1538 612q0 -70 -6 -100h-713q0 -228 99.5 -340.5t277.5 -112.5q174 0 301 93q-5 -61 -16 -97q-125 -80 -289 -80q-263 0 -385 185q-60 -83 -160.5 -134t-232.5 -51q-147 0 -233.5 70t-86.5 195
q0 79 29.5 139t95 106.5t178.5 73.5t273 33l53 2v4q1 13 3 27.5t5 31.5t4 27q4 36 4 55q0 116 -69.5 165.5t-202.5 49.5q-166 0 -322 -88q2 26 11 86q142 84 329 84q265 0 328 -166q117 166 332 166q127 0 217.5 -56.5t133 -151t42.5 -216.5zM1141 952q-140 0 -222 -95.5
t-96 -264.5h617v22q0 149 -76.5 243.5t-222.5 94.5zM426 57q113 0 201.5 46.5t144.5 119.5q-53 121 -53 289v4l-47 -2q-111 -4 -194.5 -19t-137 -38.5t-87 -57.5t-47 -71.5t-13.5 -85.5q0 -87 62.5 -136t170.5 -49z" />
    <glyph glyph-name="Oslashacute" unicode="&#x1fe;" horiz-adv-x="1376" 
d="M872 1794q-46 -67 -117 -131.5t-139 -93.5h-24l149 225q24 8 62 8q45 0 69 -8zM1124 1241q148 -196 148 -532q0 -344 -153 -541t-429 -197q-236 0 -385 146l-155 -215q-29 37 -41 73l145 199q-150 197 -150 535q0 341 154 539t430 198q236 0 385 -146l156 213
q27 -38 35 -79zM207 709q0 -286 108 -449l699 959q-123 135 -326 135q-230 0 -355.5 -170.5t-125.5 -474.5zM690 63q230 0 354.5 170t124.5 476q0 280 -106 448l-698 -960q125 -134 325 -134z" />
    <glyph glyph-name="oslashacute" unicode="&#x1ff;" horiz-adv-x="1073" 
d="M692 1497q-29 -92 -87.5 -176.5t-123.5 -128.5h-14l104 285q47 20 121 20zM850 905q125 -140 125 -399q0 -249 -114.5 -390t-325.5 -141q-158 0 -267 86l-112 -163q-31 35 -43 71l100 146q-117 142 -117 391q0 244 114.5 387t324.5 143q150 0 260 -80l108 160
q31 -46 39 -78zM197 506q0 -193 73 -309l471 686q-81 69 -206 69q-164 0 -251 -119.5t-87 -326.5zM535 59q166 0 252.5 118t86.5 329q0 201 -79 317l-476 -686q84 -78 216 -78z" />
    <glyph glyph-name="uni0218" unicode="&#x218;" horiz-adv-x="1050" 
d="M492 -29q-231 0 -392 103q3 55 13 88q173 -103 381 -103q168 0 263 75.5t95 205.5q0 123 -69 196t-228 132l-98 37q-82 31 -141 64.5t-107 79.5t-72 107.5t-24 139.5q0 169 113 259.5t319 90.5q192 0 356 -76q-6 -50 -16 -86q-165 74 -336 74q-158 0 -245 -68t-87 -192
q0 -65 19 -114t60.5 -85t90.5 -61.5t125 -53.5l102 -36q168 -62 254 -154.5t86 -249.5q0 -169 -120 -271t-342 -102zM446 -485q24 164 29 331q63 19 96 19q-12 -197 -92 -350h-33z" />
    <glyph glyph-name="uni0219" unicode="&#x219;" horiz-adv-x="880" 
d="M412 -25q-81 0 -166.5 21t-147.5 59q2 38 17 84q63 -40 144 -60t149 -20q128 0 200 49t72 140q0 84 -49.5 131t-165.5 82l-80 24q-131 38 -200.5 105.5t-69.5 183.5q0 127 90.5 194.5t247.5 67.5q162 0 295 -51q-3 -42 -15 -84q-122 51 -274 51q-115 0 -181.5 -44
t-66.5 -130q0 -82 54 -130.5t165 -82.5l80 -24q142 -44 206 -109.5t64 -175.5q0 -129 -98 -205t-270 -76zM367 -485q22 155 28 331q63 19 97 19q-12 -195 -93 -350h-32z" />
    <glyph glyph-name="uni021A" unicode="&#x21a;" horiz-adv-x="1040" 
d="M1024 1417q-4 -58 -12 -90h-445v-1327h-100v1327h-451q0 31 13 90h995zM442 -485q24 164 29 331q63 19 96 19q-12 -197 -92 -350h-33z" />
    <glyph glyph-name="uni021B" unicode="&#x21b;" horiz-adv-x="671" 
d="M262 274q0 -115 49 -164t142 -49q86 0 159 37q-3 -49 -14 -88q-82 -35 -166 -35q-125 0 -196.5 70.5t-71.5 220.5v1028q47 17 98 17v-299h356q0 -37 -10 -82h-346v-656zM326 -485q22 155 28 331q63 19 97 19q-12 -195 -93 -350h-32z" />
    <glyph glyph-name="uni0237" unicode="&#x237;" horiz-adv-x="448" 
d="M33 -463q-50 0 -103 17q2 20 11 79q42 -10 79 -10q76 0 115 41.5t39 132.5v1215h98v-1209q0 -266 -239 -266z" />
    <glyph glyph-name="uni0259" unicode="&#x259;" horiz-adv-x="1028" 
d="M457 1036q227 0 350 -139t123 -397q0 -113 -26 -207t-77 -166t-134 -112t-191 -40q-191 0 -291 124t-100 327q0 74 6 104h712q-7 213 -105.5 317.5t-270.5 104.5q-176 0 -301 -92q4 60 16 96q125 80 289 80zM504 59q149 0 231.5 104.5t91.5 285.5h-618v-25
q0 -166 74 -265.5t221 -99.5z" />
    <glyph glyph-name="circumflex" unicode="&#x2c6;" horiz-adv-x="686" 
d="M584 1198h-58q-91 91 -184 221q-89 -119 -188 -221h-52l189 287q16 4 53 4q35 0 49 -4z" />
    <glyph glyph-name="caron" unicode="&#x2c7;" horiz-adv-x="686" 
d="M535 1487h49l-189 -287q-16 -4 -51 -4q-37 0 -51 4l-191 287h60q87 -90 182 -219q91 119 191 219z" />
    <glyph glyph-name="uni02C9" unicode="&#x2c9;" horiz-adv-x="649" 
d="M102 1313q0 24 13 78h432q0 -33 -10 -78h-435z" />
    <glyph glyph-name="breve" unicode="&#x2d8;" horiz-adv-x="704" 
d="M352 1192q-117 0 -179.5 73t-70.5 193q24 8 72 8q17 -202 178 -202q82 0 126 54.5t52 147.5q45 0 72 -8q-11 -118 -73 -192t-177 -74z" />
    <glyph glyph-name="dotaccent" unicode="&#x2d9;" horiz-adv-x="346" 
d="M172 1278q-30 0 -50 20.5t-20 53.5t20 53t50 20q32 0 52 -19.5t20 -53.5q0 -32 -20 -53t-52 -21z" />
    <glyph glyph-name="ring" unicode="&#x2da;" horiz-adv-x="569" 
d="M285 1180q-78 0 -130.5 51.5t-52.5 128.5q0 79 52 129.5t131 50.5t130.5 -51.5t51.5 -128.5q0 -78 -50.5 -129t-131.5 -51zM285 1239q55 0 85.5 34.5t30.5 86.5q0 48 -32 83.5t-84 35.5t-84.5 -33.5t-32.5 -85.5q0 -51 33 -86t84 -35z" />
    <glyph glyph-name="ogonek" unicode="&#x2db;" horiz-adv-x="493" 
d="M283 -430q-83 0 -132 45t-49 127q0 76 47.5 143.5t157.5 139.5l43 -25q-168 -115 -168 -244q0 -58 31 -87t84 -29q49 0 94 18q0 -5 -10 -70q-45 -18 -98 -18z" />
    <glyph glyph-name="tilde" unicode="&#x2dc;" horiz-adv-x="634" 
d="M434 1231q-37 0 -82 37.5t-84.5 74.5t-62.5 37q-22 0 -31.5 -14.5t-9.5 -50.5v-80h-62v96q0 115 95 115q30 0 64.5 -23.5t61 -51.5t55.5 -51.5t48 -23.5q47 0 47 66v80h59v-96q0 -58 -26 -86.5t-72 -28.5z" />
    <glyph glyph-name="hungarumlaut" unicode="&#x2dd;" horiz-adv-x="688" 
d="M102 1188l140 291q36 16 108 16q-94 -203 -229 -307h-19zM340 1188l139 291q36 16 107 16q-93 -214 -228 -307h-18z" />
    <glyph glyph-name="gravecomb" unicode="&#x300;" horiz-adv-x="0" 
d="M-102 1192h-17q-64 44 -122 128.5t-87 176.5q71 0 121 -20z" />
    <glyph glyph-name="acutecomb" unicode="&#x301;" horiz-adv-x="0" 
d="M-328 1192l105 285q47 20 121 20q-29 -92 -87.5 -176.5t-123.5 -128.5h-15z" />
    <glyph glyph-name="uni0302" unicode="&#x302;" horiz-adv-x="0" 
d="M-102 1198h-58q-91 91 -184 221q-89 -119 -188 -221h-52l189 287q16 4 53 4q35 0 49 -4z" />
    <glyph glyph-name="tildecomb" unicode="&#x303;" horiz-adv-x="0" 
d="M-201 1231q-37 0 -82 37.5t-84.5 74.5t-62.5 37q-22 0 -31.5 -14.5t-9.5 -50.5v-80h-61v96q0 115 94 115q30 0 64.5 -23.5t61 -51.5t55.5 -51.5t48 -23.5q47 0 47 66v80h60v-96q0 -58 -26.5 -86.5t-72.5 -28.5z" />
    <glyph glyph-name="uni0304" unicode="&#x304;" horiz-adv-x="0" 
d="M-547 1313q0 28 12 78h433q0 -29 -11 -78h-434z" />
    <glyph glyph-name="uni0306" unicode="&#x306;" horiz-adv-x="0" 
d="M-352 1192q-117 0 -179.5 73t-70.5 193q24 8 72 8q17 -202 178 -202q82 0 126 54.5t52 147.5q45 0 72 -8q-11 -118 -73 -192t-177 -74z" />
    <glyph glyph-name="uni0307" unicode="&#x307;" horiz-adv-x="0" 
d="M-174 1278q-30 0 -50 20.5t-20 53.5t20 53t50 20q32 0 52 -19.5t20 -53.5q0 -32 -20 -53t-52 -21z" />
    <glyph glyph-name="uni0308" unicode="&#x308;" horiz-adv-x="0" 
d="M-494 1282q-31 0 -50 20t-19 52q0 31 19 49t50 18q30 0 48 -18.5t18 -48.5q0 -32 -18.5 -52t-47.5 -20zM-170 1282q-29 0 -48.5 19.5t-19.5 50.5q0 32 19 50.5t49 18.5q31 0 49.5 -18.5t18.5 -50.5q0 -31 -18.5 -50.5t-49.5 -19.5z" />
    <glyph glyph-name="uni030A" unicode="&#x30a;" horiz-adv-x="0" 
d="M-285 1180q-78 0 -130 51.5t-52 128.5q0 79 51.5 129.5t130.5 50.5t131 -51.5t52 -128.5t-51 -128.5t-132 -51.5zM-285 1239q55 0 86 34.5t31 86.5q0 48 -32.5 83.5t-84.5 35.5t-84 -33.5t-32 -85.5q0 -51 32.5 -86t83.5 -35z" />
    <glyph glyph-name="uni030B" unicode="&#x30b;" horiz-adv-x="0" 
d="M-586 1188l140 291q36 16 108 16q-94 -203 -229 -307h-19zM-348 1188l139 291q36 16 107 16q-93 -214 -228 -307h-18z" />
    <glyph glyph-name="uni030C" unicode="&#x30c;" horiz-adv-x="0" 
d="M-152 1487h50l-189 -287q-16 -4 -51 -4q-37 0 -51 4l-191 287h60q87 -90 182 -219q94 123 190 219z" />
    <glyph glyph-name="uni0313" unicode="&#x313;" horiz-adv-x="0" 
d="M-227 1116q22 151 28 332q51 16 97 18q-12 -195 -93 -350h-32z" />
    <glyph glyph-name="uni0326" unicode="&#x326;" horiz-adv-x="0" 
d="M-227 -485q22 155 28 331q63 19 97 19q-12 -195 -93 -350h-32z" />
    <glyph glyph-name="uni0327" unicode="&#x327;" horiz-adv-x="0" 
d="M-268 -119q73 -15 119.5 -53t46.5 -96q0 -71 -48.5 -111.5t-138.5 -40.5q-59 0 -117 23q0 24 11 57q43 -18 102 -18q119 0 119 90q0 45 -47 72t-129 30l59 178l68 -2z" />
    <glyph glyph-name="uni0328" unicode="&#x328;" horiz-adv-x="0" 
d="M-211 -430q-83 0 -131.5 45t-48.5 127q0 76 47.5 143.5t157.5 139.5l43 -25q-168 -115 -168 -244q0 -58 30.5 -87t83.5 -29q50 0 95 18q-1 -15 -5.5 -39t-5.5 -31q-45 -18 -98 -18z" />
    <glyph glyph-name="uni0394" unicode="&#x394;" 
d="M616 1423l449 -1423h-1004l441 1409q43 14 114 14zM186 90h750l-375 1225z" />
    <glyph glyph-name="uni0394" unicode="&#x3b4;" 
d="M616 1423l449 -1423h-1004l441 1409q43 14 114 14zM186 90h750l-375 1225z" />
    <glyph glyph-name="uni03A9" unicode="&#x3a9;" horiz-adv-x="1140" 
d="M715 186l2 -94h274q-3 -38 -10 -92h-336v238q139 36 214 176t75 374q0 274 -98.5 421t-266.5 147q-170 0 -267 -147t-97 -418q0 -232 73.5 -372t208.5 -181v-238h-346q0 40 9 92h268l2 92q-144 56 -229 215t-85 398q0 303 123.5 476t341.5 173q217 0 341 -174.5
t124 -476.5q0 -239 -87 -398t-234 -211z" />
    <glyph glyph-name="uni03A9" unicode="&#x3c9;" horiz-adv-x="1140" 
d="M715 186l2 -94h274q-3 -38 -10 -92h-336v238q139 36 214 176t75 374q0 274 -98.5 421t-266.5 147q-170 0 -267 -147t-97 -418q0 -232 73.5 -372t208.5 -181v-238h-346q0 40 9 92h268l2 92q-144 56 -229 215t-85 398q0 303 123.5 476t341.5 173q217 0 341 -174.5
t124 -476.5q0 -239 -87 -398t-234 -211z" />
    <glyph glyph-name="uni03BC" unicode="&#x3bc;" 
d="M840 1012h98v-1012h-92l-6 160q-63 -91 -143 -138t-189 -47q-148 0 -232 78q5 -195 5 -233v-254h-97v715q-2 16 -2 51v680h99v-654q0 -152 64 -225.5t196 -73.5q169 0 299 152v801z" />
    <glyph glyph-name="pi" unicode="&#x3c0;" 
d="M985 59q55 0 107 21q0 -19 -11 -82q-59 -21 -123 -21q-93 0 -146.5 54.5t-53.5 158.5v740h-443v-930h-96v930h-211q0 28 8 82h1065q-3 -49 -10 -82h-217v-727q0 -71 35 -107.5t96 -36.5z" />
    <glyph glyph-name="uni0E3F" unicode="&#xe3f;" 
d="M938 389q0 -169 -108 -276t-298 -113v-256h-69v256h-275v1417q149 29 261 29h14v205q32 14 69 14v-223q180 -17 268.5 -108.5t88.5 -248.5q0 -124 -61.5 -209t-163.5 -122q131 -30 202.5 -128t71.5 -237zM453 1360q-75 0 -168 -14v-558h178v572h-10zM791 1071
q0 251 -259 285v-565q112 8 185.5 80.5t73.5 199.5zM285 86h178v614h-178v-614zM532 86q142 9 225 89.5t83 219.5q0 133 -81.5 214.5t-226.5 90.5v-614z" />
    <glyph glyph-name="Wgrave" unicode="&#x1e80;" horiz-adv-x="1886" 
d="M1053 1569q-68 29 -139 93.5t-117 131.5q24 8 69 8q38 0 62 -8l149 -225h-24zM1737 1417h102l-422 -1417h-117l-356 1249l-358 -1249h-119l-420 1417h107l372 -1313l373 1313h92l373 -1308z" />
    <glyph glyph-name="wgrave" unicode="&#x1e81;" horiz-adv-x="1583" 
d="M854 1192q-64 44 -122 128.5t-87 176.5q71 0 121 -20l104 -285h-16zM1456 1012h98l-358 -1012h-94l-309 874l-314 -874h-90l-360 1012h104l305 -903l312 903h88l317 -908z" />
    <glyph glyph-name="Wacute" unicode="&#x1e82;" horiz-adv-x="1886" 
d="M1130 1794q-46 -67 -117 -131.5t-139 -93.5h-24l149 225q24 8 62 8q45 0 69 -8zM1737 1417h102l-422 -1417h-117l-356 1249l-358 -1249h-119l-420 1417h107l372 -1313l373 1313h92l373 -1308z" />
    <glyph glyph-name="wacute" unicode="&#x1e83;" horiz-adv-x="1583" 
d="M946 1497q-29 -92 -87.5 -176.5t-123.5 -128.5h-14l104 285q47 20 121 20zM1456 1012h98l-358 -1012h-94l-309 874l-314 -874h-90l-360 1012h104l305 -903l312 903h88l317 -908z" />
    <glyph glyph-name="Wdieresis" unicode="&#x1e84;" horiz-adv-x="1886" 
d="M756 1612q-31 0 -50.5 19.5t-19.5 51.5q0 30 20 50t50 20q31 0 50 -19.5t19 -50.5q0 -32 -19 -51.5t-50 -19.5zM1126 1612q-31 0 -51 19.5t-20 51.5q0 31 20 50.5t51 19.5q29 0 48.5 -19.5t19.5 -50.5q0 -32 -19 -51.5t-49 -19.5zM1737 1417h102l-422 -1417h-117
l-356 1249l-358 -1249h-119l-420 1417h107l372 -1313l373 1313h92l373 -1308z" />
    <glyph glyph-name="wdieresis" unicode="&#x1e85;" horiz-adv-x="1583" 
d="M631 1282q-31 0 -50.5 20t-19.5 52q0 30 19.5 48.5t50.5 18.5q29 0 47 -18t18 -49q0 -32 -18 -52t-47 -20zM954 1282q-29 0 -48 19.5t-19 50.5q0 32 18.5 50.5t48.5 18.5q31 0 49.5 -18.5t18.5 -50.5q0 -31 -18.5 -50.5t-49.5 -19.5zM1456 1012h98l-358 -1012h-94
l-309 874l-314 -874h-90l-360 1012h104l305 -903l312 903h88l317 -908z" />
    <glyph glyph-name="uni1E9E" unicode="&#x1e9e;" horiz-adv-x="1327" 
d="M825 825q113 -7 202.5 -55.5t144.5 -141t55 -216.5q0 -200 -126.5 -316t-326.5 -116q-123 0 -199 28q0 14 11 88q87 -26 184 -26q157 0 255.5 90.5t98.5 251.5q0 162 -107 247.5t-272 85.5h-40q0 24 4 60l352 524h-371q-205 0 -300 -92.5t-95 -288.5v-948h-102v956
q0 225 116.5 343t382.5 118h496q0 -36 -10 -78z" />
    <glyph glyph-name="Ygrave" unicode="&#x1ef2;" horiz-adv-x="1038" 
d="M631 1569q-68 29 -139 93.5t-117 131.5q24 8 69 8q38 0 62 -8l149 -225h-24zM1034 1417l-463 -891v-526h-100v526l-467 891h111l405 -801l408 801h106z" />
    <glyph glyph-name="ygrave" unicode="&#x1ef3;" horiz-adv-x="933" 
d="M526 1192q-64 44 -122 128.5t-87 176.5q71 0 121 -20l105 -285h-17zM813 1012h100l-409 -1143q-63 -176 -137.5 -252t-192.5 -76q-43 0 -70 8q0 37 7 84q48 -6 53 -6q92 0 152.5 63.5t117.5 231.5l-416 1090h105l356 -971z" />
    <glyph glyph-name="uni2011" unicode="&#x2011;" horiz-adv-x="753" 
d="M94 563q0 41 10 86h553q0 -41 -10 -86h-553z" />
    <glyph glyph-name="endash" unicode="&#x2013;" horiz-adv-x="1130" 
d="M94 563q6 67 10 86h932q0 -45 -12 -86h-930z" />
    <glyph glyph-name="emdash" unicode="&#x2014;" horiz-adv-x="1796" 
d="M94 563q6 65 10 86h1598q0 -41 -10 -86h-1598z" />
    <glyph glyph-name="quoteleft" unicode="&#x2018;" horiz-adv-x="471" 
d="M334 1438q-57 -232 -60 -461h-92q8 151 24.5 249.5t55.5 198.5q43 13 72 13z" />
    <glyph glyph-name="quoteright" unicode="&#x2019;" horiz-adv-x="391" 
d="M139 971q51 227 54 446q56 21 98 21q-8 -223 -82 -467h-70z" />
    <glyph glyph-name="quotesinglbase" unicode="&#x201a;" horiz-adv-x="473" 
d="M139 -340q51 232 54 449q54 18 98 20q-8 -221 -82 -469h-70z" />
    <glyph glyph-name="quotedblleft" unicode="&#x201c;" horiz-adv-x="733" 
d="M334 1438q-57 -232 -60 -461h-92q8 151 24.5 249.5t55.5 198.5q43 13 72 13zM594 1438q-54 -229 -59 -461h-93q8 148 25.5 247.5t56.5 200.5q43 13 70 13z" />
    <glyph glyph-name="quotedblright" unicode="&#x201d;" horiz-adv-x="733" 
d="M139 971q51 227 54 446q56 21 98 21q-8 -223 -82 -467h-70zM399 971q51 227 54 446q55 21 100 21q-11 -233 -82 -467h-72z" />
    <glyph glyph-name="quotedblbase" unicode="&#x201e;" horiz-adv-x="733" 
d="M139 -340q51 232 54 449q54 18 98 20q-8 -221 -82 -469h-70zM399 -338q51 227 54 447q53 20 100 20q-11 -233 -82 -467h-72z" />
    <glyph glyph-name="dagger" unicode="&#x2020;" horiz-adv-x="1099" 
d="M928 1012q-4 -47 -13 -84h-327v-930h-86v930h-330q5 60 12 84h318v405h86v-405h340z" />
    <glyph glyph-name="daggerdbl" unicode="&#x2021;" horiz-adv-x="1110" 
d="M596 950v-485h332q0 -40 -13 -84h-319v-383h-84v383h-338q0 39 10 84h328v485h-330q0 34 11 84h319v383h84v-383h340q0 -39 -10 -84h-330z" />
    <glyph glyph-name="bullet" unicode="&#x2022;" horiz-adv-x="743" 
d="M375 514q-75 0 -122.5 47t-47.5 117t47.5 118t122.5 48q73 0 118.5 -47.5t45.5 -118.5q0 -70 -45 -117t-119 -47z" />
    <glyph glyph-name="ellipsis" unicode="&#x2026;" horiz-adv-x="1507" 
d="M311 -14q-32 0 -55 22.5t-23 54.5q0 31 23 53.5t55 22.5q31 0 53.5 -22.5t22.5 -53.5q0 -32 -22.5 -54.5t-53.5 -22.5zM758 -14q-32 0 -55 22.5t-23 54.5q0 31 23 53.5t55 22.5q31 0 53.5 -22.5t22.5 -53.5q0 -32 -22.5 -54.5t-53.5 -22.5zM1198 -14q-32 0 -55 22.5
t-23 54.5q0 31 23 53.5t55 22.5q31 0 53.5 -22.5t22.5 -53.5q0 -32 -22.5 -54.5t-53.5 -22.5z" />
    <glyph glyph-name="perthousand" unicode="&#x2030;" horiz-adv-x="2351" 
d="M406 688q-140 0 -214.5 100.5t-74.5 280.5t74.5 278.5t214.5 98.5q138 0 210 -98.5t72 -278.5q0 -181 -72 -281t-210 -100zM406 -10l737 1427q44 8 96 8l-739 -1425q-52 -10 -94 -10zM406 764q196 0 196 305t-196 305q-102 0 -151.5 -79.5t-49.5 -225.5q0 -305 201 -305z
M1255 -29q-140 0 -214 100.5t-74 280.5t74 278.5t214 98.5q138 0 210.5 -98.5t72.5 -278.5q0 -181 -72.5 -281t-210.5 -100zM1968 -33q-140 0 -214.5 100t-74.5 279q0 180 75 278.5t214 98.5t212 -98t73 -279q0 -180 -73 -279.5t-212 -99.5zM1255 47q197 0 197 305t-197 305
q-200 0 -200 -305t200 -305zM1968 41q199 0 199 305q0 146 -49.5 225.5t-149.5 79.5q-101 0 -151 -78.5t-50 -226.5q0 -305 201 -305z" />
    <glyph glyph-name="guilsinglleft" unicode="&#x2039;" horiz-adv-x="575" 
d="M410 102l-316 461l318 461q32 -8 75 -35l-290 -426l290 -426q-30 -21 -77 -35z" />
    <glyph glyph-name="guilsinglright" unicode="&#x203a;" horiz-adv-x="575" 
d="M164 102q-45 13 -76 35l291 426l-291 426q43 28 76 35l317 -461z" />
    <glyph glyph-name="fraction" unicode="&#x2044;" horiz-adv-x="380" 
d="M-227 -10l739 1427q41 8 96 8l-739 -1425q-55 -10 -96 -10z" />
    <glyph glyph-name="zero.sups" unicode="&#x2070;" horiz-adv-x="831" 
d="M403 936q-149 0 -217.5 93t-68.5 278q0 186 68 278t218 92q148 0 216.5 -92.5t68.5 -277.5q0 -184 -68.5 -277.5t-216.5 -93.5zM403 1010q107 0 152 71.5t45 225.5t-45 226.5t-152 72.5q-109 0 -153.5 -72t-44.5 -227q0 -154 44.5 -225.5t153.5 -71.5z" />
    <glyph glyph-name="four.sups" unicode="&#x2074;" horiz-adv-x="704" 
d="M670 1198q0 -28 -11 -68h-120v-174h-78v174h-414q0 32 6 66q72 122 181 250.5t219 222.5q31 6 86 6v-477h131zM129 1198h332v391q-210 -200 -332 -391z" />
    <glyph glyph-name="five.sups" unicode="&#x2075;" horiz-adv-x="761" 
d="M328 1397q135 0 217 -57t82 -171q0 -115 -88 -176t-234 -61q-107 0 -186 18q0 30 10 72q86 -16 172 -16q109 0 173.5 40t64.5 121q0 160 -236 160q-77 0 -153 -18l34 350h422q0 -48 -6 -72h-338l-22 -196q44 6 88 6z" />
    <glyph glyph-name="six.sups" unicode="&#x2076;" horiz-adv-x="811" 
d="M424 1399q119 0 186.5 -61.5t67.5 -166.5q0 -108 -71 -173.5t-193 -65.5q-146 0 -221.5 94.5t-75.5 259.5q0 391 325 391q118 0 193 -35q0 -29 -8 -65q-81 33 -185 33q-123 0 -181.5 -76t-61.5 -231q81 96 225 96zM412 999q85 0 134.5 45.5t49.5 120.5q0 74 -48.5 119
t-139.5 45q-123 0 -209 -80q8 -117 61.5 -183.5t151.5 -66.5z" />
    <glyph glyph-name="seven.sups" unicode="&#x2077;" horiz-adv-x="634" 
d="M37 1657h534q0 -40 -6 -64q-240 -334 -327 -637h-86q81 291 319 633h-440q0 20 6 68z" />
    <glyph glyph-name="eight.sups" unicode="&#x2078;" horiz-adv-x="827" 
d="M492 1327q196 -55 196 -199q0 -92 -78.5 -144t-212.5 -52q-133 0 -208.5 49.5t-75.5 140.5q0 135 188 185q-168 59 -168 190q0 85 71 135.5t199 50.5q125 0 195 -48t70 -128q0 -125 -176 -180zM217 1497q0 -109 180 -147l17 -4q172 46 172 153q0 56 -47.5 88.5
t-137.5 32.5t-137 -33.5t-47 -89.5zM401 997q94 0 148.5 36t54.5 97q0 105 -188 150l-31 6q-190 -46 -190 -156q0 -65 55 -99t151 -34z" />
    <glyph glyph-name="nine.sups" unicode="&#x2079;" horiz-adv-x="784" 
d="M371 1681q146 0 221.5 -94.5t75.5 -259.5q0 -391 -326 -391q-117 0 -192 35q0 29 8 65q78 -32 184 -32q123 0 182 76.5t62 230.5q-82 -97 -226 -97q-119 0 -186.5 61.5t-67.5 166.5q0 108 71.5 173.5t193.5 65.5zM377 1284q123 0 209 80q-8 117 -61.5 183.5t-151.5 66.5
q-85 0 -135 -46t-50 -120t49 -119t140 -45z" />
    <glyph glyph-name="uni207D" unicode="&#x207d;" horiz-adv-x="614" 
d="M342 750q-149 263 -149 591q0 308 149 562q37 -3 76 -23q-137 -253 -137 -539q0 -314 139 -577q-43 -14 -78 -14z" />
    <glyph glyph-name="uni207E" unicode="&#x207e;" horiz-adv-x="614" 
d="M270 772q-34 0 -77 14q141 261 141 578q0 281 -137 539q37 19 73 22q150 -250 150 -561q0 -333 -150 -592z" />
    <glyph glyph-name="uni207F" unicode="&#x207f;" horiz-adv-x="843" 
d="M467 1438q122 0 183 -74t61 -213v-543h-88v525q0 229 -185 229q-125 0 -217 -121v-633h-88v811h80l8 -135q88 154 246 154z" />
    <glyph glyph-name="zero.subs" unicode="&#x2080;" horiz-adv-x="819" 
d="M403 -455q-149 0 -217.5 93t-68.5 278q0 186 68 278.5t218 92.5q148 0 216.5 -93t68.5 -278q0 -184 -68.5 -277.5t-216.5 -93.5zM403 -381q107 0 152 71.5t45 225.5t-45 226.5t-152 72.5q-109 0 -153.5 -72t-44.5 -227q0 -154 44.5 -225.5t153.5 -71.5z" />
    <glyph glyph-name="one.subs" unicode="&#x2081;" horiz-adv-x="598" 
d="M84 217q176 65 295 72v-723h-84v643q-90 -18 -219 -66q0 43 8 74z" />
    <glyph glyph-name="two.subs" unicode="&#x2082;" horiz-adv-x="702" 
d="M174 -369h430q0 -37 -8 -65h-508v28q0 92 55.5 155.5t169.5 123.5q102 52 136 90.5t34 99.5q0 73 -51 112.5t-147 39.5q-102 0 -193 -39q0 22 8 76q93 35 201 35q131 0 200.5 -57t69.5 -156q0 -81 -40 -135.5t-146 -108.5q-102 -52 -153 -96.5t-58 -102.5z" />
    <glyph glyph-name="three.subs" unicode="&#x2083;" horiz-adv-x="706" 
d="M399 -66q207 -26 207 -178q0 -209 -340 -209q-87 0 -174 17q0 29 10 67q78 -16 164 -16q129 0 190.5 34.5t61.5 108.5q0 140 -244 140h-98q0 44 8 65h78q225 0 225 137q0 56 -47.5 86.5t-138.5 30.5q-121 0 -203 -33q0 37 8 70q79 33 201 33q127 0 196.5 -47t69.5 -134
q0 -136 -174 -172z" />
    <glyph glyph-name="four.subs" unicode="&#x2084;" horiz-adv-x="698" 
d="M670 -193q0 -27 -11 -67h-120v-174h-78v174h-414q0 30 6 65q72 122 181.5 251t218.5 223q31 6 86 6v-478h131zM129 -193h332v392q-209 -198 -332 -392z" />
    <glyph glyph-name="five.subs" unicode="&#x2085;" horiz-adv-x="737" 
d="M328 6q135 0 217 -57t82 -170q0 -115 -88 -176.5t-234 -61.5q-102 0 -186 19q0 29 10 71q86 -16 172 -16q108 0 173 40.5t65 121.5q0 160 -236 160q-72 0 -153 -19l34 350h422q0 -47 -6 -71h-338l-22 -197q44 6 88 6z" />
    <glyph glyph-name="six.subs" unicode="&#x2086;" horiz-adv-x="790" 
d="M424 8q119 0 186.5 -61t67.5 -166q0 -108 -71 -174t-193 -66q-146 0 -221.5 94.5t-75.5 260.5q0 391 325 391q118 0 193 -35q0 -30 -8 -66q-81 33 -185 33q-123 0 -181.5 -76t-61.5 -231q81 96 225 96zM412 -391q85 0 134.5 45.5t49.5 120.5q0 74 -48.5 119t-139.5 45
q-123 0 -209 -80q8 -117 61.5 -183.5t151.5 -66.5z" />
    <glyph glyph-name="seven.subs" unicode="&#x2087;" horiz-adv-x="606" 
d="M37 266h534q0 -39 -6 -63q-240 -334 -327 -637h-86q81 291 319 633h-440q0 19 6 67z" />
    <glyph glyph-name="eight.subs" unicode="&#x2088;" horiz-adv-x="798" 
d="M492 -63q196 -55 196 -199q0 -92 -78.5 -144.5t-212.5 -52.5q-133 0 -208.5 50t-75.5 141q0 134 188 184q-168 59 -168 190q0 85 71 136t199 51q125 0 195 -48t70 -128q0 -125 -176 -180zM217 106q0 -109 180 -147l17 -4q85 23 128.5 62.5t43.5 91.5q0 55 -47.5 87.5
t-137.5 32.5t-137 -33.5t-47 -89.5zM401 -393q94 0 148.5 36t54.5 97q0 104 -188 149l-31 7q-190 -46 -190 -156q0 -65 55 -99t151 -34z" />
    <glyph glyph-name="nine.subs" unicode="&#x2089;" horiz-adv-x="784" 
d="M371 291q145 0 221 -94.5t76 -259.5q0 -193 -82 -292.5t-244 -99.5q-117 0 -192 35q0 29 8 68q81 -33 182 -33q123 0 183 76t63 231q-79 -98 -228 -98q-118 0 -186 61.5t-68 165.5q0 108 72 174t195 66zM377 -106q121 0 209 79q-6 116 -60 183t-153 67q-87 0 -137 -45
t-50 -121q0 -74 49.5 -118.5t141.5 -44.5z" />
    <glyph glyph-name="uni208D" unicode="&#x208d;" horiz-adv-x="614" 
d="M342 -623q-149 263 -149 592q0 307 149 561q39 -3 76 -22q-137 -253 -137 -539q0 -314 139 -577q-46 -15 -78 -15z" />
    <glyph glyph-name="uni208E" unicode="&#x208e;" horiz-adv-x="614" 
d="M270 -623q-31 0 -77 15q141 261 141 577q0 281 -137 539q37 19 73 22q150 -250 150 -561q0 -333 -150 -592z" />
    <glyph glyph-name="uni2099" unicode="&#x2099;" horiz-adv-x="825" 
d="M467 395q123 0 183.5 -73.5t60.5 -212.5v-543h-88v524q0 229 -185 229q-126 0 -217 -120v-633h-88v811h80l8 -135q88 153 246 153z" />
    <glyph glyph-name="colonmonetary" unicode="&#x20a1;" 
d="M952 1278q-48 29 -112 51l-242 -1259q40 -7 70 -7q140 0 266 66q-3 -48 -12 -100q-116 -58 -263 -58q-41 0 -79 6l-45 -233h-74l47 248q-73 23 -139 76l-64 -324h-76l76 389q-151 186 -151 567q0 661 403 736l41 215q32 14 78 14l-43 -221q12 2 39 2q56 0 114 -12l41 215
q22 14 78 14l-47 -246q55 -17 107 -47q0 -34 -13 -92zM526 88l244 1258q-55 10 -98 10q-40 0 -56 -2l-227 -1170q61 -70 137 -96zM254 700q0 -267 78 -426l205 1063q-150 -48 -216.5 -207.5t-66.5 -429.5z" />
    <glyph glyph-name="franc" unicode="&#x20a3;" 
d="M920 1329h-512v-557h485q0 -34 -12 -88h-473v-250h297q-4 -50 -11 -80h-286v-354h-97v354h-227v80h227v983h619q0 -43 -10 -88z" />
    <glyph glyph-name="uni20A5" unicode="&#x20a5;" 
d="M813 1198q236 0 236 -313v-723h-95v715q0 229 -174 229q-94 0 -182 -102v-3q8 -39 8 -92v-747h-96v381l-109 -566h-79l186 971q-20 156 -162 156q-104 0 -180 -115v-827h-96v1012h88l6 -134q81 158 215 158q104 0 164 -70l55 295q38 15 84 15l-61 -324q78 84 192 84z" />
    <glyph glyph-name="uni20A6" unicode="&#x20a6;" 
d="M1118 778q-4 -55 -10 -80h-158v-698h-86l-340 698h-256v-698h-94v698h-151v80h151v633q70 16 92 16l322 -649h270v633q40 16 92 16v-649h168zM268 778h217l-102 209q-65 133 -117 258q0 -72 1 -223.5t1 -228.5v-15zM862 199q-4 320 -4 499h-231l88 -178q82 -169 147 -321
z" />
    <glyph glyph-name="uni20A8" unicode="&#x20a8;" horiz-adv-x="1189" 
d="M633 1024q0 -177 -61.5 -280t-165.5 -136l243 -608h-90l-233 594h-117v-594h-84v1415q89 29 178 29q167 0 248.5 -112t81.5 -308zM209 1346v-666h117q96 0 157.5 81.5t61.5 258.5q0 338 -238 338q-49 0 -98 -12zM932 543q59 -46 94.5 -83t61.5 -94.5t26 -125.5
q0 -127 -61.5 -196t-178.5 -69q-103 0 -184 72q0 56 10 86q71 -74 162 -74q166 0 166 181q0 75 -36 124t-107 101l-27 22q-41 32 -66.5 56.5t-50 59.5t-36 77.5t-11.5 95.5q0 123 62.5 191.5t158.5 68.5q88 0 172 -49q0 -36 -8 -90q-68 51 -151 51q-68 0 -110 -42t-42 -128
q0 -76 30.5 -121t96.5 -92z" />
    <glyph glyph-name="uni20A9" unicode="&#x20a9;" horiz-adv-x="1574" 
d="M1559 793q-2 -20 -11 -78h-194l-170 -715h-115l-162 715h-241l-164 -715h-117l-164 715h-203v78h187l-144 624h107l133 -624h299l141 624h93l141 -624h305l139 624h103l-150 -624h187zM682 793h207l-103 454zM444 109l138 606h-265zM1128 111l136 604h-271z" />
    <glyph glyph-name="Euro" unicode="&#x20ac;" horiz-adv-x="1101" 
d="M735 1356q-173 0 -264 -117t-115 -346h562q-3 -35 -13 -82h-555q-2 -33 -2 -102q0 -43 4 -121h555q-5 -57 -12 -82h-537q25 -220 117 -331.5t260 -111.5q61 0 132 17t122 49q-3 -48 -12 -100q-116 -58 -250 -58q-408 0 -469 535h-201v82h195q-4 78 -4 121q0 69 2 102
h-193v82h199q58 553 475 553q72 0 147 -21t126 -55q0 -48 -13 -92q-52 36 -121.5 57t-134.5 21z" />
    <glyph glyph-name="uni20AD" unicode="&#x20ad;" 
d="M903 0l-475 698h-51v-698h-96v698h-207v80h207v633q50 16 96 16v-649h53l459 639h106l-460 -639h354q-4 -55 -10 -80h-342l481 -698h-115z" />
    <glyph glyph-name="uni20AE" unicode="&#x20ae;" 
d="M983 1329h-375v-489l299 104q0 -42 -6 -82l-293 -102v-197l299 105q0 -42 -6 -82l-293 -103v-483h-96v451l-272 -95v80l272 94v197l-272 -96v82l272 94v522h-381q3 41 10 88h852q0 -46 -10 -88z" />
    <glyph glyph-name="uni20B1" unicode="&#x20b1;" 
d="M926 991q0 -68 -8 -117h174q-4 -52 -13 -83h-182q-44 -136 -150.5 -208.5t-263.5 -72.5h-186v-510h-96v791h-181v83h181v222h-181v82h181v239q135 29 266 29q346 0 432 -268h203q-3 -42 -12 -82h-172q8 -44 8 -105zM297 1348v-170h496q-75 184 -328 184q-73 0 -168 -14z
M297 1096v-222h516q10 58 10 115q0 63 -8 107h-518zM479 592q116 0 195.5 50.5t116.5 148.5h-494v-199h182z" />
    <glyph glyph-name="uni20B2" unicode="&#x20b2;" 
d="M979 733v-682q-141 -80 -328 -80v-227h-80v231q-456 49 -456 740q0 334 116 519t340 208v209q35 14 80 14v-219q185 -3 316 -70q-1 -19 -15 -90q-142 69 -301 72v-1299q118 0 232 43v631h96zM215 715q0 -292 85 -457t271 -192v1288q-175 -26 -265.5 -186.5t-90.5 -452.5z
" />
    <glyph glyph-name="uni20B4" unicode="&#x20b4;" 
d="M1012 893q-4 -51 -13 -82h-886v82h655q80 77 80 205q0 124 -84.5 192t-237.5 68q-170 0 -323 -72q-12 42 -15 84q155 76 340 76q199 0 308.5 -86.5t109.5 -245.5q0 -133 -82 -221h148zM113 506v82h891q-3 -37 -13 -82h-688q-41 -66 -41 -166q0 -130 87 -205.5t241 -75.5
q189 0 344 105q10 -34 10 -88q-144 -105 -354 -105q-202 0 -313 97t-111 256q0 103 49 182h-102z" />
    <glyph glyph-name="uni20B5" unicode="&#x20b5;" 
d="M672 1356h-4v-1293h6q61 0 132 17t120 49q-2 -39 -13 -100q-116 -58 -245 -58v-227h-80v233q-205 29 -304.5 216.5t-99.5 515.5q0 675 404 731v211q35 14 80 14v-219q72 0 147.5 -21t126.5 -55q-4 -57 -14 -92q-50 36 -120 57t-136 21zM588 72v1276q-158 -33 -230.5 -194
t-72.5 -445q0 -285 72 -444.5t231 -192.5z" />
    <glyph glyph-name="uni20B8" unicode="&#x20b8;" 
d="M1004 1417q0 -35 -11 -84h-872v84h883zM121 1030v82h874q-3 -44 -12 -82h-375v-1030h-96v1030h-391z" />
    <glyph glyph-name="uni20B9" unicode="&#x20b9;" horiz-adv-x="1097" 
d="M651 1337q100 -38 152 -106t59 -172h142q-3 -37 -13 -82h-129q-24 -352 -512 -352l-59 24l583 -649h-120l-561 625v80h167q192 0 291 64t111 208h-569v82h569q-11 146 -111.5 212t-316.5 66h-141v80h821q-3 -37 -13 -80h-350z" />
    <glyph glyph-name="uni20BA" unicode="&#x20ba;" 
d="M983 457q22 4 86 8q-19 -465 -496 -465h-264v584l-178 -58v82l178 58v194l-178 -57v80l178 57v471q54 16 103 16v-454l387 125q0 -55 -4 -82l-383 -123v-195l387 123q0 -53 -4 -82l-383 -123v-530h163q91 0 158 16.5t123.5 56.5t88 114.5t38.5 183.5z" />
    <glyph glyph-name="uni20BC" unicode="&#x20bc;" horiz-adv-x="1282" 
d="M684 1104q202 -12 314 -139.5t112 -339.5v-625h-98v616q0 180 -84.5 281t-243.5 113v-676h-86v676q-160 -11 -244 -112t-84 -282v-616h-98v625q0 212 112.5 339.5t313.5 139.5v313q38 15 86 15v-328z" />
    <glyph glyph-name="uni20BD" unicode="&#x20bd;" 
d="M559 567h-170v-172h471q0 -36 -10 -78h-461v-317h-98v317h-180v78h180v172h-180v80h180v770q139 29 272 29q233 0 343 -115t110 -313q0 -221 -119 -336t-338 -115zM565 1362q-84 0 -176 -19v-690h164q360 0 360 363q0 165 -85 255.5t-263 90.5z" />
    <glyph glyph-name="uni20BF" unicode="&#x20bf;" 
d="M938 389q0 -155 -90.5 -258.5t-253.5 -124.5v-262h-70v256h-14h-84v-256h-68v256h-170v1417q110 21 170 25v209q20 14 68 14v-219h23q14 0 38.5 -1t36.5 -1v207q32 14 70 14v-231q148 -29 221.5 -118t73.5 -231q0 -124 -61.5 -209t-163.5 -122q131 -30 202.5 -128
t71.5 -237zM453 1360q-75 0 -168 -14v-558h215q125 0 208 72.5t83 210.5q0 141 -84 215t-254 74zM500 86q156 0 248 81t92 228q0 139 -90 222t-248 83h-217v-614h215z" />
    <glyph glyph-name="uni2113" unicode="&#x2113;" horiz-adv-x="720" 
d="M291 250q0 -187 176 -187q78 0 143 33q-7 -54 -14 -90q-71 -29 -154 -29q-119 0 -184 66t-65 197v915q0 143 61 217t172 74q103 0 159 -66.5t56 -169.5q0 -100 -51 -202.5t-126.5 -182t-172.5 -149.5v-426zM424 1362q-133 0 -133 -215v-391q117 96 187.5 208t70.5 226
q0 78 -31.5 125t-93.5 47z" />
    <glyph glyph-name="trademark" unicode="&#x2122;" horiz-adv-x="1337" 
d="M1130 1425l54 -645h-68l-20 277q-8 126 -15 268q-57 -179 -88 -256l-110 -289h-47l-115 301q-42 108 -84 236q-2 -46 -7 -134.5t-7 -125.5l-21 -277h-65l51 633q50 12 78 12l194 -557l193 545q50 12 77 12zM16 1358q0 32 9 59h458q0 -39 -4 -59h-194v-578h-64v578h-205z
" />
    <glyph glyph-name="uni2126" unicode="&#x2126;" 
d="M707 186l2 -94h274q-5 -69 -10 -92h-334v238q138 36 213.5 176.5t75.5 373.5q0 274 -99.5 421t-267.5 147q-169 0 -266.5 -147t-97.5 -418q0 -231 74 -371.5t208 -181.5v-238h-346q0 54 10 92h269l2 92q-144 56 -230 215t-86 398q0 303 123.5 476t341.5 173
q219 0 342 -174.5t123 -476.5q0 -239 -87 -398t-234 -211z" />
    <glyph glyph-name="estimated" unicode="&#x212e;" horiz-adv-x="1701" 
d="M852 -18q-188 0 -343.5 57.5t-256.5 155.5t-156 226t-55 271q0 116 35 225.5t104.5 204t165.5 166t226 112t278 40.5q180 0 323 -45t232.5 -118.5t148.5 -173.5t83 -202t24 -213h-1313q-10 0 -10 -8v-375q0 -45 14 -61q85 -99 212 -154t284 -55q160 0 285.5 59.5
t242.5 167.5h144q-125 -148 -275 -214t-393 -66zM348 733h1004q12 0 12 10v383q0 31 -23 54q-107 107 -242.5 159t-254.5 52q-128 0 -256.5 -52t-231.5 -155q-18 -18 -18 -58v-383q0 -10 10 -10z" />
    <glyph glyph-name="oneeighth" unicode="&#x215b;" horiz-adv-x="1673" 
d="M295 713v643q-90 -18 -219 -66q0 43 8 74q176 65 295 72v-723h-84zM971 1417q41 8 96 8l-739 -1425q-55 -10 -97 -10zM1245 371q197 -55 197 -199q0 -92 -79 -144.5t-212 -52.5q-134 0 -210.5 50t-76.5 141q0 134 191 184q-168 60 -168 191q0 85 71 135.5t199 50.5
q124 0 193 -48t69 -128q0 -126 -174 -180zM971 541q0 -111 178 -148l16 -4q174 47 174 154q0 55 -47.5 88t-136.5 33q-91 0 -137.5 -33.5t-46.5 -89.5zM1155 41q94 0 148.5 36t54.5 97q0 105 -189 150l-30 6q-191 -46 -191 -156q0 -65 55.5 -99t151.5 -34z" />
    <glyph glyph-name="threeeighths" unicode="&#x215c;" horiz-adv-x="1615" 
d="M606 903q0 -209 -340 -209q-87 0 -174 17q0 29 10 67q78 -16 164 -16q129 0 190.5 34.5t61.5 108.5q0 139 -244 139h-98q0 45 8 66h78q225 0 225 137q0 56 -47.5 86.5t-138.5 30.5q-121 0 -203 -33q0 37 8 70q79 33 201 33q127 0 196.5 -47t69.5 -134q0 -136 -174 -172
q207 -26 207 -178zM1096 1417q41 8 96 8l-739 -1425q-55 -10 -97 -10zM1319 371q197 -55 197 -199q0 -92 -78.5 -144.5t-212.5 -52.5t-210.5 50t-76.5 141q0 134 190 184q-167 59 -167 191q0 85 71 135.5t199 50.5q125 0 193.5 -48t68.5 -128q0 -126 -174 -180zM1044 541
q0 -110 181 -148l14 -4q86 23 130 62.5t44 91.5q0 55 -47.5 88t-136.5 33q-91 0 -138 -33.5t-47 -89.5zM1229 41q94 0 148.5 36t54.5 97q0 105 -189 150l-31 6q-190 -46 -190 -156q0 -65 55.5 -99t151.5 -34z" />
    <glyph glyph-name="fiveeighths" unicode="&#x215d;" horiz-adv-x="1652" 
d="M1106 1417q41 8 96 8l-739 -1425q-55 -10 -96 -10zM627 926q0 -115 -88 -176.5t-234 -61.5q-102 0 -186 19q0 29 10 71q86 -16 172 -16q108 0 173 40.5t65 121.5q0 159 -236 159q-77 0 -153 -18l34 350h422q0 -48 -6 -72h-338l-22 -196q44 6 88 6q135 0 217 -57t82 -170z
M1348 371q194 -55 194 -199q0 -92 -78 -144.5t-211 -52.5q-135 0 -210.5 49.5t-75.5 141.5q0 134 190 184q-168 60 -168 191q0 85 71.5 135.5t199.5 50.5q124 0 193 -48t69 -128q0 -126 -174 -180zM1071 541q0 -110 180 -148l17 -4q174 47 174 154q0 55 -48 88t-137 33
q-91 0 -138.5 -33.5t-47.5 -89.5zM1257 41q94 0 148.5 36t54.5 97q0 104 -188 150l-31 6q-190 -46 -190 -156q0 -65 55 -99t151 -34z" />
    <glyph glyph-name="seveneighths" unicode="&#x215e;" horiz-adv-x="1370" 
d="M893 1417q44 8 96 8l-739 -1425q-52 -10 -94 -10zM238 713h-86q81 291 319 633h-440q0 19 6 67h534q0 -39 -6 -63q-240 -334 -327 -637zM1141 371q194 -55 194 -199q0 -92 -77.5 -144.5t-210.5 -52.5q-134 0 -210.5 50t-76.5 141q0 134 190 184q-168 60 -168 191
q0 85 71.5 135.5t199.5 50.5q124 0 193 -48t69 -128q0 -126 -174 -180zM864 541q0 -110 180 -148l17 -4q174 47 174 154q0 55 -47.5 88t-136.5 33q-91 0 -139 -33.5t-48 -89.5zM1051 41q94 0 148 35.5t54 97.5q0 105 -188 150l-31 6q-190 -46 -190 -156q0 -65 55.5 -99
t151.5 -34z" />
    <glyph glyph-name="arrowleft" unicode="&#x2190;" horiz-adv-x="1310" 
d="M1270 750v-80l-1096 2l449 -500q-18 -27 -58 -47l-524 586l524 583q41 -23 58 -51l-445 -495z" />
    <glyph glyph-name="arrowup" unicode="&#x2191;" horiz-adv-x="1345" 
d="M674 1352l583 -523q-19 -37 -51 -57l-495 445l2 -1092h-80l2 1096l-500 -451q-32 25 -47 59z" />
    <glyph glyph-name="arrowright" unicode="&#x2192;" horiz-adv-x="1310" 
d="M768 1348l524 -586l-524 -586q-43 26 -57 47l448 502l-1096 -2v80l1092 -2l-444 495q14 24 57 52z" />
    <glyph glyph-name="arrowdown" unicode="&#x2193;" horiz-adv-x="1310" 
d="M1190 705q26 -16 51 -58l-586 -522l-585 522q21 39 47 60l501 -453l-2 1098h80l-2 -1092z" />
    <glyph glyph-name="arrowboth" unicode="&#x2194;" horiz-adv-x="1615" 
d="M1051 1294l524 -583l-524 -586q-40 20 -58 47l449 500h-172v-2h-922v2h-174l449 -500q-18 -27 -58 -47l-524 586l524 583q41 -23 58 -51l-445 -495h170v2h922v-2h168l-445 495q21 31 58 51z" />
    <glyph glyph-name="arrowupdn" unicode="&#x2195;" horiz-adv-x="1310" 
d="M1190 569q22 -13 51 -57l-586 -522l-585 522q26 43 47 57l499 -448v1167l-499 -448q-21 14 -47 57l585 524l586 -524q-29 -44 -51 -57l-494 442v-1155z" />
    <glyph glyph-name="uni2196" unicode="&#x2196;" horiz-adv-x="1310" 
d="M1122 260l-57 -53l-727 815l-72 -662q-33 -5 -78 9l88 780h785q10 -40 4 -76l-674 4z" />
    <glyph glyph-name="uni2197" unicode="&#x2197;" horiz-adv-x="1310" 
d="M1034 1149l88 -780q-45 -14 -78 -9l-71 662l-727 -815l-58 53l732 817l-674 -4q-6 36 4 76h784z" />
    <glyph glyph-name="uni2198" unicode="&#x2198;" horiz-adv-x="1310" 
d="M1032 1053q32 5 78 -9l-88 -780h-784q-11 44 -5 76l672 -2l-731 815l59 53l728 -813z" />
    <glyph glyph-name="uni2199" unicode="&#x2199;" horiz-adv-x="1310" 
d="M389 406l674 4q6 -36 -4 -76h-785l-88 780q43 13 78 8l72 -661l727 815l57 -53z" />
    <glyph glyph-name="partialdiff" unicode="&#x2202;" 
d="M596 1446q198 0 295.5 -138.5t97.5 -402.5q0 -141 -18 -272t-59 -252t-100.5 -210t-148.5 -142.5t-198 -53.5q-160 0 -245 118t-85 315q0 99 18 190.5t55.5 171.5t90 139t126.5 93t161 34q223 0 299 -223q2 29 2 86q0 241 -74.5 351t-222.5 110q-119 0 -225 -53
q0 49 14 92q110 47 217 47zM477 68q86 0 157.5 51t119.5 140t78.5 200t44.5 241q-38 121 -110 186.5t-177 65.5q-109 0 -191.5 -76t-122.5 -196.5t-40 -263.5q0 -164 62.5 -256t178.5 -92z" />
    <glyph glyph-name="emptyset" unicode="&#x2205;" horiz-adv-x="1742" 
d="M1638 1399l-208 -203q184 -203 184 -491q0 -125 -38 -239t-107 -204t-160.5 -157t-204.5 -102.5t-234 -35.5q-146 0 -277.5 52t-232.5 147l-206 -201l-50 45l209 203q-86 97 -134 223.5t-48 268.5q0 209 99.5 378.5t268.5 264t371 94.5q147 0 279 -51.5t233 -145.5
l207 199zM221 705q0 -249 158 -431l940 908q-89 83 -204.5 128.5t-244.5 45.5q-178 0 -326.5 -84t-235.5 -234t-87 -333zM1522 705q0 248 -158 430l-940 -908q185 -172 446 -172q179 0 328.5 84t236.5 233.5t87 332.5z" />
    <glyph glyph-name="uni2206" unicode="&#x2206;" 
d="M616 1423l449 -1423h-1004l441 1409q43 14 114 14zM186 90h750l-375 1225z" />
    <glyph glyph-name="product" unicode="&#x220f;" 
d="M145 -434v1851h834v-1851h-98v1761h-635v-1761h-101z" />
    <glyph glyph-name="summation" unicode="&#x2211;" 
d="M823 528l-557 -872h725q0 -50 -12 -90h-842q0 49 6 74l570 886l-568 815q4 47 13 76h833q0 -49 -12 -90h-715z" />
    <glyph glyph-name="minus" unicode="&#x2212;" 
d="M182 645q0 35 11 84h751q0 -39 -10 -84h-752z" />
    <glyph glyph-name="uni2215" unicode="&#x2215;" 
d="M217 -123l531 1665q52 10 94 10l-535 -1675h-90z" />
    <glyph glyph-name="uni2219" unicode="&#x2219;" 
d="M561 635q-36 0 -60 24t-24 60t24 60t60 24q37 0 60.5 -23.5t23.5 -60.5t-23.5 -60.5t-60.5 -23.5z" />
    <glyph glyph-name="radical" unicode="&#x221a;" horiz-adv-x="1843" 
d="M1784 1417q-3 -47 -15 -86h-589l-650 -1765h-104l-348 921h100l301 -809l629 1739h676z" />
    <glyph glyph-name="infinity" unicode="&#x221e;" horiz-adv-x="1314" 
d="M930 1044q108 0 176 -85t68 -234q0 -147 -68.5 -236.5t-175.5 -89.5q-89 0 -150.5 52t-120.5 174q-59 -119 -118 -171.5t-158 -52.5q-108 0 -175 87.5t-67 232.5q0 146 68 236t176 90q96 0 153.5 -52t120.5 -188q57 121 116 179t155 58zM393 483q74 0 121.5 52.5
t103.5 179.5q-63 147 -106 199.5t-117 52.5q-76 0 -125 -67.5t-49 -176.5q0 -106 47.5 -173t124.5 -67zM922 481q74 0 121 65t47 177q0 111 -46 175.5t-122 64.5q-72 0 -117 -55t-105 -191q57 -131 106 -183.5t116 -52.5z" />
    <glyph glyph-name="integral" unicode="&#x222b;" 
d="M346 -459q-83 0 -153 25q3 38 10 84q70 -25 133 -25q92 0 135 57t43 171v1288q0 305 268 305q77 0 150 -25q-4 -63 -8 -86q-64 25 -133 25q-93 0 -136 -56t-43 -167v-1289q0 -307 -266 -307z" />
    <glyph glyph-name="approxequal" unicode="&#x2248;" 
d="M717 758q-45 0 -92 23t-79 50.5t-70.5 50.5t-69.5 23q-45 0 -72 -31.5t-49 -105.5q-37 3 -74 14q28 110 73.5 154.5t114.5 44.5q40 0 84 -23t76 -50.5t73.5 -50.5t78.5 -23q94 0 127 145q28 -2 73 -14q-26 -112 -78 -159.5t-116 -47.5zM717 420q-45 0 -92 23t-79 50.5
t-70.5 50.5t-69.5 23q-45 0 -72 -31.5t-49 -105.5q-37 3 -74 14q28 110 73.5 154.5t114.5 44.5q40 0 84 -23t76 -50.5t73.5 -50.5t78.5 -23q94 0 127 145q28 -2 73 -14q-26 -112 -78 -159.5t-116 -47.5z" />
    <glyph glyph-name="notequal" unicode="&#x2260;" 
d="M645 815l-135 -256h434q0 -39 -10 -84h-469l-139 -264l-64 37l119 227h-199q0 35 11 84h233l133 256h-377q0 35 11 84h411l133 254l66 -37l-115 -217h256q0 -39 -10 -84h-289z" />
    <glyph glyph-name="lessequal" unicode="&#x2264;" 
d="M924 553q0 -25 -13 -88l-731 289q0 23 8 73l736 287q0 -61 -6 -90l-619 -236zM190 350h752q0 -39 -10 -84h-752q0 39 10 84z" />
    <glyph glyph-name="greaterequal" unicode="&#x2265;" 
d="M190 465q0 56 7 92l620 234l-627 235q0 25 13 88l731 -289q0 -25 -8 -71zM190 350h752q0 -39 -10 -84h-752q0 39 10 84z" />
    <glyph glyph-name="lozenge" unicode="&#x25ca;" horiz-adv-x="851" 
d="M379 0l-352 729l346 688h106l346 -688l-346 -729h-100zM430 88l299 641l-303 602l-303 -602z" />
    <glyph glyph-name="uniFEFF" unicode="&#xfeff;" horiz-adv-x="0" 
 />
    <glyph glyph-name="f_b" horiz-adv-x="1544" 
d="M174 1114q0 332 305 332q78 0 162 -25q0 -38 -8 -84q-71 23 -146 23q-109 0 -162 -59.5t-53 -186.5v-102h361q-5 -61 -10 -82h-351v-930h-98v1114zM1114 1036q192 0 299 -134t107 -382q0 -265 -119 -405t-357 -140q-184 0 -325 66v1376q44 17 96 17v-566q113 168 299 168
zM1042 59q191 0 284 118.5t93 340.5q0 210 -84 322t-245 112q-164 0 -275 -139v-713q106 -41 227 -41z" />
    <glyph glyph-name="f_f_b" horiz-adv-x="2140" 
d="M1001 1360q-109 0 -162 -59.5t-53 -186.5v-102h361q-3 -39 -10 -82h-351v-930h-98v930h-416v-930h-98v1108q0 338 320 338q81 0 161 -25q0 -36 -8 -86q-67 25 -145 25q-116 0 -173 -61t-57 -193v-94h416v102q0 332 305 332q78 0 162 -25q-3 -42 -10 -84q-71 23 -144 23z
M1628 1036q191 0 297.5 -134t106.5 -382q0 -265 -117.5 -405t-355.5 -140q-187 0 -328 66v1376q47 17 98 17v-566q113 168 299 168zM1556 59q191 0 283 118.5t92 340.5q0 210 -83.5 322t-243.5 112t-275 -137v-715q103 -41 227 -41z" />
    <glyph glyph-name="f_f_h" horiz-adv-x="2150" 
d="M1012 1360q-109 0 -162 -59.5t-53 -186.5v-102h360q-3 -39 -10 -82h-350v-930h-99v930h-426v-930h-98v1108q0 338 320 338q81 0 161 -25q0 -36 -8 -86q-67 25 -145 25q-116 0 -173 -61t-57 -193v-94h426v102q0 332 303 332q80 0 164 -25q-3 -42 -10 -84q-71 23 -143 23z
M1671 1036q161 0 244.5 -91.5t83.5 -264.5v-680h-101v653q0 152 -63.5 225.5t-194.5 73.5q-172 0 -301 -151v-801h-98v1417q44 17 98 17v-584q63 92 142.5 139t189.5 47z" />
    <glyph glyph-name="f_f_j" horiz-adv-x="1511" 
d="M1147 930h-350v-930h-99v930h-426v-930h-98v1108q0 338 320 338q81 0 161 -25q0 -36 -8 -86q-67 25 -145 25q-116 0 -173 -61t-57 -193v-94h426v102q0 332 306 332q77 0 161 -25q0 -38 -8 -84q-71 23 -145 23q-109 0 -162 -59.5t-53 -186.5v-102h360q-5 -61 -10 -82z
M1288 1278q-30 0 -49.5 20.5t-19.5 53.5t19.5 53t49.5 20q32 0 52 -19.5t20 -53.5q0 -32 -20 -53t-52 -21zM1241 -203v1215h98v-1209q0 -137 -61 -201.5t-180 -64.5q-48 0 -101 17q0 33 11 79q38 -10 79 -10q154 0 154 174z" />
    <glyph glyph-name="f_f_k" horiz-adv-x="1996" 
d="M1012 1360q-109 0 -162 -59.5t-53 -186.5v-102h360q-3 -39 -10 -82h-350v-930h-99v930h-426v-930h-98v1108q0 338 320 338q81 0 161 -25q0 -36 -8 -86q-67 25 -145 25q-116 0 -173 -61t-57 -193v-94h426v102q0 332 303 332q80 0 164 -25q-3 -42 -10 -84q-71 23 -143 23z
M1221 0v1417q47 17 98 17v-1434h-98zM1468 537l504 -537h-121l-493 528v11l461 473h116z" />
    <glyph glyph-name="f_h" horiz-adv-x="1638" 
d="M174 1114q0 332 305 332q78 0 162 -25q0 -38 -8 -84q-71 23 -146 23q-109 0 -162 -59.5t-53 -186.5v-102h361q-5 -61 -10 -82h-351v-930h-98v1114zM1149 1036q160 0 243 -91.5t83 -264.5v-680h-99v653q0 152 -64.5 225.5t-195.5 73.5q-170 0 -299 -151l-2 2v-803h-96
v1417q44 17 96 17v-584q127 186 334 186z" />
    <glyph glyph-name="f_j" horiz-adv-x="987" 
d="M623 930h-351v-930h-98v1114q0 332 305 332q78 0 162 -25q0 -38 -8 -84q-71 23 -146 23q-109 0 -162 -59.5t-53 -186.5v-102h361q-5 -61 -10 -82zM764 1278q-30 0 -50 20.5t-20 53.5t20 53t50 20q32 0 52 -19.5t20 -53.5q0 -32 -20 -53t-52 -21zM717 -203v1215h98v-1209
q0 -266 -242 -266q-47 0 -100 17q0 37 10 79q38 -10 80 -10q154 0 154 174z" />
    <glyph glyph-name="f_k" horiz-adv-x="1474" 
d="M174 1114q0 332 305 332q78 0 162 -25q0 -38 -8 -84q-71 23 -146 23q-109 0 -162 -59.5t-53 -186.5v-102h361q-5 -61 -10 -82h-351v-930h-98v1114zM698 0v1417q44 17 99 17v-1434h-99zM944 537l504 -537h-121l-493 528v11l462 473h117z" />
    <glyph glyph-name="t_f" horiz-adv-x="1220" 
d="M1067 1360q-122 0 -179 -60.5t-57 -193.5v-94h377q-5 -61 -10 -82h-367v-930h-98v1108q0 338 328 338q86 0 166 -25q0 -36 -8 -86q-64 25 -152 25zM608 930h-346v-656q0 -115 49 -164t142 -49q86 0 159 37q-3 -49 -14 -88q-82 -35 -166 -35q-125 0 -196.5 70.5
t-71.5 220.5v1028q47 17 98 17v-299h356q0 -37 -10 -82z" />
    <glyph glyph-name="t_t" horiz-adv-x="1208" 
d="M608 930h-346v-656q0 -115 49 -164t142 -49q86 0 159 37q-3 -49 -14 -88q-82 -35 -166 -35q-125 0 -196.5 70.5t-71.5 220.5v1028q47 17 98 17v-299h356q0 -37 -10 -82zM858 274q0 -115 49 -164t142 -49q86 0 159 37q-3 -44 -12 -88q-86 -35 -166 -35q-126 0 -197 70.5
t-71 220.5v1028q44 17 96 17v-299h359q-2 -34 -13 -82h-346v-656z" />
    <glyph glyph-name="zero.lf" horiz-adv-x="1128" 
d="M563 -29q-231 0 -338.5 189t-107.5 549q0 363 106.5 550t339.5 187t341 -187.5t108 -549.5q0 -738 -449 -738zM563 63q95 0 162.5 42.5t108 127.5t59 201.5t18.5 274.5t-18.5 274.5t-58.5 201t-108 127t-163 42.5t-162.5 -42.5t-107.5 -127t-58 -201t-18 -274.5
q0 -321 80.5 -483.5t265.5 -162.5z" />
    <glyph glyph-name="one.lf" horiz-adv-x="757" 
d="M84 1325q213 93 442 121v-1446h-98v1339q-199 -43 -352 -112q0 62 8 98z" />
    <glyph glyph-name="two.lf" horiz-adv-x="997" 
d="M190 92h709q0 -52 -12 -92h-797v39q0 74 23 143.5t57.5 123.5t91.5 112.5t106 99t121 94.5q142 107 212.5 208t70.5 231q0 148 -91.5 225.5t-266.5 77.5q-167 0 -318 -80q0 50 6 96q155 76 324 76q220 0 333 -103t113 -286q0 -156 -81 -276.5t-248 -243.5
q-82 -61 -131 -102.5t-103 -98.5t-83 -117t-36 -127z" />
    <glyph glyph-name="three.lf" horiz-adv-x="1009" 
d="M580 745q327 -55 327 -352q0 -204 -137 -313t-401 -109q-128 0 -275 35q0 40 12 90q112 -33 259 -33q219 0 330.5 83t111.5 247q0 303 -422 303h-145v90h139q170 0 273.5 78t103.5 219q0 120 -85 195.5t-255 75.5q-173 0 -318 -68q0 28 11 92q133 68 315 68
q210 0 320 -95.5t110 -252.5q0 -134 -78.5 -226t-195.5 -127z" />
    <glyph glyph-name="four.lf" horiz-adv-x="1056" 
d="M1022 483q-6 -64 -14 -90h-195v-393h-96v393h-670q0 47 6 88q114 237 292 486.5t368 447.5q52 10 100 10v-942h209zM152 483h565v813q-163 -184 -312 -396.5t-253 -416.5z" />
    <glyph glyph-name="five.lf" horiz-adv-x="1026" 
d="M455 872q223 0 341.5 -109.5t118.5 -332.5q0 -224 -134 -341.5t-375 -117.5q-157 0 -287 37q0 43 14 90q107 -35 268 -35q195 0 304.5 90.5t109.5 272.5q0 358 -393 358q-133 0 -256 -36l59 669h656q0 -43 -11 -92h-553l-45 -473q95 20 183 20z" />
    <glyph glyph-name="six.lf" horiz-adv-x="1097" 
d="M592 883q188 0 294.5 -120.5t106.5 -324.5q0 -217 -112.5 -342t-305.5 -125q-458 0 -458 699q0 399 136.5 587.5t426.5 188.5q129 0 235 -41q0 -49 -10 -90q-95 39 -225 39q-240 0 -352 -159t-115 -511q127 199 379 199zM575 63q147 0 232.5 98.5t85.5 272.5
q0 167 -84.5 263t-235.5 96q-211 0 -360 -183q9 -284 98 -415.5t264 -131.5z" />
    <glyph glyph-name="seven.lf" horiz-adv-x="919" 
d="M43 1417h842q0 -28 -8 -74q-397 -666 -543 -1343h-107q143 656 533 1325h-729q0 51 12 92z" />
    <glyph glyph-name="eight.lf" horiz-adv-x="1116" 
d="M678 741q155 -51 240.5 -152.5t85.5 -238.5q0 -179 -122.5 -279t-326.5 -100q-206 0 -324 97.5t-118 273.5q0 279 325 381q-140 53 -214 149t-74 226q0 158 108.5 253t304.5 95q194 0 300 -92t106 -250q0 -247 -291 -363zM248 1100q0 -118 78 -201.5t223 -120.5l20 -6
q301 112 301 328q0 120 -79 191t-228 71q-152 0 -233.5 -72t-81.5 -190zM559 57q159 0 252.5 76t93.5 213q0 117 -79.5 204t-235.5 126l-47 14q-172 -52 -252 -136t-80 -206q0 -142 94.5 -216.5t253.5 -74.5z" />
    <glyph glyph-name="nine.lf" horiz-adv-x="1097" 
d="M522 1444q459 0 459 -696q0 -399 -137 -588t-426 -189q-132 0 -238 41q0 33 13 90q95 -39 225 -39q240 0 352 159t115 511q-129 -198 -379 -198q-189 0 -295.5 119.5t-106.5 322.5q0 218 112.5 342.5t305.5 124.5zM524 625q215 0 361 182q-9 283 -99 415t-264 132
q-147 0 -232 -98.5t-85 -272.5q0 -167 84 -262.5t235 -95.5z" />
    <glyph glyph-name="zero.dnom" horiz-adv-x="804" 
d="M403 -20q-149 0 -217.5 93t-68.5 277q0 186 68 278.5t218 92.5q148 0 216.5 -93t68.5 -278q0 -184 -68.5 -277t-216.5 -93zM403 53q107 0 152 71.5t45 225.5t-45 226.5t-152 72.5q-109 0 -153.5 -72t-44.5 -227q0 -154 44.5 -225.5t153.5 -71.5z" />
    <glyph glyph-name="one.dnom" horiz-adv-x="610" 
d="M84 651q176 65 295 72v-723h-84v643q-96 -20 -219 -65q0 42 8 73z" />
    <glyph glyph-name="two.dnom" horiz-adv-x="702" 
d="M174 66h430q0 -38 -8 -66h-508v29q0 92 55.5 155t169.5 123q101 52 135.5 91t34.5 100q0 72 -51 111.5t-147 39.5q-102 0 -193 -39q0 22 8 76q93 35 201 35q131 0 200.5 -57t69.5 -156q0 -81 -40 -135.5t-146 -108.5q-103 -53 -153.5 -97t-57.5 -101z" />
    <glyph glyph-name="three.dnom" horiz-adv-x="706" 
d="M399 369q207 -26 207 -179q0 -208 -340 -208q-92 0 -174 16q0 30 10 68q83 -17 164 -17q128 0 190 35t62 109q0 139 -244 139h-98q0 44 8 65h78q225 0 225 138q0 56 -47.5 86t-138.5 30q-121 0 -203 -33q0 37 8 70q79 33 201 33q127 0 196.5 -46.5t69.5 -133.5
q0 -136 -174 -172z" />
    <glyph glyph-name="four.dnom" horiz-adv-x="704" 
d="M670 242q0 -28 -11 -68h-120v-174h-78v174h-414q0 32 6 66q72 122 181 250.5t219 222.5q31 6 86 6v-477h131zM129 242h332v391q-210 -200 -332 -391z" />
    <glyph glyph-name="five.dnom" horiz-adv-x="737" 
d="M328 440q135 0 217 -57t82 -170q0 -115 -88 -176.5t-234 -61.5q-102 0 -186 19q0 30 10 72q91 -17 172 -17q108 0 173 40.5t65 121.5q0 160 -236 160q-72 0 -153 -19l34 350h422q0 -47 -6 -71h-338l-22 -197q44 6 88 6z" />
    <glyph glyph-name="six.dnom" horiz-adv-x="784" 
d="M424 442q119 0 186.5 -61t67.5 -166q0 -108 -71 -174t-193 -66q-146 0 -221.5 94.5t-75.5 260.5q0 391 325 391q118 0 193 -35q0 -29 -8 -65q-78 32 -185 32q-123 0 -181.5 -76t-61.5 -231q81 96 225 96zM412 43q85 0 134.5 45.5t49.5 120.5q0 74 -48.5 119t-139.5 45
q-123 0 -209 -80q8 -117 61.5 -183.5t151.5 -66.5z" />
    <glyph glyph-name="seven.dnom" horiz-adv-x="606" 
d="M37 700h534q0 -39 -6 -63q-240 -334 -327 -637h-86q81 291 319 633h-440q0 19 6 67z" />
    <glyph glyph-name="eight.dnom" horiz-adv-x="798" 
d="M492 371q196 -55 196 -199q0 -92 -78.5 -144.5t-212.5 -52.5q-133 0 -208.5 50t-75.5 141q0 134 188 184q-168 59 -168 191q0 85 71 135.5t199 50.5q125 0 195 -48t70 -128q0 -125 -176 -180zM217 541q0 -110 180 -148l17 -4q85 23 128.5 62.5t43.5 91.5q0 56 -47.5 88.5
t-137.5 32.5t-137 -33.5t-47 -89.5zM401 41q94 0 148.5 36t54.5 97q0 105 -188 150l-31 6q-190 -46 -190 -156q0 -65 55 -99t151 -34z" />
    <glyph glyph-name="nine.dnom" horiz-adv-x="784" 
d="M371 725q146 0 221.5 -94.5t75.5 -259.5q0 -391 -326 -391q-119 0 -192 34q0 30 8 66q81 -33 184 -33q123 0 182 76.5t62 230.5q-81 -96 -226 -96q-119 0 -186.5 61t-67.5 166q0 108 71.5 174t193.5 66zM377 328q123 0 209 80q-8 117 -61.5 183t-151.5 66
q-85 0 -135 -45.5t-50 -119.5t49 -119t140 -45z" />
    <glyph glyph-name="zero.numr" horiz-adv-x="804" 
d="M403 692q-149 0 -217.5 93t-68.5 278q0 186 68 278.5t218 92.5q148 0 216.5 -93t68.5 -278q0 -184 -68.5 -277.5t-216.5 -93.5zM403 766q107 0 152 71.5t45 225.5t-45 226.5t-152 72.5q-109 0 -153.5 -72t-44.5 -227q0 -154 44.5 -225.5t153.5 -71.5z" />
    <glyph glyph-name="one.numr" horiz-adv-x="610" 
d="M84 1364q176 65 295 72v-723h-84v643q-90 -18 -219 -66q0 43 8 74z" />
    <glyph glyph-name="two.numr" horiz-adv-x="702" 
d="M174 778h430q0 -37 -8 -65h-508v28q0 92 55.5 155.5t169.5 123.5q102 52 136 90.5t34 99.5q0 73 -51 112.5t-147 39.5q-102 0 -193 -39q0 22 8 76q93 35 201 35q131 0 200.5 -57t69.5 -156q0 -81 -40 -135.5t-146 -108.5q-102 -52 -153 -96.5t-58 -102.5z" />
    <glyph glyph-name="three.numr" horiz-adv-x="706" 
d="M399 1081q207 -26 207 -178q0 -209 -340 -209q-87 0 -174 17q0 29 10 67q78 -16 164 -16q129 0 190.5 34.5t61.5 108.5q0 139 -244 139h-98q0 45 8 66h78q225 0 225 137q0 56 -47.5 86.5t-138.5 30.5q-121 0 -203 -33q0 37 8 70q79 33 201 33q127 0 196.5 -47t69.5 -134
q0 -136 -174 -172z" />
    <glyph glyph-name="four.numr" horiz-adv-x="686" 
d="M670 952q0 -28 -11 -65h-120v-174h-78v174h-414q0 31 6 65q72 122 181 250.5t219 222.5q36 7 86 7v-480h131zM129 952h332v391q-205 -192 -332 -391z" />
    <glyph glyph-name="five.numr" horiz-adv-x="737" 
d="M328 1153q135 0 217 -57t82 -170q0 -115 -88 -176.5t-234 -61.5q-102 0 -186 19q0 29 10 71q86 -16 172 -16q108 0 173 40.5t65 121.5q0 159 -236 159q-77 0 -153 -18l34 350h422q0 -48 -6 -72h-338l-22 -196q44 6 88 6z" />
    <glyph glyph-name="six.numr" horiz-adv-x="790" 
d="M424 1155q119 0 186.5 -61.5t67.5 -165.5q0 -108 -71 -174t-193 -66q-146 0 -221.5 94.5t-75.5 259.5q0 392 325 392q118 0 193 -35q0 -29 -8 -68q-81 33 -185 33q-122 0 -181 -75.5t-62 -229.5q40 46 99 71t126 25zM412 756q86 0 135 45t49 121q0 74 -48.5 118.5
t-139.5 44.5q-124 0 -209 -79q6 -116 60 -183t153 -67z" />
    <glyph glyph-name="seven.numr" horiz-adv-x="606" 
d="M37 1413h534q0 -39 -6 -63q-240 -334 -327 -637h-86q81 291 319 633h-440q0 19 6 67z" />
    <glyph glyph-name="eight.numr" horiz-adv-x="798" 
d="M492 1083q196 -55 196 -198q0 -92 -78.5 -144.5t-212.5 -52.5q-133 0 -208.5 50t-75.5 141q0 134 188 184q-168 59 -168 190q0 85 71 136t199 51q125 0 195 -48t70 -128q0 -126 -176 -181zM217 1253q0 -109 180 -147l17 -4q172 46 172 153q0 56 -47.5 88.5t-137.5 32.5
t-137 -33.5t-47 -89.5zM401 754q94 0 148.5 36t54.5 97q0 104 -188 149l-31 6q-190 -46 -190 -155q0 -65 55 -99t151 -34z" />
    <glyph glyph-name="nine.numr" horiz-adv-x="784" 
d="M371 1438q146 0 221.5 -94.5t75.5 -260.5q0 -391 -326 -391q-117 0 -192 35q0 30 8 66q81 -33 184 -33q123 0 182 76.5t62 230.5q-81 -96 -226 -96q-119 0 -186.5 61t-67.5 166q0 108 71.5 174t193.5 66zM377 1040q123 0 209 80q-8 117 -61.5 183.5t-151.5 66.5
q-85 0 -135 -46t-50 -120t49 -119t140 -45z" />
    <glyph glyph-name="exclamdown.cap" horiz-adv-x="622" 
d="M309 1444q34 0 58 -24t24 -58q0 -32 -24 -56t-58 -24q-33 0 -56.5 23.5t-23.5 56.5q0 34 23 58t57 24zM350 999l8 -987q-44 -14 -100 -14l10 1001h82z" />
    <glyph glyph-name="questiondown.cap" horiz-adv-x="944" 
d="M555 1444q34 0 58 -24t24 -58t-24 -57t-58 -23q-33 0 -56.5 23.5t-23.5 56.5q0 34 24 58t56 24zM606 1020q4 -50 4 -70q0 -96 -36.5 -165.5t-122.5 -133.5q-115 -81 -173.5 -158t-58.5 -176q0 -115 75.5 -184.5t231.5 -69.5q181 0 326 93q0 -35 -8 -93q-141 -88 -330 -88
q-193 0 -295 91t-102 247q0 54 14.5 102t37 85.5t59.5 75.5t72 66.5t85 62.5q80 57 111.5 115.5t31.5 140.5v59h78z" />
    <glyph glyph-name="colon.case" horiz-adv-x="475" 
d="M240 1001q-35 0 -60.5 25t-25.5 59t25.5 59t60.5 25q34 0 58 -25t24 -59t-24 -59t-58 -25zM240 207q-35 0 -60.5 24.5t-25.5 59.5q0 34 25.5 58t60.5 24q34 0 58 -24t24 -58q0 -35 -24 -59.5t-58 -24.5z" />
    <glyph glyph-name="bullet.ss01" horiz-adv-x="743" 
d="M375 512q-75 0 -122.5 47t-47.5 117t47.5 118t122.5 48q73 0 118.5 -47.5t45.5 -118.5q0 -70 -45 -117t-119 -47z" />
    <glyph glyph-name="slash.ss01" horiz-adv-x="667" 
d="M20 0l531 1411q55 10 96 10l-536 -1421h-91z" />
    <glyph glyph-name="backslash.ss01" horiz-adv-x="641" 
d="M621 0h-91l-516 1417q47 19 84 19z" />
    <glyph glyph-name="parenleft.ss01" horiz-adv-x="606" 
d="M459 -274q-88 145 -142 271.5t-89 303t-35 387.5q0 210 35 387t89 302.5t142 273.5q35 0 84 -17q-87 -151 -139 -279t-84.5 -297t-32.5 -370q0 -293 61 -502.5t189 -435.5q-34 -24 -78 -24z" />
    <glyph glyph-name="parenright.ss01" horiz-adv-x="606" 
d="M147 1659q133 -219 199 -437.5t66 -525.5q0 -306 -65.5 -522t-199.5 -440q-38 0 -84 16q87 151 139 279t84.5 297t32.5 370q0 294 -61 504t-190 434q41 25 79 25z" />
    <glyph glyph-name="braceleft.ss01" horiz-adv-x="706" 
d="M373 18q0 -115 39.5 -165t138.5 -50h117q0 -31 -11 -77h-106q-145 0 -207.5 73.5t-62.5 218.5v418q0 94 -38.5 148.5t-138.5 68.5v78q100 11 138.5 62.5t38.5 148.5v424q0 145 62 219t206 74h119q-3 -34 -13 -78h-106q-97 0 -136.5 -51t-39.5 -164v-426
q0 -104 -42 -168.5t-130 -79.5q172 -34 172 -256v-418z" />
    <glyph glyph-name="braceright.ss01" horiz-adv-x="706" 
d="M426 950q0 -95 38.5 -149.5t137.5 -67.5v-78q-100 -11 -138 -62.5t-38 -150.5v-424q0 -145 -62 -218.5t-206 -73.5h-119q3 42 12 77h107q98 0 137 51t39 166v426q0 212 170 248q-170 37 -170 256v416q0 115 -39.5 165t-138.5 50h-117q0 40 10 78h107q145 0 207.5 -73.5
t62.5 -217.5v-418z" />
    <glyph glyph-name="bracketleft.ss01" horiz-adv-x="624" 
d="M193 -205v1864h385q0 -9 -11 -78h-280v-1708h291q0 -4 -11 -78h-374z" />
    <glyph glyph-name="bracketright.ss01" horiz-adv-x="624" 
d="M432 1659v-1864h-385q3 41 12 78h281v1708h-293q3 37 12 78h373z" />
    <glyph glyph-name="hyphen.ss01" horiz-adv-x="753" 
d="M94 686q0 41 10 86h553q0 -41 -10 -86h-553z" />
    <glyph glyph-name="endash.ss01" horiz-adv-x="1130" 
d="M94 686q6 67 10 86h932q0 -46 -12 -86h-930z" />
    <glyph glyph-name="emdash.ss01" horiz-adv-x="1796" 
d="M94 686q6 65 10 86h1598q0 -41 -10 -86h-1598z" />
    <glyph glyph-name="guillemotleft.ss01" horiz-adv-x="933" 
d="M410 266l-316 461l318 461q32 -8 75 -35l-290 -426l290 -426q-37 -26 -77 -35zM768 266l-315 461l317 461q34 -8 76 -35l-291 -426l291 -426q-37 -26 -78 -35z" />
    <glyph glyph-name="guillemotright.ss01" horiz-adv-x="933" 
d="M164 266q-38 8 -76 35l291 426l-291 426q43 28 76 35l317 -461zM524 266q-40 8 -78 35l291 426l-291 426q42 27 76 35l318 -461z" />
    <glyph glyph-name="guilsinglleft.ss01" horiz-adv-x="573" 
d="M410 266l-316 461l318 461q32 -8 75 -35l-290 -426l290 -426q-37 -26 -77 -35z" />
    <glyph glyph-name="guilsinglright.ss01" horiz-adv-x="575" 
d="M164 266q-38 8 -76 35l291 426l-291 426q43 28 76 35l317 -461z" />
    <glyph glyph-name="cent.tf" horiz-adv-x="1044" 
d="M799 313q-4 -49 -15 -88q-82 -57 -223 -57v-193h-82v199q-181 25 -281 160.5t-100 363.5q0 232 100 366.5t281 158.5v188q29 16 82 16v-198q129 0 236 -49q0 -27 -11 -82q-101 45 -221 45h-4v-893h6q135 0 232 63zM199 696q0 -179 73 -294t207 -144v877
q-135 -28 -207.5 -142t-72.5 -297z" />
    <glyph glyph-name="currency.tf" 
d="M940 721q0 -140 -78 -240l125 -123l-63 -63l-123 123q-104 -80 -238 -80q-133 0 -237 80l-125 -123l-62 63l123 123q-78 100 -78 240q0 133 76 235l-123 123l62 64l125 -123q106 82 239 82q137 0 238 -82l125 123l63 -64l-125 -123q76 -102 76 -235zM272 721
q0 -132 83.5 -213.5t207.5 -81.5q123 0 207 81.5t84 213.5q0 131 -84 213t-207 82q-124 0 -207.5 -82t-83.5 -213z" />
    <glyph glyph-name="dollar.tf" horiz-adv-x="1085" 
d="M940 346q0 -152 -94 -254t-266 -119v-227l-82 -2v227q-207 7 -342 97q3 50 14 88q142 -90 328 -97v633l-15 6q-73 32 -128.5 66.5t-103.5 82.5t-73.5 110.5t-25.5 138.5q0 155 93.5 244.5t252.5 103.5v207q34 12 82 12v-217q157 -6 297 -74q-2 -33 -17 -88
q-126 67 -280 74v-596l34 -17q163 -72 244.5 -166.5t81.5 -232.5zM250 1096q0 -57 18.5 -103.5t55 -81.5t77 -60.5t97.5 -51.5v555q-115 -12 -181.5 -78.5t-66.5 -179.5zM580 63q123 13 192.5 88.5t69.5 190.5q0 106 -60 179t-202 136v-594z" />
    <glyph glyph-name="Euro.tf" 
d="M766 1356q-171 0 -263 -117.5t-116 -345.5h561q0 -28 -12 -82h-555q-2 -33 -2 -102q0 -43 4 -121h557q-4 -44 -12 -82h-539q25 -220 117 -331.5t262 -111.5q61 0 132 17t120 49q-3 -48 -12 -100q-116 -58 -248 -58q-407 0 -471 535h-201v82h195q-4 78 -4 121q0 69 2 102
h-193v82h199q58 553 475 553q72 0 147.5 -21t126.5 -55q-4 -57 -14 -92q-50 36 -120 57t-136 21z" />
    <glyph glyph-name="florin.tf" 
d="M766 1360q-90 0 -126 -50.5t-36 -154.5v-213h252q-3 -35 -10 -80h-242v-600q0 -287 -256 -287q-78 0 -139 25q0 32 8 86q55 -25 123 -25q166 0 166 205v596h-225v80h225v217q0 287 252 287q66 0 139 -25q0 -36 -8 -86q-63 25 -123 25z" />
    <glyph glyph-name="uni20BA.tf" 
d="M944 463q24 4 88 8q-12 -252 -138.5 -361.5t-358.5 -109.5h-263v594l-180 -68v82l180 66v196l-180 -67v80l180 67v461q50 16 103 16v-440l385 143q0 -38 -6 -81l-379 -142v-194l385 141q0 -40 -6 -80l-379 -141v-539h164q90 0 155.5 16t121 56t87.5 114t41 183z" />
    <glyph glyph-name="uni20BC.tf" 
d="M604 1104q196 -12 301 -137.5t105 -339.5v-627h-99v625q0 374 -307 395v-686h-86v686q-157 -12 -231 -110t-74 -285v-625h-96v627q0 214 102.5 339t298.5 138v313q38 15 86 15v-328z" />
    <glyph glyph-name="uni20B9.tf" 
d="M657 1337q150 -91 162 -278h144q-3 -34 -13 -80h-131q-24 -352 -508 -352h-35l551 -627h-120l-549 629v76h164q189 0 289 64.5t110 209.5h-557v80h557q-11 146 -111.5 212t-314.5 66h-139v80h807q-2 -32 -13 -80h-293z" />
    <glyph glyph-name="sterling.tf" 
d="M328 94h653q0 -49 -10 -94h-805v88q124 51 186 125t62 199q0 36 -6 88l-21 215h-244v80h236l-19 176q-6 93 -6 116q0 183 102.5 271t286.5 88q93 0 191 -25q0 -40 -8 -90q-91 25 -181 25q-290 0 -290 -275q0 -59 6 -106l18 -180h367q-5 -58 -10 -80h-349l21 -209
q6 -44 6 -84q0 -113 -45 -192t-141 -136z" />
    <glyph glyph-name="uni20A9.tf" 
d="M1120 793q-5 -57 -10 -78h-127l-111 -715h-112l-113 715h-147l-109 -715h-112l-121 715h-140v78h127l-104 624h98l99 -624h190l86 624h115l92 -624h186l86 624h99l-97 -624h125zM510 793h125l-64 405zM340 147l78 568h-168zM815 141l80 574h-164z" />
    <glyph glyph-name="yen.tf" 
d="M952 647h-340v-201h351q-5 -51 -13 -77h-338v-369h-100v369h-344v77h344v201h-344v78h315l-409 692h110l381 -661l379 661h107l-410 -692h324q-6 -55 -13 -78z" />
    <glyph glyph-name="caroncomb.alt" horiz-adv-x="0" 
d="M-227 1085q22 155 28 332q63 19 97 19q-12 -196 -93 -351h-32z" />
    <glyph glyph-name="uni0308.case" horiz-adv-x="0" 
d="M-541 1612q-31 0 -50 19.5t-19 51.5q0 31 20 50.5t49 19.5q31 0 50.5 -19.5t19.5 -50.5q0 -32 -19.5 -51.5t-50.5 -19.5zM-170 1612q-31 0 -51.5 19.5t-20.5 51.5q0 31 20.5 50.5t51.5 19.5q29 0 48.5 -19.5t19.5 -50.5q0 -32 -19 -51.5t-49 -19.5z" />
    <glyph glyph-name="uni0307.case" horiz-adv-x="0" 
d="M-170 1612q-31 0 -50.5 19t-19.5 50q0 32 19.5 52t50.5 20q30 0 49 -20t19 -52t-19 -50.5t-49 -18.5z" />
    <glyph glyph-name="gravecomb.case" horiz-adv-x="0" 
d="M-102 1569h-25q-68 29 -139 93.5t-117 131.5q24 8 70 8q37 0 61 -8z" />
    <glyph glyph-name="acutecomb.case" horiz-adv-x="0" 
d="M-383 1569l150 225q24 8 61 8q46 0 70 -8q-46 -67 -117 -131.5t-139 -93.5h-25z" />
    <glyph glyph-name="uni030B.case" horiz-adv-x="0" 
d="M-606 1569l153 225q20 10 66 10q35 0 47 -4q-37 -67 -108.5 -136.5t-135.5 -94.5h-22zM-369 1569l152 225q23 10 67 10q36 0 48 -4q-36 -65 -107.5 -133t-138.5 -98h-21z" />
    <glyph glyph-name="uni0302.case" horiz-adv-x="0" 
d="M-625 1569l201 233q24 8 62 8q32 0 59 -8l201 -233h-45q-105 55 -215 178q-107 -118 -224 -178h-39z" />
    <glyph glyph-name="uni030C.case" horiz-adv-x="0" 
d="M-102 1810l-203 -235q-27 -6 -60 -6q-32 0 -59 6l-201 235h43q109 -56 217 -180q100 116 222 180h41z" />
    <glyph glyph-name="uni0306.case" horiz-adv-x="0" 
d="M-356 1567q-107 0 -171.5 57.5t-82.5 157.5q36 8 73 8q17 -74 63.5 -114t117.5 -40q149 0 180 154q34 0 74 -8q-16 -100 -80.5 -157.5t-173.5 -57.5z" />
    <glyph glyph-name="uni030A.case" horiz-adv-x="0" 
d="M-287 1536q-80 0 -132 50t-52 128q0 76 53 125t131 49q79 0 132 -50t53 -126q0 -75 -53 -125.5t-132 -50.5zM-287 1593q53 0 87 33.5t34 85.5q0 51 -35 84t-86 33q-50 0 -85.5 -32.5t-35.5 -82.5q0 -54 33.5 -87.5t87.5 -33.5z" />
    <glyph glyph-name="tildecomb.case" horiz-adv-x="0" 
d="M-219 1556q-39 0 -95.5 37t-106 74t-73.5 37q-25 0 -37 -14.5t-12 -49.5v-81h-75v92q0 64 29.5 96.5t80.5 32.5q32 0 74.5 -24t76.5 -52t69.5 -52t56.5 -24q23 0 38 16.5t15 49.5v84h76v-95q0 -127 -117 -127z" />
    <glyph glyph-name="uni0304.case" horiz-adv-x="0" 
d="M-559 1653q0 36 12 76h445q0 -27 -11 -76h-446z" />
    <glyph glyph-name="uni0308.narrow.case" horiz-adv-x="0" 
d="M-418 1612q-32 0 -50.5 20t-18.5 51t18.5 50.5t50.5 19.5q29 0 47.5 -19.5t18.5 -50.5t-18.5 -51t-47.5 -20zM-172 1612q-29 0 -48.5 20t-19.5 51t19.5 50.5t48.5 19.5q31 0 50.5 -19.5t19.5 -50.5t-19.5 -51t-50.5 -20z" />
    <glyph glyph-name="uni0302.narrow.case" horiz-adv-x="0" 
d="M-532 1569l159 223q27 6 56 6q28 0 55 -6l160 -223h-35q-111 73 -180 164q-71 -93 -179 -164h-36z" />
    <glyph glyph-name="uni0306.narrow.case" horiz-adv-x="0" 
d="M-315 1567q-94 0 -149 56.5t-68 150.5q21 8 69 8q25 -144 148 -144q63 0 98 35t49 109q30 0 66 -8q-11 -94 -64 -150.5t-149 -56.5z" />
    <glyph glyph-name="tildecomb.narrow.case" horiz-adv-x="0" 
d="M-205 1544q-32 0 -66.5 23t-59 50t-52.5 50t-47 23q-24 0 -34.5 -14.5t-10.5 -49.5v-80h-68v92q0 67 24 98t75 31q33 0 67.5 -23t58 -50.5t51 -50.5t48.5 -23q47 0 47 66v79h70v-94q0 -66 -25.5 -96.5t-77.5 -30.5z" />
    <glyph glyph-name="uni0304.narrow.case" horiz-adv-x="0" 
d="M-487 1653q0 36 12 76h373q-2 -27 -13 -76h-372z" />
    <glyph glyph-name="uni0308.narrow" horiz-adv-x="0" 
d="M-436 1282q-31 0 -49.5 19.5t-18.5 50.5t18.5 50t49.5 19q29 0 47 -19t18 -50t-18 -50.5t-47 -19.5zM-168 1282q-29 0 -48.5 19.5t-19.5 50.5q0 30 19 49.5t49 19.5q29 0 47.5 -19t18.5 -50t-18.5 -50.5t-47.5 -19.5z" />
    <glyph glyph-name="uni0302.narrow" horiz-adv-x="0" 
d="M-250 1479l148 -285h-35q-25 19 -57.5 60.5t-49.5 68.5t-53 84q-3 -5 -22.5 -36t-24 -38t-20.5 -31.5t-23.5 -34t-21 -26t-25 -27.5t-23.5 -20h-30l145 283q18 6 45 6q19 0 47 -4z" />
    <glyph glyph-name="uni030C.narrow" horiz-adv-x="0" 
d="M-133 1479h31l-146 -281q-14 -6 -47 -6q-31 0 -45 4l-147 283h34q25 -18 57.5 -59t50 -68t52.5 -84l20 32t20.5 32.5t18.5 29t20 29.5t19 25t20.5 25t19.5 19.5t22 18.5z" />
    <glyph glyph-name="uni0306.narrow" horiz-adv-x="0" 
d="M-289 1198q-178 0 -188 254q21 8 67 8q3 -90 31 -139t90 -49q112 0 119 188q44 0 68 -8q-3 -117 -49 -185.5t-138 -68.5z" />
    <glyph glyph-name="tildecomb.narrow" horiz-adv-x="0" 
d="M-201 1231q-25 0 -55 22.5t-52 50t-44.5 50t-34.5 22.5q-23 0 -33 -13.5t-10 -47.5v-80h-62v88q0 123 95 123q26 0 55 -23t50.5 -51t44 -51t36.5 -23q45 0 45 64v80h64v-88q0 -62 -26.5 -92.5t-72.5 -30.5z" />
    <glyph glyph-name="uni0304.narrow" horiz-adv-x="0" 
d="M-471 1315q0 24 12 78h357q0 -29 -11 -78h-358z" />
    <glyph glyph-name="uni0328.narrow" horiz-adv-x="0" 
d="M-203 -428q-79 0 -124.5 43.5t-45.5 124.5q0 71 34.5 132.5t125.5 152.5l53 -25q-135 -141 -135 -250q0 -52 28 -80t79 -28q46 0 86 18q-1 -6 -11 -72q-32 -16 -90 -16z" />
    <glyph glyph-name="Logo" horiz-adv-x="2680" 
d="M1710 1059q276 -73 445 -218t169 -317q0 -161 -145.5 -298t-396 -216.5t-545.5 -79.5t-545.5 79.5t-396 216.5t-145.5 298q0 174 169 318t447 217q0 -154 63 -258l342 -590q38 -65 52 -148l12 29q34 80 48 157.5t3.5 159.5t-51.5 152l-270 473q-66 115 -67.5 221.5
t67.5 251.5l12 25q10 -64 55 -143l408 -707q37 -64 51 -145l16 24q63 111 62.5 239t-62.5 234l-272 473q-63 109 -62.5 236t62.5 235l14 25q18 -83 54 -143l346 -590q51 -87 61 -211z" />
    </font>
</defs>
</svg>
