<?xml version="1.0" standalone="no"?>
<!DOCTYPE svg PUBLIC "-//W3C//DTD SVG 1.1//EN" "http://www.w3.org/Graphics/SVG/1.1/DTD/svg11.dtd" >
<svg xmlns="http://www.w3.org/2000/svg" xmlns:xlink="http://www.w3.org/1999/xlink" version="1.1">
<metadata>
Created by FontForge 20170731 at Tue Jul 27 20:39:44 2021
 By Aleksey,,,
(c) 2018 Banco Santander, S.A. All rights reserved.
</metadata>
<defs>
<font id="SantanderText-Regular" horiz-adv-x="1126" >
  <font-face 
    font-family="Santander Text"
    font-weight="400"
    font-stretch="normal"
    units-per-em="2048"
    panose-1="2 11 5 4 2 2 1 2 1 4"
    ascent="1638"
    descent="-410"
    x-height="1014"
    cap-height="1432"
    bbox="-688 -625 2324 2255"
    underline-thickness="102"
    underline-position="-307"
    unicode-range="U+000D-FEFF"
  />
<missing-glyph horiz-adv-x="1335" 
d="M184 0h967v1417h-967v-1417zM289 98v1221h758v-1221h-758z" />
    <glyph glyph-name="fi" unicode="fi" horiz-adv-x="1050" 
d="M162 1106q0 342 327 342q82 0 166 -23q-3 -74 -12 -125q-75 21 -139 21q-100 0 -147.5 -52.5t-47.5 -164.5v-90h334q-4 -78 -14 -123h-320v-891h-147v1106zM813 1245q-42 0 -70 28.5t-28 72.5q0 45 28 72.5t70 27.5q43 0 70.5 -27.5t27.5 -72.5q0 -44 -27.5 -72.5
t-70.5 -28.5zM739 0v1014h150v-1014h-150z" />
    <glyph glyph-name="fl" unicode="fl" horiz-adv-x="1134" 
d="M162 1106q0 342 327 342q82 0 166 -23q-3 -74 -12 -125q-75 21 -139 21q-100 0 -147.5 -52.5t-47.5 -164.5v-90h334q-4 -78 -14 -123h-320v-891h-147v1106zM1022 102q46 0 100 21q-3 -63 -16 -123q-61 -25 -129 -25q-114 0 -176 67.5t-62 197.5v1177q70 23 150 23v-1188
q0 -150 133 -150z" />
    <glyph glyph-name="f_f" unicode="ff" horiz-adv-x="1222" 
d="M1065 1321q-113 0 -162 -52t-49 -169v-86h360q-4 -78 -14 -123h-346v-891h-147v891h-398v-891h-147v1110q0 167 84.5 252.5t242.5 85.5q85 0 166 -23q-3 -73 -12 -127q-71 23 -139 23q-195 0 -195 -213v-94h398v88q0 346 348 346q93 0 174 -23q-3 -73 -12 -127
q-71 23 -152 23z" />
    <glyph glyph-name="f_f_i" unicode="ffi" horiz-adv-x="1595" 
d="M1049 1321q-99 0 -146 -52.5t-47 -164.5v-90h334q-11 -98 -16 -123h-318v-891h-149v891h-398v-891h-147v1102q0 346 336 346q86 0 166 -23q-3 -65 -13 -127q-71 23 -139 23q-102 0 -152.5 -53.5t-50.5 -167.5v-86h398v92q0 342 327 342q86 0 166 -23q-3 -74 -12 -125
q-75 21 -139 21zM1360 1245q-43 0 -70.5 28.5t-27.5 72.5q0 45 27.5 72.5t70.5 27.5t69.5 -27.5t26.5 -72.5q0 -44 -26.5 -72.5t-69.5 -28.5zM1286 0v1014h148v-1014h-148z" />
    <glyph glyph-name="f_f_l" unicode="ffl" horiz-adv-x="1681" 
d="M1049 1321q-99 0 -146 -52.5t-47 -164.5v-90h334q-11 -98 -16 -123h-318v-891h-149v891h-398v-891h-147v1102q0 346 336 346q86 0 166 -23q-3 -65 -13 -127q-71 23 -139 23q-102 0 -152.5 -53.5t-50.5 -167.5v-86h398v92q0 342 327 342q86 0 166 -23q-3 -74 -12 -125
q-75 21 -139 21zM1567 102q49 0 100 21q-3 -63 -16 -123q-58 -25 -129 -25q-112 0 -174 67.5t-62 197.5v1177q68 23 148 23v-1188q0 -150 133 -150z" />
    <glyph glyph-name=".notdef" horiz-adv-x="1335" 
d="M184 0h967v1417h-967v-1417zM289 98v1221h758v-1221h-758z" />
    <glyph glyph-name=".null" horiz-adv-x="0" 
 />
    <glyph glyph-name="nonmarkingreturn" horiz-adv-x="682" 
 />
    <glyph glyph-name="NULL" horiz-adv-x="0" 
 />
    <glyph glyph-name="NULL" horiz-adv-x="0" 
 />
    <glyph glyph-name="CR" unicode="&#xd;" horiz-adv-x="436" 
 />
    <glyph glyph-name="space" unicode=" " horiz-adv-x="436" 
 />
    <glyph glyph-name="exclam" unicode="!" horiz-adv-x="630" 
d="M250 442l-12 975q75 23 155 23l-16 -998h-127zM315 -16q-43 0 -73.5 30.5t-30.5 73.5t30.5 74t73.5 31t74 -31t31 -74t-31 -73.5t-74 -30.5z" />
    <glyph glyph-name="quotedbl" unicode="&#x22;" horiz-adv-x="757" 
d="M188 993l-16 424q57 23 127 23l-14 -447h-97zM475 993l-16 424q57 23 127 23l-15 -447h-96z" />
    <glyph glyph-name="numbersign" unicode="#" 
d="M1085 899h-217l-77 -385h243q0 -52 -14 -117h-252l-80 -397h-119l78 397h-297l-80 -397h-118l77 397h-204q0 58 16 117h211l76 385h-236q0 47 19 117h239l78 393q54 23 127 23l-82 -416h295l78 393q54 23 129 23l-84 -416h211q0 -51 -17 -117zM670 514l75 385h-296
l-76 -385h297z" />
    <glyph glyph-name="dollar" unicode="$" horiz-adv-x="999" 
d="M913 358q0 -153 -89.5 -258t-264.5 -127v-235l-119 -2v233q-219 10 -336 88q2 70 21 133q63 -38 148.5 -60.5t166.5 -25.5v566l-24 10q-71 31 -126 67.5t-100 85t-68.5 112t-23.5 138.5q0 152 91 245t251 114v198q47 21 119 21v-213q153 -6 297 -68q-5 -62 -27 -131
q-120 61 -270 68v-541l23 -10q166 -75 248.5 -171.5t82.5 -236.5zM248 1083q0 -89 48.5 -147t143.5 -105v478q-92 -19 -142 -78t-50 -148zM559 109q100 19 152.5 82.5t52.5 162.5q0 87 -46 147t-159 115v-507z" />
    <glyph glyph-name="percent" unicode="%" horiz-adv-x="1689" 
d="M410 690q-145 0 -222 99.5t-77 281.5q0 183 77 280t222 97q141 0 216.5 -97t75.5 -280q0 -181 -76 -281t-216 -100zM403 -12l730 1429q57 9 143 13l-729 -1430q-74 -12 -144 -12zM410 799q84 0 123.5 67t39.5 205q0 270 -163 270q-87 0 -127.5 -67.5t-40.5 -202.5
q0 -138 40.5 -205t127.5 -67zM1286 -31q-143 0 -220 100.5t-77 282.5t77 279.5t220 97.5t219 -97t76 -280q0 -181 -76.5 -282t-218.5 -101zM1286 80q85 0 124.5 66.5t39.5 203.5q0 273 -164 273q-166 0 -166 -273q0 -137 39.5 -203.5t126.5 -66.5z" />
    <glyph glyph-name="ampersand" unicode="&#x26;" horiz-adv-x="1415" 
d="M1401 0h-193l-168 176q-177 -205 -467 -205q-204 0 -332 118.5t-128 311.5q0 144 77 255t236 173q-115 146 -115 293t103 236.5t295 89.5q161 0 309 -64q0 -72 -25 -137q-135 64 -270 64q-131 0 -195.5 -51.5t-64.5 -141.5q0 -66 33.5 -132t107.5 -144l416 -439
q78 169 106 428q62 17 142 17q-21 -327 -146 -553zM578 102q226 0 366 177l-434 454q-112 -33 -181 -118t-69 -203q0 -138 85 -224t233 -86z" />
    <glyph glyph-name="quotesingle" unicode="'" horiz-adv-x="471" 
d="M188 993l-16 424q57 23 127 23l-14 -447h-97z" />
    <glyph glyph-name="parenleft" unicode="(" horiz-adv-x="638" 
d="M453 -434q-128 229 -198.5 482.5t-70.5 565.5q0 586 269 1045q60 0 118 -35q-243 -453 -243 -1010t250 -1022q-59 -26 -125 -26z" />
    <glyph glyph-name="parenright" unicode=")" horiz-adv-x="638" 
d="M186 -434q-66 0 -125 26q250 465 250 1022t-243 1010q58 35 118 35q267 -455 267 -1045q0 -312 -70 -566t-197 -482z" />
    <glyph glyph-name="asterisk" unicode="*" horiz-adv-x="858" 
d="M776 1141l-293 -66l199 -221q-12 -15 -47 -43q-38 -25 -53 -31l-152 256l-151 -258q-32 16 -54 33q-28 18 -47 41l201 227l-295 64q3 30 14 61q10 35 25 58l274 -121l-28 297q27 6 61 6q37 0 64 -6l-31 -301l274 123q5 -8 25 -58q11 -38 14 -61z" />
    <glyph glyph-name="plus" unicode="+" 
d="M961 754q0 -50 -15 -127h-319v-328h-127v328h-334q0 55 14 127h320v327h127v-327h334z" />
    <glyph glyph-name="comma" unicode="," horiz-adv-x="503" 
d="M129 -301q38 223 49 467q74 27 160 27q-25 -321 -113 -494h-96z" />
    <glyph glyph-name="hyphen" unicode="-" horiz-adv-x="757" 
d="M90 545q0 47 12 129h566q-3 -61 -17 -129h-561z" />
    <glyph glyph-name="period" unicode="." horiz-adv-x="503" 
d="M252 -20q-46 0 -78.5 33t-32.5 79q0 44 32.5 76.5t78.5 32.5t78 -32.5t32 -76.5q0 -46 -32 -79t-78 -33z" />
    <glyph glyph-name="slash" unicode="/" horiz-adv-x="704" 
d="M20 -123l521 1661q67 11 143 14l-526 -1675h-138z" />
    <glyph glyph-name="zero" unicode="0" 
d="M563 -31q-238 0 -349.5 185.5t-111.5 554.5q0 370 111.5 554.5t349.5 184.5t349.5 -184.5t111.5 -554.5q0 -368 -112.5 -554t-348.5 -186zM563 109q165 0 236 146.5t71 453.5q0 308 -70.5 455t-236.5 147q-167 0 -237 -146.5t-70 -455.5q0 -308 70.5 -454t236.5 -146z
" />
    <glyph glyph-name="one" unicode="1" 
d="M670 137h334q-3 -71 -17 -137h-815q4 73 16 137h330v1155q-203 -36 -393 -106q0 69 14 141q113 48 255 81.5t276 39.5v-1311z" />
    <glyph glyph-name="two" unicode="2" 
d="M279 139h679q0 -73 -16 -139h-819v55q0 63 14.5 121.5t45 111t63.5 96t85 91.5t93.5 82t103.5 82q126 94 188 187t62 212q0 133 -82 203t-245 70q-164 0 -310 -76q0 79 13 143q143 70 317 70q231 0 347 -107.5t116 -291.5q0 -156 -79.5 -279t-244.5 -246
q-63 -47 -98 -74.5t-82 -69.5t-72.5 -75.5t-48 -77t-30.5 -88.5z" />
    <glyph glyph-name="three" unicode="3" 
d="M692 743q303 -68 303 -348q0 -203 -145 -314.5t-420 -111.5q-142 0 -289 35q0 65 19 135q112 -33 260 -33q420 0 420 291q0 138 -98.5 204.5t-303.5 66.5h-162v133h150q172 0 271.5 69t99.5 195q0 111 -82.5 178.5t-247.5 67.5q-169 0 -313 -66q0 68 14 139
q128 64 315 64q222 0 341.5 -96.5t119.5 -259.5q0 -126 -71.5 -218t-180.5 -131z" />
    <glyph glyph-name="four" unicode="4" 
d="M1069 506q-5 -84 -16 -133h-181v-373h-145v373h-651q0 73 6 131q107 227 280 472t361 441q73 13 149 13v-924h197zM231 506h496v729q-308 -361 -496 -729z" />
    <glyph glyph-name="five" unicode="5" 
d="M502 887q221 0 344 -112t123 -333q0 -230 -139 -351.5t-398 -121.5q-158 0 -285 37q0 63 21 135q107 -35 256 -35q188 0 289.5 82t101.5 248q0 318 -371 318q-128 0 -249 -33l57 696h680q0 -67 -14 -139h-527l-39 -406q70 15 150 15z" />
    <glyph glyph-name="six" unicode="6" 
d="M612 899q188 0 297 -119t109 -329q0 -224 -116 -353t-318 -129q-231 0 -352 174t-121 525q0 399 141 589.5t444 190.5q137 0 242 -43q0 -61 -14 -135q-93 41 -228 41q-225 0 -328.5 -141.5t-111.5 -458.5q56 93 148 140.5t208 47.5zM582 106q135 0 209.5 88.5t74.5 247.5
q0 157 -76 240.5t-208 83.5q-185 0 -326 -166q9 -257 89 -375.5t237 -118.5z" />
    <glyph glyph-name="seven" unicode="7" 
d="M115 1417h905q0 -46 -12 -108q-393 -650 -549 -1309h-156q143 619 531 1278h-736q3 69 17 139z" />
    <glyph glyph-name="eight" unicode="8" 
d="M737 745q138 -54 216.5 -152t78.5 -231q0 -183 -128.5 -288t-344.5 -105q-213 0 -337 101.5t-124 277.5q0 135 79 227.5t222 139.5q-256 119 -256 370q0 164 113 263.5t315 99.5q199 0 309.5 -96.5t110.5 -257.5q0 -234 -254 -349zM293 1087q0 -108 70 -180.5t198 -107.5
l23 -6q132 54 195 127t63 170q0 105 -69.5 169t-203.5 64q-135 0 -205.5 -65.5t-70.5 -170.5zM567 96q146 0 231 68t85 190q0 102 -71.5 180t-211.5 117l-59 17q-154 -51 -223.5 -127.5t-69.5 -182.5q0 -129 88 -195.5t231 -66.5z" />
    <glyph glyph-name="nine" unicode="9" horiz-adv-x="1128" 
d="M543 1450q231 0 353 -173.5t122 -524.5q0 -398 -142.5 -589.5t-445.5 -191.5q-137 0 -242 43q0 60 15 136q93 -41 227 -41q225 0 329 141.5t111 458.5q-56 -93 -148.5 -141t-207.5 -48q-188 0 -296.5 119.5t-108.5 329.5q0 224 116 352.5t318 128.5zM545 653
q184 0 325 166q-9 256 -88.5 375t-236.5 119q-135 0 -210 -89t-75 -247q0 -157 76.5 -240.5t208.5 -83.5z" />
    <glyph glyph-name="colon" unicode=":" horiz-adv-x="503" 
d="M252 754q-46 0 -78.5 32t-32.5 78t32.5 78.5t78.5 32.5t78 -32.5t32 -78.5t-32 -78t-78 -32zM252 -20q-46 0 -78.5 33t-32.5 79q0 44 32.5 76.5t78.5 32.5t78 -32.5t32 -76.5q0 -46 -32 -79t-78 -33z" />
    <glyph glyph-name="semicolon" unicode=";" horiz-adv-x="503" 
d="M252 754q-46 0 -78.5 32t-32.5 78t32.5 78.5t78.5 32.5t78 -32.5t32 -78.5t-32 -78t-78 -32zM129 -301q38 223 49 467q74 27 160 27q-25 -321 -113 -494h-96z" />
    <glyph glyph-name="less" unicode="&#x3c;" 
d="M928 920l-588 -234l596 -233q-3 -66 -18 -134l-750 316q0 48 10 106l758 314q0 -75 -8 -135z" />
    <glyph glyph-name="equal" unicode="=" 
d="M166 797q0 55 14 127h781q0 -50 -15 -127h-780zM166 453q0 55 14 127h781q0 -54 -15 -127h-780z" />
    <glyph glyph-name="greater" unicode="&#x3e;" 
d="M209 1055l749 -314q0 -46 -10 -108l-758 -314q0 71 9 138l587 233l-596 232q0 51 19 133z" />
    <glyph glyph-name="question" unicode="?" horiz-adv-x="927" 
d="M309 422q-4 46 -4 63q0 101 41 172t131 138q99 73 147 142t48 157q0 100 -67 160.5t-212 60.5q-77 0 -158 -20t-143 -56q0 76 14 133q129 76 306 76q201 0 307 -93.5t106 -256.5q0 -64 -18 -119t-55.5 -101.5t-78 -82t-100.5 -78.5q-79 -59 -112 -114t-33 -136v-45h-119z
M383 -23q-44 0 -75.5 31.5t-31.5 75.5q0 43 31.5 73.5t75.5 30.5q43 0 73.5 -30.5t30.5 -73.5q0 -44 -30.5 -75.5t-73.5 -31.5z" />
    <glyph glyph-name="at" unicode="@" horiz-adv-x="1814" 
d="M942 1053q146 0 289 -54v-614q0 -58 27.5 -96.5t76.5 -38.5q98 0 169 113t71 319q0 301 -181.5 478t-490.5 177q-296 0 -480.5 -198t-184.5 -525q0 -180 51 -323t142.5 -236.5t216 -142.5t274.5 -49q228 0 401 84q0 -49 -12 -115q-178 -78 -391 -78q-236 0 -417.5 103
t-282.5 296.5t-101 450.5q0 185 58 342.5t160.5 267.5t249.5 172t320 62q176 0 324 -58t249.5 -158.5t158.5 -240t57 -299.5q0 -243 -107.5 -396t-269.5 -153q-83 0 -135 46.5t-66 123.5q-78 -153 -244 -153q-154 0 -244.5 118t-90.5 334q0 441 403 441zM905 266
q123 0 209 107v561q-89 27 -180 27q-279 0 -279 -340q0 -170 65 -262.5t185 -92.5z" />
    <glyph glyph-name="A" unicode="A" horiz-adv-x="1163" 
d="M983 0l-117 369h-575l-119 -369h-147l460 1405q61 20 185 20l469 -1425h-156zM334 502h491l-245 772z" />
    <glyph glyph-name="B" unicode="B" horiz-adv-x="1187" 
d="M821 745q135 -38 205 -132.5t70 -217.5q0 -187 -124.5 -291t-355.5 -104h-432v1417q165 31 342 31q263 0 387.5 -97.5t124.5 -277.5q0 -114 -58 -198t-159 -130zM885 1055q0 130 -85.5 195t-279.5 65q-98 0 -184 -12v-502h252q137 0 217 64.5t80 189.5zM606 133
q161 0 248.5 67t87.5 197t-87.5 199.5t-252.5 69.5h-266v-533h270z" />
    <glyph glyph-name="C" unicode="C" horiz-adv-x="1128" 
d="M729 -31q-201 0 -344 94t-214 259.5t-71 386.5q0 340 165.5 539.5t459.5 199.5q200 0 328 -72q-5 -76 -25 -133q-120 68 -295 68q-224 0 -349.5 -156t-125.5 -448q0 -285 129 -443t352 -158q180 0 310 68q-6 -70 -23 -154q-142 -51 -297 -51z" />
    <glyph glyph-name="D" unicode="D" horiz-adv-x="1323" 
d="M532 1448q146 0 262.5 -36.5t196 -100.5t132.5 -156t76.5 -200t23.5 -234q0 -165 -42.5 -297.5t-125.5 -227t-212.5 -145.5t-297.5 -51h-361v1415q146 33 348 33zM549 133q255 0 385.5 152t130.5 440q0 279 -131 433.5t-402 154.5q-94 0 -196 -13v-1167h213z" />
    <glyph glyph-name="E" unicode="E" horiz-adv-x="1067" 
d="M336 137h639q0 -67 -17 -137h-774v1417h787q0 -71 -17 -137h-618v-489h565q-4 -75 -16 -138h-549v-516z" />
    <glyph glyph-name="F" unicode="F" horiz-adv-x="999" 
d="M928 1280h-592v-489h567q-4 -85 -18 -138h-549v-653h-152v1417h760q0 -68 -16 -137z" />
    <glyph glyph-name="G" unicode="G" horiz-adv-x="1298" 
d="M991 741h156v-694q-174 -78 -391 -78q-162 0 -287.5 54t-206 152.5t-121.5 234.5t-41 303q0 352 176 543.5t498 191.5q215 0 363 -66q-5 -54 -27 -137q-150 66 -338 66q-245 0 -380.5 -154t-135.5 -442q0 -289 131 -449t375 -160q105 0 229 31v604z" />
    <glyph glyph-name="H" unicode="H" horiz-adv-x="1353" 
d="M1018 1409q85 23 149 23v-1432h-149v657h-682v-657h-152v1409q90 23 152 23v-635h682v612z" />
    <glyph glyph-name="I" unicode="I" horiz-adv-x="520" 
d="M184 0v1409q90 23 152 23v-1432h-152z" />
    <glyph glyph-name="J" unicode="J" horiz-adv-x="706" 
d="M152 -14q-74 0 -138 12q0 60 11 131q62 -10 108 -10q129 0 192.5 73t63.5 244v973q90 23 152 23v-1012q0 -434 -389 -434z" />
    <glyph glyph-name="K" unicode="K" 
d="M184 0v1409q90 23 152 23v-1432h-152zM524 733l588 -733h-190l-568 721v16l549 680h174z" />
    <glyph glyph-name="L" unicode="L" horiz-adv-x="905" 
d="M184 0v1409q90 23 152 23v-1295h555q0 -58 -14 -137h-693z" />
    <glyph glyph-name="M" unicode="M" horiz-adv-x="1751" 
d="M1509 1432l95 -1432h-148l-41 633q-22 361 -29 584q-105 -319 -229 -639l-227 -578h-113l-244 627q-130 339 -208 590q-8 -240 -33 -613l-39 -604h-146l97 1409q84 23 184 23l449 -1219l440 1196q73 23 192 23z" />
    <glyph glyph-name="N" unicode="N" horiz-adv-x="1355" 
d="M1028 1409q85 23 143 23v-1432h-127l-569 924q-83 133 -151 272q4 -164 4 -516v-680h-144v1409q75 23 144 23l542 -875q61 -94 166 -299q-8 364 -8 586v565z" />
    <glyph glyph-name="O" unicode="O" horiz-adv-x="1402" 
d="M705 -31q-194 0 -332 94t-205.5 259t-67.5 387q0 340 158.5 539.5t441.5 199.5q194 0 332 -94t205.5 -259t67.5 -386q0 -345 -158 -542.5t-442 -197.5zM705 106q216 0 329 155.5t113 447.5q0 286 -116 444t-331 158q-214 0 -329 -157.5t-115 -444.5q0 -286 116.5 -444.5
t332.5 -158.5z" />
    <glyph glyph-name="P" unicode="P" horiz-adv-x="1112" 
d="M528 1448q115 0 205.5 -24t150 -65t98.5 -100t56 -125t17 -143q0 -219 -138.5 -344t-390.5 -125h-190v-522h-152v1417q190 31 344 31zM526 653q185 1 279 86.5t94 241.5q0 336 -371 336q-97 0 -192 -14v-654z" />
    <glyph glyph-name="Q" unicode="Q" horiz-adv-x="1402" 
d="M1317 -104q-71 -62 -117 -91l-203 236q-126 -72 -292 -72q-194 0 -332 94t-205.5 259t-67.5 387q0 340 158.5 539.5t441.5 199.5q194 0 332 -94t205.5 -259t67.5 -386q0 -188 -49 -336t-142 -244zM705 106q112 0 198 44l-186 217l108 92l191 -219q131 155 131 469
q0 286 -116 444t-331 158q-214 0 -329 -157.5t-115 -444.5q0 -286 116.5 -444.5t332.5 -158.5z" />
    <glyph glyph-name="R" unicode="R" horiz-adv-x="1112" 
d="M893 2l-344 586h-215v-588h-150v1411q168 35 332 35q131 0 230.5 -33.5t159 -92.5t89 -134t29.5 -164q0 -171 -91 -274.5t-239 -141.5l373 -604h-174zM334 719h192q340 0 340 295q0 301 -352 301q-92 0 -180 -12v-584z" />
    <glyph glyph-name="S" unicode="S" horiz-adv-x="1050" 
d="M475 -31q-106 0 -207.5 24.5t-175.5 69.5q3 74 19 132q162 -93 366 -93q155 0 243.5 66.5t88.5 183.5q0 110 -64 172.5t-213 120.5l-104 41q-159 60 -243.5 152.5t-84.5 244.5q0 174 117.5 269.5t339.5 95.5q189 0 354 -70q-4 -59 -24 -129q-160 68 -326 68
q-149 0 -227 -62.5t-78 -169.5q0 -112 60.5 -170t199.5 -108l109 -41q60 -23 106.5 -47t92 -59t75.5 -76.5t48 -99t18 -126.5q0 -175 -127 -282t-363 -107z" />
    <glyph glyph-name="T" unicode="T" horiz-adv-x="1042" 
d="M1028 1417q-4 -77 -16 -137h-418v-1280h-152v1280h-428q0 67 17 137h997z" />
    <glyph glyph-name="U" unicode="U" horiz-adv-x="1337" 
d="M668 -31q-232 0 -368 134.5t-136 355.5v950q90 23 151 23v-967q0 -171 94 -265t259 -94q167 0 260.5 94t93.5 267v942q90 23 152 23v-973q0 -221 -136 -355.5t-370 -134.5z" />
    <glyph glyph-name="V" unicode="V" horiz-adv-x="1148" 
d="M973 1417h151l-467 -1417h-168l-464 1417h161l392 -1265z" />
    <glyph glyph-name="W" unicode="W" horiz-adv-x="1906" 
d="M1704 1417h158l-412 -1417h-180l-318 1167l-317 -1167h-182l-408 1417h162l338 -1261l338 1261h145l338 -1257z" />
    <glyph glyph-name="X" unicode="X" horiz-adv-x="1114" 
d="M1100 0h-172l-371 606l-371 -606h-172l467 729l-430 688h174l338 -553l334 553h170l-428 -676z" />
    <glyph glyph-name="Y" unicode="Y" horiz-adv-x="1062" 
d="M1069 1417l-461 -866v-551h-151v551l-463 866h166l375 -731l374 731h160z" />
    <glyph glyph-name="Z" unicode="Z" horiz-adv-x="1087" 
d="M279 137h745q-12 -116 -16 -137h-922q0 48 10 113l715 1167h-737q4 79 18 137h914q0 -47 -13 -110z" />
    <glyph glyph-name="bracketleft" unicode="[" horiz-adv-x="657" 
d="M184 -434v2236h428q-3 -54 -16 -116h-270v-2005h286q-2 -46 -16 -115h-412z" />
    <glyph glyph-name="backslash" unicode="\" horiz-adv-x="684" 
d="M664 -123h-138l-510 1653q74 27 129 24z" />
    <glyph glyph-name="bracketright" unicode="]" horiz-adv-x="657" 
d="M473 1802v-2236h-428q3 56 16 117h271v2005h-287q2 44 16 114h412z" />
    <glyph glyph-name="asciicircum" unicode="^" 
d="M877 561h-140l-248 733l-249 -733h-138l301 844q78 20 166 20z" />
    <glyph glyph-name="underscore" unicode="_" horiz-adv-x="1079" 
d="M90 -319q0 48 12 102h887q-3 -66 -14 -102h-885z" />
    <glyph glyph-name="grave" unicode="`" horiz-adv-x="477" 
d="M375 1182h-13q-87 32 -159.5 121t-100.5 196q107 0 181 -29z" />
    <glyph glyph-name="a" unicode="a" horiz-adv-x="1032" 
d="M508 1038q184 0 273 -82.5t89 -250.5v-705h-137l-8 147q-44 -79 -123 -125.5t-190 -46.5q-145 0 -233.5 80.5t-88.5 220.5q0 85 29.5 147.5t97 111t182 78t279.5 40.5l45 2v45q0 114 -56.5 164.5t-177.5 50.5q-188 0 -339 -79q0 62 10 127q143 75 348 75zM440 96
q87 0 164 38.5t119 98.5v312l-37 -2q-109 -9 -188.5 -25t-129.5 -38t-79.5 -53t-41 -64.5t-11.5 -77.5q0 -86 53.5 -137.5t150.5 -51.5z" />
    <glyph glyph-name="b" unicode="b" horiz-adv-x="1093" 
d="M592 1038q188 0 296.5 -133t108.5 -387q0 -261 -121 -402t-368 -141q-190 0 -346 60v1382q68 23 147 23v-563q48 79 115.5 120t167.5 41zM506 98q176 0 258 109.5t82 306.5q0 198 -75 299.5t-220 101.5q-142 0 -242 -114v-674q92 -29 197 -29z" />
    <glyph glyph-name="c" unicode="c" horiz-adv-x="878" 
d="M559 -25q-219 0 -346 137t-127 394q0 264 128 398t351 134q130 0 228 -43q0 -56 -13 -123q-97 39 -207 39q-159 0 -246 -106.5t-87 -300.5q0 -190 87 -298t244 -108q125 0 224 58q-8 -71 -21 -129q-37 -24 -97 -38t-118 -14z" />
    <glyph glyph-name="d" unicode="d" horiz-adv-x="1091" 
d="M780 1417q68 23 150 23v-1440h-139l-9 137q-49 -80 -115.5 -121t-166.5 -41q-188 0 -297 133.5t-109 387.5q0 260 121 401t369 141q108 0 196 -18v397zM541 98q139 0 239 111v678q-89 28 -194 28q-176 0 -258 -109t-82 -304q0 -199 75 -301.5t220 -102.5z" />
    <glyph glyph-name="e" unicode="e" horiz-adv-x="1034" 
d="M936 586q0 -77 -8 -127h-686q12 -187 101 -274t249 -87q168 0 305 88q-4 -77 -20 -137q-135 -74 -295 -74q-245 0 -370.5 140.5t-125.5 398.5q0 113 26.5 206.5t79 165.5t139 112t199.5 40q199 0 302.5 -122.5t103.5 -329.5zM524 915q-128 0 -199.5 -88t-82.5 -247h542v8
q0 152 -64.5 239.5t-195.5 87.5z" />
    <glyph glyph-name="f" unicode="f" horiz-adv-x="677" 
d="M520 1321q-113 0 -162 -52t-49 -169v-86h361q-4 -72 -15 -123h-346v-891h-147v1102q0 346 348 346q94 0 174 -23q-3 -73 -12 -127q-71 23 -152 23z" />
    <glyph glyph-name="g" unicode="g" horiz-adv-x="1091" 
d="M584 1038q193 0 346 -59v-977q0 -225 -119 -343t-348 -118q-152 0 -287 60q3 62 14 133q128 -64 271 -64q152 0 235.5 79.5t83.5 238.5v147q-48 -79 -114.5 -119.5t-165.5 -40.5q-188 0 -297 133.5t-109 387.5q0 260 121 401t369 141zM541 98q139 0 239 111v678
q-89 28 -194 28q-176 0 -258 -109t-82 -304q0 -199 75 -301.5t220 -102.5z" />
    <glyph glyph-name="h" unicode="h" horiz-adv-x="1103" 
d="M625 1038q161 0 244 -92t83 -260v-686h-149v641q0 140 -56 207t-176 67q-150 0 -260 -127l-2 3v-791h-147v1417q68 23 147 23v-584q57 91 133.5 136.5t182.5 45.5z" />
    <glyph glyph-name="i" unicode="i" horiz-adv-x="471" 
d="M236 1245q-42 0 -70.5 28.5t-28.5 72.5q0 45 28.5 72.5t70.5 27.5q43 0 69.5 -27.5t26.5 -72.5q0 -44 -26.5 -72.5t-69.5 -28.5zM162 0v1014h147v-1014h-147z" />
    <glyph glyph-name="j" unicode="j" horiz-adv-x="471" 
d="M233 1245q-42 0 -70 28.5t-28 72.5q0 45 28 72.5t70 27.5q43 0 70 -27.5t27 -72.5q0 -44 -27 -72.5t-70 -28.5zM41 -465q-62 0 -117 19q2 31 15 118q45 -10 81 -10q71 0 106.5 38t35.5 122v1192h147v-1184q0 -152 -66.5 -223.5t-201.5 -71.5z" />
    <glyph glyph-name="k" unicode="k" horiz-adv-x="985" 
d="M162 0v1417q68 23 147 23v-1440h-147zM506 541l459 -541h-183l-440 532v13l410 469h172z" />
    <glyph glyph-name="l" unicode="l" horiz-adv-x="557" 
d="M399 -25q-114 0 -175.5 67.5t-61.5 197.5v1177q68 23 147 23v-1188q0 -150 133 -150q49 0 103 21q-6 -64 -19 -123q-58 -25 -127 -25z" />
    <glyph glyph-name="m" unicode="m" horiz-adv-x="1740" 
d="M1257 1038q162 0 247 -92.5t85 -257.5v-688h-149v643q0 139 -57 205.5t-181 66.5q-140 0 -260 -120q10 -55 10 -109v-686h-149v641q0 140 -56 207t-176 67q-150 0 -260 -127l-2 3v-791h-147v1014h137l8 -160q57 92 134 138t184 46q229 0 299 -184q64 93 140.5 138.5
t192.5 45.5z" />
    <glyph glyph-name="n" unicode="n" horiz-adv-x="1103" 
d="M625 1038q161 0 244 -92t83 -260v-686h-149v641q0 140 -56 207t-176 67q-150 0 -260 -127l-2 3v-791h-147v1014h137l8 -160q57 92 134 138t184 46z" />
    <glyph glyph-name="o" unicode="o" horiz-adv-x="1081" 
d="M541 -25q-217 0 -336 142t-119 389q0 248 118.5 390t336.5 142q217 0 335.5 -142t118.5 -390t-119 -389.5t-335 -141.5zM541 98q148 0 224.5 107t76.5 301q0 193 -76 301t-225 108q-150 0 -225.5 -107t-75.5 -302q0 -194 76 -301t225 -107z" />
    <glyph glyph-name="p" unicode="p" horiz-adv-x="1093" 
d="M592 1038q188 0 296.5 -133t108.5 -387q0 -261 -121 -402t-368 -141q-102 0 -199 19v-428h-147v1448h137l8 -142q99 166 285 166zM506 98q176 0 258 109.5t82 306.5q0 198 -75 299.5t-220 101.5q-142 0 -242 -114v-674q92 -29 197 -29z" />
    <glyph glyph-name="q" unicode="q" horiz-adv-x="1093" 
d="M930 979h2v-1413h-150v571q-49 -80 -115.5 -121t-166.5 -41q-188 0 -297 133.5t-109 387.5q0 260 121 401t369 141q193 0 346 -59zM541 98q140 0 241 115v674q-89 28 -196 28q-176 0 -258 -109t-82 -304q0 -199 75 -301.5t220 -102.5z" />
    <glyph glyph-name="r" unicode="r" horiz-adv-x="714" 
d="M580 1036q64 0 120 -16q0 -75 -16 -131q-55 14 -123 14q-73 0 -139.5 -30.5t-112.5 -90.5v-782h-147v1014h139l6 -158q91 180 273 180z" />
    <glyph glyph-name="s" unicode="s" horiz-adv-x="890" 
d="M414 -25q-189 0 -318 74q2 58 23 125q63 -36 142 -56t145 -20q116 0 178.5 41t62.5 117q0 70 -42.5 110t-141.5 70l-88 27q-129 41 -200 110.5t-71 188.5q0 131 95 203.5t266 72.5q167 0 295 -49q-3 -57 -21 -121q-127 47 -266 47q-106 0 -163.5 -37.5t-57.5 -109.5
q0 -68 45.5 -110t144.5 -72l88 -29q139 -44 204 -111.5t65 -177.5q0 -132 -101.5 -212.5t-283.5 -80.5z" />
    <glyph glyph-name="t" unicode="t" horiz-adv-x="684" 
d="M299 297q0 -103 43 -148t129 -45t156 37q-5 -56 -19 -129q-78 -37 -170 -37q-134 0 -210 75.5t-76 232.5v1011q68 23 147 23v-303h332q-3 -60 -15 -123h-317v-594z" />
    <glyph glyph-name="u" unicode="u" horiz-adv-x="1103" 
d="M795 1014h147v-1014h-137l-8 160q-113 -185 -318 -185q-160 0 -243.5 93t-83.5 260v686h149v-641q0 -140 56 -207.5t175 -67.5q151 0 261 127l2 -2v791z" />
    <glyph glyph-name="v" unicode="v" horiz-adv-x="950" 
d="M778 1014h154l-385 -1014h-146l-383 1014h158l301 -869z" />
    <glyph glyph-name="w" unicode="w" horiz-adv-x="1589" 
d="M1413 1014h148l-347 -1014h-143l-274 811l-279 -811h-135l-354 1014h155l273 -852l274 852h133l287 -860z" />
    <glyph glyph-name="x" unicode="x" horiz-adv-x="923" 
d="M901 0h-172l-272 391l-271 -391h-163l356 506l-348 508h170l260 -391l270 391h162l-354 -506z" />
    <glyph glyph-name="y" unicode="y" horiz-adv-x="968" 
d="M801 1014h149l-407 -1145q-59 -167 -142.5 -247.5t-210.5 -80.5q-41 0 -86 10q3 77 11 127q32 -8 59 -8q93 0 152 57.5t108 209.5l-416 1077h158l324 -897z" />
    <glyph glyph-name="z" unicode="z" horiz-adv-x="946" 
d="M279 127h585q-8 -89 -18 -127h-760q0 63 4 94l555 793h-551q7 81 19 127h731q0 -51 -8 -90z" />
    <glyph glyph-name="braceleft" unicode="{" horiz-adv-x="729" 
d="M412 -113q0 -113 31.5 -158.5t119.5 -45.5h129q-4 -68 -14 -117h-115q-159 0 -226 81.5t-67 235.5v543q0 89 -40 137.5t-130 61.5v114q94 12 132 57t38 136v553q0 154 67 235.5t226 81.5h129q-2 -42 -14 -116h-115q-87 0 -119 -47t-32 -158v-553q0 -101 -47 -166
t-138 -82q90 -17 137.5 -85t47.5 -169v-539z" />
    <glyph glyph-name="bar" unicode="|" horiz-adv-x="577" 
d="M225 -434v2052q73 22 127 22v-2074h-127z" />
    <glyph glyph-name="braceright" unicode="}" horiz-adv-x="729" 
d="M459 942q0 -89 40 -137.5t130 -61.5v-114q-94 -12 -132 -57t-38 -136v-553q0 -154 -67 -235.5t-226 -81.5h-129q2 44 14 117h115q87 0 119 46.5t32 157.5v553q0 101 47.5 166t137.5 80q-90 17 -137.5 86t-47.5 170v539q0 113 -31.5 159t-119.5 46h-129q3 67 14 116h115
q159 0 226 -81.5t67 -235.5v-543z" />
    <glyph glyph-name="asciitilde" unicode="~" 
d="M719 580q-43 0 -89.5 20.5t-80 45t-72 45t-67.5 20.5q-41 0 -64.5 -28t-46.5 -95q-54 6 -111 20q32 122 84 169.5t125 47.5q42 0 88 -21t80 -45.5t74 -45.5t72 -21q39 0 66.5 30.5t49.5 108.5q51 -3 111 -20q-57 -231 -219 -231z" />
    <glyph glyph-name="uni00A0" unicode="&#xa0;" horiz-adv-x="436" 
 />
    <glyph glyph-name="exclamdown" unicode="&#xa1;" horiz-adv-x="630" 
d="M313 1036q44 0 74.5 -30.5t30.5 -73.5t-30.5 -74t-74.5 -31q-43 0 -73.5 31t-30.5 74t30.5 73.5t73.5 30.5zM379 578l12 -975q-71 -23 -153 -23l16 998h125z" />
    <glyph glyph-name="cent" unicode="&#xa2;" horiz-adv-x="892" 
d="M584 1110v-813q127 0 225 55q-8 -71 -21 -129q-36 -22 -92.5 -35.5t-111.5 -15.5v-197h-119v205q-177 30 -278 164.5t-101 360.5q0 230 100 361t279 163v180q20 9 58 16t61 7v-195q130 -3 225 -45q0 -46 -14 -123q-102 41 -211 41zM242 700q0 -151 58 -250.5t165 -134.5
v777q-108 -35 -165.5 -136t-57.5 -256z" />
    <glyph glyph-name="sterling" unicode="&#xa3;" horiz-adv-x="1046" 
d="M324 141h587q-5 -94 -16 -141h-805v133q54 18 92 39t72.5 54t52 82.5t17.5 115.5q0 5 -9 102l-16 168h-225v121h215l-10 113q-11 102 -11 147q0 189 108.5 281t309.5 92q98 0 195 -23q-3 -71 -13 -135q-98 23 -178 23q-268 0 -268 -250q0 -57 8 -127l12 -121h361
q-2 -35 -15 -121h-335l16 -157q1 -12 2.5 -33.5t2.5 -37t1 -24.5q0 -197 -151 -301z" />
    <glyph glyph-name="currency" unicode="&#xa4;" horiz-adv-x="1196" 
d="M989 719q0 -126 -69 -227l131 -130l-97 -94l-129 129q-101 -69 -225 -69q-123 0 -229 69l-129 -129l-92 94l129 130q-70 103 -70 227q0 129 67 227l-129 129l95 94l129 -129q101 72 229 72q121 0 227 -72l129 129l95 -94l-129 -129q67 -98 67 -227zM340 719
q0 -115 74.5 -186.5t185.5 -71.5q108 0 183 72t75 186q0 115 -75 188.5t-183 73.5q-110 0 -185 -73.5t-75 -188.5z" />
    <glyph glyph-name="yen" unicode="&#xa5;" horiz-adv-x="1089" 
d="M944 649h-323v-166h337q-12 -89 -18 -116h-319v-367h-152v367h-332v116h332v166h-332v115h281l-383 653h168l346 -618l346 618h160l-383 -653h291q-12 -85 -19 -115z" />
    <glyph glyph-name="brokenbar" unicode="&#xa6;" horiz-adv-x="577" 
d="M225 729v889q73 22 127 22v-911h-127zM225 -434v817h127v-817h-127z" />
    <glyph glyph-name="section" unicode="&#xa7;" horiz-adv-x="1075" 
d="M795 461q172 -77 172 -221q0 -271 -447 -271q-228 0 -391 78q0 75 23 131q192 -84 376 -84q289 0 289 146q0 66 -73 105.5t-257 74.5q-70 14 -127 32t-108 43.5t-85.5 57.5t-54.5 75t-20 95q0 174 215 235q-85 36 -128.5 89t-43.5 137q0 134 111 199t311 65
q106 0 183 -12t173 -39q0 -73 -22 -119q-169 49 -338 49q-270 0 -270 -141q0 -72 70 -107.5t233 -68.5q85 -16 151.5 -38.5t125.5 -58t91.5 -89.5t32.5 -122q0 -171 -192 -241zM236 737q0 -83 77 -133t244 -80q29 -4 84 -16q205 36 205 180q0 80 -72 126t-221 77
q-18 3 -50.5 10t-45.5 10q-221 -33 -221 -174z" />
    <glyph glyph-name="dieresis" unicode="&#xa8;" horiz-adv-x="739" 
d="M197 1251q-41 0 -68 27t-27 70q0 42 26.5 68t68.5 26q40 0 66 -26t26 -68q0 -43 -26 -70t-66 -27zM545 1251q-41 0 -67.5 27t-26.5 70q0 42 26 68t68 26q40 0 66 -26t26 -68q0 -43 -26 -70t-66 -27z" />
    <glyph glyph-name="copyright" unicode="&#xa9;" horiz-adv-x="1845" 
d="M922 -147q-170 0 -321.5 64t-261.5 175t-174.5 269t-64.5 337q0 178 64.5 335t174 268t261.5 175t322 64q171 0 323 -64t262.5 -175t175 -268t64.5 -335q0 -179 -64.5 -337t-175 -269t-262.5 -175t-323 -64zM922 -43q150 0 282.5 57t227 155t149.5 235.5t55 293.5
q0 155 -55 292t-149.5 235t-227 154.5t-282.5 56.5q-149 0 -281 -56.5t-227 -154.5t-150 -235t-55 -292q0 -156 55 -293.5t150 -235.5t227 -155t281 -57zM944 252q-189 0 -308.5 122.5t-119.5 319.5q0 201 118.5 324t307.5 123q139 0 227 -45q-3 -67 -18 -107
q-83 47 -205 47q-138 0 -224.5 -91.5t-86.5 -246.5q0 -154 89 -247t228 -93q123 0 211 43q-4 -60 -16 -116q-94 -33 -203 -33z" />
    <glyph glyph-name="ordfeminine" unicode="&#xaa;" horiz-adv-x="970" 
d="M385 1438q293 0 293 -271v-563h-123l-8 129q-73 -149 -236 -149q-110 0 -175.5 63t-65.5 176q0 59 20.5 104.5t56.5 77t94 54t124.5 35.5t156.5 22l23 2v41q0 82 -38 126t-145 44q-127 0 -247 -65q0 66 12 112q114 62 258 62zM346 690q58 0 113.5 32t85.5 79v221l-19 -2
q-172 -13 -250.5 -54.5t-78.5 -134.5q0 -65 39 -103t110 -38z" />
    <glyph glyph-name="guillemotleft" unicode="&#xab;" horiz-adv-x="1028" 
d="M408 98l-314 465l314 467q57 -15 114 -51l-276 -416l276 -413q-53 -36 -114 -52zM831 98l-313 465l313 467q58 -16 115 -51l-274 -416l274 -413q-52 -36 -115 -52z" />
    <glyph glyph-name="logicalnot" unicode="&#xac;" 
d="M180 756h781v-480h-125v353h-670q0 55 14 127z" />
    <glyph glyph-name="uni00AD" unicode="&#xad;" horiz-adv-x="757" 
d="M90 545q0 47 12 129h566q-3 -61 -17 -129h-561z" />
    <glyph glyph-name="registered" unicode="&#xae;" horiz-adv-x="929" 
d="M465 1446q165 0 280 -112t115 -283q0 -170 -115 -283t-280 -113q-166 0 -280.5 113t-114.5 283q0 171 114.5 283t280.5 112zM465 719q137 0 231.5 94t94.5 238t-94.5 236.5t-231.5 92.5q-139 0 -233.5 -92.5t-94.5 -236.5t95 -238t233 -94zM614 1143q0 -94 -88 -125
l119 -172h-78l-106 162h-53v-162h-66v416q44 10 111 10q75 0 118 -34.5t43 -94.5zM408 1210v-143h47q92 0 92 74q0 71 -94 71q-31 0 -45 -2z" />
    <glyph glyph-name="macron" unicode="&#xaf;" horiz-adv-x="700" 
d="M102 1288q3 45 17 115h479q-3 -66 -16 -115h-480z" />
    <glyph glyph-name="degree" unicode="&#xb0;" horiz-adv-x="778" 
d="M389 846q-133 0 -218 81t-85 220q0 138 84.5 219.5t218.5 81.5q132 0 218.5 -82.5t86.5 -218.5q0 -139 -86 -220t-219 -81zM391 946q80 0 134.5 55t54.5 146q0 89 -55.5 145t-135.5 56t-134 -55.5t-54 -145.5q0 -92 54 -146.5t136 -54.5z" />
    <glyph glyph-name="plusminus" unicode="&#xb1;" 
d="M502 471v303h-338q0 55 14 127h324v318h123v-318h333q0 -55 -14 -127h-319v-303h-123zM164 229q0 55 14 127h780q0 -55 -14 -127h-780z" />
    <glyph glyph-name="two.sups" unicode="&#xb2;" horiz-adv-x="686" 
d="M203 1053h389q0 -52 -10 -97h-510v41q0 91 48.5 153t164.5 126q91 50 121 82.5t30 83.5q0 131 -182 131q-97 0 -178 -35q0 44 10 109q93 28 197 28q138 0 211 -57.5t73 -159.5q0 -80 -37 -133t-133 -106q-95 -52 -139.5 -88t-54.5 -78z" />
    <glyph glyph-name="three.sups" unicode="&#xb3;" horiz-adv-x="714" 
d="M410 1321q196 -22 196 -174q0 -102 -87 -156.5t-257 -54.5q-96 0 -178 16q0 41 14 99q83 -17 164 -17q111 0 163 28t52 89q0 63 -53.5 89t-157.5 26h-110q0 64 12 98h82q96 0 148.5 25t52.5 88q0 47 -42.5 72.5t-121.5 25.5q-104 0 -193 -29q0 52 12 101q74 28 191 28
q133 0 207 -48t74 -140q0 -123 -168 -166z" />
    <glyph glyph-name="acute" unicode="&#xb4;" horiz-adv-x="477" 
d="M102 1182l93 288q71 29 180 29q-28 -106 -101 -195.5t-159 -121.5h-13z" />
    <glyph glyph-name="uni00B5" unicode="&#xb5;" 
d="M809 1014h147v-1014h-137l-8 160q-113 -185 -317 -185q-113 0 -189 48q8 -192 8 -275v-182h-145v713q-2 14 -2 49v686h149v-641q0 -140 56.5 -207.5t175.5 -67.5q148 0 262 127v789z" />
    <glyph glyph-name="paragraph" unicode="&#xb6;" horiz-adv-x="1181" 
d="M563 -260v756h-76q-204 0 -317 110t-113 348q0 127 33 218.5t95 144t143 76.5t186 24h481v-1677h-106v1569h-219v-1569h-107z" />
    <glyph glyph-name="periodcentered" unicode="&#xb7;" horiz-adv-x="638" 
d="M319 563q-47 0 -80.5 33.5t-33.5 79.5q0 47 33.5 81t80.5 34q46 0 79.5 -34t33.5 -81q0 -46 -33.5 -79.5t-79.5 -33.5z" />
    <glyph glyph-name="cedilla" unicode="&#xb8;" horiz-adv-x="528" 
d="M270 -104q156 -42 156 -154q0 -75 -51 -118.5t-148 -43.5q-61 0 -125 23q3 50 15 82q55 -19 104 -19q103 0 103 76q0 39 -44 62t-128 26l63 193l96 -7z" />
    <glyph glyph-name="one.sups" unicode="&#xb9;" horiz-adv-x="618" 
d="M74 1612q170 62 323 65v-721h-127v605q-98 -21 -209 -56q0 50 13 107z" />
    <glyph glyph-name="ordmasculine" unicode="&#xba;" horiz-adv-x="835" 
d="M418 586q-167 0 -258.5 113.5t-91.5 312.5q0 198 91 312t259 114t259 -114t91 -312q0 -199 -91.5 -312.5t-258.5 -113.5zM418 698q106 0 159.5 81.5t53.5 232.5q0 150 -53.5 231.5t-159.5 81.5q-104 0 -158.5 -81.5t-54.5 -231.5q0 -151 54 -232.5t159 -81.5z" />
    <glyph glyph-name="guillemotright" unicode="&#xbb;" horiz-adv-x="1028" 
d="M197 98q-63 16 -115 52l274 413l-274 416q59 37 115 51l313 -467zM621 98q-63 16 -115 52l274 413l-274 416q57 35 115 51l313 -467z" />
    <glyph glyph-name="onequarter" unicode="&#xbc;" horiz-adv-x="1570" 
d="M270 709v604q-98 -21 -209 -56q0 50 13 107q173 63 323 66v-721h-127zM952 1417q54 9 144 13l-731 -1430q-71 -12 -142 -12zM1350 252q-2 -35 -17 -98h-108v-154h-115v154h-395q0 38 10 96q66 119 169 246.5t204 214.5q43 8 127 8v-467h125zM834 252h276v340
q-160 -160 -276 -340z" />
    <glyph glyph-name="onehalf" unicode="&#xbd;" horiz-adv-x="1595" 
d="M270 709v604q-98 -21 -209 -56q0 50 13 107q173 63 323 66v-721h-127zM950 1417q54 9 144 13l-732 -1430q-70 -12 -141 -12zM983 96h391q0 -51 -10 -96h-510v41q0 91 47.5 152.5t163.5 125.5q93 50 123.5 82.5t30.5 83.5q0 64 -47.5 97.5t-135.5 33.5q-99 0 -180 -34
q0 50 12 108q96 29 195 29q139 0 212 -57.5t73 -159.5q0 -80 -36.5 -133.5t-133.5 -106.5q-94 -51 -139 -87.5t-56 -78.5z" />
    <glyph glyph-name="threequarters" unicode="&#xbe;" horiz-adv-x="1558" 
d="M1094 1417q54 9 143 13l-731 -1430q-70 -12 -144 -12zM606 899q0 -102 -87 -156.5t-257 -54.5q-91 0 -178 17q0 40 14 98q83 -17 164 -17q111 0 163 28t52 89q0 63 -53.5 89t-157.5 26h-110q0 64 12 98h82q96 0 148.5 25t52.5 88q0 47 -42.5 72.5t-121.5 25.5
q-104 0 -193 -29q0 52 12 101q74 28 191 28q133 0 207 -48t74 -140q0 -123 -168 -166q196 -22 196 -174zM1466 252q-4 -54 -14 -98h-111v-154h-112v154h-395q0 49 8 96q69 121 171 248t201 213q45 8 127 8v-467h125zM950 252h279v340q-161 -154 -279 -340z" />
    <glyph glyph-name="questiondown" unicode="&#xbf;" horiz-adv-x="927" 
d="M545 1036q44 0 75 -30.5t31 -73.5t-31 -74t-75 -31q-43 0 -74 31t-31 74t31 73.5t74 30.5zM618 594q5 -57 5 -66q0 -99 -41 -169.5t-129 -137.5q-101 -75 -149 -143t-48 -156q0 -100 67 -160.5t212 -60.5q77 0 158 20t143 56q0 -66 -13 -133q-127 -76 -307 -76
q-201 0 -307.5 93t-106.5 255q0 65 18 120t55.5 102t77.5 82.5t101 78.5q80 58 114 113t34 137q0 29 -2 45h118z" />
    <glyph glyph-name="Agrave" unicode="&#xc0;" horiz-adv-x="1163" 
d="M721 1565q-87 18 -170 82.5t-139 144.5q35 14 104 14q63 0 96 -10l140 -231h-31zM983 0l-117 369h-575l-119 -369h-147l460 1405q61 20 185 20l469 -1425h-156zM334 502h491l-245 772z" />
    <glyph glyph-name="Aacute" unicode="&#xc1;" horiz-adv-x="1163" 
d="M809 1792q-56 -80 -139.5 -144.5t-171.5 -82.5h-29l139 231q33 10 97 10q66 0 104 -14zM983 0l-117 369h-575l-119 -369h-147l460 1405q61 20 185 20l469 -1425h-156zM334 502h491l-245 772z" />
    <glyph glyph-name="Acircumflex" unicode="&#xc2;" horiz-adv-x="1163" 
d="M582 1729q-111 -131 -238 -166h-51l199 245q49 11 90 11q39 0 92 -11l196 -245h-57q-114 31 -231 166zM983 0l-117 369h-575l-119 -369h-147l460 1405q61 20 185 20l469 -1425h-156zM334 502h491l-245 772z" />
    <glyph glyph-name="Atilde" unicode="&#xc3;" horiz-adv-x="1163" 
d="M412 1616v-76h-113v92q0 152 131 152q45 0 103.5 -34t107.5 -67.5t70 -33.5q45 0 45 57v78h112v-96q0 -148 -137 -148q-41 0 -99.5 33t-108.5 66.5t-70 33.5q-21 0 -31 -13t-10 -44zM983 0l-117 369h-575l-119 -369h-147l460 1405q61 20 185 20l469 -1425h-156zM334 502
h491l-245 772z" />
    <glyph glyph-name="Adieresis" unicode="&#xc4;" horiz-adv-x="1163" 
d="M389 1587q-43 0 -69.5 26.5t-26.5 69.5q0 41 27.5 68t68.5 27q40 0 67 -27t27 -68q0 -42 -27 -69t-67 -27zM774 1587q-42 0 -69 27t-27 69q0 41 27.5 68t68.5 27t66.5 -26.5t25.5 -68.5q0 -43 -25.5 -69.5t-66.5 -26.5zM983 0l-117 369h-575l-119 -369h-147l460 1405
q61 20 185 20l469 -1425h-156zM334 502h491l-245 772z" />
    <glyph glyph-name="Aring" unicode="&#xc5;" horiz-adv-x="1163" 
d="M586 1528q-89 0 -147 53.5t-58 136.5t58.5 137t146.5 54q86 0 144 -54.5t58 -136.5t-57 -136t-145 -54zM586 1827q-49 0 -81 -31t-32 -78q0 -48 31 -78t82 -30q49 0 79.5 30t30.5 78q0 46 -31.5 77.5t-78.5 31.5zM983 0l-117 369h-575l-119 -369h-147l460 1405
q61 20 185 20l469 -1425h-156zM334 502h491l-245 772z" />
    <glyph glyph-name="AE" unicode="&#xc6;" horiz-adv-x="1736" 
d="M1006 137h639q-4 -84 -17 -137h-774v383h-528q-78 -166 -172 -383h-160q146 344 352.5 726.5t409.5 690.5h884q0 -75 -16 -137h-618v-489h565q-3 -68 -17 -138h-548v-516zM391 516h463v764h-31q-208 -312 -432 -764z" />
    <glyph glyph-name="Ccedilla" unicode="&#xc7;" horiz-adv-x="1128" 
d="M258 707q0 -285 129 -443t352 -158q180 0 310 68q-6 -70 -23 -154q-134 -48 -278 -51l-25 -73q156 -42 156 -154q0 -75 -51 -118.5t-148 -43.5q-61 0 -125 23q3 54 14 82q55 -19 105 -19q102 0 102 76q0 39 -44 62t-128 26l47 143q-265 26 -408 224t-143 512
q0 340 165.5 539.5t459.5 199.5q200 0 328 -72q-5 -76 -25 -133q-120 68 -295 68q-224 0 -349.5 -156t-125.5 -448z" />
    <glyph glyph-name="Egrave" unicode="&#xc8;" horiz-adv-x="1067" 
d="M723 1565q-87 18 -170 82.5t-139 144.5q35 14 104 14q63 0 96 -10l140 -231h-31zM336 137h639q0 -67 -17 -137h-774v1417h787q0 -71 -17 -137h-618v-489h565q-4 -75 -16 -138h-549v-516z" />
    <glyph glyph-name="Eacute" unicode="&#xc9;" horiz-adv-x="1067" 
d="M811 1792q-56 -80 -139.5 -144.5t-171.5 -82.5h-29l139 231q33 10 97 10q66 0 104 -14zM336 137h639q0 -67 -17 -137h-774v1417h787q0 -71 -17 -137h-618v-489h565q-4 -75 -16 -138h-549v-516z" />
    <glyph glyph-name="Ecircumflex" unicode="&#xca;" horiz-adv-x="1067" 
d="M586 1729q-111 -131 -238 -166h-51l199 245q49 11 90 11q39 0 92 -11l196 -245h-57q-114 31 -231 166zM336 137h639q0 -67 -17 -137h-774v1417h787q0 -71 -17 -137h-618v-489h565q-4 -75 -16 -138h-549v-516z" />
    <glyph glyph-name="Edieresis" unicode="&#xcb;" horiz-adv-x="1067" 
d="M391 1587q-43 0 -69.5 26.5t-26.5 69.5q0 41 27.5 68t68.5 27q40 0 67 -27t27 -68q0 -42 -27 -69t-67 -27zM776 1587q-42 0 -69 27t-27 69q0 41 27.5 68t68.5 27t66.5 -26.5t25.5 -68.5q0 -43 -25.5 -69.5t-66.5 -26.5zM336 137h639q0 -67 -17 -137h-774v1417h787
q0 -71 -17 -137h-618v-489h565q-4 -75 -16 -138h-549v-516z" />
    <glyph glyph-name="Igrave" unicode="&#xcc;" horiz-adv-x="520" 
d="M428 1565h-31q-87 18 -170 82.5t-139 144.5q35 14 105 14q63 0 96 -10zM184 0v1409q90 23 152 23v-1432h-152z" />
    <glyph glyph-name="Iacute" unicode="&#xcd;" horiz-adv-x="520" 
d="M145 1565l140 231q33 10 96 10q66 0 104 -14q-56 -80 -139.5 -144.5t-171.5 -82.5h-29zM184 0v1409q90 23 152 23v-1432h-152z" />
    <glyph glyph-name="Icircumflex" unicode="&#xce;" horiz-adv-x="520" 
d="M10 1565l168 223q31 10 82 10t82 -10l168 -223h-47q-127 44 -203 139q-73 -93 -201 -139h-49zM184 0v1409q90 23 152 23v-1432h-152z" />
    <glyph glyph-name="Idieresis" unicode="&#xcf;" horiz-adv-x="520" 
d="M119 1587q-42 0 -68 27t-26 67q0 43 26 70t68 27q41 0 66.5 -27t25.5 -70q0 -40 -25.5 -67t-66.5 -27zM403 1587q-42 0 -68 27t-26 67q0 43 26 70t68 27q41 0 67 -27t26 -70q0 -40 -26 -67t-67 -27zM184 0v1409q90 23 152 23v-1432h-152z" />
    <glyph glyph-name="Eth" unicode="&#xd0;" horiz-adv-x="1323" 
d="M532 1448q146 0 262.5 -36.5t196 -100.5t132.5 -156t76.5 -200t23.5 -234q0 -165 -42.5 -297.5t-125.5 -227t-212.5 -145.5t-297.5 -51h-361v664h-168q4 73 19 114h149v637q146 33 348 33zM549 133q255 0 385.5 152t130.5 440q0 279 -131 433.5t-402 154.5
q-94 0 -196 -13v-522h346q-11 -89 -18 -114h-328v-531h213z" />
    <glyph glyph-name="Ntilde" unicode="&#xd1;" horiz-adv-x="1355" 
d="M506 1616v-76h-113v92q0 152 131 152q45 0 103.5 -34t107.5 -67.5t70 -33.5q45 0 45 57v78h113v-96q0 -148 -138 -148q-41 0 -99.5 33t-108.5 66.5t-70 33.5q-21 0 -31 -13t-10 -44zM1028 1409q85 23 143 23v-1432h-127l-569 924q-83 133 -151 272q4 -164 4 -516v-680
h-144v1409q75 23 144 23l542 -875q61 -94 166 -299q-8 364 -8 586v565z" />
    <glyph glyph-name="Ograve" unicode="&#xd2;" horiz-adv-x="1402" 
d="M868 1565h-30q-87 18 -170.5 82.5t-139.5 144.5q35 14 105 14q63 0 96 -10zM705 -31q-194 0 -332 94t-205.5 259t-67.5 387q0 340 158.5 539.5t441.5 199.5q194 0 332 -94t205.5 -259t67.5 -386q0 -345 -158 -542.5t-442 -197.5zM705 106q216 0 329 155.5t113 447.5
q0 286 -116 444t-331 158q-214 0 -329 -157.5t-115 -444.5q0 -286 116.5 -444.5t332.5 -158.5z" />
    <glyph glyph-name="Oacute" unicode="&#xd3;" horiz-adv-x="1402" 
d="M586 1565l139 231q33 10 96 10q67 0 105 -14q-56 -80 -140 -144.5t-172 -82.5h-28zM705 -31q-194 0 -332 94t-205.5 259t-67.5 387q0 340 158.5 539.5t441.5 199.5q194 0 332 -94t205.5 -259t67.5 -386q0 -345 -158 -542.5t-442 -197.5zM705 106q216 0 329 155.5
t113 447.5q0 286 -116 444t-331 158q-214 0 -329 -157.5t-115 -444.5q0 -286 116.5 -444.5t332.5 -158.5z" />
    <glyph glyph-name="Ocircumflex" unicode="&#xd4;" horiz-adv-x="1402" 
d="M410 1563l198 245q49 11 90 11q40 0 93 -11l196 -245h-57q-115 31 -232 166q-112 -131 -237 -166h-51zM705 -31q-194 0 -332 94t-205.5 259t-67.5 387q0 340 158.5 539.5t441.5 199.5q194 0 332 -94t205.5 -259t67.5 -386q0 -345 -158 -542.5t-442 -197.5zM705 106
q216 0 329 155.5t113 447.5q0 286 -116 444t-331 158q-214 0 -329 -157.5t-115 -444.5q0 -286 116.5 -444.5t332.5 -158.5z" />
    <glyph glyph-name="Otilde" unicode="&#xd5;" horiz-adv-x="1402" 
d="M848 1540q-32 0 -76.5 21t-80 45.5t-70.5 45.5t-52 21q-21 0 -31 -13t-10 -44v-76h-112v92q0 152 131 152q45 0 103.5 -34t107 -67.5t69.5 -33.5q45 0 45 57v78h113v-96q0 -148 -137 -148zM705 -31q-194 0 -332 94t-205.5 259t-67.5 387q0 340 158.5 539.5t441.5 199.5
q194 0 332 -94t205.5 -259t67.5 -386q0 -345 -158 -542.5t-442 -197.5zM705 106q216 0 329 155.5t113 447.5q0 286 -116 444t-331 158q-214 0 -329 -157.5t-115 -444.5q0 -286 116.5 -444.5t332.5 -158.5z" />
    <glyph glyph-name="Odieresis" unicode="&#xd6;" horiz-adv-x="1402" 
d="M506 1587q-43 0 -69.5 26.5t-26.5 69.5q0 41 27.5 68t68.5 27q40 0 67 -27t27 -68q0 -42 -27 -69t-67 -27zM891 1587q-42 0 -69 27t-27 69q0 41 27.5 68t68.5 27t66.5 -26.5t25.5 -68.5q0 -43 -25.5 -69.5t-66.5 -26.5zM705 -31q-194 0 -332 94t-205.5 259t-67.5 387
q0 340 158.5 539.5t441.5 199.5q194 0 332 -94t205.5 -259t67.5 -386q0 -345 -158 -542.5t-442 -197.5zM705 106q216 0 329 155.5t113 447.5q0 286 -116 444t-331 158q-214 0 -329 -157.5t-115 -444.5q0 -286 116.5 -444.5t332.5 -158.5z" />
    <glyph glyph-name="multiply" unicode="&#xd7;" 
d="M911 950l-264 -264l264 -266l-84 -84l-264 266l-266 -266l-84 84l266 266l-266 264l84 84l266 -264l264 264z" />
    <glyph glyph-name="Oslash" unicode="&#xd8;" horiz-adv-x="1402" 
d="M1163 1227q142 -195 142 -518q0 -345 -158 -542.5t-442 -197.5q-239 0 -386 135l-157 -210q-44 54 -60 104l142 188q-144 198 -144 523q0 340 158.5 539.5t441.5 199.5q234 0 385 -135l156 207q38 -54 53 -117zM256 709q0 -241 84 -394l657 879q-114 117 -297 117
q-214 0 -329 -157.5t-115 -444.5zM705 106q216 0 329 155.5t113 447.5q0 237 -82 389l-657 -875q114 -117 297 -117z" />
    <glyph glyph-name="Ugrave" unicode="&#xd9;" horiz-adv-x="1337" 
d="M838 1565h-31q-87 18 -170 82.5t-139 144.5q35 14 104 14q63 0 96 -10zM668 -31q-232 0 -368 134.5t-136 355.5v950q90 23 151 23v-967q0 -171 94 -265t259 -94q167 0 260.5 94t93.5 267v942q90 23 152 23v-973q0 -221 -136 -355.5t-370 -134.5z" />
    <glyph glyph-name="Uacute" unicode="&#xda;" horiz-adv-x="1337" 
d="M555 1565l139 231q33 10 97 10q66 0 104 -14q-56 -80 -139.5 -144.5t-171.5 -82.5h-29zM668 -31q-232 0 -368 134.5t-136 355.5v950q90 23 151 23v-967q0 -171 94 -265t259 -94q167 0 260.5 94t93.5 267v942q90 23 152 23v-973q0 -221 -136 -355.5t-370 -134.5z" />
    <glyph glyph-name="Ucircumflex" unicode="&#xdb;" horiz-adv-x="1337" 
d="M379 1563l199 245q49 11 90 11q39 0 92 -11l196 -245h-57q-114 31 -231 166q-111 -131 -238 -166h-51zM668 -31q-232 0 -368 134.5t-136 355.5v950q90 23 151 23v-967q0 -171 94 -265t259 -94q167 0 260.5 94t93.5 267v942q90 23 152 23v-973q0 -221 -136 -355.5
t-370 -134.5z" />
    <glyph glyph-name="Udieresis" unicode="&#xdc;" horiz-adv-x="1337" 
d="M475 1587q-43 0 -69.5 26.5t-26.5 69.5q0 41 27.5 68t68.5 27q40 0 67 -27t27 -68q0 -42 -27 -69t-67 -27zM860 1587q-42 0 -69 27t-27 69q0 41 27.5 68t68.5 27t66.5 -26.5t25.5 -68.5q0 -43 -25.5 -69.5t-66.5 -26.5zM668 -31q-232 0 -368 134.5t-136 355.5v950
q90 23 151 23v-967q0 -171 94 -265t259 -94q167 0 260.5 94t93.5 267v942q90 23 152 23v-973q0 -221 -136 -355.5t-370 -134.5z" />
    <glyph glyph-name="Yacute" unicode="&#xdd;" horiz-adv-x="1062" 
d="M758 1792q-56 -80 -140 -144.5t-172 -82.5h-28l139 231q33 10 96 10q67 0 105 -14zM1069 1417l-461 -866v-551h-151v551l-463 866h166l375 -731l374 731h160z" />
    <glyph glyph-name="Thorn" unicode="&#xde;" horiz-adv-x="1112" 
d="M528 1192q140 0 244.5 -35.5t165 -99.5t89 -143t28.5 -175q0 -220 -138.5 -346.5t-390.5 -126.5h-190v-266h-152v1409q90 23 152 23v-250q110 10 192 10zM526 397q184 1 278.5 88.5t94.5 243.5q0 332 -379 332q-82 0 -184 -12v-654z" />
    <glyph glyph-name="germandbls" unicode="&#xdf;" horiz-adv-x="1136" 
d="M780 770q131 -38 201 -137t70 -246q0 -196 -116.5 -303t-301.5 -107q-95 0 -174 27q0 53 12 131q65 -24 141 -24q130 0 207.5 68.5t77.5 209.5q0 301 -338 301h-55v125h49q124 0 197 68t73 188q0 114 -64.5 181t-189.5 67t-191.5 -74.5t-66.5 -216.5v-1028h-149v1040
q0 189 105 298.5t304 109.5q193 0 298.5 -97.5t105.5 -269.5q0 -109 -53 -193t-142 -118z" />
    <glyph glyph-name="agrave" unicode="&#xe0;" horiz-adv-x="1032" 
d="M596 1182q-87 32 -159.5 121t-100.5 196q106 0 180 -29l92 -288h-12zM508 1038q184 0 273 -82.5t89 -250.5v-705h-137l-8 147q-44 -79 -123 -125.5t-190 -46.5q-145 0 -233.5 80.5t-88.5 220.5q0 85 29.5 147.5t97 111t182 78t279.5 40.5l45 2v45q0 114 -56.5 164.5
t-177.5 50.5q-188 0 -339 -79q0 62 10 127q143 75 348 75zM440 96q87 0 164 38.5t119 98.5v312l-37 -2q-109 -9 -188.5 -25t-129.5 -38t-79.5 -53t-41 -64.5t-11.5 -77.5q0 -86 53.5 -137.5t150.5 -51.5z" />
    <glyph glyph-name="aacute" unicode="&#xe1;" horiz-adv-x="1032" 
d="M692 1499q-28 -106 -101 -195.5t-159 -121.5h-12l92 288q71 29 180 29zM508 1038q184 0 273 -82.5t89 -250.5v-705h-137l-8 147q-44 -79 -123 -125.5t-190 -46.5q-145 0 -233.5 80.5t-88.5 220.5q0 85 29.5 147.5t97 111t182 78t279.5 40.5l45 2v45q0 114 -56.5 164.5
t-177.5 50.5q-188 0 -339 -79q0 62 10 127q143 75 348 75zM440 96q87 0 164 38.5t119 98.5v312l-37 -2q-109 -9 -188.5 -25t-129.5 -38t-79.5 -53t-41 -64.5t-11.5 -77.5q0 -86 53.5 -137.5t150.5 -51.5z" />
    <glyph glyph-name="acircumflex" unicode="&#xe2;" horiz-adv-x="1032" 
d="M508 1391q-100 -127 -195 -195h-71l190 291q31 8 78 8q42 0 72 -6l194 -293h-86q-48 38 -86 77t-96 118zM508 1038q184 0 273 -82.5t89 -250.5v-705h-137l-8 147q-44 -79 -123 -125.5t-190 -46.5q-145 0 -233.5 80.5t-88.5 220.5q0 85 29.5 147.5t97 111t182 78
t279.5 40.5l45 2v45q0 114 -56.5 164.5t-177.5 50.5q-188 0 -339 -79q0 62 10 127q143 75 348 75zM440 96q87 0 164 38.5t119 98.5v312l-37 -2q-109 -9 -188.5 -25t-129.5 -38t-79.5 -53t-41 -64.5t-11.5 -77.5q0 -86 53.5 -137.5t150.5 -51.5z" />
    <glyph glyph-name="atilde" unicode="&#xe3;" horiz-adv-x="1032" 
d="M367 1290v-71h-88v100q0 125 106 125q30 0 67 -21t64.5 -45.5t56 -45.5t43.5 -21q39 0 39 59v74h86v-101q0 -126 -110 -126q-37 0 -85 33.5t-88.5 66.5t-58.5 33q-19 0 -25.5 -13t-6.5 -47zM508 1038q184 0 273 -82.5t89 -250.5v-705h-137l-8 147q-44 -79 -123 -125.5
t-190 -46.5q-145 0 -233.5 80.5t-88.5 220.5q0 85 29.5 147.5t97 111t182 78t279.5 40.5l45 2v45q0 114 -56.5 164.5t-177.5 50.5q-188 0 -339 -79q0 62 10 127q143 75 348 75zM440 96q87 0 164 38.5t119 98.5v312l-37 -2q-109 -9 -188.5 -25t-129.5 -38t-79.5 -53
t-41 -64.5t-11.5 -77.5q0 -86 53.5 -137.5t150.5 -51.5z" />
    <glyph glyph-name="adieresis" unicode="&#xe4;" horiz-adv-x="1032" 
d="M334 1251q-41 0 -67.5 27t-26.5 70q0 42 26 68t68 26q40 0 66 -26t26 -68q0 -43 -26 -70t-66 -27zM682 1251q-41 0 -67.5 27t-26.5 70q0 42 26 68t68 26q40 0 66 -26t26 -68q0 -43 -26 -70t-66 -27zM508 1038q184 0 273 -82.5t89 -250.5v-705h-137l-8 147
q-44 -79 -123 -125.5t-190 -46.5q-145 0 -233.5 80.5t-88.5 220.5q0 85 29.5 147.5t97 111t182 78t279.5 40.5l45 2v45q0 114 -56.5 164.5t-177.5 50.5q-188 0 -339 -79q0 62 10 127q143 75 348 75zM440 96q87 0 164 38.5t119 98.5v312l-37 -2q-109 -9 -188.5 -25
t-129.5 -38t-79.5 -53t-41 -64.5t-11.5 -77.5q0 -86 53.5 -137.5t150.5 -51.5z" />
    <glyph glyph-name="aring" unicode="&#xe5;" horiz-adv-x="1032" 
d="M510 1167q-86 0 -144.5 56t-58.5 141q0 88 58.5 143.5t144.5 55.5q87 0 145 -56t58 -143q0 -86 -57.5 -141.5t-145.5 -55.5zM510 1477q-49 0 -79 -32.5t-30 -80.5q0 -47 30.5 -80t78.5 -33q50 0 79 32.5t29 80.5t-29.5 80.5t-78.5 32.5zM508 1038q184 0 273 -82.5
t89 -250.5v-705h-137l-8 147q-44 -79 -123 -125.5t-190 -46.5q-145 0 -233.5 80.5t-88.5 220.5q0 85 29.5 147.5t97 111t182 78t279.5 40.5l45 2v45q0 114 -56.5 164.5t-177.5 50.5q-188 0 -339 -79q0 62 10 127q143 75 348 75zM440 96q87 0 164 38.5t119 98.5v312l-37 -2
q-109 -9 -188.5 -25t-129.5 -38t-79.5 -53t-41 -64.5t-11.5 -77.5q0 -86 53.5 -137.5t150.5 -51.5z" />
    <glyph glyph-name="ae" unicode="&#xe6;" horiz-adv-x="1646" 
d="M1546 600q0 -65 -8 -115h-688q7 -200 96.5 -293.5t255.5 -93.5q170 0 307 88q-3 -68 -22 -137q-135 -74 -293 -74q-269 0 -395 170q-58 -78 -155 -124t-224 -46q-151 0 -240.5 74t-89.5 205q0 81 29 141t94 105t173 70.5t261 31.5l53 2q13 73 13 113q0 107 -62.5 154
t-189.5 47q-157 0 -314 -82q4 68 13 127q137 75 334 75q244 0 325 -135q116 135 320 135q199 0 303 -120t104 -318zM1135 915q-123 0 -194.5 -81.5t-86.5 -231.5h541v2q0 141 -65 226t-195 85zM438 98q101 0 181.5 38t128.5 100q-47 109 -50 251l-51 -2q-118 -4 -199.5 -21
t-127 -47.5t-65 -68.5t-19.5 -90q0 -77 54 -118.5t148 -41.5z" />
    <glyph glyph-name="ccedilla" unicode="&#xe7;" horiz-adv-x="878" 
d="M774 27q-73 -48 -201 -52l-26 -79q155 -42 155 -154q0 -76 -50.5 -119t-147.5 -43q-61 0 -125 23q3 54 14 82q55 -19 105 -19q102 0 102 76q0 39 -44 62t-128 26l49 152q-183 24 -287 158.5t-104 365.5q0 264 128 398t351 134q130 0 228 -43q0 -56 -13 -123
q-97 39 -207 39q-159 0 -246 -106.5t-87 -300.5q0 -190 87 -298t244 -108q125 0 224 58q-8 -71 -21 -129z" />
    <glyph glyph-name="egrave" unicode="&#xe8;" horiz-adv-x="1034" 
d="M614 1182q-87 32 -159.5 121t-100.5 196q107 0 181 -29l92 -288h-13zM936 586q0 -77 -8 -127h-686q12 -187 101 -274t249 -87q168 0 305 88q-4 -77 -20 -137q-135 -74 -295 -74q-245 0 -370.5 140.5t-125.5 398.5q0 113 26.5 206.5t79 165.5t139 112t199.5 40
q199 0 302.5 -122.5t103.5 -329.5zM524 915q-128 0 -199.5 -88t-82.5 -247h542v8q0 152 -64.5 239.5t-195.5 87.5z" />
    <glyph glyph-name="eacute" unicode="&#xe9;" horiz-adv-x="1034" 
d="M711 1499q-28 -106 -101 -195.5t-159 -121.5h-13l92 288q71 29 181 29zM936 586q0 -77 -8 -127h-686q12 -187 101 -274t249 -87q168 0 305 88q-4 -77 -20 -137q-135 -74 -295 -74q-245 0 -370.5 140.5t-125.5 398.5q0 113 26.5 206.5t79 165.5t139 112t199.5 40
q199 0 302.5 -122.5t103.5 -329.5zM524 915q-128 0 -199.5 -88t-82.5 -247h542v8q0 152 -64.5 239.5t-195.5 87.5z" />
    <glyph glyph-name="ecircumflex" unicode="&#xea;" horiz-adv-x="1034" 
d="M524 1391q-101 -128 -194 -195h-72l191 291q31 8 77 8q42 0 72 -6l195 -293h-86q-49 39 -87 78t-96 117zM936 586q0 -77 -8 -127h-686q12 -187 101 -274t249 -87q168 0 305 88q-4 -77 -20 -137q-135 -74 -295 -74q-245 0 -370.5 140.5t-125.5 398.5q0 113 26.5 206.5
t79 165.5t139 112t199.5 40q199 0 302.5 -122.5t103.5 -329.5zM524 915q-128 0 -199.5 -88t-82.5 -247h542v8q0 152 -64.5 239.5t-195.5 87.5z" />
    <glyph glyph-name="edieresis" unicode="&#xeb;" horiz-adv-x="1034" 
d="M350 1251q-41 0 -67.5 27t-26.5 70q0 42 26 68t68 26q40 0 66 -26t26 -68q0 -43 -26 -70t-66 -27zM698 1251q-41 0 -67.5 27t-26.5 70q0 42 26 68t68 26q40 0 66.5 -26t26.5 -68t-26.5 -69.5t-66.5 -27.5zM936 586q0 -77 -8 -127h-686q12 -187 101 -274t249 -87
q168 0 305 88q-4 -77 -20 -137q-135 -74 -295 -74q-245 0 -370.5 140.5t-125.5 398.5q0 113 26.5 206.5t79 165.5t139 112t199.5 40q199 0 302.5 -122.5t103.5 -329.5zM524 915q-128 0 -199.5 -88t-82.5 -247h542v8q0 152 -64.5 239.5t-195.5 87.5z" />
    <glyph glyph-name="igrave" unicode="&#xec;" horiz-adv-x="471" 
d="M336 1182h-12q-87 32 -160 121t-101 196q107 0 181 -29zM162 0v1014h147v-1014h-147z" />
    <glyph glyph-name="iacute" unicode="&#xed;" horiz-adv-x="471" 
d="M147 1182l93 288q71 29 180 29q-28 -106 -101 -195.5t-159 -121.5h-13zM162 0v1014h147v-1014h-147z" />
    <glyph glyph-name="icircumflex" unicode="&#xee;" horiz-adv-x="471" 
d="M301 1483l158 -295h-45q-75 31 -181 192q-61 -90 -98 -131.5t-84 -60.5h-41l156 293q18 6 67 6q48 0 68 -4zM162 0v1014h147v-1014h-147z" />
    <glyph glyph-name="idieresis" unicode="&#xef;" horiz-adv-x="471" 
d="M90 1251q-41 0 -66.5 27t-25.5 70q0 41 25.5 67.5t66.5 26.5q40 0 65 -26.5t25 -67.5q0 -43 -25 -70t-65 -27zM379 1251q-40 0 -65 27t-25 70q0 41 25 67.5t65 26.5t65 -26.5t25 -67.5q0 -43 -25 -70t-65 -27zM162 0v1014h147v-1014h-147z" />
    <glyph glyph-name="eth" unicode="&#xf0;" horiz-adv-x="1060" 
d="M702 1239q123 -124 189.5 -298t66.5 -376q0 -286 -110.5 -438t-327.5 -152q-202 0 -313 128t-111 358q0 236 108.5 364.5t305.5 128.5q166 0 264 -98q-57 182 -186 305l-248 -166q0 76 10 127l158 107q-103 72 -236 114q29 67 80 105q150 -46 275 -141l241 161
q-4 -76 -14 -127zM524 98q149 0 220 115.5t71 359.5q0 96 -14 170q-121 86 -260 86q-149 0 -223 -89.5t-74 -274.5q0 -176 71.5 -271.5t208.5 -95.5z" />
    <glyph glyph-name="ntilde" unicode="&#xf1;" horiz-adv-x="1103" 
d="M422 1290v-71h-88v100q0 125 106 125q30 0 67 -21t65 -45.5t56.5 -45.5t43.5 -21q39 0 39 59v74h86v-101q0 -126 -111 -126q-37 0 -84.5 33.5t-87.5 66.5t-59 33t-26 -13t-7 -47zM625 1038q161 0 244 -92t83 -260v-686h-149v641q0 140 -56 207t-176 67q-150 0 -260 -127
l-2 3v-791h-147v1014h137l8 -160q57 92 134 138t184 46z" />
    <glyph glyph-name="ograve" unicode="&#xf2;" horiz-adv-x="1081" 
d="M641 1182h-12q-87 32 -159.5 121t-100.5 196q106 0 180 -29zM541 -25q-217 0 -336 142t-119 389q0 248 118.5 390t336.5 142q217 0 335.5 -142t118.5 -390t-119 -389.5t-335 -141.5zM541 98q148 0 224.5 107t76.5 301q0 193 -76 301t-225 108q-150 0 -225.5 -107
t-75.5 -302q0 -194 76 -301t225 -107z" />
    <glyph glyph-name="oacute" unicode="&#xf3;" horiz-adv-x="1081" 
d="M453 1182l92 288q71 29 180 29q-28 -106 -101 -195.5t-159 -121.5h-12zM541 -25q-217 0 -336 142t-119 389q0 248 118.5 390t336.5 142q217 0 335.5 -142t118.5 -390t-119 -389.5t-335 -141.5zM541 98q148 0 224.5 107t76.5 301q0 193 -76 301t-225 108
q-150 0 -225.5 -107t-75.5 -302q0 -194 76 -301t225 -107z" />
    <glyph glyph-name="ocircumflex" unicode="&#xf4;" horiz-adv-x="1081" 
d="M539 1391q-100 -127 -195 -195h-72l191 291q31 8 78 8q41 0 71 -6l195 -293h-86q-48 38 -86 77t-96 118zM541 1038q217 0 335.5 -142t118.5 -390t-119 -389.5t-335 -141.5q-217 0 -336 142t-119 389q0 248 118.5 390t336.5 142zM541 98q148 0 224.5 107t76.5 301
q0 193 -76 301t-225 108q-150 0 -225.5 -107t-75.5 -302q0 -194 76 -301t225 -107z" />
    <glyph glyph-name="otilde" unicode="&#xf5;" horiz-adv-x="1081" 
d="M664 1217q-37 0 -85 33.5t-88.5 66.5t-58.5 33q-19 0 -26 -13t-7 -47v-71h-88v100q0 125 107 125q30 0 67 -21t64.5 -45.5t56 -45.5t43.5 -21q39 0 39 59v74h86v-101q0 -126 -110 -126zM541 -25q-217 0 -336 142t-119 389q0 248 118.5 390t336.5 142q217 0 335.5 -142
t118.5 -390t-119 -389.5t-335 -141.5zM541 98q148 0 224.5 107t76.5 301q0 193 -76 301t-225 108q-150 0 -225.5 -107t-75.5 -302q0 -194 76 -301t225 -107z" />
    <glyph glyph-name="odieresis" unicode="&#xf6;" horiz-adv-x="1081" 
d="M365 1251q-41 0 -68 27t-27 70q0 42 26.5 68t68.5 26q40 0 66 -26t26 -68q0 -43 -26 -70t-66 -27zM713 1251q-41 0 -68 27t-27 70q0 42 26.5 68t68.5 26q40 0 66 -26t26 -68q0 -43 -26 -70t-66 -27zM541 -25q-217 0 -336 142t-119 389q0 248 118.5 390t336.5 142
q217 0 335.5 -142t118.5 -390t-119 -389.5t-335 -141.5zM541 98q148 0 224.5 107t76.5 301q0 193 -76 301t-225 108q-150 0 -225.5 -107t-75.5 -302q0 -194 76 -301t225 -107z" />
    <glyph glyph-name="divide" unicode="&#xf7;" 
d="M563 897q-43 0 -72.5 29.5t-29.5 72.5q0 41 29.5 70t72.5 29q41 0 71 -29t30 -70q0 -43 -30 -72.5t-71 -29.5zM166 627q0 55 14 127h781q0 -50 -15 -127h-780zM563 285q-43 0 -72.5 29.5t-29.5 70.5t29.5 70.5t72.5 29.5q41 0 71 -29.5t30 -70.5t-30 -70.5t-71 -29.5z
" />
    <glyph glyph-name="oslash" unicode="&#xf8;" horiz-adv-x="1087" 
d="M885 891q116 -140 116 -385q0 -248 -120 -389.5t-338 -141.5q-152 0 -262 74l-119 -166q-50 58 -62 101l101 141q-115 136 -115 381q0 248 119 390t338 142q154 0 260 -71l117 163q50 -72 57 -110zM240 506q0 -160 51 -256l434 606q-71 59 -182 59q-150 0 -226.5 -107.5
t-76.5 -301.5zM543 98q150 0 228.5 107.5t78.5 300.5q0 159 -53 262l-437 -608q71 -62 183 -62z" />
    <glyph glyph-name="ugrave" unicode="&#xf9;" horiz-adv-x="1103" 
d="M635 1182q-87 32 -159.5 121t-100.5 196q106 0 180 -29l92 -288h-12zM795 1014h147v-1014h-137l-8 160q-113 -185 -318 -185q-160 0 -243.5 93t-83.5 260v686h149v-641q0 -140 56 -207.5t175 -67.5q151 0 261 127l2 -2v791z" />
    <glyph glyph-name="uacute" unicode="&#xfa;" horiz-adv-x="1103" 
d="M731 1499q-28 -106 -101 -195.5t-159 -121.5h-12l92 288q71 29 180 29zM795 1014h147v-1014h-137l-8 160q-113 -185 -318 -185q-160 0 -243.5 93t-83.5 260v686h149v-641q0 -140 56 -207.5t175 -67.5q151 0 261 127l2 -2v791z" />
    <glyph glyph-name="ucircumflex" unicode="&#xfb;" horiz-adv-x="1103" 
d="M547 1391q-100 -127 -195 -195h-71l190 291q31 8 78 8q42 0 72 -6l194 -293h-86q-48 38 -86 77t-96 118zM795 1014h147v-1014h-137l-8 160q-113 -185 -318 -185q-160 0 -243.5 93t-83.5 260v686h149v-641q0 -140 56 -207.5t175 -67.5q151 0 261 127l2 -2v791z" />
    <glyph glyph-name="udieresis" unicode="&#xfc;" horiz-adv-x="1103" 
d="M373 1251q-41 0 -67.5 27t-26.5 70q0 42 26 68t68 26q40 0 66 -26t26 -68q0 -43 -26 -70t-66 -27zM721 1251q-41 0 -67.5 27t-26.5 70q0 42 26 68t68 26q40 0 66 -26t26 -68q0 -43 -26 -70t-66 -27zM795 1014h147v-1014h-137l-8 160q-113 -185 -318 -185
q-160 0 -243.5 93t-83.5 260v686h149v-641q0 -140 56 -207.5t175 -67.5q151 0 261 127l2 -2v791z" />
    <glyph glyph-name="yacute" unicode="&#xfd;" horiz-adv-x="968" 
d="M670 1499q-28 -106 -101 -195.5t-159 -121.5h-13l92 288q71 29 181 29zM801 1014h149l-407 -1145q-59 -167 -142.5 -247.5t-210.5 -80.5q-41 0 -86 10q3 77 11 127q32 -8 59 -8q93 0 152 57.5t108 209.5l-416 1077h158l324 -897z" />
    <glyph glyph-name="thorn" unicode="&#xfe;" horiz-adv-x="1093" 
d="M592 1038q188 0 296.5 -133t108.5 -387q0 -261 -121 -402t-368 -141q-102 0 -199 19v-428h-147v1448h2v403q68 23 147 23v-561q48 79 115 119t166 40zM506 98q176 0 258 109.5t82 306.5q0 198 -75 299.5t-220 101.5q-142 0 -242 -114v-674q92 -29 197 -29z" />
    <glyph glyph-name="ydieresis" unicode="&#xff;" horiz-adv-x="968" 
d="M309 1251q-41 0 -67.5 27t-26.5 70q0 42 26 68t68 26q40 0 66 -26t26 -68q0 -43 -26 -70t-66 -27zM657 1251q-41 0 -67.5 27t-26.5 70q0 42 26 68t68 26q40 0 66.5 -26t26.5 -68t-26.5 -69.5t-66.5 -27.5zM801 1014h149l-407 -1145q-59 -167 -142.5 -247.5t-210.5 -80.5
q-41 0 -86 10q3 77 11 127q32 -8 59 -8q93 0 152 57.5t108 209.5l-416 1077h158l324 -897z" />
    <glyph glyph-name="Amacron" unicode="&#x100;" horiz-adv-x="1163" 
d="M836 1743q-7 -65 -17 -111h-487q4 64 16 111h488zM983 0l-117 369h-575l-119 -369h-147l460 1405q61 20 185 20l469 -1425h-156zM334 502h491l-245 772z" />
    <glyph glyph-name="amacron" unicode="&#x101;" horiz-adv-x="1032" 
d="M756 1403q-3 -61 -17 -115h-479q3 51 16 115h480zM508 1038q184 0 273 -82.5t89 -250.5v-705h-137l-8 147q-44 -79 -123 -125.5t-190 -46.5q-145 0 -233.5 80.5t-88.5 220.5q0 85 29.5 147.5t97 111t182 78t279.5 40.5l45 2v45q0 114 -56.5 164.5t-177.5 50.5
q-188 0 -339 -79q0 62 10 127q143 75 348 75zM440 96q87 0 164 38.5t119 98.5v312l-37 -2q-109 -9 -188.5 -25t-129.5 -38t-79.5 -53t-41 -64.5t-11.5 -77.5q0 -86 53.5 -137.5t150.5 -51.5z" />
    <glyph glyph-name="Abreve" unicode="&#x102;" horiz-adv-x="1163" 
d="M584 1561q-122 0 -192.5 61.5t-88.5 167.5q72 10 111 10q35 -137 170 -137q139 0 170 137q36 0 108 -10q-16 -107 -86 -168t-192 -61zM983 0l-117 369h-575l-119 -369h-147l460 1405q61 20 185 20l469 -1425h-156zM334 502h491l-245 772z" />
    <glyph glyph-name="abreve" unicode="&#x103;" horiz-adv-x="1032" 
d="M508 1184q-125 0 -192 75.5t-80 198.5q48 10 106 10q10 -81 51 -129.5t115 -48.5q75 0 117 48t51 130q67 0 106 -10q-15 -122 -83 -198t-191 -76zM508 1038q184 0 273 -82.5t89 -250.5v-705h-137l-8 147q-44 -79 -123 -125.5t-190 -46.5q-145 0 -233.5 80.5t-88.5 220.5
q0 85 29.5 147.5t97 111t182 78t279.5 40.5l45 2v45q0 114 -56.5 164.5t-177.5 50.5q-188 0 -339 -79q0 62 10 127q143 75 348 75zM440 96q87 0 164 38.5t119 98.5v312l-37 -2q-109 -9 -188.5 -25t-129.5 -38t-79.5 -53t-41 -64.5t-11.5 -77.5q0 -86 53.5 -137.5
t150.5 -51.5z" />
    <glyph glyph-name="Aogonek" unicode="&#x104;" horiz-adv-x="1163" 
d="M1051 -338q36 0 96 21q-4 -33 -14 -103q-45 -18 -105 -18q-95 0 -150 48.5t-55 137.5q0 142 166 252h-6l-117 369h-575l-119 -369h-147l460 1405q61 20 185 20l469 -1425h-41q-81 -51 -118.5 -113t-37.5 -116q0 -109 109 -109zM334 502h491l-245 772z" />
    <glyph glyph-name="aogonek" unicode="&#x105;" horiz-adv-x="1032" 
d="M795 -338q36 0 96 21q-4 -33 -14 -103q-45 -18 -105 -18q-95 0 -150 48.5t-55 137.5q0 142 166 252l-8 147q-44 -79 -123 -125.5t-190 -46.5q-145 0 -233.5 80.5t-88.5 220.5q0 85 29.5 147.5t97 111t182 78t279.5 40.5l45 2v45q0 114 -56.5 164.5t-177.5 50.5
q-188 0 -339 -79q0 62 10 127q143 75 348 75q184 0 273 -82.5t89 -250.5v-705h-28q-81 -51 -118.5 -113t-37.5 -116q0 -109 109 -109zM440 96q87 0 164 38.5t119 98.5v312l-37 -2q-109 -9 -188.5 -25t-129.5 -38t-79.5 -53t-41 -64.5t-11.5 -77.5q0 -86 53.5 -137.5
t150.5 -51.5z" />
    <glyph glyph-name="Cacute" unicode="&#x106;" horiz-adv-x="1128" 
d="M590 1565l139 231q33 10 96 10q67 0 105 -14q-56 -80 -140 -144.5t-172 -82.5h-28zM729 -31q-201 0 -344 94t-214 259.5t-71 386.5q0 340 165.5 539.5t459.5 199.5q200 0 328 -72q-5 -76 -25 -133q-120 68 -295 68q-224 0 -349.5 -156t-125.5 -448q0 -285 129 -443
t352 -158q180 0 310 68q-6 -70 -23 -154q-142 -51 -297 -51z" />
    <glyph glyph-name="cacute" unicode="&#x107;" horiz-adv-x="878" 
d="M442 1182l93 288q71 29 180 29q-28 -106 -101 -195.5t-159 -121.5h-13zM559 -25q-219 0 -346 137t-127 394q0 264 128 398t351 134q130 0 228 -43q0 -56 -13 -123q-97 39 -207 39q-159 0 -246 -106.5t-87 -300.5q0 -190 87 -298t244 -108q125 0 224 58q-8 -71 -21 -129
q-37 -24 -97 -38t-118 -14z" />
    <glyph glyph-name="Ccircumflex" unicode="&#x108;" horiz-adv-x="1128" 
d="M416 1563l198 245q49 11 91 11q39 0 92 -11l196 -245h-57q-114 31 -231 166q-111 -131 -238 -166h-51zM729 -31q-201 0 -344 94t-214 259.5t-71 386.5q0 340 165.5 539.5t459.5 199.5q200 0 328 -72q-5 -76 -25 -133q-120 68 -295 68q-224 0 -349.5 -156t-125.5 -448
q0 -285 129 -443t352 -158q180 0 310 68q-6 -70 -23 -154q-142 -51 -297 -51z" />
    <glyph glyph-name="ccircumflex" unicode="&#x109;" horiz-adv-x="878" 
d="M530 1391q-101 -128 -194 -195h-72l191 291q31 8 77 8q42 0 72 -6l195 -293h-86q-49 39 -87 78t-96 117zM240 504q0 -190 87 -298t244 -108q125 0 224 58q-8 -71 -21 -129q-37 -24 -97 -38t-118 -14q-219 0 -346 137t-127 394q0 264 128 398t351 134q130 0 228 -43
q0 -56 -13 -123q-97 39 -207 39q-159 0 -246 -106.5t-87 -300.5z" />
    <glyph glyph-name="Cdotaccent" unicode="&#x10a;" horiz-adv-x="1128" 
d="M705 1585q-41 0 -68 26.5t-27 69.5t27 70t68 27t67.5 -27t26.5 -70q0 -44 -26 -70t-68 -26zM729 -31q-201 0 -344 94t-214 259.5t-71 386.5q0 340 165.5 539.5t459.5 199.5q200 0 328 -72q-5 -76 -25 -133q-120 68 -295 68q-224 0 -349.5 -156t-125.5 -448
q0 -285 129 -443t352 -158q180 0 310 68q-6 -70 -23 -154q-142 -51 -297 -51z" />
    <glyph glyph-name="cdotaccent" unicode="&#x10b;" horiz-adv-x="878" 
d="M530 1245q-42 0 -70 28.5t-28 72.5q0 45 28 72.5t70 27.5q43 0 70 -27.5t27 -72.5q0 -44 -27 -72.5t-70 -28.5zM559 -25q-219 0 -346 137t-127 394q0 264 128 398t351 134q130 0 228 -43q0 -56 -13 -123q-97 39 -207 39q-159 0 -246 -106.5t-87 -300.5q0 -190 87 -298
t244 -108q125 0 224 58q-8 -71 -21 -129q-37 -24 -97 -38t-118 -14z" />
    <glyph glyph-name="Ccaron" unicode="&#x10c;" horiz-adv-x="1128" 
d="M993 1817l-198 -246q-36 -8 -93 -8q-51 0 -90 8l-196 246h57q118 -32 229 -166q114 131 240 166h51zM729 -31q-201 0 -344 94t-214 259.5t-71 386.5q0 340 165.5 539.5t459.5 199.5q200 0 328 -72q-5 -76 -25 -133q-120 68 -295 68q-224 0 -349.5 -156t-125.5 -448
q0 -285 129 -443t352 -158q180 0 310 68q-6 -70 -23 -154q-142 -51 -297 -51z" />
    <glyph glyph-name="ccaron" unicode="&#x10d;" horiz-adv-x="878" 
d="M532 1190q-43 0 -73 6l-195 293h86q47 -37 85 -77t97 -118q100 123 195 195h72l-191 -291q-31 -8 -76 -8zM240 504q0 -190 87 -298t244 -108q125 0 224 58q-8 -71 -21 -129q-37 -24 -97 -38t-118 -14q-219 0 -346 137t-127 394q0 264 128 398t351 134q130 0 228 -43
q0 -56 -13 -123q-97 39 -207 39q-159 0 -246 -106.5t-87 -300.5z" />
    <glyph glyph-name="Dcaron" unicode="&#x10e;" horiz-adv-x="1323" 
d="M578 1563q-52 0 -91 8l-196 246h57q119 -32 230 -166q114 131 239 166h51l-198 -246q-36 -8 -92 -8zM532 1448q146 0 262.5 -36.5t196 -100.5t132.5 -156t76.5 -200t23.5 -234q0 -165 -42.5 -297.5t-125.5 -227t-212.5 -145.5t-297.5 -51h-361v1415q146 33 348 33z
M549 133q255 0 385.5 152t130.5 440q0 279 -131 433.5t-402 154.5q-94 0 -196 -13v-1167h213z" />
    <glyph glyph-name="dcaron" unicode="&#x10f;" horiz-adv-x="1091" 
d="M1090 1417q77 25 145 25q-16 -213 -129 -363h-41q22 156 25 338zM780 1020v397q68 23 150 23v-1440h-139l-9 137q-49 -80 -115.5 -121t-166.5 -41q-188 0 -297 133.5t-109 387.5q0 260 121 401t369 141q108 0 196 -18zM541 98q139 0 239 111v678q-89 28 -194 28
q-176 0 -258 -109t-82 -304q0 -199 75 -301.5t220 -102.5z" />
    <glyph glyph-name="Dcroat" unicode="&#x110;" horiz-adv-x="1323" 
d="M532 1448q146 0 262.5 -36.5t196 -100.5t132.5 -156t76.5 -200t23.5 -234q0 -165 -42.5 -297.5t-125.5 -227t-212.5 -145.5t-297.5 -51h-361v664h-168q4 73 19 114h149v637q146 33 348 33zM549 133q255 0 385.5 152t130.5 440q0 279 -131 433.5t-402 154.5
q-94 0 -196 -13v-522h346q-11 -89 -18 -114h-328v-531h213z" />
    <glyph glyph-name="dcroat" unicode="&#x111;" horiz-adv-x="1091" 
d="M1096 1284q-4 -56 -17 -100h-149v-1184h-139l-9 137q-49 -80 -115.5 -121t-166.5 -41q-188 0 -297 133.5t-109 387.5q0 260 121 401t369 141q108 0 196 -18v164h-338q4 56 17 100h321v133q68 23 150 23v-156h166zM541 98q139 0 239 111v678q-89 28 -194 28
q-176 0 -258 -109t-82 -304q0 -199 75 -301.5t220 -102.5z" />
    <glyph glyph-name="Emacron" unicode="&#x112;" horiz-adv-x="1067" 
d="M838 1743q-7 -65 -17 -111h-487q4 64 16 111h488zM336 137h639q0 -67 -17 -137h-774v1417h787q0 -71 -17 -137h-618v-489h565q-4 -75 -16 -138h-549v-516z" />
    <glyph glyph-name="emacron" unicode="&#x113;" horiz-adv-x="1034" 
d="M772 1403q-3 -66 -16 -115h-480q3 45 17 115h479zM936 586q0 -77 -8 -127h-686q12 -187 101 -274t249 -87q168 0 305 88q-4 -77 -20 -137q-135 -74 -295 -74q-245 0 -370.5 140.5t-125.5 398.5q0 113 26.5 206.5t79 165.5t139 112t199.5 40q199 0 302.5 -122.5
t103.5 -329.5zM524 915q-128 0 -199.5 -88t-82.5 -247h542v8q0 152 -64.5 239.5t-195.5 87.5z" />
    <glyph glyph-name="Ebreve" unicode="&#x114;" horiz-adv-x="1067" 
d="M588 1561q-122 0 -192.5 61.5t-88.5 167.5q73 10 111 10q35 -137 170 -137q139 0 170 137q36 0 108 -10q-16 -107 -86 -168t-192 -61zM336 137h639q0 -67 -17 -137h-774v1417h787q0 -71 -17 -137h-618v-489h565q-4 -75 -16 -138h-549v-516z" />
    <glyph glyph-name="ebreve" unicode="&#x115;" horiz-adv-x="1034" 
d="M524 1184q-125 0 -192 75.5t-80 198.5q48 10 106 10q10 -81 51 -129.5t115 -48.5q75 0 117 48t51 130q68 0 107 -10q-15 -122 -83.5 -198t-191.5 -76zM936 586q0 -77 -8 -127h-686q12 -187 101 -274t249 -87q168 0 305 88q-4 -77 -20 -137q-135 -74 -295 -74
q-245 0 -370.5 140.5t-125.5 398.5q0 113 26.5 206.5t79 165.5t139 112t199.5 40q199 0 302.5 -122.5t103.5 -329.5zM524 915q-128 0 -199.5 -88t-82.5 -247h542v8q0 152 -64.5 239.5t-195.5 87.5z" />
    <glyph glyph-name="Edotaccent" unicode="&#x116;" horiz-adv-x="1067" 
d="M586 1585q-41 0 -67.5 26.5t-26.5 69.5t26.5 70t67.5 27t67.5 -27t26.5 -70q0 -44 -26 -70t-68 -26zM336 137h639q0 -67 -17 -137h-774v1417h787q0 -71 -17 -137h-618v-489h565q-4 -75 -16 -138h-549v-516z" />
    <glyph glyph-name="edotaccent" unicode="&#x117;" horiz-adv-x="1034" 
d="M526 1245q-42 0 -70 28.5t-28 72.5q0 45 28 72.5t70 27.5q43 0 70 -27.5t27 -72.5q0 -44 -27 -72.5t-70 -28.5zM936 586q0 -77 -8 -127h-686q12 -187 101 -274t249 -87q168 0 305 88q-4 -77 -20 -137q-135 -74 -295 -74q-245 0 -370.5 140.5t-125.5 398.5
q0 113 26.5 206.5t79 165.5t139 112t199.5 40q199 0 302.5 -122.5t103.5 -329.5zM524 915q-128 0 -199.5 -88t-82.5 -247h542v8q0 152 -64.5 239.5t-195.5 87.5z" />
    <glyph glyph-name="Eogonek" unicode="&#x118;" horiz-adv-x="1067" 
d="M883 0q-81 -51 -118.5 -113t-37.5 -116q0 -109 109 -109q36 0 96 21q-4 -33 -14 -103q-45 -18 -105 -18q-95 0 -150 48.5t-55 137.5q0 142 166 252h-590v1417h787q0 -71 -17 -137h-618v-489h565q-4 -75 -16 -138h-549v-516h639q0 -67 -17 -137h-75z" />
    <glyph glyph-name="eogonek" unicode="&#x119;" horiz-adv-x="1034" 
d="M936 586q0 -77 -8 -127h-686q12 -187 101 -274t249 -87q168 0 305 88q-4 -77 -20 -137q-60 -33 -119 -49q-81 -51 -118.5 -113t-37.5 -116q0 -109 109 -109q36 0 96 21q-4 -33 -14 -103q-45 -18 -105 -18q-95 0 -150 48.5t-55 137.5q0 127 133 227h-34
q-245 0 -370.5 140.5t-125.5 398.5q0 113 26.5 206.5t79 165.5t139 112t199.5 40q199 0 302.5 -122.5t103.5 -329.5zM524 915q-128 0 -199.5 -88t-82.5 -247h542v8q0 152 -64.5 239.5t-195.5 87.5z" />
    <glyph glyph-name="Ecaron" unicode="&#x11a;" horiz-adv-x="1067" 
d="M584 1563q-51 0 -90 8l-197 246h57q119 -32 230 -166q114 131 239 166h51l-198 -246q-36 -8 -92 -8zM336 137h639q0 -67 -17 -137h-774v1417h787q0 -71 -17 -137h-618v-489h565q-4 -75 -16 -138h-549v-516z" />
    <glyph glyph-name="ecaron" unicode="&#x11b;" horiz-adv-x="1034" 
d="M526 1190q-43 0 -73 6l-195 293h86q47 -37 85 -77t97 -118q100 123 195 195h72l-191 -291q-31 -8 -76 -8zM936 586q0 -77 -8 -127h-686q12 -187 101 -274t249 -87q168 0 305 88q-4 -77 -20 -137q-135 -74 -295 -74q-245 0 -370.5 140.5t-125.5 398.5q0 113 26.5 206.5
t79 165.5t139 112t199.5 40q199 0 302.5 -122.5t103.5 -329.5zM524 915q-128 0 -199.5 -88t-82.5 -247h542v8q0 152 -64.5 239.5t-195.5 87.5z" />
    <glyph glyph-name="Gcircumflex" unicode="&#x11c;" horiz-adv-x="1298" 
d="M748 1729q-111 -131 -238 -166h-51l198 245q49 11 91 11q39 0 92 -11l196 -245h-57q-114 31 -231 166zM991 741h156v-694q-174 -78 -391 -78q-162 0 -287.5 54t-206 152.5t-121.5 234.5t-41 303q0 352 176 543.5t498 191.5q215 0 363 -66q-5 -54 -27 -137
q-150 66 -338 66q-245 0 -380.5 -154t-135.5 -442q0 -289 131 -449t375 -160q105 0 229 31v604z" />
    <glyph glyph-name="gcircumflex" unicode="&#x11d;" horiz-adv-x="1091" 
d="M553 1391q-100 -127 -195 -195h-71l190 291q31 8 78 8q42 0 72 -6l194 -293h-86q-48 38 -86 77t-96 118zM584 1038q193 0 346 -59v-977q0 -225 -119 -343t-348 -118q-152 0 -287 60q3 62 14 133q128 -64 271 -64q152 0 235.5 79.5t83.5 238.5v147q-48 -79 -114.5 -119.5
t-165.5 -40.5q-188 0 -297 133.5t-109 387.5q0 260 121 401t369 141zM541 98q139 0 239 111v678q-89 28 -194 28q-176 0 -258 -109t-82 -304q0 -199 75 -301.5t220 -102.5z" />
    <glyph glyph-name="Gbreve" unicode="&#x11e;" horiz-adv-x="1298" 
d="M750 1561q-122 0 -192.5 61.5t-88.5 167.5q72 10 111 10q35 -137 170 -137q139 0 170 137q36 0 108 -10q-16 -107 -86 -168t-192 -61zM991 741h156v-694q-174 -78 -391 -78q-162 0 -287.5 54t-206 152.5t-121.5 234.5t-41 303q0 352 176 543.5t498 191.5q215 0 363 -66
q-5 -54 -27 -137q-150 66 -338 66q-245 0 -380.5 -154t-135.5 -442q0 -289 131 -449t375 -160q105 0 229 31v604z" />
    <glyph glyph-name="gbreve" unicode="&#x11f;" horiz-adv-x="1091" 
d="M553 1184q-125 0 -192 75.5t-80 198.5q48 10 106 10q10 -81 51 -129.5t115 -48.5q75 0 117 48t51 130q67 0 106 -10q-15 -122 -83 -198t-191 -76zM584 1038q193 0 346 -59v-977q0 -225 -119 -343t-348 -118q-152 0 -287 60q3 62 14 133q128 -64 271 -64q152 0 235.5 79.5
t83.5 238.5v147q-48 -79 -114.5 -119.5t-165.5 -40.5q-188 0 -297 133.5t-109 387.5q0 260 121 401t369 141zM541 98q139 0 239 111v678q-89 28 -194 28q-176 0 -258 -109t-82 -304q0 -199 75 -301.5t220 -102.5z" />
    <glyph glyph-name="Gdotaccent" unicode="&#x120;" horiz-adv-x="1298" 
d="M748 1585q-42 0 -68.5 26.5t-26.5 69.5t27 70t68 27t67.5 -27t26.5 -70q0 -44 -26 -70t-68 -26zM991 741h156v-694q-174 -78 -391 -78q-162 0 -287.5 54t-206 152.5t-121.5 234.5t-41 303q0 352 176 543.5t498 191.5q215 0 363 -66q-5 -54 -27 -137q-150 66 -338 66
q-245 0 -380.5 -154t-135.5 -442q0 -289 131 -449t375 -160q105 0 229 31v604z" />
    <glyph glyph-name="gdotaccent" unicode="&#x121;" horiz-adv-x="1091" 
d="M555 1245q-42 0 -70 28.5t-28 72.5q0 45 28 72.5t70 27.5q43 0 69.5 -27.5t26.5 -72.5q0 -44 -26.5 -72.5t-69.5 -28.5zM584 1038q193 0 346 -59v-977q0 -225 -119 -343t-348 -118q-152 0 -287 60q3 62 14 133q128 -64 271 -64q152 0 235.5 79.5t83.5 238.5v147
q-48 -79 -114.5 -119.5t-165.5 -40.5q-188 0 -297 133.5t-109 387.5q0 260 121 401t369 141zM541 98q139 0 239 111v678q-89 28 -194 28q-176 0 -258 -109t-82 -304q0 -199 75 -301.5t220 -102.5z" />
    <glyph glyph-name="uni0122" unicode="&#x122;" horiz-adv-x="1298" 
d="M991 741h156v-694q-174 -78 -391 -78q-162 0 -287.5 54t-206 152.5t-121.5 234.5t-41 303q0 352 176 543.5t498 191.5q215 0 363 -66q-5 -54 -27 -137q-150 66 -338 66q-245 0 -380.5 -154t-135.5 -442q0 -289 131 -449t375 -160q105 0 229 31v604zM657 -492
q22 156 25 338q77 25 145 25q-16 -220 -127 -363h-43z" />
    <glyph glyph-name="uni0123" unicode="&#x123;" horiz-adv-x="1091" 
d="M651 1505q-21 -148 -24 -338q-74 -24 -146 -24q16 219 127 362h43zM584 1038q193 0 346 -59v-977q0 -225 -119 -343t-348 -118q-152 0 -287 60q3 62 14 133q128 -64 271 -64q152 0 235.5 79.5t83.5 238.5v147q-48 -79 -114.5 -119.5t-165.5 -40.5q-188 0 -297 133.5
t-109 387.5q0 260 121 401t369 141zM541 98q139 0 239 111v678q-89 28 -194 28q-176 0 -258 -109t-82 -304q0 -199 75 -301.5t220 -102.5z" />
    <glyph glyph-name="Hcircumflex" unicode="&#x124;" horiz-adv-x="1353" 
d="M678 1729q-111 -131 -238 -166h-51l199 245q50 11 90 11q39 0 92 -11l197 -245h-58q-114 31 -231 166zM1018 1409q85 23 149 23v-1432h-149v657h-682v-657h-152v1409q90 23 152 23v-635h682v612z" />
    <glyph glyph-name="hcircumflex" unicode="&#x125;" horiz-adv-x="1103" 
d="M553 1729q-111 -131 -238 -166h-51l199 245q50 11 90 11q39 0 92 -11l197 -245h-58q-114 31 -231 166zM625 1038q161 0 244 -92t83 -260v-686h-149v641q0 140 -56 207t-176 67q-150 0 -260 -127l-2 3v-791h-147v1417q68 23 147 23v-584q57 91 133.5 136.5t182.5 45.5z
" />
    <glyph glyph-name="Hbar" unicode="&#x126;" horiz-adv-x="1353" 
d="M1341 1161q-4 -69 -16 -114h-158v-1047h-149v657h-682v-657h-152v1047h-172q0 45 15 114h157v248q90 23 152 23v-271h682v248q85 23 149 23v-271h174zM1018 797v250h-682v-250h682z" />
    <glyph glyph-name="hbar" unicode="&#x127;" horiz-adv-x="1103" 
d="M625 1038q161 0 244 -92t83 -260v-686h-149v641q0 140 -56 207t-176 67q-150 0 -260 -127l-2 3v-791h-147v1184h-178q4 60 16 100h162v133q68 23 147 23v-156h328q-4 -60 -16 -100h-312v-328q57 91 133.5 136.5t182.5 45.5z" />
    <glyph glyph-name="Itilde" unicode="&#x128;" horiz-adv-x="520" 
d="M385 1567q-33 0 -69 20t-60.5 43.5t-50.5 43.5t-43 20q-22 0 -30.5 -13t-8.5 -47v-67h-100v90q0 81 27 117t87 36q36 0 71.5 -20t59 -44.5t49 -44.5t43.5 -20q41 0 41 58v71h105v-96q0 -78 -29 -112.5t-92 -34.5zM184 0v1409q90 23 152 23v-1432h-152z" />
    <glyph glyph-name="itilde" unicode="&#x129;" horiz-adv-x="471" 
d="M336 1217q-34 0 -74.5 31.5t-71 63t-40.5 31.5q-19 0 -27 -12.5t-8 -42.5v-69h-90v84q0 141 106 141q36 0 75 -32t68.5 -63.5t42.5 -31.5q39 0 39 53v74h90v-88q0 -139 -110 -139zM162 0v1014h147v-1014h-147z" />
    <glyph glyph-name="Imacron" unicode="&#x12a;" horiz-adv-x="520" 
d="M47 1630q4 62 16 113h416q-3 -63 -16 -113h-416zM184 0v1409q90 23 152 23v-1432h-152z" />
    <glyph glyph-name="imacron" unicode="&#x12b;" horiz-adv-x="471" 
d="M29 1290q3 55 16 115h404q-3 -53 -15 -115h-405zM162 0v1014h147v-1014h-147z" />
    <glyph glyph-name="Ibreve" unicode="&#x12c;" horiz-adv-x="520" 
d="M260 1563q-109 0 -170 60.5t-74 154.5q33 8 105 8q22 -121 139 -121q110 0 137 121q47 0 101 -8q-13 -93 -71.5 -154t-166.5 -61zM184 0v1409q90 23 152 23v-1432h-152z" />
    <glyph glyph-name="ibreve" unicode="&#x12d;" horiz-adv-x="471" 
d="M236 1188q-105 0 -158.5 70t-59.5 190q45 10 103 10q7 -160 115 -160q104 0 114 160q65 0 101 -10q-5 -117 -59 -188.5t-156 -71.5zM162 0v1014h147v-1014h-147z" />
    <glyph glyph-name="Iogonek" unicode="&#x12e;" horiz-adv-x="520" 
d="M303 -334q43 0 86 19q-3 -48 -12 -103q-32 -16 -94 -16q-90 0 -141.5 47.5t-51.5 136.5q0 68 31 124t104 126h-41v1409q90 23 152 23v-1432q-131 -128 -131 -233q0 -49 26 -75t72 -26z" />
    <glyph glyph-name="iogonek" unicode="&#x12f;" horiz-adv-x="471" 
d="M236 1245q-42 0 -70.5 28.5t-28.5 72.5q0 45 28.5 72.5t70.5 27.5q43 0 69.5 -27.5t26.5 -72.5q0 -44 -26.5 -72.5t-69.5 -28.5zM270 -334q43 0 86 19q-3 -48 -12 -103q-32 -16 -94 -16q-90 0 -141.5 47.5t-51.5 136.5q0 68 31 123.5t105 126.5h-31v1014h147v-1014h-6
q-131 -128 -131 -233q0 -49 26 -75t72 -26z" />
    <glyph glyph-name="Idotaccent" unicode="&#x130;" horiz-adv-x="520" 
d="M260 1585q-41 0 -67.5 26.5t-26.5 69.5t26.5 70t67.5 27t67.5 -27t26.5 -70q0 -44 -26 -70t-68 -26zM184 0v1409q90 23 152 23v-1432h-152z" />
    <glyph glyph-name="dotlessi" unicode="&#x131;" horiz-adv-x="471" 
d="M162 0v1014h147v-1014h-147z" />
    <glyph glyph-name="IJ" unicode="&#x132;" horiz-adv-x="1226" 
d="M184 0v1409q90 23 152 23v-1432h-152zM672 -14q-72 0 -137 12q0 66 10 131q62 -10 108 -10q129 0 192.5 73t63.5 244v973q90 23 152 23v-1012q0 -434 -389 -434z" />
    <glyph glyph-name="ij" unicode="&#x133;" horiz-adv-x="942" 
d="M236 1245q-42 0 -70.5 28.5t-28.5 72.5q0 45 28.5 72.5t70.5 27.5q43 0 69.5 -27.5t26.5 -72.5q0 -44 -26.5 -72.5t-69.5 -28.5zM705 1245q-42 0 -70.5 28.5t-28.5 72.5q0 45 28.5 72.5t70.5 27.5q43 0 70.5 -27.5t27.5 -72.5q0 -44 -27.5 -72.5t-70.5 -28.5zM162 0v1014
h147v-1014h-147zM512 -465q-62 0 -117 19q2 31 15 118q45 -10 82 -10q71 0 106 38t35 122v1192h147v-1184q0 -152 -66.5 -223.5t-201.5 -71.5z" />
    <glyph glyph-name="Jcircumflex" unicode="&#x134;" horiz-adv-x="706" 
d="M215 1565l168 223q31 10 82 10t82 -10l168 -223h-47q-127 44 -203 139q-73 -93 -201 -139h-49zM152 -14q-74 0 -138 12q0 60 11 131q62 -10 108 -10q129 0 192.5 73t63.5 244v973q90 23 152 23v-1012q0 -434 -389 -434z" />
    <glyph glyph-name="jcircumflex" unicode="&#x135;" horiz-adv-x="471" 
d="M299 1483l158 -295h-45q-75 31 -181 192q-61 -90 -98 -131.5t-84 -60.5h-41l156 293q18 6 67 6q48 0 68 -4zM162 -178v1192h147v-1184q0 -152 -66.5 -223.5t-201.5 -71.5q-62 0 -117 19q2 31 15 118q45 -10 81 -10q71 0 106.5 38t35.5 122z" />
    <glyph glyph-name="uni0136" unicode="&#x136;" 
d="M184 0v1409q90 23 152 23v-1432h-152zM524 733l588 -733h-190l-568 721v16l549 680h174zM528 -492q22 156 25 338q77 25 145 25q-16 -220 -127 -363h-43z" />
    <glyph glyph-name="uni0137" unicode="&#x137;" horiz-adv-x="985" 
d="M162 0v1417q68 23 147 23v-1440h-147zM506 541l459 -541h-183l-440 532v13l410 469h172zM436 -492q22 156 25 338q77 25 145 25q-16 -220 -127 -363h-43z" />
    <glyph glyph-name="kgreenlandic" unicode="&#x138;" horiz-adv-x="985" 
d="M162 0v1014h149v-1014h-149zM496 541l469 -541h-183l-454 532v13l424 469h172z" />
    <glyph glyph-name="Lacute" unicode="&#x139;" horiz-adv-x="905" 
d="M190 1565l140 231q33 10 96 10q66 0 104 -14q-56 -80 -139.5 -144.5t-171.5 -82.5h-29zM184 0v1409q90 23 152 23v-1295h555q0 -58 -14 -137h-693z" />
    <glyph glyph-name="lacute" unicode="&#x13a;" horiz-adv-x="557" 
d="M178 1565l139 231q33 10 97 10q66 0 104 -14q-56 -80 -139.5 -144.5t-171.5 -82.5h-29zM399 -25q-114 0 -175.5 67.5t-61.5 197.5v1177q68 23 147 23v-1188q0 -150 133 -150q49 0 103 21q-6 -64 -19 -123q-58 -25 -127 -25z" />
    <glyph glyph-name="uni013B" unicode="&#x13b;" horiz-adv-x="905" 
d="M184 0v1409q90 23 152 23v-1295h555q0 -58 -14 -137h-693zM453 -492q21 148 24 338q77 25 146 25q-16 -220 -127 -363h-43z" />
    <glyph glyph-name="uni013C" unicode="&#x13c;" horiz-adv-x="557" 
d="M399 -25q-114 0 -175.5 67.5t-61.5 197.5v1177q68 23 147 23v-1188q0 -150 133 -150q49 0 103 21q-6 -64 -19 -123q-58 -25 -127 -25zM276 -492q22 156 25 338q77 25 145 25q-16 -220 -127 -363h-43z" />
    <glyph glyph-name="Lcaron" unicode="&#x13d;" horiz-adv-x="905" 
d="M614 1079q22 156 25 338q77 25 145 25q-16 -216 -127 -363h-43zM184 0v1409q90 23 152 23v-1295h555q0 -58 -14 -137h-693z" />
    <glyph glyph-name="lcaron" unicode="&#x13e;" horiz-adv-x="557" 
d="M426 1079q22 156 25 338q77 25 145 25q-16 -216 -127 -363h-43zM399 -25q-114 0 -175.5 67.5t-61.5 197.5v1177q68 23 147 23v-1188q0 -150 133 -150q49 0 103 21q-6 -64 -19 -123q-58 -25 -127 -25z" />
    <glyph glyph-name="Ldot" unicode="&#x13f;" horiz-adv-x="905" 
d="M184 0v1409q90 23 152 23v-1295h555q0 -58 -14 -137h-693zM707 731q-47 0 -81 34t-34 81q0 46 34 79t81 33t79.5 -33t32.5 -79q0 -48 -32.5 -81.5t-79.5 -33.5z" />
    <glyph glyph-name="ldot" unicode="&#x140;" horiz-adv-x="722" 
d="M399 -25q-114 0 -175.5 67.5t-61.5 197.5v1177q68 23 147 23v-1188q0 -150 133 -150q49 0 103 21q-6 -64 -19 -123q-58 -25 -127 -25zM555 694q-42 0 -70 28.5t-28 72.5q0 45 28 73.5t70 28.5q43 0 70.5 -28.5t27.5 -73.5q0 -43 -28 -72t-70 -29z" />
    <glyph glyph-name="Lslash" unicode="&#x141;" horiz-adv-x="905" 
d="M336 137h555q0 -58 -14 -137h-693v567l-159 -94q0 91 12 143l147 86v707q90 23 152 23v-639l299 174q0 -94 -14 -144l-285 -168v-518z" />
    <glyph glyph-name="lslash" unicode="&#x142;" horiz-adv-x="557" 
d="M442 102q49 0 103 21q-6 -64 -19 -123q-58 -25 -127 -25q-114 0 -175.5 67.5t-61.5 197.5v430l-144 -95q0 82 11 138l133 88v616q68 23 147 23v-543l211 139q-4 -87 -14 -137l-197 -131v-516q0 -150 133 -150z" />
    <glyph glyph-name="Nacute" unicode="&#x143;" horiz-adv-x="1355" 
d="M901 1792q-56 -80 -139.5 -144.5t-171.5 -82.5h-29l139 231q33 10 97 10q66 0 104 -14zM1028 1409q85 23 143 23v-1432h-127l-569 924q-83 133 -151 272q4 -164 4 -516v-680h-144v1409q75 23 144 23l542 -875q61 -94 166 -299q-8 364 -8 586v565z" />
    <glyph glyph-name="nacute" unicode="&#x144;" horiz-adv-x="1103" 
d="M748 1499q-28 -106 -101.5 -195.5t-159.5 -121.5h-12l92 288q71 29 181 29zM625 1038q161 0 244 -92t83 -260v-686h-149v641q0 140 -56 207t-176 67q-150 0 -260 -127l-2 3v-791h-147v1014h137l8 -160q57 92 134 138t184 46z" />
    <glyph glyph-name="uni0145" unicode="&#x145;" horiz-adv-x="1355" 
d="M1028 1409q85 23 143 23v-1432h-127l-569 924q-83 133 -151 272q4 -164 4 -516v-680h-144v1409q75 23 144 23l542 -875q61 -94 166 -299q-8 364 -8 586v565zM588 -492q21 148 24 338q77 25 146 25q-16 -220 -127 -363h-43z" />
    <glyph glyph-name="uni0146" unicode="&#x146;" horiz-adv-x="1103" 
d="M625 1038q161 0 244 -92t83 -260v-686h-149v641q0 140 -56 207t-176 67q-150 0 -260 -127l-2 3v-791h-147v1014h137l8 -160q57 92 134 138t184 46zM471 -492q22 156 25 338q77 25 145 25q-16 -220 -127 -363h-43z" />
    <glyph glyph-name="Ncaron" unicode="&#x147;" horiz-adv-x="1355" 
d="M674 1563q-51 0 -90 8l-197 246h57q119 -32 230 -166q114 131 239 166h52l-199 -246q-36 -8 -92 -8zM1028 1409q85 23 143 23v-1432h-127l-569 924q-83 133 -151 272q4 -164 4 -516v-680h-144v1409q75 23 144 23l542 -875q61 -94 166 -299q-8 364 -8 586v565z" />
    <glyph glyph-name="ncaron" unicode="&#x148;" horiz-adv-x="1103" 
d="M563 1190q-44 0 -74 6l-194 293h86q47 -37 85 -77t97 -118q100 123 195 195h71l-190 -291q-31 -8 -76 -8zM625 1038q161 0 244 -92t83 -260v-686h-149v641q0 140 -56 207t-176 67q-150 0 -260 -127l-2 3v-791h-147v1014h137l8 -160q57 92 134 138t184 46z" />
    <glyph glyph-name="napostrophe" unicode="&#x149;" horiz-adv-x="1343" 
d="M129 948q50 234 59 469q75 25 146 27q-17 -237 -101 -496h-104zM864 1038q161 0 244.5 -92t83.5 -260v-686h-150v641q0 140 -56 207t-175 67q-148 0 -262 -127v-788h-148v1014h138l8 -160q57 93 133.5 138.5t183.5 45.5z" />
    <glyph glyph-name="Eng" unicode="&#x14a;" horiz-adv-x="1355" 
d="M1028 1409q85 23 143 23v-1432q-1 -242 -97 -350.5t-288 -108.5q-62 0 -129 13q4 90 13 137q57 -13 112 -13q127 0 186.5 76t59.5 252v21l-553 897q-83 133 -151 272q4 -164 4 -516v-680h-144v1409q75 23 144 23l542 -875q61 -94 166 -299q-8 364 -8 586v565z" />
    <glyph glyph-name="eng" unicode="&#x14b;" horiz-adv-x="1103" 
d="M625 1038q161 0 244 -92t83 -260v-844q0 -157 -59.5 -229t-185.5 -72q-49 0 -93 15q0 23 13 116q40 -8 61 -8q115 0 115 148v829q0 140 -56 207t-176 67q-150 0 -260 -127l-2 3v-791h-147v1014h137l8 -160q57 92 134 138t184 46z" />
    <glyph glyph-name="Omacron" unicode="&#x14c;" horiz-adv-x="1402" 
d="M449 1632q4 64 16 111h487q-8 -74 -16 -111h-487zM705 -31q-194 0 -332 94t-205.5 259t-67.5 387q0 340 158.5 539.5t441.5 199.5q194 0 332 -94t205.5 -259t67.5 -386q0 -345 -158 -542.5t-442 -197.5zM705 106q216 0 329 155.5t113 447.5q0 286 -116 444t-331 158
q-214 0 -329 -157.5t-115 -444.5q0 -286 116.5 -444.5t332.5 -158.5z" />
    <glyph glyph-name="omacron" unicode="&#x14d;" horiz-adv-x="1081" 
d="M293 1288q3 51 16 115h479q-3 -66 -16 -115h-479zM541 -25q-217 0 -336 142t-119 389q0 248 118.5 390t336.5 142q217 0 335.5 -142t118.5 -390t-119 -389.5t-335 -141.5zM541 98q148 0 224.5 107t76.5 301q0 193 -76 301t-225 108q-150 0 -225.5 -107t-75.5 -302
q0 -194 76 -301t225 -107z" />
    <glyph glyph-name="Obreve" unicode="&#x14e;" horiz-adv-x="1402" 
d="M700 1561q-121 0 -191.5 61.5t-88.5 167.5q72 10 110 10q35 -137 170 -137q139 0 170 137q37 0 109 -10q-16 -106 -86.5 -167.5t-192.5 -61.5zM705 -31q-194 0 -332 94t-205.5 259t-67.5 387q0 340 158.5 539.5t441.5 199.5q194 0 332 -94t205.5 -259t67.5 -386
q0 -345 -158 -542.5t-442 -197.5zM705 106q216 0 329 155.5t113 447.5q0 286 -116 444t-331 158q-214 0 -329 -157.5t-115 -444.5q0 -286 116.5 -444.5t332.5 -158.5z" />
    <glyph glyph-name="obreve" unicode="&#x14f;" horiz-adv-x="1081" 
d="M539 1184q-125 0 -192.5 75.5t-80.5 198.5q48 10 107 10q10 -81 51 -129.5t115 -48.5q75 0 117 48t51 130q67 0 106 -10q-15 -122 -83 -198t-191 -76zM541 -25q-217 0 -336 142t-119 389q0 248 118.5 390t336.5 142q217 0 335.5 -142t118.5 -390t-119 -389.5t-335 -141.5
zM541 98q148 0 224.5 107t76.5 301q0 193 -76 301t-225 108q-150 0 -225.5 -107t-75.5 -302q0 -194 76 -301t225 -107z" />
    <glyph glyph-name="Ohungarumlaut" unicode="&#x150;" horiz-adv-x="1402" 
d="M455 1563l149 235q31 10 96 10q54 0 70 -4q-35 -77 -121.5 -150.5t-169.5 -90.5h-24zM725 1563l147 235q34 10 97 10q55 0 71 -4q-37 -78 -122 -150.5t-170 -90.5h-23zM705 -31q-194 0 -332 94t-205.5 259t-67.5 387q0 340 158.5 539.5t441.5 199.5q194 0 332 -94
t205.5 -259t67.5 -386q0 -345 -158 -542.5t-442 -197.5zM705 106q216 0 329 155.5t113 447.5q0 286 -116 444t-331 158q-214 0 -329 -157.5t-115 -444.5q0 -286 116.5 -444.5t332.5 -158.5z" />
    <glyph glyph-name="ohungarumlaut" unicode="&#x151;" horiz-adv-x="1081" 
d="M307 1178l137 297q61 22 160 22q-61 -140 -129.5 -214t-150.5 -105h-17zM580 1178l139 297q58 22 155 22q-110 -263 -278 -319h-16zM541 -25q-217 0 -336 142t-119 389q0 248 118.5 390t336.5 142q217 0 335.5 -142t118.5 -390t-119 -389.5t-335 -141.5zM541 98
q148 0 224.5 107t76.5 301q0 193 -76 301t-225 108q-150 0 -225.5 -107t-75.5 -302q0 -194 76 -301t225 -107z" />
    <glyph glyph-name="OE" unicode="&#x152;" horiz-adv-x="1796" 
d="M1065 137h639q-4 -73 -16 -137h-687v-2h-286q-304 0 -459.5 186.5t-155.5 524.5q0 342 155.5 525t457.5 183h987q-3 -71 -17 -137h-618v-489h563q0 -72 -16 -138h-547v-516zM254 709q0 -284 116.5 -429t344.5 -145h198v1147h-200q-232 0 -345.5 -143t-113.5 -430z" />
    <glyph glyph-name="oe" unicode="&#x153;" horiz-adv-x="1779" 
d="M1681 584q0 -65 -8 -115h-686q10 -193 99 -282t249 -89q165 0 305 88q-4 -77 -20 -137q-142 -74 -295 -74q-294 0 -410 224q-53 -108 -148 -166t-226 -58q-218 0 -336.5 141.5t-118.5 389.5t118 390t337 142q263 0 372 -219q112 219 363 219q105 0 184 -34.5t126.5 -97
t71 -143.5t23.5 -179zM541 98q149 0 225 107t76 301t-75.5 301.5t-225.5 107.5q-152 0 -226.5 -106.5t-74.5 -302.5q0 -195 75 -301.5t226 -106.5zM1268 915q-125 0 -196 -83.5t-85 -239.5h545q-3 149 -67 236t-197 87z" />
    <glyph glyph-name="Racute" unicode="&#x154;" horiz-adv-x="1112" 
d="M780 1792q-56 -80 -139.5 -144.5t-171.5 -82.5h-29l140 231q33 10 96 10q66 0 104 -14zM893 2l-344 586h-215v-588h-150v1411q168 35 332 35q131 0 230.5 -33.5t159 -92.5t89 -134t29.5 -164q0 -171 -91 -274.5t-239 -141.5l373 -604h-174zM334 719h192q340 0 340 295
q0 301 -352 301q-92 0 -180 -12v-584z" />
    <glyph glyph-name="racute" unicode="&#x155;" horiz-adv-x="714" 
d="M633 1499q-28 -106 -101 -195.5t-159 -121.5h-13l93 288q71 29 180 29zM580 1036q64 0 120 -16q0 -75 -16 -131q-55 14 -123 14q-73 0 -139.5 -30.5t-112.5 -90.5v-782h-147v1014h139l6 -158q91 180 273 180z" />
    <glyph glyph-name="uni0156" unicode="&#x156;" horiz-adv-x="1112" 
d="M694 606l373 -604h-174l-344 586h-215v-588h-150v1411q168 35 332 35q131 0 230.5 -33.5t159 -92.5t89 -134t29.5 -164q0 -171 -91 -274.5t-239 -141.5zM334 719h192q340 0 340 295q0 301 -352 301q-92 0 -180 -12v-584zM500 -492q21 148 24 338q77 25 146 25
q-16 -220 -127 -363h-43z" />
    <glyph glyph-name="uni0157" unicode="&#x157;" horiz-adv-x="714" 
d="M580 1036q64 0 120 -16q0 -75 -16 -131q-55 14 -123 14q-73 0 -139.5 -30.5t-112.5 -90.5v-782h-147v1014h139l6 -158q91 180 273 180zM135 -492q22 156 25 338q77 25 145 25q-16 -220 -127 -363h-43z" />
    <glyph glyph-name="Rcaron" unicode="&#x158;" horiz-adv-x="1112" 
d="M553 1563q-51 0 -90 8l-197 246h58q118 -32 229 -166q114 131 240 166h51l-199 -246q-36 -8 -92 -8zM893 2l-344 586h-215v-588h-150v1411q168 35 332 35q131 0 230.5 -33.5t159 -92.5t89 -134t29.5 -164q0 -171 -91 -274.5t-239 -141.5l373 -604h-174zM334 719h192
q340 0 340 295q0 301 -352 301q-92 0 -180 -12v-584z" />
    <glyph glyph-name="rcaron" unicode="&#x159;" horiz-adv-x="714" 
d="M451 1186q-48 0 -68 6l-158 293h45q77 -29 181 -193q35 51 50.5 72.5t40.5 51t46.5 44.5t46.5 25h39l-154 -293q-20 -6 -69 -6zM580 1036q64 0 120 -16q0 -75 -16 -131q-55 14 -123 14q-73 0 -139.5 -30.5t-112.5 -90.5v-782h-147v1014h139l6 -158q91 180 273 180z" />
    <glyph glyph-name="Sacute" unicode="&#x15a;" horiz-adv-x="1050" 
d="M420 1565l139 231q33 10 96 10q67 0 105 -14q-56 -80 -139.5 -144.5t-171.5 -82.5h-29zM475 -31q-106 0 -207.5 24.5t-175.5 69.5q3 74 19 132q162 -93 366 -93q155 0 243.5 66.5t88.5 183.5q0 110 -64 172.5t-213 120.5l-104 41q-159 60 -243.5 152.5t-84.5 244.5
q0 174 117.5 269.5t339.5 95.5q189 0 354 -70q-4 -59 -24 -129q-160 68 -326 68q-149 0 -227 -62.5t-78 -169.5q0 -112 60.5 -170t199.5 -108l109 -41q60 -23 106.5 -47t92 -59t75.5 -76.5t48 -99t18 -126.5q0 -175 -127 -282t-363 -107z" />
    <glyph glyph-name="sacute" unicode="&#x15b;" horiz-adv-x="890" 
d="M354 1182l92 288q71 29 181 29q-28 -106 -101 -195.5t-159 -121.5h-13zM414 -25q-189 0 -318 74q2 58 23 125q63 -36 142 -56t145 -20q116 0 178.5 41t62.5 117q0 70 -42.5 110t-141.5 70l-88 27q-129 41 -200 110.5t-71 188.5q0 131 95 203.5t266 72.5q167 0 295 -49
q-3 -57 -21 -121q-127 47 -266 47q-106 0 -163.5 -37.5t-57.5 -109.5q0 -68 45.5 -110t144.5 -72l88 -29q139 -44 204 -111.5t65 -177.5q0 -132 -101.5 -212.5t-283.5 -80.5z" />
    <glyph glyph-name="Scircumflex" unicode="&#x15c;" horiz-adv-x="1050" 
d="M246 1563l198 245q50 11 91 11q39 0 92 -11l196 -245h-57q-114 31 -231 166q-111 -131 -238 -166h-51zM475 -31q-106 0 -207.5 24.5t-175.5 69.5q3 74 19 132q162 -93 366 -93q155 0 243.5 66.5t88.5 183.5q0 110 -64 172.5t-213 120.5l-104 41q-159 60 -243.5 152.5
t-84.5 244.5q0 174 117.5 269.5t339.5 95.5q189 0 354 -70q-4 -59 -24 -129q-160 68 -326 68q-149 0 -227 -62.5t-78 -169.5q0 -112 60.5 -170t199.5 -108l109 -41q60 -23 106.5 -47t92 -59t75.5 -76.5t48 -99t18 -126.5q0 -175 -127 -282t-363 -107z" />
    <glyph glyph-name="scircumflex" unicode="&#x15d;" horiz-adv-x="890" 
d="M442 1391q-101 -128 -194 -195h-72l191 291q31 8 77 8q42 0 72 -6l195 -293h-86q-49 39 -87 78t-96 117zM530 557q139 -44 204 -111.5t65 -177.5q0 -132 -101.5 -212.5t-283.5 -80.5q-189 0 -318 74q2 58 23 125q63 -36 142 -56t145 -20q116 0 178.5 41t62.5 117
q0 70 -42.5 110t-141.5 70l-88 27q-129 41 -200 110.5t-71 188.5q0 131 95 203.5t266 72.5q167 0 295 -49q-3 -57 -21 -121q-127 47 -266 47q-106 0 -163.5 -37.5t-57.5 -109.5q0 -68 45.5 -110t144.5 -72z" />
    <glyph glyph-name="Scedilla" unicode="&#x15e;" horiz-adv-x="1050" 
d="M965 358q0 -158 -103.5 -261.5t-298.5 -123.5l-26 -77q155 -42 155 -154q0 -76 -50.5 -119t-147.5 -43q-61 0 -125 23q3 54 14 82q55 -19 104 -19q103 0 103 76q0 39 -44 62t-128 26l45 139q-220 3 -371 94q3 74 19 132q162 -93 366 -93q155 0 243.5 66.5t88.5 183.5
q0 110 -64 172.5t-213 120.5l-104 41q-159 60 -243.5 152.5t-84.5 244.5q0 174 117.5 269.5t339.5 95.5q189 0 354 -70q-4 -59 -24 -129q-160 68 -326 68q-149 0 -227 -62.5t-78 -169.5q0 -112 60.5 -170t199.5 -108l109 -41q60 -23 106.5 -47t92 -59t75.5 -76.5t48 -99
t18 -126.5z" />
    <glyph glyph-name="scedilla" unicode="&#x15f;" horiz-adv-x="890" 
d="M799 268q0 -117 -81.5 -194t-230.5 -94l-28 -84q155 -42 155 -154q0 -76 -50.5 -119t-147.5 -43q-61 0 -125 23q3 54 14 82q55 -19 105 -19q102 0 102 76q0 39 -44 62t-128 26l47 145q-172 6 -291 74q2 58 23 125q63 -36 142 -56t145 -20q116 0 178.5 41t62.5 117
q0 70 -42.5 110t-141.5 70l-88 27q-129 41 -200 110.5t-71 188.5q0 131 95 203.5t266 72.5q167 0 295 -49q-3 -57 -21 -121q-127 47 -266 47q-106 0 -163.5 -37.5t-57.5 -109.5q0 -68 45.5 -110t144.5 -72l88 -29q139 -44 204 -111.5t65 -177.5z" />
    <glyph glyph-name="Scaron" unicode="&#x160;" horiz-adv-x="1050" 
d="M823 1817l-198 -246q-36 -8 -93 -8q-51 0 -90 8l-196 246h57q118 -32 229 -166q114 131 240 166h51zM475 -31q-106 0 -207.5 24.5t-175.5 69.5q3 74 19 132q162 -93 366 -93q155 0 243.5 66.5t88.5 183.5q0 110 -64 172.5t-213 120.5l-104 41q-159 60 -243.5 152.5
t-84.5 244.5q0 174 117.5 269.5t339.5 95.5q189 0 354 -70q-4 -59 -24 -129q-160 68 -326 68q-149 0 -227 -62.5t-78 -169.5q0 -112 60.5 -170t199.5 -108l109 -41q60 -23 106.5 -47t92 -59t75.5 -76.5t48 -99t18 -126.5q0 -175 -127 -282t-363 -107z" />
    <glyph glyph-name="scaron" unicode="&#x161;" horiz-adv-x="890" 
d="M444 1190q-43 0 -73 6l-195 293h86q47 -37 85 -77t97 -118q100 123 195 195h72l-191 -291q-31 -8 -76 -8zM530 557q139 -44 204 -111.5t65 -177.5q0 -132 -101.5 -212.5t-283.5 -80.5q-189 0 -318 74q2 58 23 125q63 -36 142 -56t145 -20q116 0 178.5 41t62.5 117
q0 70 -42.5 110t-141.5 70l-88 27q-129 41 -200 110.5t-71 188.5q0 131 95 203.5t266 72.5q167 0 295 -49q-3 -57 -21 -121q-127 47 -266 47q-106 0 -163.5 -37.5t-57.5 -109.5q0 -68 45.5 -110t144.5 -72z" />
    <glyph glyph-name="uni0162" unicode="&#x162;" horiz-adv-x="1042" 
d="M594 0h-25l-34 -104q155 -42 155 -154q0 -76 -50.5 -119t-147.5 -43q-61 0 -125 23q3 54 14 82q55 -19 104 -19q103 0 103 76q0 39 -44 62t-128 26l55 170h-29v1280h-428q0 67 17 137h997q-4 -77 -16 -137h-418v-1280z" />
    <glyph glyph-name="uni0163" unicode="&#x163;" horiz-adv-x="684" 
d="M299 297q0 -103 43 -148t129 -45t156 37q-5 -56 -19 -129q-75 -34 -162 -37l-26 -79q155 -42 155 -154q0 -76 -50.5 -119t-147.5 -43q-61 0 -125 23q3 54 14 82q55 -19 105 -19q102 0 102 76q0 39 -44 62t-128 26l51 154q-200 47 -200 299v1011q68 23 147 23v-303h332
q-3 -60 -15 -123h-317v-594z" />
    <glyph glyph-name="Tcaron" unicode="&#x164;" horiz-adv-x="1042" 
d="M518 1563q-51 0 -90 8l-197 246h58q118 -32 229 -166q114 131 240 166h51l-199 -246q-36 -8 -92 -8zM1028 1417q-4 -77 -16 -137h-418v-1280h-152v1280h-428q0 67 17 137h997z" />
    <glyph glyph-name="tcaron" unicode="&#x165;" horiz-adv-x="684" 
d="M688 1442q-16 -210 -127 -350h-43q22 151 25 325q79 23 145 25zM616 891h-317v-594q0 -103 43 -148t129 -45t156 37q-5 -56 -19 -129q-78 -37 -170 -37q-134 0 -210 75.5t-76 232.5v1011q68 23 147 23v-303h332q-3 -60 -15 -123z" />
    <glyph glyph-name="Tbar" unicode="&#x166;" horiz-adv-x="1042" 
d="M1012 1280h-418v-481h309q-4 -82 -12 -119h-297v-680h-152v680h-282q0 57 10 119h272v481h-428q0 67 17 137h997q-4 -77 -16 -137z" />
    <glyph glyph-name="tbar" unicode="&#x167;" horiz-adv-x="684" 
d="M299 297q0 -103 43 -148t129 -45t156 37q-5 -56 -19 -129q-78 -37 -170 -37q-134 0 -210 75.5t-76 232.5v264h-181q3 52 15 100h166v647q68 23 147 23v-303h332q-3 -60 -15 -123h-317v-244h293q-4 -58 -14 -100h-279v-250z" />
    <glyph glyph-name="Utilde" unicode="&#x168;" horiz-adv-x="1337" 
d="M817 1540q-41 0 -99.5 33t-108.5 66.5t-70 33.5q-21 0 -31 -13t-10 -44v-76h-113v92q0 152 131 152q45 0 103.5 -34t107.5 -67.5t70 -33.5q45 0 45 57v78h112v-96q0 -148 -137 -148zM668 -31q-232 0 -368 134.5t-136 355.5v950q90 23 151 23v-967q0 -171 94 -265t259 -94
q167 0 260.5 94t93.5 267v942q90 23 152 23v-973q0 -221 -136 -355.5t-370 -134.5z" />
    <glyph glyph-name="utilde" unicode="&#x169;" horiz-adv-x="1103" 
d="M406 1290v-71h-89v100q0 125 107 125q30 0 67 -21t64.5 -45.5t56 -45.5t43.5 -21q39 0 39 59v74h86v-101q0 -126 -110 -126q-37 0 -85 33.5t-88.5 66.5t-58.5 33q-19 0 -25.5 -13t-6.5 -47zM795 1014h147v-1014h-137l-8 160q-113 -185 -318 -185q-160 0 -243.5 93
t-83.5 260v686h149v-641q0 -140 56 -207.5t175 -67.5q151 0 261 127l2 -2v791z" />
    <glyph glyph-name="Umacron" unicode="&#x16a;" horiz-adv-x="1337" 
d="M418 1632q4 64 16 111h488q-7 -65 -17 -111h-487zM668 -31q-232 0 -368 134.5t-136 355.5v950q90 23 151 23v-967q0 -171 94 -265t259 -94q167 0 260.5 94t93.5 267v942q90 23 152 23v-973q0 -221 -136 -355.5t-370 -134.5z" />
    <glyph glyph-name="umacron" unicode="&#x16b;" horiz-adv-x="1103" 
d="M795 1403q-3 -61 -17 -115h-479q3 51 16 115h480zM795 1014h147v-1014h-137l-8 160q-113 -185 -318 -185q-160 0 -243.5 93t-83.5 260v686h149v-641q0 -140 56 -207.5t175 -67.5q151 0 261 127l2 -2v791z" />
    <glyph glyph-name="Ubreve" unicode="&#x16c;" horiz-adv-x="1337" 
d="M670 1561q-122 0 -192.5 61.5t-88.5 167.5q72 10 111 10q35 -137 170 -137q139 0 170 137q36 0 108 -10q-16 -107 -86 -168t-192 -61zM668 -31q-232 0 -368 134.5t-136 355.5v950q90 23 151 23v-967q0 -171 94 -265t259 -94q167 0 260.5 94t93.5 267v942q90 23 152 23
v-973q0 -221 -136 -355.5t-370 -134.5z" />
    <glyph glyph-name="ubreve" unicode="&#x16d;" horiz-adv-x="1103" 
d="M547 1184q-125 0 -192.5 75.5t-80.5 198.5q48 10 107 10q10 -81 51 -129.5t115 -48.5q75 0 117 48t51 130q67 0 106 -10q-15 -122 -83 -198t-191 -76zM795 1014h147v-1014h-137l-8 160q-113 -185 -318 -185q-160 0 -243.5 93t-83.5 260v686h149v-641q0 -140 56 -207.5
t175 -67.5q151 0 261 127l2 -2v791z" />
    <glyph glyph-name="Uring" unicode="&#x16e;" horiz-adv-x="1337" 
d="M672 1528q-89 0 -147 53.5t-58 136.5t58.5 137t146.5 54q86 0 144 -54.5t58 -136.5t-57 -136t-145 -54zM672 1610q49 0 79.5 30t30.5 78q0 46 -31.5 77.5t-78.5 31.5q-49 0 -81 -31t-32 -78q0 -48 31 -78t82 -30zM668 -31q-232 0 -368 134.5t-136 355.5v950q90 23 151 23
v-967q0 -171 94 -265t259 -94q167 0 260.5 94t93.5 267v942q90 23 152 23v-973q0 -221 -136 -355.5t-370 -134.5z" />
    <glyph glyph-name="uring" unicode="&#x16f;" horiz-adv-x="1103" 
d="M549 1167q-86 0 -144.5 56t-58.5 141q0 88 58.5 143.5t144.5 55.5q87 0 145 -56t58 -143q0 -86 -57.5 -141.5t-145.5 -55.5zM549 1477q-49 0 -79 -32.5t-30 -80.5q0 -47 30.5 -80t78.5 -33q50 0 79 32.5t29 80.5t-29.5 80.5t-78.5 32.5zM795 1014h147v-1014h-137l-8 160
q-113 -185 -318 -185q-160 0 -243.5 93t-83.5 260v686h149v-641q0 -140 56 -207.5t175 -67.5q151 0 261 127l2 -2v791z" />
    <glyph glyph-name="Uhungarumlaut" unicode="&#x170;" horiz-adv-x="1337" 
d="M424 1563l149 235q31 10 97 10q53 0 69 -4q-35 -77 -121 -150.5t-169 -90.5h-25zM694 1563l148 235q34 10 96 10q56 0 72 -4q-37 -78 -122.5 -150.5t-170.5 -90.5h-23zM668 -31q-232 0 -368 134.5t-136 355.5v950q90 23 151 23v-967q0 -171 94 -265t259 -94
q167 0 260.5 94t93.5 267v942q90 23 152 23v-973q0 -221 -136 -355.5t-370 -134.5z" />
    <glyph glyph-name="uhungarumlaut" unicode="&#x171;" horiz-adv-x="1103" 
d="M610 1497q-61 -140 -129.5 -214t-150.5 -105h-17l138 297q61 22 159 22zM602 1178h-16l139 297q58 22 156 22q-110 -263 -279 -319zM795 1014h147v-1014h-137l-8 160q-113 -185 -318 -185q-160 0 -243.5 93t-83.5 260v686h149v-641q0 -140 56 -207.5t175 -67.5
q151 0 261 127l2 -2v791z" />
    <glyph glyph-name="Uogonek" unicode="&#x172;" horiz-adv-x="1337" 
d="M1022 1409q90 23 152 23v-973q0 -156 -70.5 -272t-198.5 -173q-77 -50 -112 -110t-35 -113q0 -108 108 -108q40 0 97 20q-2 -16 -4 -31.5t-5.5 -35.5t-5.5 -35q-47 -19 -104 -19q-95 0 -150 49t-55 138q0 114 104 204q-50 -4 -75 -4q-232 0 -368 134.5t-136 355.5v950
q90 23 151 23v-967q0 -171 94 -265t259 -94q167 0 260.5 94t93.5 267v942z" />
    <glyph glyph-name="uogonek" unicode="&#x173;" horiz-adv-x="1103" 
d="M860 -338q36 0 96 21q-4 -33 -14 -103q-45 -18 -104 -18q-95 0 -150 48.5t-55 137.5q0 143 172 256l-8 156q-113 -185 -318 -185q-160 0 -243.5 93t-83.5 260v686h149v-641q0 -140 56 -207.5t175 -67.5q151 0 261 127l2 -2v791h147v-1014h-35q-81 -51 -118 -113t-37 -116
q0 -109 108 -109z" />
    <glyph glyph-name="Wcircumflex" unicode="&#x174;" horiz-adv-x="1906" 
d="M952 1729q-112 -131 -237 -166h-51l198 245q50 11 90 11q39 0 92 -11l197 -245h-57q-115 31 -232 166zM1704 1417h158l-412 -1417h-180l-318 1167l-317 -1167h-182l-408 1417h162l338 -1261l338 1261h145l338 -1257z" />
    <glyph glyph-name="wcircumflex" unicode="&#x175;" horiz-adv-x="1589" 
d="M795 1391q-100 -127 -195 -195h-72l191 291q31 8 78 8q41 0 71 -6l195 -293h-86q-48 38 -86 77t-96 118zM1413 1014h148l-347 -1014h-143l-274 811l-279 -811h-135l-354 1014h155l273 -852l274 852h133l287 -860z" />
    <glyph glyph-name="Ycircumflex" unicode="&#x176;" horiz-adv-x="1062" 
d="M532 1729q-112 -131 -237 -166h-51l198 245q49 11 90 11q40 0 93 -11l196 -245h-57q-115 31 -232 166zM1069 1417l-461 -866v-551h-151v551l-463 866h166l375 -731l374 731h160z" />
    <glyph glyph-name="ycircumflex" unicode="&#x177;" horiz-adv-x="968" 
d="M483 1391q-101 -128 -194 -195h-72l191 291q31 8 77 8q42 0 72 -6l195 -293h-86q-49 39 -87 78t-96 117zM801 1014h149l-407 -1145q-59 -167 -142.5 -247.5t-210.5 -80.5q-41 0 -86 10q3 77 11 127q32 -8 59 -8q93 0 152 57.5t108 209.5l-416 1077h158l324 -897z" />
    <glyph glyph-name="Ydieresis" unicode="&#x178;" horiz-adv-x="1062" 
d="M340 1587q-43 0 -69.5 26.5t-26.5 69.5q0 41 27.5 68t68.5 27q40 0 67 -27t27 -68q0 -42 -27 -69t-67 -27zM725 1587q-42 0 -69 27t-27 69q0 41 27.5 68t68.5 27t66.5 -26.5t25.5 -68.5q0 -43 -25.5 -69.5t-66.5 -26.5zM1069 1417l-461 -866v-551h-151v551l-463 866h166
l375 -731l374 731h160z" />
    <glyph glyph-name="Zacute" unicode="&#x179;" horiz-adv-x="1087" 
d="M764 1792q-56 -80 -139.5 -144.5t-171.5 -82.5h-29l139 231q33 10 96 10q67 0 105 -14zM279 137h745q-12 -116 -16 -137h-922q0 48 10 113l715 1167h-737q4 79 18 137h914q0 -47 -13 -110z" />
    <glyph glyph-name="zacute" unicode="&#x17a;" horiz-adv-x="946" 
d="M653 1499q-28 -106 -101 -195.5t-159 -121.5h-12l92 288q71 29 180 29zM279 127h585q-8 -89 -18 -127h-760q0 63 4 94l555 793h-551q7 81 19 127h731q0 -51 -8 -90z" />
    <glyph glyph-name="Zdotaccent" unicode="&#x17b;" horiz-adv-x="1087" 
d="M539 1585q-41 0 -68 26.5t-27 69.5t27 70t68 27t67.5 -27t26.5 -70q0 -44 -26 -70t-68 -26zM279 137h745q-12 -116 -16 -137h-922q0 48 10 113l715 1167h-737q4 79 18 137h914q0 -47 -13 -110z" />
    <glyph glyph-name="zdotaccent" unicode="&#x17c;" horiz-adv-x="946" 
d="M469 1245q-42 0 -70 28.5t-28 72.5q0 45 28 72.5t70 27.5q43 0 69.5 -27.5t26.5 -72.5q0 -44 -26.5 -72.5t-69.5 -28.5zM279 127h585q-8 -89 -18 -127h-760q0 63 4 94l555 793h-551q7 81 19 127h731q0 -51 -8 -90z" />
    <glyph glyph-name="Zcaron" unicode="&#x17d;" horiz-adv-x="1087" 
d="M537 1563q-52 0 -91 8l-196 246h57q119 -32 230 -166q114 131 239 166h51l-198 -246q-36 -8 -92 -8zM279 137h745q-12 -116 -16 -137h-922q0 48 10 113l715 1167h-737q4 79 18 137h914q0 -47 -13 -110z" />
    <glyph glyph-name="zcaron" unicode="&#x17e;" horiz-adv-x="946" 
d="M471 1190q-44 0 -74 6l-194 293h86q47 -37 85 -77t97 -118q100 123 195 195h71l-190 -291q-31 -8 -76 -8zM279 127h585q-8 -89 -18 -127h-760q0 63 4 94l555 793h-551q7 81 19 127h731q0 -51 -8 -90z" />
    <glyph glyph-name="longs" unicode="&#x17f;" horiz-adv-x="659" 
d="M162 0v1116q0 332 344 332q83 0 160 -23q0 -45 -13 -129q-64 23 -139 23q-107 0 -156 -54t-49 -171v-1094h-147z" />
    <glyph glyph-name="uni018F" unicode="&#x18f;" horiz-adv-x="1292" 
d="M580 1448q614 0 614 -748q0 -222 -58 -383.5t-183.5 -254.5t-309.5 -93q-113 0 -204 35t-153.5 97.5t-104.5 152t-61.5 195.5t-19.5 231v70h938q-9 281 -119 420t-350 139q-224 0 -409 -113q0 103 16 150q167 102 404 102zM643 109q187 0 284 131.5t109 375.5h-778
q9 -248 106 -377.5t279 -129.5z" />
    <glyph glyph-name="florin" unicode="&#x192;" horiz-adv-x="792" 
d="M625 1319q-87 0 -119.5 -46.5t-32.5 -146.5v-184h252q-10 -94 -14 -119h-238v-534q0 -314 -293 -314q-71 0 -145 23q3 70 12 127q71 -23 123 -23q156 0 156 195v526h-220v119h220v191q0 315 286 315q72 0 146 -23q-3 -63 -13 -129q-61 23 -120 23z" />
    <glyph glyph-name="Aringacute" unicode="&#x1fa;" horiz-adv-x="1163" 
d="M809 2241q-56 -81 -139.5 -145.5t-171.5 -82.5h-29l139 232q33 10 97 10q66 0 104 -14zM586 1528q-89 0 -147 53.5t-58 136.5t58.5 137t146.5 54q86 0 144 -54.5t58 -136.5t-57 -136t-145 -54zM586 1827q-49 0 -81 -31t-32 -78q0 -48 31 -78t82 -30q49 0 79.5 30t30.5 78
q0 46 -31.5 77.5t-78.5 31.5zM983 0l-117 369h-575l-119 -369h-147l460 1405q61 20 185 20l469 -1425h-156zM334 502h491l-245 772z" />
    <glyph glyph-name="aringacute" unicode="&#x1fb;" horiz-adv-x="1032" 
d="M692 1982q-28 -106 -101 -195.5t-159 -121.5h-12l92 289q69 28 180 28zM510 1167q-86 0 -144.5 56t-58.5 141q0 88 58.5 143.5t144.5 55.5q87 0 145 -56t58 -143q0 -86 -57.5 -141.5t-145.5 -55.5zM510 1477q-49 0 -79 -32.5t-30 -80.5q0 -47 30.5 -80t78.5 -33
q50 0 79 32.5t29 80.5t-29.5 80.5t-78.5 32.5zM508 1038q184 0 273 -82.5t89 -250.5v-705h-137l-8 147q-44 -79 -123 -125.5t-190 -46.5q-145 0 -233.5 80.5t-88.5 220.5q0 85 29.5 147.5t97 111t182 78t279.5 40.5l45 2v45q0 114 -56.5 164.5t-177.5 50.5q-188 0 -339 -79
q0 62 10 127q143 75 348 75zM440 96q87 0 164 38.5t119 98.5v312l-37 -2q-109 -9 -188.5 -25t-129.5 -38t-79.5 -53t-41 -64.5t-11.5 -77.5q0 -86 53.5 -137.5t150.5 -51.5z" />
    <glyph glyph-name="AEacute" unicode="&#x1fc;" horiz-adv-x="1736" 
d="M1393 1792q-56 -80 -140 -144.5t-172 -82.5h-28l139 231q33 10 96 10q67 0 105 -14zM1006 137h639q-4 -84 -17 -137h-774v383h-528q-78 -166 -172 -383h-160q146 344 352.5 726.5t409.5 690.5h884q0 -75 -16 -137h-618v-489h565q-3 -68 -17 -138h-548v-516zM391 516h463
v764h-31q-208 -312 -432 -764z" />
    <glyph glyph-name="aeacute" unicode="&#x1fd;" horiz-adv-x="1646" 
d="M1008 1499q-28 -106 -101 -195.5t-159 -121.5h-13l92 288q71 29 181 29zM1546 600q0 -65 -8 -115h-688q7 -200 96.5 -293.5t255.5 -93.5q170 0 307 88q-3 -68 -22 -137q-135 -74 -293 -74q-269 0 -395 170q-58 -78 -155 -124t-224 -46q-151 0 -240.5 74t-89.5 205
q0 81 29 141t94 105t173 70.5t261 31.5l53 2q13 73 13 113q0 107 -62.5 154t-189.5 47q-157 0 -314 -82q4 68 13 127q137 75 334 75q244 0 325 -135q116 135 320 135q199 0 303 -120t104 -318zM1135 915q-123 0 -194.5 -81.5t-86.5 -231.5h541v2q0 141 -65 226t-195 85z
M438 98q101 0 181.5 38t128.5 100q-47 109 -50 251l-51 -2q-118 -4 -199.5 -21t-127 -47.5t-65 -68.5t-19.5 -90q0 -77 54 -118.5t148 -41.5z" />
    <glyph glyph-name="Oslashacute" unicode="&#x1fe;" horiz-adv-x="1402" 
d="M924 1792q-56 -80 -140 -144.5t-172 -82.5h-28l139 231q33 10 96 10q67 0 105 -14zM1163 1227q142 -195 142 -518q0 -345 -158 -542.5t-442 -197.5q-239 0 -386 135l-157 -210q-44 54 -60 104l142 188q-144 198 -144 523q0 340 158.5 539.5t441.5 199.5q234 0 385 -135
l156 207q38 -54 53 -117zM256 709q0 -241 84 -394l657 879q-114 117 -297 117q-214 0 -329 -157.5t-115 -444.5zM705 106q216 0 329 155.5t113 447.5q0 237 -82 389l-657 -875q114 -117 297 -117z" />
    <glyph glyph-name="oslashacute" unicode="&#x1ff;" horiz-adv-x="1087" 
d="M729 1499q-28 -106 -101 -195.5t-159 -121.5h-12l92 288q71 29 180 29zM885 891q116 -140 116 -385q0 -248 -120 -389.5t-338 -141.5q-152 0 -262 74l-119 -166q-50 58 -62 101l101 141q-115 136 -115 381q0 248 119 390t338 142q154 0 260 -71l117 163q50 -72 57 -110z
M240 506q0 -160 51 -256l434 606q-71 59 -182 59q-150 0 -226.5 -107.5t-76.5 -301.5zM543 98q150 0 228.5 107.5t78.5 300.5q0 159 -53 262l-437 -608q71 -62 183 -62z" />
    <glyph glyph-name="uni0218" unicode="&#x218;" horiz-adv-x="1050" 
d="M475 -31q-106 0 -207.5 24.5t-175.5 69.5q3 74 19 132q162 -93 366 -93q155 0 243.5 66.5t88.5 183.5q0 110 -64 172.5t-213 120.5l-104 41q-159 60 -243.5 152.5t-84.5 244.5q0 174 117.5 269.5t339.5 95.5q189 0 354 -70q-4 -59 -24 -129q-160 68 -326 68
q-149 0 -227 -62.5t-78 -169.5q0 -112 60.5 -170t199.5 -108l109 -41q60 -23 106.5 -47t92 -59t75.5 -76.5t48 -99t18 -126.5q0 -175 -127 -282t-363 -107zM426 -492q22 156 25 338q77 25 145 25q-16 -220 -127 -363h-43z" />
    <glyph glyph-name="uni0219" unicode="&#x219;" horiz-adv-x="890" 
d="M414 -25q-189 0 -318 74q2 58 23 125q63 -36 142 -56t145 -20q116 0 178.5 41t62.5 117q0 70 -42.5 110t-141.5 70l-88 27q-129 41 -200 110.5t-71 188.5q0 131 95 203.5t266 72.5q167 0 295 -49q-3 -57 -21 -121q-127 47 -266 47q-106 0 -163.5 -37.5t-57.5 -109.5
q0 -68 45.5 -110t144.5 -72l88 -29q139 -44 204 -111.5t65 -177.5q0 -132 -101.5 -212.5t-283.5 -80.5zM348 -492q22 156 25 338q77 25 145 25q-16 -220 -127 -363h-43z" />
    <glyph glyph-name="uni021A" unicode="&#x21a;" horiz-adv-x="1042" 
d="M1028 1417q-4 -77 -16 -137h-418v-1280h-152v1280h-428q0 67 17 137h997zM422 -492q21 148 24 338q77 25 146 25q-16 -220 -127 -363h-43z" />
    <glyph glyph-name="uni021B" unicode="&#x21b;" horiz-adv-x="684" 
d="M299 297q0 -103 43 -148t129 -45t156 37q-5 -56 -19 -129q-78 -37 -170 -37q-134 0 -210 75.5t-76 232.5v1011q68 23 147 23v-303h332q-3 -60 -15 -123h-317v-594zM307 -492q22 156 25 338q77 25 145 25q-16 -220 -127 -363h-43z" />
    <glyph glyph-name="uni0237" unicode="&#x237;" horiz-adv-x="471" 
d="M41 -465q-62 0 -117 19q2 31 15 118q45 -10 81 -10q71 0 106.5 38t35.5 122v1192h147v-1184q0 -152 -66.5 -223.5t-201.5 -71.5z" />
    <glyph glyph-name="uni0259" unicode="&#x259;" horiz-adv-x="1034" 
d="M453 1038q245 0 370 -140t125 -398q0 -90 -16.5 -168t-51 -144t-86 -113t-125.5 -73.5t-165 -26.5q-199 0 -302.5 123t-103.5 330q0 77 8 127h689q-12 188 -101.5 274t-251.5 86q-168 0 -305 -88q4 74 21 138q133 73 295 73zM510 98q128 0 200.5 88.5t84.5 247.5h-545v-8
q0 -150 65 -239t195 -89z" />
    <glyph glyph-name="circumflex" unicode="&#x2c6;" horiz-adv-x="739" 
d="M442 1489l195 -293h-86q-48 38 -86 77t-96 118q-100 -127 -195 -195h-72l191 291q31 8 78 8q41 0 71 -6z" />
    <glyph glyph-name="caron" unicode="&#x2c7;" horiz-adv-x="739" 
d="M565 1489h72l-191 -291q-31 -8 -75 -8t-74 6l-195 293h86q47 -37 85.5 -77t97.5 -118q60 74 103.5 116.5t90.5 78.5z" />
    <glyph glyph-name="uni02C9" unicode="&#x2c9;" horiz-adv-x="700" 
d="M102 1288q3 45 17 115h479q-3 -66 -16 -115h-480z" />
    <glyph glyph-name="breve" unicode="&#x2d8;" horiz-adv-x="751" 
d="M375 1184q-125 0 -192.5 75.5t-80.5 198.5q48 10 107 10q10 -81 51 -129.5t115 -48.5q75 0 117 48t51 130q67 0 106 -10q-15 -122 -83 -198t-191 -76z" />
    <glyph glyph-name="dotaccent" unicode="&#x2d9;" horiz-adv-x="399" 
d="M201 1245q-42 0 -70.5 28.5t-28.5 72.5q0 45 28.5 72.5t70.5 27.5q43 0 69.5 -27.5t26.5 -72.5q0 -44 -26.5 -72.5t-69.5 -28.5z" />
    <glyph glyph-name="ring" unicode="&#x2da;" horiz-adv-x="610" 
d="M305 1167q-86 0 -144.5 56t-58.5 141q0 88 58.5 143.5t144.5 55.5q87 0 145 -56t58 -143q0 -86 -57.5 -141.5t-145.5 -55.5zM305 1251q51 0 80 32.5t29 80.5q0 47 -30 80t-79 33q-48 0 -78 -32.5t-30 -80.5q0 -47 30 -80t78 -33z" />
    <glyph glyph-name="ogonek" unicode="&#x2db;" horiz-adv-x="528" 
d="M307 -438q-95 0 -150 48.5t-55 137.5q0 161 213 281l62 -29q-81 -51 -118.5 -113t-37.5 -116q0 -109 109 -109q36 0 96 21q-4 -33 -14 -103q-45 -18 -105 -18z" />
    <glyph glyph-name="tilde" unicode="&#x2dc;" horiz-adv-x="667" 
d="M455 1217q-37 0 -85 33.5t-88.5 66.5t-58.5 33q-19 0 -26 -13t-7 -47v-71h-88v100q0 125 107 125q30 0 67 -21t64.5 -45.5t56 -45.5t43.5 -21q39 0 39 59v74h86v-101q0 -126 -110 -126z" />
    <glyph glyph-name="hungarumlaut" unicode="&#x2dd;" horiz-adv-x="772" 
d="M102 1178l138 297q61 22 159 22q-61 -140 -129.5 -214t-150.5 -105h-17zM375 1178l139 297q58 22 156 22q-110 -263 -279 -319h-16z" />
    <glyph glyph-name="gravecomb" unicode="&#x300;" horiz-adv-x="0" 
d="M-102 1182h-13q-87 32 -159.5 121t-100.5 196q106 0 180 -29z" />
    <glyph glyph-name="acutecomb" unicode="&#x301;" horiz-adv-x="0" 
d="M-375 1182l92 288q71 29 181 29q-28 -106 -101 -195.5t-159 -121.5h-13z" />
    <glyph glyph-name="uni0302" unicode="&#x302;" horiz-adv-x="0" 
d="M-297 1489l195 -293h-86q-49 39 -87 78t-96 117q-101 -128 -194 -195h-72l191 291q31 8 77 8q42 0 72 -6z" />
    <glyph glyph-name="tildecomb" unicode="&#x303;" horiz-adv-x="0" 
d="M-213 1217q-37 0 -84.5 33.5t-88 66.5t-58.5 33q-19 0 -26 -13t-7 -47v-71h-88v100q0 125 106 125q30 0 67 -21t65 -45.5t56.5 -45.5t43.5 -21q39 0 39 59v74h86v-101q0 -126 -111 -126z" />
    <glyph glyph-name="uni0304" unicode="&#x304;" horiz-adv-x="0" 
d="M-598 1288q3 51 16 115h480q-3 -61 -17 -115h-479z" />
    <glyph glyph-name="uni0306" unicode="&#x306;" horiz-adv-x="0" 
d="M-377 1184q-125 0 -192 75.5t-80 198.5q48 10 106 10q10 -81 51 -129.5t115 -48.5q75 0 117 48t51 130q68 0 107 -10q-15 -122 -83.5 -198t-191.5 -76z" />
    <glyph glyph-name="uni0307" unicode="&#x307;" horiz-adv-x="0" 
d="M-199 1245q-42 0 -70 28.5t-28 72.5q0 45 28 72.5t70 27.5q43 0 70 -27.5t27 -72.5q0 -44 -27 -72.5t-70 -28.5z" />
    <glyph glyph-name="uni0308" unicode="&#x308;" horiz-adv-x="0" 
d="M-543 1251q-41 0 -67.5 27t-26.5 70q0 42 26 68t68 26q40 0 66 -26t26 -68q0 -43 -26 -70t-66 -27zM-195 1251q-41 0 -67.5 27t-26.5 70q0 42 26 68t68 26q40 0 66.5 -26t26.5 -68t-26.5 -69.5t-66.5 -27.5z" />
    <glyph glyph-name="uni030A" unicode="&#x30a;" horiz-adv-x="0" 
d="M-305 1167q-86 0 -144.5 56t-58.5 141q0 88 58.5 143.5t144.5 55.5q87 0 145 -56t58 -143q0 -86 -57.5 -141.5t-145.5 -55.5zM-305 1251q50 0 79 32.5t29 80.5t-29.5 80.5t-78.5 32.5t-79 -32.5t-30 -80.5q0 -47 30.5 -80t78.5 -33z" />
    <glyph glyph-name="uni030B" unicode="&#x30b;" horiz-adv-x="0" 
d="M-670 1178l138 297q61 22 159 22q-61 -140 -129.5 -214t-150.5 -105h-17zM-397 1178l139 297q58 22 156 22q-110 -263 -279 -319h-16z" />
    <glyph glyph-name="uni030C" unicode="&#x30c;" horiz-adv-x="0" 
d="M-174 1489h72l-191 -291q-31 -8 -76 -8q-43 0 -73 6l-195 293h86q47 -37 85 -77t97 -118q100 123 195 195z" />
    <glyph glyph-name="uni0313" unicode="&#x313;" horiz-adv-x="0" 
d="M-272 1106q21 145 24 336q73 24 146 24q-16 -216 -127 -360h-43z" />
    <glyph glyph-name="uni0326" unicode="&#x326;" horiz-adv-x="0" 
d="M-272 -492q21 148 24 338q77 25 146 25q-16 -220 -127 -363h-43z" />
    <glyph glyph-name="uni0327" unicode="&#x327;" horiz-adv-x="0" 
d="M-258 -104q156 -42 156 -154q0 -75 -51 -118.5t-148 -43.5q-61 0 -125 23q3 54 14 82q55 -19 105 -19q102 0 102 76q0 39 -44 62t-128 26l64 193l96 -7z" />
    <glyph glyph-name="uni0328" unicode="&#x328;" horiz-adv-x="0" 
d="M-221 -438q-95 0 -150 48.5t-55 137.5q0 161 213 281l61 -29q-81 -51 -118 -113t-37 -116q0 -109 108 -109q37 0 97 21q0 -2 -15 -103q-45 -18 -104 -18z" />
    <glyph glyph-name="uni0394" unicode="&#x394;" 
d="M649 1425l438 -1425h-1048l430 1405q82 20 180 20zM225 133h666l-330 1133z" />
    <glyph glyph-name="uni0394" unicode="&#x3b4;" 
d="M649 1425l438 -1425h-1048l430 1405q82 20 180 20zM225 133h666l-330 1133z" />
    <glyph glyph-name="uni03A9" unicode="&#x3a9;" horiz-adv-x="1153" 
d="M754 203l2 -64h268q-4 -83 -14 -139h-357v2h-2v279q246 65 246 505q0 257 -87 392t-237 135t-234.5 -134t-84.5 -386q0 -437 246 -512v-279h-2v-2h-377q0 69 12 139h266l2 62q-136 61 -218.5 216t-82.5 382q0 300 127 474.5t351 174.5q226 0 351.5 -177t125.5 -474
q0 -225 -83.5 -380.5t-217.5 -213.5z" />
    <glyph glyph-name="uni03A9" unicode="&#x3c9;" horiz-adv-x="1153" 
d="M754 203l2 -64h268q-4 -83 -14 -139h-357v2h-2v279q246 65 246 505q0 257 -87 392t-237 135t-234.5 -134t-84.5 -386q0 -437 246 -512v-279h-2v-2h-377q0 69 12 139h266l2 62q-136 61 -218.5 216t-82.5 382q0 300 127 474.5t351 174.5q226 0 351.5 -177t125.5 -474
q0 -225 -83.5 -380.5t-217.5 -213.5z" />
    <glyph glyph-name="uni03BC" unicode="&#x3bc;" 
d="M809 1014h147v-1014h-137l-8 160q-113 -185 -317 -185q-113 0 -189 48q8 -192 8 -275v-182h-145v713q-2 14 -2 49v686h149v-641q0 -140 56.5 -207.5t175.5 -67.5q148 0 262 127v789z" />
    <glyph glyph-name="pi" unicode="&#x3c0;" 
d="M883 223q0 -125 112 -125q51 0 92 17q-4 -63 -14 -117q-50 -23 -125 -23q-100 0 -157.5 58.5t-57.5 169.5v690h-385v-895h-147v895h-189q3 61 15 121h1065q-2 -56 -15 -121h-194v-670z" />
    <glyph glyph-name="uni0E3F" unicode="&#xe3f;" 
d="M963 389q0 -168 -108 -275t-298 -114v-264h-98v264h-295v1417q148 31 293 31h2v192q44 23 98 23v-221q183 -20 272 -113t89 -248q0 -119 -57 -203t-156 -124q128 -36 193 -133t65 -232zM459 1319q-72 0 -150 -10v-506h150v516zM770 1059q0 215 -213 252v-504
q94 13 153.5 75t59.5 177zM309 127h150v547h-150v-547zM557 129q118 9 188 77t70 193q0 118 -68 188.5t-190 84.5v-543z" />
    <glyph glyph-name="Wgrave" unicode="&#x1e80;" horiz-adv-x="1906" 
d="M1090 1565q-87 18 -170.5 82.5t-139.5 144.5q35 14 105 14q63 0 96 -10l139 -231h-30zM1704 1417h158l-412 -1417h-180l-318 1167l-317 -1167h-182l-408 1417h162l338 -1261l338 1261h145l338 -1257z" />
    <glyph glyph-name="wgrave" unicode="&#x1e81;" horiz-adv-x="1589" 
d="M883 1182q-87 32 -159.5 121t-100.5 196q106 0 180 -29l92 -288h-12zM1413 1014h148l-347 -1014h-143l-274 811l-279 -811h-135l-354 1014h155l273 -852l274 852h133l287 -860z" />
    <glyph glyph-name="Wacute" unicode="&#x1e82;" horiz-adv-x="1906" 
d="M1178 1792q-56 -80 -140 -144.5t-172 -82.5h-28l139 231q33 10 96 10q67 0 105 -14zM1704 1417h158l-412 -1417h-180l-318 1167l-317 -1167h-182l-408 1417h162l338 -1261l338 1261h145l338 -1257z" />
    <glyph glyph-name="wacute" unicode="&#x1e83;" horiz-adv-x="1589" 
d="M979 1499q-28 -106 -101 -195.5t-159 -121.5h-12l92 288q71 29 180 29zM1413 1014h148l-347 -1014h-143l-274 811l-279 -811h-135l-354 1014h155l273 -852l274 852h133l287 -860z" />
    <glyph glyph-name="Wdieresis" unicode="&#x1e84;" horiz-adv-x="1906" 
d="M758 1587q-43 0 -69.5 26.5t-26.5 69.5q0 41 27.5 68t68.5 27q40 0 67 -27t27 -68q0 -42 -27 -69t-67 -27zM1143 1587q-42 0 -69 27t-27 69q0 41 27.5 68t68.5 27t66.5 -26.5t25.5 -68.5q0 -43 -25.5 -69.5t-66.5 -26.5zM1704 1417h158l-412 -1417h-180l-318 1167
l-317 -1167h-182l-408 1417h162l338 -1261l338 1261h145l338 -1257z" />
    <glyph glyph-name="wdieresis" unicode="&#x1e85;" horiz-adv-x="1589" 
d="M621 1251q-41 0 -68 27t-27 70q0 42 26.5 68t68.5 26q40 0 66 -26t26 -68q0 -43 -26 -70t-66 -27zM969 1251q-41 0 -68 27t-27 70q0 42 26.5 68t68.5 26q40 0 66 -26t26 -68q0 -43 -26 -70t-66 -27zM1413 1014h148l-347 -1014h-143l-274 811l-279 -811h-135l-354 1014
h155l273 -852l274 852h133l287 -860z" />
    <glyph glyph-name="uni1E9E" unicode="&#x1e9e;" horiz-adv-x="1351" 
d="M874 838q167 -18 275 -129t108 -293q0 -201 -131 -320t-342 -119q-113 0 -186 25q2 43 14 133q82 -22 164 -22q146 0 235 81t89 224q0 149 -97 224t-249 75h-60q0 51 6 92l330 475h-323q-189 0 -279 -83t-90 -269v-932h-154v946q0 110 27 193.5t87.5 147.5t165 97
t251.5 33h506q0 -52 -13 -112z" />
    <glyph glyph-name="Ygrave" unicode="&#x1ef2;" horiz-adv-x="1062" 
d="M670 1565q-87 18 -170.5 82.5t-139.5 144.5q35 14 105 14q63 0 96 -10l139 -231h-30zM1069 1417l-461 -866v-551h-151v551l-463 866h166l375 -731l374 731h160z" />
    <glyph glyph-name="ygrave" unicode="&#x1ef3;" horiz-adv-x="968" 
d="M573 1182q-87 32 -159.5 121t-100.5 196q107 0 181 -29l92 -288h-13zM801 1014h149l-407 -1145q-59 -167 -142.5 -247.5t-210.5 -80.5q-41 0 -86 10q3 77 11 127q32 -8 59 -8q93 0 152 57.5t108 209.5l-416 1077h158l324 -897z" />
    <glyph glyph-name="uni2011" unicode="&#x2011;" horiz-adv-x="757" 
d="M90 545q0 47 12 129h566q-3 -61 -17 -129h-561z" />
    <glyph glyph-name="endash" unicode="&#x2013;" horiz-adv-x="1112" 
d="M90 545q0 47 12 129h920q0 -61 -14 -129h-918z" />
    <glyph glyph-name="emdash" unicode="&#x2014;" horiz-adv-x="1820" 
d="M90 545q0 43 12 129h1629q-4 -74 -15 -129h-1626z" />
    <glyph glyph-name="quoteleft" unicode="&#x2018;" horiz-adv-x="497" 
d="M369 1444q-61 -256 -66 -483h-137q13 163 33 261t67 203q69 19 103 19z" />
    <glyph glyph-name="quoteright" unicode="&#x2019;" horiz-adv-x="415" 
d="M129 948q50 234 59 469q75 25 146 27q-17 -237 -101 -496h-104z" />
    <glyph glyph-name="quotesinglbase" unicode="&#x201a;" horiz-adv-x="497" 
d="M129 -319q51 234 59 466q74 27 146 27q-17 -238 -101 -493h-104z" />
    <glyph glyph-name="quotedblleft" unicode="&#x201c;" horiz-adv-x="786" 
d="M369 1444q-61 -256 -66 -483h-137q13 163 33 261t67 203q69 19 103 19zM659 1444q-59 -234 -67 -483h-137q15 168 34.5 264.5t65.5 199.5q69 19 104 19z" />
    <glyph glyph-name="quotedblright" unicode="&#x201d;" horiz-adv-x="786" 
d="M129 948q50 234 59 469q75 25 146 27q-17 -237 -101 -496h-104zM418 948q50 234 59 469q75 25 146 27q-17 -237 -101 -496h-104z" />
    <glyph glyph-name="quotedblbase" unicode="&#x201e;" horiz-adv-x="786" 
d="M418 -319q50 234 59 469q71 23 146 26q-17 -236 -101 -495h-104zM129 -322q50 237 59 469q74 27 146 27q-17 -237 -101 -496h-104z" />
    <glyph glyph-name="dagger" unicode="&#x2020;" horiz-adv-x="1112" 
d="M946 1014q0 -63 -16 -125h-316v-891h-125v891h-325q4 76 16 125h309v403h125v-403h332z" />
    <glyph glyph-name="daggerdbl" unicode="&#x2021;" horiz-adv-x="1118" 
d="M621 928v-439h327q-4 -75 -16 -127h-311v-364h-127v364h-328q4 64 16 127h312v439h-324q4 73 14 127h310v362h127v-362h331q-4 -64 -16 -127h-315z" />
    <glyph glyph-name="bullet" unicode="&#x2022;" horiz-adv-x="800" 
d="M403 487q-88 0 -143 54t-55 137t55 137.5t143 54.5t140.5 -54.5t52.5 -137.5t-52.5 -137t-140.5 -54z" />
    <glyph glyph-name="ellipsis" unicode="&#x2026;" horiz-adv-x="1548" 
d="M315 -18q-43 0 -72.5 30.5t-29.5 73.5q0 42 30 72t72 30q43 0 74 -30.5t31 -71.5q0 -43 -31 -73.5t-74 -30.5zM776 -18q-43 0 -72.5 30.5t-29.5 73.5q0 42 30 72t72 30q43 0 74 -30.5t31 -71.5q0 -43 -31 -73.5t-74 -30.5zM1233 -18q-43 0 -74 30.5t-31 73.5
q0 41 31 71.5t74 30.5q42 0 72 -30t30 -72q0 -43 -29.5 -73.5t-72.5 -30.5z" />
    <glyph glyph-name="perthousand" unicode="&#x2030;" horiz-adv-x="2406" 
d="M410 690q-145 0 -222 99.5t-77 281.5q0 183 77 280t222 97q141 0 216.5 -97t75.5 -280q0 -181 -76 -281t-216 -100zM403 -12l730 1429q57 9 143 13l-729 -1430q-74 -12 -144 -12zM410 799q84 0 123.5 67t39.5 205q0 270 -163 270q-87 0 -127.5 -67.5t-40.5 -202.5
q0 -138 40.5 -205t127.5 -67zM1286 -31q-143 0 -220 100.5t-77 282.5t77 279.5t220 97.5t219 -97t76 -280q0 -181 -76.5 -282t-218.5 -101zM2030 -33q-144 0 -221.5 100t-77.5 281q0 183 77 280t222 97q141 0 216.5 -97t75.5 -280q0 -181 -75.5 -281t-216.5 -100zM1286 80
q85 0 124.5 66.5t39.5 203.5q0 273 -164 273q-166 0 -166 -273q0 -137 39.5 -203.5t126.5 -66.5zM2030 76q85 0 124 67t39 205q0 136 -39 203t-124 67q-87 0 -127.5 -67.5t-40.5 -202.5q0 -137 40.5 -204.5t127.5 -67.5z" />
    <glyph glyph-name="guilsinglleft" unicode="&#x2039;" horiz-adv-x="604" 
d="M408 98l-314 465l314 467q57 -15 114 -51l-276 -416l276 -413q-53 -36 -114 -52z" />
    <glyph glyph-name="guilsinglright" unicode="&#x203a;" horiz-adv-x="604" 
d="M197 98q-63 16 -115 52l274 413l-274 416q59 37 115 51l313 -467z" />
    <glyph glyph-name="fraction" unicode="&#x2044;" horiz-adv-x="444" 
d="M-215 -12l731 1429q54 9 141 13l-729 -1430q-74 -12 -143 -12z" />
    <glyph glyph-name="zero.sups" unicode="&#x2070;" horiz-adv-x="829" 
d="M408 934q-152 0 -224.5 92.5t-72.5 280.5q0 187 72 278.5t225 91.5q151 0 222.5 -92t71.5 -278q0 -188 -71.5 -280.5t-222.5 -92.5zM408 1042q91 0 127 61t36 204q0 142 -36 203t-127 61q-92 0 -128 -60.5t-36 -203.5t36 -204t128 -61z" />
    <glyph glyph-name="four.sups" unicode="&#x2074;" horiz-adv-x="710" 
d="M678 1208q-4 -54 -14 -98h-111v-154h-113v154h-395q0 49 8 96q69 121 171.5 248t203.5 213q43 8 125 8v-467h125zM162 1208h278v340q-159 -151 -278 -340z" />
    <glyph glyph-name="five.sups" unicode="&#x2075;" horiz-adv-x="747" 
d="M324 1403q139 0 225 -56.5t86 -170.5q0 -118 -90.5 -181t-249.5 -63q-101 0 -186 16q0 57 14 109q83 -17 166 -17q215 0 215 131q0 129 -219 129q-77 0 -146 -14l33 375h442q0 -61 -8 -107h-317l-17 -153q16 2 52 2z" />
    <glyph glyph-name="six.sups" unicode="&#x2076;" horiz-adv-x="806" 
d="M436 1409q116 0 185 -61t69 -168q0 -110 -73 -179t-201 -69q-150 0 -227.5 93.5t-77.5 260.5q0 191 85 291t257 100q117 0 196 -35q0 -34 -12 -98q-78 33 -182 33q-111 0 -164.5 -65t-59.5 -195q32 44 86 68t119 24zM412 1032q74 0 115.5 38t41.5 99q0 63 -42 101.5
t-119 38.5q-99 0 -175 -64q13 -213 179 -213z" />
    <glyph glyph-name="seven.sups" unicode="&#x2077;" horiz-adv-x="632" 
d="M35 1657h549q0 -40 -9 -96q-220 -324 -303 -605h-129q77 272 293 600h-409q0 55 8 101z" />
    <glyph glyph-name="eight.sups" unicode="&#x2078;" horiz-adv-x="825" 
d="M532 1329q175 -56 175 -192q0 -95 -82 -150t-224 -55q-141 0 -220 50.5t-79 143.5q0 125 172 172q-151 60 -151 187q0 89 75.5 142.5t211.5 53.5q130 0 202 -50t72 -130q0 -61 -36 -103t-116 -69zM408 1587q-81 0 -121.5 -27.5t-40.5 -74.5q0 -93 162 -125l16 -4
q141 40 141 131q0 44 -40.5 72t-116.5 28zM408 1028q84 0 130 30t46 81q0 83 -164 123l-35 8q-158 -41 -158 -131q0 -53 48.5 -82t132.5 -29z" />
    <glyph glyph-name="nine.sups" unicode="&#x2079;" horiz-adv-x="790" 
d="M375 1679q151 0 228 -93t77 -261q0 -191 -85 -291t-257 -100q-118 0 -197 35q0 28 13 98q78 -33 182 -33q112 0 164.5 65t58.5 195q-32 -44 -86 -68t-119 -24q-116 0 -185 61.5t-69 168.5q0 110 73.5 178.5t201.5 68.5zM383 1303q99 0 174 63q-13 213 -178 213
q-74 0 -116 -38.5t-42 -98.5q0 -63 42 -101t120 -38z" />
    <glyph glyph-name="uni207D" unicode="&#x207d;" horiz-adv-x="628" 
d="M328 748q-144 266 -144 591q0 307 144 566q58 -3 110 -33q-123 -252 -123 -533q0 -318 129 -567q-48 -17 -116 -24z" />
    <glyph glyph-name="uni207E" unicode="&#x207e;" horiz-adv-x="628" 
d="M301 770q-66 7 -117 25q129 244 129 567q0 280 -123 532q56 30 111 33q143 -252 143 -565q0 -328 -143 -592z" />
    <glyph glyph-name="uni207F" unicode="&#x207f;" horiz-adv-x="847" 
d="M485 1438q123 0 184.5 -76t61.5 -213v-545h-135v516q0 100 -37 152.5t-121 52.5q-109 0 -186 -98v-623h-133v813h123l10 -135q78 156 233 156z" />
    <glyph glyph-name="zero.subs" unicode="&#x2080;" horiz-adv-x="821" 
d="M408 -457q-152 0 -224.5 92.5t-72.5 280.5q0 187 72 279t225 92q151 0 222.5 -92.5t71.5 -278.5q0 -188 -71.5 -280.5t-222.5 -92.5zM408 -348q91 0 127 60.5t36 203.5q0 142 -36 203t-127 61q-92 0 -128 -60.5t-36 -203.5q0 -144 36 -204t128 -60z" />
    <glyph glyph-name="one.subs" unicode="&#x2081;" horiz-adv-x="610" 
d="M74 221q173 63 323 66v-721h-127v604q-108 -23 -209 -55q0 49 13 106z" />
    <glyph glyph-name="two.subs" unicode="&#x2082;" horiz-adv-x="677" 
d="M203 -338h389q0 -51 -10 -96h-510v41q0 91 48.5 152.5t164.5 125.5q91 50 121 82.5t30 83.5q0 131 -182 131q-97 0 -178 -35q0 44 10 109q96 29 197 29q138 0 211 -57.5t73 -159.5q0 -80 -37 -133.5t-133 -106.5q-93 -51 -138.5 -88.5t-55.5 -77.5z" />
    <glyph glyph-name="three.subs" unicode="&#x2083;" horiz-adv-x="700" 
d="M408 -70q198 -25 198 -174q0 -102 -87 -156.5t-257 -54.5q-91 0 -178 17q0 40 14 98q78 -16 164 -16q111 0 163 27.5t52 88.5q0 63 -53.5 89t-157.5 26h-110q0 63 12 98h82q96 0 148.5 25t52.5 88q0 47 -42.5 72.5t-121.5 25.5q-107 0 -193 -28q0 50 12 100q77 29 191 29
q133 0 207 -48.5t74 -140.5q0 -124 -170 -166z" />
    <glyph glyph-name="four.subs" unicode="&#x2084;" horiz-adv-x="706" 
d="M678 -182q-4 -55 -14 -99h-111v-153h-113v153h-395q0 50 8 97q69 121 171.5 247.5t203.5 212.5q48 9 125 9v-467h125zM162 -182h278v340q-159 -151 -278 -340z" />
    <glyph glyph-name="five.subs" unicode="&#x2085;" horiz-adv-x="733" 
d="M324 12q139 0 225 -56.5t86 -170.5q0 -118 -90.5 -181t-249.5 -63q-96 0 -186 17q0 56 14 108q78 -16 166 -16q215 0 215 131q0 129 -219 129q-77 0 -146 -14l33 374h442q0 -60 -8 -106h-317l-17 -154q16 2 52 2z" />
    <glyph glyph-name="six.subs" unicode="&#x2086;" horiz-adv-x="794" 
d="M436 18q116 0 185 -61t69 -168q0 -110 -73 -179t-201 -69q-150 0 -227.5 94t-77.5 261q0 191 85 291t257 100q117 0 196 -35q0 -34 -12 -98q-75 32 -182 32q-111 0 -164.5 -65t-59.5 -195q32 44 86 68t119 24zM412 -358q74 0 115.5 38t41.5 99q0 63 -41.5 101t-119.5 38
q-100 0 -175 -63q13 -213 179 -213z" />
    <glyph glyph-name="seven.subs" unicode="&#x2087;" horiz-adv-x="616" 
d="M35 266h549q0 -40 -9 -96q-221 -324 -303 -604h-129q77 272 293 600h-409q0 54 8 100z" />
    <glyph glyph-name="eight.subs" unicode="&#x2088;" horiz-adv-x="808" 
d="M532 -61q175 -56 175 -193q0 -95 -82 -150t-224 -55q-141 0 -220 51t-79 144q0 125 172 172q-151 60 -151 186q0 89 75.5 143t211.5 54q130 0 202 -50t72 -130q0 -61 -36 -103t-116 -69zM408 197q-81 0 -121.5 -28t-40.5 -75q0 -93 162 -125l16 -4q141 41 141 131
q0 44 -40.5 72.5t-116.5 28.5zM408 -362q85 0 130.5 29.5t45.5 80.5q0 84 -164 121l-37 8q-156 -38 -156 -129q0 -53 48 -81.5t133 -28.5z" />
    <glyph glyph-name="nine.subs" unicode="&#x2089;" horiz-adv-x="790" 
d="M375 289q150 0 227.5 -93t77.5 -262q0 -189 -85.5 -290t-256.5 -101q-118 0 -197 35q0 31 13 98q78 -30 182 -30q111 0 164 65t59 193q-32 -43 -86.5 -67.5t-118.5 -24.5q-117 0 -185.5 61.5t-68.5 167.5q0 110 73 179t202 69zM381 -86q101 0 176 63q-13 213 -180 213
q-74 0 -115 -38.5t-41 -100.5q0 -63 41 -100t119 -37z" />
    <glyph glyph-name="uni208D" unicode="&#x208d;" horiz-adv-x="628" 
d="M328 -625q-144 266 -144 592q0 306 144 565q60 -3 110 -32q-123 -252 -123 -533q0 -318 129 -567q-52 -18 -116 -25z" />
    <glyph glyph-name="uni208E" unicode="&#x208e;" horiz-adv-x="628" 
d="M301 -625q-66 7 -117 25q129 244 129 567q0 281 -123 533q54 29 111 32q143 -252 143 -565q0 -328 -143 -592z" />
    <glyph glyph-name="uni2099" unicode="&#x2099;" horiz-adv-x="837" 
d="M485 399q123 0 184.5 -76t61.5 -212v-545h-135v516q0 100 -37 151.5t-121 51.5q-107 0 -186 -97v-622h-133v813h123l10 -135q78 155 233 155z" />
    <glyph glyph-name="colonmonetary" unicode="&#x20a1;" 
d="M967 1245q-48 26 -99 41l-211 -1180h27q130 0 264 62q-3 -70 -18 -145q-117 -54 -260 -54h-37l-41 -233h-107l45 250q-67 17 -131 53l-53 -303h-110l67 383q-178 187 -178 577q0 646 414 738l36 206q56 23 115 23l-39 -215h37q53 0 100 -8l35 198q17 10 53.5 16.5
t59.5 6.5l-43 -244q50 -14 94 -37q-4 -84 -20 -135zM555 127l209 1182q-50 4 -72 4q-25 0 -65 -4l-197 -1106q55 -55 125 -76zM276 696q0 -225 66 -366l168 948q-123 -54 -178.5 -198.5t-55.5 -383.5z" />
    <glyph glyph-name="franc" unicode="&#x20a3;" 
d="M942 1284h-500v-496h469q-4 -73 -16 -131h-453v-233h291q-4 -66 -14 -117h-277v-307h-147v307h-205v117h205v993h659q0 -47 -12 -133z" />
    <glyph glyph-name="uni20A5" unicode="&#x20a5;" 
d="M811 1200q115 0 170 -83t55 -230v-727h-145v714q0 92 -32 138.5t-103 46.5q-70 0 -125 -62l-4 -24q4 -46 4 -72v-741h-146v49l-43 -234h-116l159 871v43q0 170 -129 170q-72 0 -133 -78v-821h-143v1016h131l8 -119q33 71 79.5 107t113.5 36q77 0 131 -45l47 260
q48 23 123 23l-54 -285q61 47 152 47z" />
    <glyph glyph-name="uni20A6" unicode="&#x20a6;" 
d="M1126 788q-4 -68 -14 -118h-145v-670h-131l-320 670h-215v-670h-141v670h-148v118h148v621q105 23 139 23l311 -644h215v43v578q76 23 142 23v-644h159zM301 788h158l-66 138q-65 141 -96 221q4 -226 4 -359zM831 311l-6 359h-157l41 -84q51 -103 122 -275z" />
    <glyph glyph-name="uni20A8" unicode="&#x20a8;" horiz-adv-x="1163" 
d="M616 1014q0 -319 -188 -412l211 -602h-135l-191 573h-90v-573h-125v1413q34 13 90.5 23t100.5 10q89 0 154 -33t102 -93.5t54 -136t17 -169.5zM223 1309v-604h86q38 0 67.5 13.5t54.5 46t38.5 94.5t13.5 151q0 156 -45 231.5t-141 75.5q-41 0 -74 -8zM920 557
q85 -72 129.5 -142t44.5 -167q0 -128 -63 -200.5t-183 -72.5q-96 0 -170 62q0 85 12 125q63 -60 137 -60q138 0 138 146q0 62 -30 104t-87 88l-29 27q-77 65 -115 130t-38 167q0 127 64 200.5t165 73.5q92 0 166 -45q-4 -79 -12 -131q-67 45 -134 45q-59 0 -93 -34.5
t-34 -104.5q0 -60 24 -101.5t75 -82.5z" />
    <glyph glyph-name="uni20A9" unicode="&#x20a9;" horiz-adv-x="1595" 
d="M1575 813q-4 -66 -14 -117h-183l-159 -696h-179l-149 696h-197l-149 -696h-180l-156 696h-191v117h166l-135 604h160l119 -604h266l129 604h145l129 -604h267l122 604h156l-137 -604h170zM719 813h147l-73 344zM457 166l112 530h-217zM1135 172l106 524h-219z" />
    <glyph glyph-name="Euro" unicode="&#x20ac;" horiz-adv-x="1118" 
d="M412 481q28 -189 112.5 -282t235.5 -93q59 0 125.5 16.5t115.5 45.5q-3 -70 -18 -145q-117 -54 -238 -54q-206 0 -329 129.5t-158 382.5h-197v123h185q-2 33 -2 105q0 57 2 84h-185v122h195q65 533 494 533q69 0 142 -18.5t122 -49.5q0 -70 -21 -135q-47 32 -110.5 50
t-124.5 18q-152 0 -237.5 -99t-110.5 -299h520q-3 -60 -15 -122h-516q-2 -27 -2 -84q0 -72 2 -105h514q-4 -73 -16 -123h-485z" />
    <glyph glyph-name="uni20AD" unicode="&#x20ad;" 
d="M856 0l-416 670h-47v-670h-145v670h-191v118h191v621q90 23 145 23v-644h47l406 629h158l-410 -629h324q-3 -61 -15 -118h-301l426 -670h-172z" />
    <glyph glyph-name="uni20AE" unicode="&#x20ae;" 
d="M989 1284h-354v-414l285 95q0 -59 -9 -121l-276 -92v-179l285 95q0 -60 -9 -121l-276 -92v-455h-146v406l-262 -89v119l262 88v178l-262 -88v119l262 88v463h-368q3 62 14 133h869q0 -64 -15 -133z" />
    <glyph glyph-name="uni20B1" unicode="&#x20b1;" 
d="M1114 1176q-3 -67 -14 -125h-158q4 -54 4 -82q0 -55 -6 -105h158q-3 -67 -17 -123h-168q-45 -139 -150 -213.5t-261 -74.5h-176v-451h-146v739h-168v123h168v187h-168v125h168v241q145 31 285 31q358 0 450 -272h199zM326 1311v-135h426q-70 147 -289 147q-61 0 -137 -12
zM793 965q0 19 -5 86h-462v-187h460q7 54 7 101zM494 573q193 0 262 168h-430v-168h168z" />
    <glyph glyph-name="uni20B2" unicode="&#x20b2;" 
d="M999 731v-684q-137 -72 -323 -78v-233h-119v239q-232 33 -345.5 226t-113.5 514q0 323 116 509t343 218v198q54 23 119 23v-215q177 -3 315 -66q-5 -58 -22 -133q-137 65 -293 68v-1215q78 2 178 29v600h145zM250 713q0 -534 307 -600v1192q-307 -71 -307 -592z" />
    <glyph glyph-name="uni20B4" unicode="&#x20b4;" 
d="M897 915h133q0 -50 -14 -122h-922v122h658q61 67 61 170q0 108 -75 170t-218 62q-160 0 -307 -66q-18 62 -23 127q156 70 334 70q213 0 325 -87.5t112 -248.5q0 -114 -64 -197zM94 481v123h922q-2 -49 -17 -123h-667q-29 -60 -29 -129q0 -117 81 -183.5t222 -66.5
q191 0 336 95q16 -57 16 -134q-137 -94 -350 -94q-217 0 -333.5 97.5t-116.5 255.5q0 91 41 159h-105z" />
    <glyph glyph-name="uni20B5" unicode="&#x20b5;" 
d="M707 1313v-1207q135 4 229 62q-7 -72 -21 -145q-96 -47 -208 -54v-233h-119v239q-410 67 -410 734q0 664 410 731v200q51 23 119 23v-215q143 -7 241 -68q-3 -72 -20 -135q-44 30 -103.5 48t-117.5 20zM330 709q0 -260 62.5 -406t195.5 -182v1177q-133 -38 -195.5 -183.5
t-62.5 -405.5z" />
    <glyph glyph-name="uni20B8" unicode="&#x20b8;" 
d="M109 1417h909q-3 -67 -14 -125h-895v125zM109 983v123h892q-4 -70 -14 -123h-352v-983h-146v983h-380z" />
    <glyph glyph-name="uni20B9" unicode="&#x20b9;" horiz-adv-x="1107" 
d="M719 1298q133 -77 155 -233h152q-8 -82 -18 -123h-134q-37 -341 -512 -350l543 -590h-182l-539 590v119h174q171 0 259.5 55t103.5 176h-537v123h537q-15 124 -104.5 178.5t-264.5 54.5h-168v119h856q-6 -60 -18 -119h-303z" />
    <glyph glyph-name="uni20BA" unicode="&#x20ba;" horiz-adv-x="1142" 
d="M956 489q45 8 134 15q-8 -245 -136.5 -374.5t-369.5 -129.5h-289v551l-172 -57v120l172 58v176l-172 -57v120l172 58v440q90 23 156 23v-412l364 121q0 -82 -6 -121l-358 -121v-176l364 121q0 -82 -6 -121l-358 -121v-473h137q173 0 267 82.5t101 277.5z" />
    <glyph glyph-name="uni20BC" unicode="&#x20bc;" horiz-adv-x="1306" 
d="M717 1112q201 -20 313.5 -150t112.5 -337v-625h-148v610q0 162 -71 252t-207 105v-643h-129v643q-134 -18 -204.5 -107.5t-70.5 -251.5v-608h-149v625q0 204 113 335t311 150v307q51 23 129 23v-328z" />
    <glyph glyph-name="uni20BD" unicode="&#x20bd;" 
d="M563 551h-149v-166h456q-2 -43 -14 -119h-442v-264h-148v264h-176v119h176v166h-176v119h176v747q174 31 297 31q127 0 220 -33t146.5 -93.5t79 -137t25.5 -170.5q0 -226 -120.5 -344.5t-350.5 -118.5zM567 1323q-79 0 -153 -14v-633h141q168 0 247 83t79 251
q0 149 -76.5 231t-237.5 82z" />
    <glyph glyph-name="uni20BF" unicode="&#x20bf;" 
d="M963 389q0 -152 -89 -254.5t-249 -128.5v-270h-101v264h-96v-264h-100v264h-164v1417q78 16 164 25v198q36 23 100 23v-215h29q44 0 67 -2v194q44 23 101 23v-231q147 -32 220 -122.5t73 -228.5q0 -119 -57 -203t-156 -124q128 -36 193 -133t65 -232zM465 1319
q-71 0 -156 -10v-506h193q52 0 98 14t85.5 42.5t62 80t22.5 119.5q0 126 -76 193t-229 67zM516 127q135 0 217 68t82 204q0 130 -82 202.5t-229 72.5h-195v-547h207z" />
    <glyph glyph-name="uni2113" unicode="&#x2113;" horiz-adv-x="761" 
d="M334 285q0 -94 41 -137.5t127 -43.5q81 0 149 35q-6 -68 -20 -129q-69 -35 -170 -35q-131 0 -204 72.5t-73 218.5v875q0 146 66.5 226.5t191.5 80.5q115 0 176.5 -70t61.5 -184q0 -151 -97.5 -286.5t-248.5 -237.5v-385zM440 1323q-52 0 -79 -45.5t-27 -149.5v-342
q97 81 152 177.5t55 197.5q0 162 -101 162z" />
    <glyph glyph-name="trademark" unicode="&#x2122;" horiz-adv-x="1345" 
d="M1143 1427l55 -647h-98l-17 248q-4 49 -7.5 138t-4.5 106q-30 -111 -78 -246l-90 -246h-72l-90 244q-45 134 -79 246q-3 -123 -13 -240l-16 -250h-94l51 629q70 18 115 18l165 -516l160 498q56 18 113 18zM14 1333q0 43 9 84h473q0 -37 -7 -84h-184v-553h-94v553h-197z
" />
    <glyph glyph-name="uni2126" unicode="&#x2126;" 
d="M741 205v-66h269q-3 -64 -13 -139h-358v2h-2v279q248 64 248 505q0 257 -87 392t-237 135t-235.5 -134.5t-85.5 -385.5q0 -437 245 -512v-279h-2v-2h-377q5 90 13 139h266l2 62q-136 61 -217.5 216t-81.5 382q0 300 125.5 474.5t349.5 174.5q226 0 351.5 -177t125.5 -474
q0 -224 -83.5 -379.5t-215.5 -212.5z" />
    <glyph glyph-name="estimated" unicode="&#x212e;" horiz-adv-x="1701" 
d="M852 -18q-188 0 -343.5 57.5t-256.5 155.5t-156 226t-55 271q0 116 35 225.5t104.5 204t165.5 166t226 112t278 40.5q180 0 323 -45t232.5 -118.5t148.5 -173.5t83 -202t24 -213h-1313q-10 0 -10 -8v-375q0 -45 14 -61q85 -99 212 -154t284 -55q160 0 285.5 59.5
t242.5 167.5h144q-125 -148 -275 -214t-393 -66zM348 733h1004q12 0 12 10v383q0 31 -23 54q-107 107 -242.5 159t-254.5 52q-128 0 -256.5 -52t-231.5 -155q-18 -18 -18 -58v-383q0 -10 10 -10z" />
    <glyph glyph-name="oneeighth" unicode="&#x215b;" horiz-adv-x="1691" 
d="M270 709v604q-98 -21 -209 -56q0 50 13 107q173 63 323 66v-721h-127zM961 1417q54 9 143 13l-731 -1430q-71 -12 -142 -12zM1296 373q174 -56 174 -193q0 -95 -81.5 -150t-223.5 -55q-141 0 -220 51t-79 144q0 124 170 172q-149 61 -149 186q0 90 75 143.5t212 53.5
q130 0 202 -50t72 -130q0 -61 -36 -103t-116 -69zM1171 631q-81 0 -121 -28t-40 -75q0 -94 159 -125l17 -4q143 37 143 131q0 44 -41 72.5t-117 28.5zM1171 72q84 0 130.5 30t46.5 80q0 83 -164 123l-35 8q-158 -41 -158 -131q0 -53 47.5 -81.5t132.5 -28.5z" />
    <glyph glyph-name="threeeighths" unicode="&#x215c;" horiz-adv-x="1646" 
d="M1077 1417q53 9 142 13l-730 -1430q-73 -12 -143 -12zM606 899q0 -102 -87 -156.5t-257 -54.5q-91 0 -178 17q0 40 14 98q83 -17 164 -17q111 0 163 28t52 89q0 63 -53.5 89t-157.5 26h-110q0 64 12 98h82q96 0 148.5 25t52.5 88q0 47 -42.5 72.5t-121.5 25.5
q-104 0 -193 -29q0 52 12 101q74 28 191 28q133 0 207 -48t74 -140q0 -123 -168 -166q196 -22 196 -174zM1380 373q174 -56 174 -193q0 -95 -81.5 -150t-223.5 -55q-141 0 -220 51t-79 144q0 125 172 172q-151 60 -151 186q0 90 75.5 143.5t210.5 53.5q130 0 202.5 -50
t72.5 -130q0 -61 -36 -103t-116 -69zM1094 528q0 -93 161 -125l17 -4q141 37 141 131q0 44 -41 72.5t-117 28.5q-81 0 -121 -28t-40 -75zM1255 72q85 0 131 29.5t46 80.5q0 83 -164 123l-33 8q-160 -41 -160 -131q0 -53 48.5 -81.5t131.5 -28.5z" />
    <glyph glyph-name="fiveeighths" unicode="&#x215d;" horiz-adv-x="1683" 
d="M1096 1417q54 9 143 13l-731 -1430q-70 -12 -141 -12zM635 928q0 -118 -90.5 -181t-249.5 -63q-101 0 -186 16q0 57 14 109q78 -16 166 -16q215 0 215 131q0 129 -219 129q-73 0 -146 -15l33 375h442q0 -60 -8 -106h-317l-17 -154q16 2 52 2q139 0 225 -56.5t86 -170.5z
M1411 373q174 -56 174 -193q0 -95 -81.5 -150t-223.5 -55t-220.5 51t-78.5 144q0 124 170 172q-150 61 -150 186q0 90 75 143.5t210 53.5q131 0 204 -50t73 -130q0 -119 -152 -172zM1284 631q-80 0 -120 -28t-40 -75q0 -94 160 -125l16 -4q144 37 144 131q0 44 -41 72.5
t-119 28.5zM1284 72q85 0 130.5 29.5t45.5 80.5q0 84 -162 123l-34 8q-158 -41 -158 -131q0 -53 47.5 -81.5t130.5 -28.5z" />
    <glyph glyph-name="seveneighths" unicode="&#x215e;" horiz-adv-x="1396" 
d="M881 1417q57 9 143 13l-731 -1430q-71 -12 -141 -12zM272 709h-129q77 272 293 600h-409q0 54 8 100h549q0 -40 -9 -96q-221 -324 -303 -604zM1190 373q174 -56 174 -193q0 -95 -81.5 -150t-223.5 -55q-141 0 -220 51t-79 144q0 125 172 172q-152 60 -152 186
q0 89 75.5 143t211.5 54q130 0 202 -50t72 -130q0 -61 -35.5 -103t-115.5 -69zM1065 631q-81 0 -121.5 -28t-40.5 -75q0 -94 162 -125l16 -4q142 41 142 131q0 44 -41 72.5t-117 28.5zM1065 72q85 0 130.5 29.5t45.5 80.5q0 83 -164 123l-35 8q-157 -41 -157 -131
q0 -53 47.5 -81.5t132.5 -28.5z" />
    <glyph glyph-name="arrowleft" unicode="&#x2190;" horiz-adv-x="1310" 
d="M1280 780v-118l-1055 4l412 -465q-24 -39 -84 -70l-522 592l522 590q54 -32 84 -78l-406 -457z" />
    <glyph glyph-name="arrowup" unicode="&#x2191;" horiz-adv-x="1368" 
d="M686 1356l590 -522q-32 -54 -78 -84l-457 405l2 -1049h-118l4 1055l-465 -411q-36 22 -70 84z" />
    <glyph glyph-name="arrowright" unicode="&#x2192;" horiz-adv-x="1310" 
d="M766 1339l520 -589l-520 -592q-60 31 -86 69l412 465l-1053 -2v117l1046 -2l-403 457q29 45 84 77z" />
    <glyph glyph-name="arrowdown" unicode="&#x2193;" horiz-adv-x="1310" 
d="M1169 727q49 -32 76 -84l-588 -522l-591 522q26 57 69 84l465 -412l-4 1055h119l-2 -1048z" />
    <glyph glyph-name="arrowboth" unicode="&#x2194;" horiz-adv-x="1611" 
d="M1059 1313l520 -590l-520 -592q-59 30 -86 70l413 465h-106v-4h-948v4h-107l412 -465q-24 -39 -84 -70l-522 592l522 590q54 -32 84 -78l-406 -457h101v2h948v-2h98l-403 457q30 46 84 78z" />
    <glyph glyph-name="arrowupdn" unicode="&#x2195;" horiz-adv-x="1310" 
d="M1169 586q49 -32 76 -84l-588 -522l-591 522q28 59 69 84l463 -412v1055l-463 -412q-44 30 -69 86l591 522l588 -522q-27 -52 -76 -84l-454 402v-1039zM651 1278l-2 -2h4z" />
    <glyph glyph-name="uni2196" unicode="&#x2196;" horiz-adv-x="1310" 
d="M1141 262l-90 -78l-691 787l-75 -604q-55 -8 -113 12l98 780h789q15 -62 4 -110l-621 4z" />
    <glyph glyph-name="uni2197" unicode="&#x2197;" horiz-adv-x="1310" 
d="M1040 1159l99 -780q-58 -20 -113 -12l-76 604l-690 -787l-90 78l698 791l-620 -4q-11 48 4 110h788z" />
    <glyph glyph-name="uni2198" unicode="&#x2198;" horiz-adv-x="1310" 
d="M1004 1040q44 8 114 -10l-98 -782h-789q-15 65 -4 110l621 -2l-698 791l88 78l692 -789z" />
    <glyph glyph-name="uni2199" unicode="&#x2199;" horiz-adv-x="1310" 
d="M440 430l621 4q11 -48 -4 -110h-789l-98 780q58 20 113 12l75 -604l691 786l90 -77z" />
    <glyph glyph-name="partialdiff" unicode="&#x2202;" 
d="M578 1448q222 0 329 -147.5t107 -407.5q0 -107 -13 -212t-39.5 -209.5t-71 -193t-103 -157t-141 -107.5t-179.5 -39q-92 0 -162 34.5t-111.5 95.5t-62 138t-20.5 169q0 122 30 233t87 199.5t147.5 141t202.5 52.5q204 0 284 -180v23q0 229 -75 333.5t-222 104.5
q-124 0 -231 -49q0 68 20 135q117 43 224 43zM483 115q80 0 146.5 50t111 135.5t72.5 187.5t41 219q-83 208 -268 208q-101 0 -176 -69.5t-111.5 -179t-36.5 -240.5q0 -311 221 -311z" />
    <glyph glyph-name="emptyset" unicode="&#x2205;" horiz-adv-x="1751" 
d="M1653 1389l-207 -201q174 -203 174 -481q0 -157 -59 -295.5t-159 -235.5t-237 -153t-288 -56q-144 0 -272.5 48.5t-227.5 138.5l-205 -199l-72 68l207 200q-174 203 -174 484q0 157 59 294.5t159 234t237 152.5t289 56q286 0 499 -187l205 199zM270 707q0 -222 136 -390
l872 846q-169 150 -401 150q-166 0 -305 -78t-220.5 -217.5t-81.5 -310.5zM1481 707q0 223 -133 385l-875 -844q169 -150 404 -150q165 0 303.5 78.5t219.5 218.5t81 312z" />
    <glyph glyph-name="uni2206" unicode="&#x2206;" 
d="M649 1425l438 -1425h-1048l430 1405q82 20 180 20zM225 133h666l-330 1133z" />
    <glyph glyph-name="product" unicode="&#x220f;" 
d="M135 -434v1851h854v-1851h-149v1714h-553v-1714h-152z" />
    <glyph glyph-name="summation" unicode="&#x2211;" 
d="M846 532l-520 -831h669q0 -63 -14 -135h-848q0 63 8 112l541 850l-545 779q3 62 19 110h839q0 -62 -14 -137h-659z" />
    <glyph glyph-name="minus" unicode="&#x2212;" 
d="M166 627q0 55 14 127h781q0 -50 -15 -127h-780z" />
    <glyph glyph-name="uni2215" unicode="&#x2215;" 
d="M197 -123l520 1661q67 11 143 14l-528 -1675h-135z" />
    <glyph glyph-name="uni2219" unicode="&#x2219;" 
d="M563 602q-48 0 -79 31t-31 80t31 79.5t79 30.5q47 0 78 -30.5t31 -79.5t-31.5 -80t-77.5 -31z" />
    <glyph glyph-name="radical" unicode="&#x221a;" horiz-adv-x="1843" 
d="M1769 1417q-3 -50 -18 -129h-569l-615 -1722h-161l-355 917h152l284 -759l586 1693h696z" />
    <glyph glyph-name="infinity" unicode="&#x221e;" horiz-adv-x="1306" 
d="M920 1055q115 0 183 -89.5t68 -242.5q0 -149 -69 -242.5t-182 -93.5q-90 0 -151 45t-116 154q-56 -105 -114.5 -151t-153.5 -46q-114 0 -183 90.5t-69 239.5q0 148 69.5 243t182.5 95q96 0 155 -45t117 -164q53 107 111.5 157t151.5 50zM403 512q59 0 99 44.5t94 158.5
q-56 130 -94 176.5t-99 46.5q-66 0 -107.5 -60.5t-41.5 -154.5t39.5 -152.5t109.5 -58.5zM907 508q65 0 103.5 58t38.5 155q0 95 -38.5 152t-103.5 57q-60 0 -98 -45t-94 -168q54 -122 93 -165.5t99 -43.5z" />
    <glyph glyph-name="integral" unicode="&#x222b;" 
d="M336 -459q-79 0 -156 23q1 25 6.5 72.5t6.5 54.5q70 -25 129 -25q167 0 167 207v1255q0 157 76 238.5t228 81.5q80 0 151 -23q-4 -92 -10 -127q-67 23 -129 23q-168 0 -168 -201v-1253q0 -160 -75 -243t-226 -83z" />
    <glyph glyph-name="approxequal" unicode="&#x2248;" 
d="M717 756q-43 0 -89.5 20.5t-80 45t-72 45t-67.5 20.5q-41 0 -64.5 -27.5t-46.5 -93.5q-72 8 -111 20q32 122 84 170t125 48q42 0 88 -21t80 -46t74 -46t72 -21q39 0 66.5 31t49.5 109q38 -4 111 -21q-58 -233 -219 -233zM717 393q-43 0 -89.5 20.5t-80 45t-72 45
t-67.5 20.5q-41 0 -64.5 -27.5t-46.5 -93.5q-62 7 -111 19q32 122 84 170.5t125 48.5q42 0 88 -21t80 -45.5t74 -45.5t72 -21q39 0 66.5 29.5t49.5 107.5q43 -2 111 -18q-57 -234 -219 -234z" />
    <glyph glyph-name="notequal" unicode="&#x2260;" 
d="M629 797l-111 -217h443q0 -54 -15 -127h-493l-140 -273l-94 51l113 222h-166q0 55 14 127h217l111 217h-342q0 55 14 127h393l134 262l94 -51l-109 -211h269q0 -50 -15 -127h-317z" />
    <glyph glyph-name="lessequal" unicode="&#x2264;" 
d="M938 582q0 -52 -18 -133l-750 288q0 49 10 107l758 289q0 -78 -8 -138l-574 -207zM178 352h780q0 -55 -14 -127h-780q0 59 14 127z" />
    <glyph glyph-name="greaterequal" unicode="&#x2265;" 
d="M176 449q0 77 8 137l576 207l-584 206q0 49 19 134l749 -289q0 -47 -10 -109zM178 352h780q0 -55 -14 -127h-780q0 59 14 127z" />
    <glyph glyph-name="lozenge" unicode="&#x25ca;" horiz-adv-x="868" 
d="M358 0l-333 727l327 690h164l328 -690l-330 -727h-156zM438 127l260 600l-264 563l-264 -563z" />
    <glyph glyph-name="uniFEFF" unicode="&#xfeff;" horiz-adv-x="0" 
 />
    <glyph glyph-name="f_b" horiz-adv-x="1597" 
d="M162 1106q0 342 327 342q82 0 166 -23q-3 -74 -12 -125q-75 21 -139 21q-100 0 -147.5 -52.5t-47.5 -164.5v-90h334q-4 -78 -14 -123h-320v-891h-147v1106zM1169 1038q189 0 297.5 -133t108.5 -387q0 -261 -120.5 -402t-369.5 -141q-187 0 -346 60v1382q70 23 150 23
v-563q95 161 280 161zM1083 98q340 0 340 416q0 198 -75 299.5t-220 101.5q-140 0 -239 -110v-678q92 -29 194 -29z" />
    <glyph glyph-name="f_f_b" horiz-adv-x="2211" 
d="M1042 1321q-99 0 -145.5 -52.5t-46.5 -164.5v-90h334q-10 -92 -15 -123h-319v-891h-150v891h-391v-891h-147v1102q0 346 336 346q86 0 166 -23q-3 -65 -13 -127q-71 23 -139 23q-102 0 -152.5 -53.5t-50.5 -167.5v-86h391v92q0 342 328 342q86 0 166 -23q0 -55 -12 -125
q-75 21 -140 21zM1710 1038q188 0 297 -133t109 -387q0 -260 -121 -401.5t-369 -141.5q-190 0 -346 60v1382q68 23 147 23v-563q48 79 115.5 120t167.5 41zM1624 98q176 0 258 109.5t82 306.5t-76 299t-219 102q-142 0 -242 -114v-674q92 -29 197 -29z" />
    <glyph glyph-name="f_f_h" horiz-adv-x="2215" 
d="M1049 1321q-99 0 -146 -52.5t-47 -164.5v-90h334q-11 -98 -16 -123h-318v-891h-149v891h-398v-891h-147v1102q0 346 336 346q86 0 166 -23q-3 -65 -13 -127q-71 23 -139 23q-102 0 -152.5 -53.5t-50.5 -167.5v-86h398v92q0 342 327 342q86 0 166 -23q-3 -74 -12 -125
q-75 21 -139 21zM1747 1038q162 0 246 -92t84 -260v-686h-150v641q0 140 -56 207t-175 67q-152 0 -262 -127v-788h-148v1417q65 23 148 23v-582q57 91 132.5 135.5t180.5 44.5z" />
    <glyph glyph-name="f_f_j" horiz-adv-x="1593" 
d="M1176 891h-320v-891h-147v891h-400v-891h-147v1102q0 346 336 346q86 0 166 -23q-3 -65 -13 -127q-71 23 -139 23q-102 0 -152.5 -53.5t-50.5 -167.5v-86h400v92q0 342 327 342q82 0 166 -23q-3 -74 -12 -125q-75 21 -139 21q-100 0 -147.5 -52.5t-47.5 -164.5v-90h334
q-4 -78 -14 -123zM1358 1245q-42 0 -70 28.5t-28 72.5q0 45 28 72.5t70 27.5q43 0 69.5 -27.5t26.5 -72.5q0 -44 -26.5 -72.5t-69.5 -28.5zM1286 -178v1192h148v-1184q0 -152 -67 -223.5t-202 -71.5q-61 0 -116 19q3 53 16 118q42 -10 80 -10q71 0 106 38t35 122z" />
    <glyph glyph-name="f_f_k" horiz-adv-x="2097" 
d="M1049 1321q-99 0 -146 -52.5t-47 -164.5v-90h334q-11 -98 -16 -123h-318v-891h-149v891h-398v-891h-147v1102q0 346 336 346q86 0 166 -23q-3 -65 -13 -127q-71 23 -139 23q-102 0 -152.5 -53.5t-50.5 -167.5v-86h398v92q0 342 327 342q86 0 166 -23q-3 -74 -12 -125
q-75 21 -139 21zM1274 0v1417q68 23 147 23v-1440h-147zM1618 541l459 -541h-183l-440 532v13l410 469h172z" />
    <glyph glyph-name="f_h" horiz-adv-x="1681" 
d="M162 1106q0 342 327 342q82 0 166 -23q-3 -74 -12 -125q-75 21 -139 21q-100 0 -147.5 -52.5t-47.5 -164.5v-90h334q-4 -78 -14 -123h-320v-891h-147v1106zM1202 1038q162 0 245 -92t83 -260v-686h-148v641q0 140 -56 207t-177 67q-150 0 -260 -127v-788h-150v1417
q68 23 150 23v-580q57 90 132.5 134t180.5 44z" />
    <glyph glyph-name="f_j" horiz-adv-x="1046" 
d="M629 891h-320v-891h-147v1106q0 342 327 342q82 0 166 -23q-3 -74 -12 -125q-75 21 -139 21q-100 0 -147.5 -52.5t-47.5 -164.5v-90h334q-4 -78 -14 -123zM811 1245q-42 0 -70 28.5t-28 72.5q0 45 28 72.5t70 27.5q43 0 69.5 -27.5t26.5 -72.5q0 -44 -26.5 -72.5
t-69.5 -28.5zM739 -178v1192h148v-1184q0 -152 -67 -223.5t-202 -71.5q-61 0 -116 19q2 41 14 118q45 -10 82 -10q71 0 106 38t35 122z" />
    <glyph glyph-name="f_k" horiz-adv-x="1552" 
d="M162 1106q0 342 327 342q82 0 166 -23q-3 -74 -12 -125q-75 21 -139 21q-100 0 -147.5 -52.5t-47.5 -164.5v-90h334q-4 -78 -14 -123h-320v-891h-147v1106zM729 0v1417q68 23 148 23v-1440h-148zM1073 541l457 -541h-180l-443 532v13l410 469h174z" />
    <glyph glyph-name="t_f" horiz-adv-x="1259" 
d="M1102 1321q-112 0 -160.5 -52.5t-48.5 -168.5v-86h360q-12 -110 -14 -123h-346v-891h-148v1102q0 346 347 346q94 0 174 -23q0 -47 -13 -127q-67 23 -151 23zM616 891h-317v-594q0 -103 43 -148t129 -45t156 37q-5 -56 -19 -129q-78 -37 -170 -37q-134 0 -210 75.5
t-76 232.5v1011q68 23 147 23v-303h332q-3 -60 -15 -123z" />
    <glyph glyph-name="t_t" horiz-adv-x="1234" 
d="M616 891h-317v-594q0 -103 43 -148t129 -45t156 37q-5 -56 -19 -129q-78 -37 -170 -37q-134 0 -210 75.5t-76 232.5v1011q68 23 147 23v-303h332q-3 -60 -15 -123zM909 297q0 -103 42 -148t128 -45t156 37q-6 -65 -18 -129q-75 -37 -170 -37q-134 0 -210.5 75.5
t-76.5 232.5v1011q70 23 149 23v-303h332q-7 -75 -16 -123h-316v-594z" />
    <glyph glyph-name="zero.lf" horiz-adv-x="1142" 
d="M571 -31q-237 0 -348.5 185.5t-111.5 554.5q0 370 111 554.5t349 184.5t349.5 -184.5t111.5 -554.5q0 -368 -112.5 -554t-348.5 -186zM571 109q165 0 236.5 146.5t71.5 453.5q0 308 -71 455t-237 147t-236.5 -147t-70.5 -455t70.5 -454t236.5 -146z" />
    <glyph glyph-name="one.lf" horiz-adv-x="770" 
d="M74 1327q245 98 475 121v-1448h-150v1288q-183 -42 -338 -108q0 80 13 147z" />
    <glyph glyph-name="two.lf" horiz-adv-x="989" 
d="M229 139h674q-4 -77 -16 -139h-813v55q0 75 22.5 146t56 125.5t90 113.5t105.5 101t123 98q127 94 189.5 186.5t62.5 212.5q0 133 -83 203t-245 70q-163 0 -309 -76q0 82 10 143q146 70 320 70q231 0 347 -107.5t116 -291.5q0 -157 -80 -279.5t-246 -245.5
q-76 -56 -120.5 -93.5t-92.5 -86.5t-74.5 -99t-36.5 -106z" />
    <glyph glyph-name="three.lf" horiz-adv-x="1009" 
d="M618 741q300 -68 300 -346q0 -203 -141.5 -314.5t-409.5 -111.5q-136 0 -283 35q0 68 18 135q112 -33 256 -33q404 0 404 291q0 138 -94 204.5t-287 66.5h-162v133h150q163 0 256.5 69t93.5 195q0 110 -78.5 178t-234.5 68q-163 0 -310 -66q0 63 15 139q128 64 311 64
q213 0 328.5 -97t115.5 -259q0 -127 -70 -219.5t-178 -131.5z" />
    <glyph glyph-name="four.lf" horiz-adv-x="1071" 
d="M1038 506q-5 -88 -18 -133h-178v-373h-146v373h-651q0 73 6 131q107 227 280 472t361 441q73 13 150 13v-924h196zM199 506h497v729q-303 -347 -497 -729z" />
    <glyph glyph-name="five.lf" horiz-adv-x="1030" 
d="M463 887q221 0 344 -112t123 -333q0 -230 -139 -351.5t-398 -121.5q-157 0 -284 37q0 67 20 135q107 -35 254 -35q189 0 291 81.5t102 248.5q0 318 -370 318q-129 0 -250 -33l57 696h680q0 -67 -14 -139h-527l-39 -406q71 15 150 15z" />
    <glyph glyph-name="six.lf" horiz-adv-x="1118" 
d="M612 899q190 0 299 -119t109 -329q0 -224 -116.5 -353t-319.5 -129q-230 0 -351.5 174t-121.5 525q0 399 141 589.5t444 190.5q139 0 244 -43q0 -42 -14 -135q-96 41 -228 41q-227 0 -330.5 -141.5t-109.5 -458.5q56 92 148 140t206 48zM582 106q135 0 210.5 89t75.5 247
q0 157 -76 240.5t-208 83.5q-185 0 -326 -162q9 -259 88 -378.5t236 -119.5z" />
    <glyph glyph-name="seven.lf" horiz-adv-x="935" 
d="M43 1417h860q0 -46 -12 -108q-367 -650 -510 -1309h-160q139 626 496 1278h-690q4 92 16 139z" />
    <glyph glyph-name="eight.lf" horiz-adv-x="1128" 
d="M737 745q135 -54 212 -152t77 -231q0 -183 -126 -288t-341 -105q-213 0 -335 101t-122 278q0 135 77.5 227.5t219.5 139.5q-125 56 -191.5 150.5t-66.5 219.5q0 164 113 263.5t315 99.5q200 0 311 -96.5t111 -257.5q0 -234 -254 -349zM291 1087q0 -108 70 -180.5
t198 -107.5l25 -6q132 54 195 127t63 170q0 105 -69.5 169t-203.5 64q-136 0 -207 -65.5t-71 -170.5zM567 96q145 0 227.5 68t82.5 190q0 103 -68.5 181t-208.5 116l-59 17q-151 -51 -219 -127.5t-68 -182.5q0 -129 85.5 -195.5t227.5 -66.5z" />
    <glyph glyph-name="nine.lf" horiz-adv-x="1118" 
d="M535 1448q230 0 351.5 -173.5t121.5 -524.5q0 -398 -141.5 -588.5t-444.5 -190.5q-144 0 -244 41q0 48 17 135q93 -41 225 -41q226 0 329 141.5t111 459.5q-56 -93 -148 -141t-206 -48q-188 0 -297 120t-109 329q0 224 116 352.5t319 128.5zM537 653q184 0 323 160
q-7 260 -86 379t-237 119q-135 0 -211 -88.5t-76 -247.5q0 -155 77.5 -238.5t209.5 -83.5z" />
    <glyph glyph-name="zero.dnom" horiz-adv-x="813" 
d="M408 -23q-152 0 -224.5 92.5t-72.5 280.5q0 187 72 279t225 92q151 0 222.5 -92.5t71.5 -278.5q0 -188 -71.5 -280.5t-222.5 -92.5zM408 86q91 0 127 60.5t36 203.5q0 142 -36 203t-127 61q-92 0 -128 -60.5t-36 -203.5t36 -203.5t128 -60.5z" />
    <glyph glyph-name="one.dnom" horiz-adv-x="618" 
d="M74 655q173 63 323 66v-721h-127v604q-108 -23 -209 -55q0 49 13 106z" />
    <glyph glyph-name="two.dnom" horiz-adv-x="677" 
d="M203 96h389q0 -51 -10 -96h-510v41q0 91 48.5 152.5t164.5 125.5q91 50 121 82.5t30 83.5q0 131 -182 131q-100 0 -178 -34q0 43 10 108q96 29 197 29q138 0 211 -57.5t73 -159.5q0 -80 -37 -133.5t-133 -106.5q-95 -52 -139.5 -88t-54.5 -78z" />
    <glyph glyph-name="three.dnom" horiz-adv-x="700" 
d="M410 365q196 -22 196 -175q0 -102 -87 -156t-257 -54q-96 0 -178 16q0 40 14 98q78 -16 164 -16q111 0 163 28t52 89q0 63 -53 88.5t-158 25.5h-110q0 65 12 99h82q96 0 148.5 24.5t52.5 87.5q0 47 -42.5 72.5t-121.5 25.5q-107 0 -193 -28q0 50 12 100q77 29 191 29
q133 0 207 -48.5t74 -140.5q0 -122 -168 -165z" />
    <glyph glyph-name="four.dnom" horiz-adv-x="710" 
d="M678 252q-4 -54 -14 -98h-111v-154h-113v154h-395q0 49 8 96q69 121 171.5 248t203.5 213q43 8 125 8v-467h125zM162 252h278v340q-159 -151 -278 -340z" />
    <glyph glyph-name="five.dnom" horiz-adv-x="733" 
d="M324 446q139 0 225 -56.5t86 -170.5q0 -118 -90.5 -181t-249.5 -63q-96 0 -186 17q0 56 14 108q78 -16 166 -16q215 0 215 131q0 129 -219 129q-77 0 -146 -14l33 375h442q0 -61 -8 -107h-317l-17 -154q16 2 52 2z" />
    <glyph glyph-name="six.dnom" horiz-adv-x="790" 
d="M436 453q116 0 185 -61.5t69 -168.5q0 -110 -73 -179t-201 -69q-150 0 -227.5 94t-77.5 261q0 191 85 291t257 100q117 0 196 -35q0 -34 -12 -98q-78 33 -182 33q-111 0 -164.5 -65.5t-59.5 -195.5q32 44 86 68.5t119 24.5zM412 76q74 0 115.5 38t41.5 99q0 63 -41.5 101
t-119.5 38q-100 0 -175 -63q13 -213 179 -213z" />
    <glyph glyph-name="seven.dnom" horiz-adv-x="616" 
d="M35 700h549q0 -40 -9 -96q-221 -324 -303 -604h-129q77 272 293 600h-409q0 54 8 100z" />
    <glyph glyph-name="eight.dnom" horiz-adv-x="808" 
d="M532 373q175 -56 175 -193q0 -95 -82 -150t-224 -55q-141 0 -220 51t-79 144q0 125 172 172q-151 60 -151 186q0 89 75.5 143t211.5 54q130 0 202 -50t72 -130q0 -61 -36 -103t-116 -69zM408 631q-81 0 -121.5 -28t-40.5 -75q0 -93 162 -125l16 -4q141 41 141 131
q0 44 -40.5 72.5t-116.5 28.5zM408 72q85 0 130.5 29.5t45.5 80.5q0 83 -164 123l-35 8q-158 -41 -158 -131q0 -53 48 -81.5t133 -28.5z" />
    <glyph glyph-name="nine.dnom" horiz-adv-x="790" 
d="M375 723q151 0 228 -93t77 -261q0 -191 -85 -291.5t-257 -100.5q-118 0 -197 35q0 29 13 99q78 -33 182 -33q112 0 164.5 65t58.5 195q-32 -44 -86 -68t-119 -24q-116 0 -185 61t-69 168q0 110 73.5 179t201.5 69zM383 346q98 0 174 64q-13 213 -178 213
q-74 0 -116 -38.5t-42 -99.5q0 -63 42 -101t120 -38z" />
    <glyph glyph-name="zero.numr" horiz-adv-x="813" 
d="M408 686q-152 0 -224.5 92.5t-72.5 280.5q0 187 72 279t225 92q151 0 222.5 -92.5t71.5 -278.5q0 -188 -71.5 -280.5t-222.5 -92.5zM408 795q91 0 127 60.5t36 203.5q0 142 -36 203t-127 61q-92 0 -128 -60.5t-36 -203.5t36 -203.5t128 -60.5z" />
    <glyph glyph-name="one.numr" horiz-adv-x="618" 
d="M74 1364q173 63 323 66v-721h-127v604q-98 -21 -209 -56q0 50 13 107z" />
    <glyph glyph-name="two.numr" horiz-adv-x="677" 
d="M203 805h389q0 -51 -10 -96h-510v41q0 91 48.5 152.5t164.5 125.5q91 50 121 82.5t30 83.5q0 131 -182 131q-97 0 -178 -35q0 44 10 109q93 28 197 28q138 0 211 -57.5t73 -159.5q0 -80 -37 -133t-133 -106q-95 -52 -139.5 -88t-54.5 -78z" />
    <glyph glyph-name="three.numr" horiz-adv-x="700" 
d="M410 1073q196 -22 196 -174q0 -102 -87 -156.5t-257 -54.5q-91 0 -178 17q0 40 14 98q83 -17 164 -17q111 0 163 28t52 89q0 63 -53.5 89t-157.5 26h-110q0 64 12 98h82q96 0 148.5 25t52.5 88q0 47 -42.5 72.5t-121.5 25.5q-104 0 -193 -29q0 52 12 101q74 28 191 28
q133 0 207 -48t74 -140q0 -123 -168 -166z" />
    <glyph glyph-name="four.numr" horiz-adv-x="688" 
d="M678 961q-4 -55 -14 -99h-111v-153h-113v153h-395q0 49 8 96q69 121 171.5 248t203.5 213q43 8 125 8v-466h125zM162 961h278v339q-160 -153 -278 -339z" />
    <glyph glyph-name="five.numr" horiz-adv-x="733" 
d="M324 1155q139 0 225 -56.5t86 -170.5q0 -118 -90.5 -181t-249.5 -63q-101 0 -186 16q0 57 14 109q78 -16 166 -16q215 0 215 131q0 129 -219 129q-73 0 -146 -15l33 375h442q0 -60 -8 -106h-317l-17 -154q16 2 52 2z" />
    <glyph glyph-name="six.numr" horiz-adv-x="794" 
d="M436 1161q116 0 185 -61t69 -168q0 -110 -73 -179t-201 -69q-150 0 -227.5 93.5t-77.5 260.5q0 191 85 291.5t257 100.5q117 0 196 -35q0 -35 -12 -99q-78 33 -182 33q-111 0 -164.5 -65t-59.5 -195q32 44 86 68t119 24zM412 784q74 0 115.5 38.5t41.5 99.5
q0 63 -41.5 101t-119.5 38q-99 0 -175 -64q13 -213 179 -213z" />
    <glyph glyph-name="seven.numr" horiz-adv-x="616" 
d="M35 1409h549q0 -40 -9 -96q-221 -324 -303 -604h-129q77 272 293 600h-409q0 54 8 100z" />
    <glyph glyph-name="eight.numr" horiz-adv-x="808" 
d="M532 1081q175 -56 175 -192q0 -95 -82 -150t-224 -55q-141 0 -220 51t-79 144q0 125 172 172q-151 60 -151 186q0 89 75.5 143t211.5 54q130 0 202 -50t72 -131q0 -61 -36 -103t-116 -69zM408 1339q-81 0 -121.5 -27.5t-40.5 -74.5q0 -93 162 -125l16 -4q141 40 141 131
q0 44 -40.5 72t-116.5 28zM408 780q84 0 130 30t46 81q0 83 -164 123l-35 8q-158 -41 -158 -131q0 -53 48.5 -82t132.5 -29z" />
    <glyph glyph-name="nine.numr" horiz-adv-x="790" 
d="M375 1432q151 0 228 -93.5t77 -261.5q0 -191 -85 -291t-257 -100q-118 0 -197 35q0 28 13 98q78 -33 182 -33q112 0 164.5 65t58.5 196q-32 -44 -86 -68.5t-119 -24.5q-116 0 -185 61.5t-69 168.5q0 110 73.5 179t201.5 69zM383 1055q99 0 174 63q-13 213 -178 213
q-74 0 -116 -38.5t-42 -98.5q0 -63 42 -101t120 -38z" />
    <glyph glyph-name="exclamdown.cap" horiz-adv-x="630" 
d="M313 1444q44 0 74.5 -30.5t30.5 -74.5q0 -43 -30.5 -73.5t-74.5 -30.5q-43 0 -73.5 30.5t-30.5 73.5q0 44 30.5 74.5t73.5 30.5zM379 985l12 -975q-81 -22 -153 -22l16 997h125z" />
    <glyph glyph-name="questiondown.cap" horiz-adv-x="927" 
d="M545 1444q44 0 75 -31.5t31 -75.5q0 -43 -31 -73.5t-75 -30.5q-43 0 -74 30.5t-31 73.5q0 44 31 75.5t74 31.5zM618 999q5 -50 5 -63q0 -99 -41 -170.5t-129 -138.5q-100 -73 -148.5 -141t-48.5 -158q0 -99 67 -160.5t212 -61.5q75 0 156.5 20.5t144.5 55.5
q0 -66 -13 -133q-129 -74 -307 -74q-201 0 -307.5 93.5t-106.5 255.5q0 65 18 120t55.5 101.5t77.5 81.5t101 80q80 58 114 112.5t34 134.5q0 31 -2 45h118z" />
    <glyph glyph-name="colon.case" horiz-adv-x="503" 
d="M252 961q-46 0 -78.5 32t-32.5 78t32.5 78.5t78.5 32.5t78 -32.5t32 -78.5t-32 -78t-78 -32zM252 195q-46 0 -78.5 33t-32.5 79q0 44 32.5 76.5t78.5 32.5t78 -32t32 -77q0 -46 -32 -79t-78 -33z" />
    <glyph glyph-name="bullet.ss01" horiz-adv-x="800" 
d="M403 485q-88 0 -143 54t-55 137t55 137.5t143 54.5t140.5 -54.5t52.5 -137.5t-52.5 -137t-140.5 -54z" />
    <glyph glyph-name="slash.ss01" horiz-adv-x="704" 
d="M20 0l521 1409q67 11 143 14l-526 -1423h-138z" />
    <glyph glyph-name="backslash.ss01" horiz-adv-x="684" 
d="M664 0h-138l-510 1417q74 27 129 27z" />
    <glyph glyph-name="parenleft.ss01" horiz-adv-x="624" 
d="M438 -274q-128 218 -191 438t-63 526q0 304 62.5 521.5t191.5 443.5q63 0 125 -27q-122 -223 -178.5 -435t-56.5 -503t55 -500t174 -430q-53 -34 -119 -34z" />
    <glyph glyph-name="parenright.ss01" horiz-adv-x="624" 
d="M186 1659q128 -218 191 -438.5t63 -526.5q0 -158 -17 -292.5t-52.5 -251t-78.5 -213t-106 -207.5q-66 0 -125 26q123 225 180.5 436.5t57.5 501.5q0 291 -56 499.5t-175 430.5q58 35 118 35z" />
    <glyph glyph-name="braceleft.ss01" horiz-adv-x="729" 
d="M412 47q0 -113 31.5 -159t119.5 -46h129q-3 -67 -14 -116h-115q-159 0 -226 81.5t-67 237.5v395q0 87 -40 134.5t-130 60.5v115q94 12 132 56t38 136v399q0 155 67 236.5t226 81.5h129q-3 -56 -16 -117h-113q-87 0 -119 -47t-32 -158v-399q0 -100 -46 -164.5t-135 -81.5
q88 -18 134.5 -86t46.5 -166v-393z" />
    <glyph glyph-name="braceright.ss01" horiz-adv-x="729" 
d="M459 946q0 -89 40 -136t130 -60v-115q-94 -12 -132 -56t-38 -135v-399q0 -154 -67 -235.5t-226 -81.5h-129q3 52 16 114h113q86 0 118.5 47.5t32.5 157.5v402q0 101 47.5 165.5t137.5 79.5q-91 17 -138 84.5t-47 167.5v393q0 112 -31.5 158.5t-119.5 46.5h-129
q4 70 14 117h115q159 0 226 -82t67 -238v-395z" />
    <glyph glyph-name="bracketleft.ss01" horiz-adv-x="657" 
d="M184 -205v1864h428q-3 -56 -16 -117h-270v-1632h286q-2 -46 -16 -115h-412z" />
    <glyph glyph-name="bracketright.ss01" horiz-adv-x="657" 
d="M473 1659v-1864h-428q3 56 16 117h271v1632h-287q2 46 16 115h412z" />
    <glyph glyph-name="hyphen.ss01" horiz-adv-x="757" 
d="M90 668q0 47 12 129h566q-3 -62 -17 -129h-561z" />
    <glyph glyph-name="endash.ss01" horiz-adv-x="1112" 
d="M90 668q0 47 12 129h920q0 -61 -14 -129h-918z" />
    <glyph glyph-name="emdash.ss01" horiz-adv-x="1820" 
d="M90 668q0 43 12 129h1629q-4 -75 -15 -129h-1626z" />
    <glyph glyph-name="guillemotleft.ss01" horiz-adv-x="987" 
d="M408 262l-314 465l314 467q57 -15 114 -51l-276 -416l276 -414q-42 -29 -114 -51zM791 262l-314 465l314 467q57 -15 114 -51l-276 -416l276 -414q-42 -29 -114 -51z" />
    <glyph glyph-name="guillemotright.ss01" horiz-adv-x="987" 
d="M197 262q-74 23 -115 51l274 414l-274 416q59 37 115 51l313 -467zM580 262q-76 22 -115 51l274 414l-274 416q59 37 115 51l313 -467z" />
    <glyph glyph-name="guilsinglleft.ss01" horiz-adv-x="604" 
d="M408 262l-314 465l314 467q57 -15 114 -51l-276 -416l276 -414q-42 -29 -114 -51z" />
    <glyph glyph-name="guilsinglright.ss01" horiz-adv-x="604" 
d="M197 262q-74 23 -115 51l274 414l-274 416q59 37 115 51l313 -467z" />
    <glyph glyph-name="cent.tf" horiz-adv-x="987" 
d="M584 1110v-813q127 0 225 55q-8 -71 -21 -129q-36 -22 -92.5 -35.5t-111.5 -15.5v-197h-119v205q-177 30 -278 164.5t-101 360.5q0 230 100 361t279 163v180q20 9 58 16t61 7v-195q130 -3 225 -45q0 -46 -14 -123q-102 41 -211 41zM242 700q0 -151 58 -250.5t165 -134.5
v777q-108 -35 -165.5 -136t-57.5 -256z" />
    <glyph glyph-name="currency.tf" 
d="M952 719q0 -126 -69 -227l131 -130l-94 -94l-129 129q-106 -69 -228 -69q-128 0 -227 71l-129 -131l-94 94l129 130q-70 103 -70 227t70 227l-131 129l94 94l131 -129q101 72 227 72q127 0 228 -72l131 129l94 -94l-131 -131q67 -95 67 -225zM305 719q0 -115 73.5 -186.5
t184.5 -71.5q110 0 184 71.5t74 186.5t-74.5 188.5t-183.5 73.5q-110 0 -184 -73.5t-74 -188.5z" />
    <glyph glyph-name="dollar.tf" horiz-adv-x="1058" 
d="M944 358q0 -153 -90.5 -258t-265.5 -127v-235l-121 -2v233q-96 5 -185.5 28t-148.5 60q2 70 21 133q63 -38 148.5 -60.5t164.5 -25.5v566l-23 10q-151 65 -236 161.5t-85 241.5q0 153 90.5 247t253.5 114v196q49 21 121 21v-213q148 -6 289 -68q-4 -56 -25 -131
q-122 60 -264 66v-539l22 -10q167 -75 250.5 -172t83.5 -236zM270 1083q0 -89 50.5 -146.5t146.5 -105.5v480q-95 -19 -146 -78t-51 -150zM588 109q102 19 154.5 82.5t52.5 162.5q0 87 -47 147t-160 115v-507z" />
    <glyph glyph-name="Euro.tf" 
d="M436 481q28 -189 113 -282t235 -93q59 0 127 16.5t115 45.5q-3 -70 -18 -145q-114 -54 -238 -54q-206 0 -329 129.5t-158 382.5h-197v123h184q-2 33 -2 105q0 57 2 84h-184v122h195q65 533 493 533q69 0 142 -18.5t124 -49.5q-3 -72 -20 -135q-104 68 -238 68
q-152 0 -237.5 -99t-110.5 -299h520q0 -50 -14 -122h-516q-2 -27 -2 -84q0 -72 2 -105h514q-4 -73 -16 -123h-486z" />
    <glyph glyph-name="florin.tf" 
d="M774 1319q-86 0 -118.5 -46.5t-32.5 -146.5v-184h251q-2 -43 -14 -119h-237v-534q0 -314 -293 -314q-72 0 -146 23q3 61 13 127q71 -23 122 -23q156 0 156 195v526h-219v119h219v191q0 315 287 315q71 0 145 -23q0 -51 -12 -129q-61 23 -121 23z" />
    <glyph glyph-name="uni20BA.tf" 
d="M911 500q65 11 133 14q-12 -514 -505 -514h-287v559l-172 -65v120l172 64v178l-172 -65v120l172 64v434q90 23 156 23v-400l362 135q0 -65 -8 -120l-354 -134v-178l362 135q0 -65 -8 -120l-354 -134v-475h137q171 0 261.5 81.5t104.5 277.5z" />
    <glyph glyph-name="uni20BC.tf" 
d="M627 1112q194 -20 296.5 -148.5t102.5 -338.5v-625h-145v625q0 165 -62 253t-192 105v-659h-129v659q-129 -17 -190.5 -105.5t-61.5 -254.5v-623h-148v625q0 208 104 336.5t296 148.5v307q51 23 129 23v-328z" />
    <glyph glyph-name="uni20B9.tf" 
d="M707 1298q101 -82 116 -233h150q-3 -58 -19 -121h-131q-37 -341 -504 -350l531 -592h-180l-529 594v115h170q169 0 256.5 54.5t102.5 178.5h-525v121h525q-15 125 -103.5 179t-261.5 54h-166v119h842q-2 -49 -16 -119h-258z" />
    <glyph glyph-name="sterling.tf" 
d="M395 141h588q-11 -112 -18 -141h-805v133q54 18 92.5 39t72.5 54t51 82.5t17 115.5q0 8 -2.5 44.5t-3.5 57.5l-16 168h-226v121h213l-10 113q-1 11 -3 42.5t-3.5 59t-1.5 45.5q0 189 108.5 281t309.5 92q95 0 192 -23q0 -57 -12 -135q-98 23 -178 23q-268 0 -268 -250
q0 -57 8 -127l12 -121h360q-4 -70 -14 -121h-336l17 -157q6 -49 6 -95q0 -196 -150 -301z" />
    <glyph glyph-name="uni20A9.tf" 
d="M1120 813q-9 -87 -14 -117h-115l-102 -696h-168l-98 696h-109l-94 -696h-170l-109 696h-123v117h105l-94 604h145l86 -604h152l67 604h183l71 -604h146l71 604h146l-88 -604h112zM530 813h76l-39 270zM344 211l55 485h-123zM805 205l59 491h-116z" />
    <glyph glyph-name="yen.tf" 
d="M963 631h-324v-168h336q-4 -66 -17 -115h-319v-348h-152v348h-333v115h333v168h-333v114h295l-396 672h168l346 -618l344 618h160l-393 -672h301q-5 -71 -16 -114z" />
    <glyph glyph-name="caroncomb.alt" horiz-adv-x="0" 
d="M-272 1079q21 148 24 338q77 25 146 25q-16 -216 -127 -363h-43z" />
    <glyph glyph-name="uni0308.case" horiz-adv-x="0" 
d="M-580 1587q-43 0 -69.5 26.5t-26.5 69.5q0 41 27.5 68t68.5 27q40 0 67.5 -27t27.5 -68q0 -42 -27.5 -69t-67.5 -27zM-195 1587q-42 0 -69 27t-27 69q0 41 27.5 68t68.5 27t67 -27t26 -68q0 -43 -26 -69.5t-67 -26.5z" />
    <glyph glyph-name="uni0307.case" horiz-adv-x="0" 
d="M-197 1585q-41 0 -67.5 26.5t-26.5 69.5t26.5 70t67.5 27t68 -27t27 -70q0 -44 -26.5 -70t-68.5 -26z" />
    <glyph glyph-name="gravecomb.case" horiz-adv-x="0" 
d="M-102 1565h-31q-87 18 -170 82.5t-139 144.5q35 14 104 14q63 0 96 -10z" />
    <glyph glyph-name="acutecomb.case" horiz-adv-x="0" 
d="M-442 1565l139 231q33 10 96 10q67 0 105 -14q-56 -80 -140 -144.5t-172 -82.5h-28z" />
    <glyph glyph-name="uni030B.case" horiz-adv-x="0" 
d="M-688 1563l149 235q31 10 97 10q53 0 69 -4q-35 -77 -121.5 -150.5t-169.5 -90.5h-24zM-418 1563l148 235q34 10 96 10q56 0 72 -4q-37 -78 -122.5 -150.5t-170.5 -90.5h-23z" />
    <glyph glyph-name="uni0302.case" horiz-adv-x="0" 
d="M-680 1563l199 245q49 11 90 11q39 0 92 -11l197 -245h-58q-114 31 -231 166q-111 -131 -238 -166h-51z" />
    <glyph glyph-name="uni030C.case" horiz-adv-x="0" 
d="M-102 1817l-199 -246q-36 -8 -92 -8q-51 0 -90 8l-197 246h57q119 -32 230 -166q114 131 239 166h52z" />
    <glyph glyph-name="uni0306.case" horiz-adv-x="0" 
d="M-381 1561q-122 0 -192.5 61.5t-88.5 167.5q72 10 111 10q35 -137 170 -137q139 0 170 137q37 0 109 -10q-16 -106 -86.5 -167.5t-192.5 -61.5z" />
    <glyph glyph-name="uni030A.case" horiz-adv-x="0" 
d="M-305 1528q-89 0 -147 53.5t-58 136.5t58.5 137t146.5 54q86 0 144.5 -54.5t58.5 -136.5t-57.5 -136t-145.5 -54zM-305 1610q49 0 79.5 30t30.5 78q0 46 -31.5 77.5t-78.5 31.5q-49 0 -81 -31t-32 -78q0 -48 31 -78t82 -30z" />
    <glyph glyph-name="tildecomb.case" horiz-adv-x="0" 
d="M-240 1540q-41 0 -99.5 33t-108.5 66.5t-70 33.5q-21 0 -31 -13t-10 -44v-76h-113v92q0 152 131 152q45 0 103.5 -34t107.5 -67.5t70 -33.5q45 0 45 57v78h113v-96q0 -148 -138 -148z" />
    <glyph glyph-name="uni0304.case" horiz-adv-x="0" 
d="M-606 1632q4 64 16 111h488q-7 -65 -17 -111h-487z" />
    <glyph glyph-name="uni0308.narrow.case" horiz-adv-x="0" 
d="M-479 1587q-42 0 -68 27t-26 67q0 43 26 70t68 27q41 0 66.5 -27t25.5 -70q0 -40 -25.5 -67t-66.5 -27zM-195 1587q-42 0 -68 27t-26 67q0 43 26 70t68 27q41 0 67 -27t26 -70q0 -40 -26 -67t-67 -27z" />
    <glyph glyph-name="uni0302.narrow.case" horiz-adv-x="0" 
d="M-602 1565l168 223q31 10 82 10t82 -10l168 -223h-48q-126 44 -202 139q-73 -93 -201 -139h-49z" />
    <glyph glyph-name="uni0306.narrow.case" horiz-adv-x="0" 
d="M-340 1563q-109 0 -170 60.5t-74 154.5q33 8 105 8q22 -121 139 -121q110 0 137 121q47 0 101 -8q-13 -93 -71.5 -154t-166.5 -61z" />
    <glyph glyph-name="tildecomb.narrow.case" horiz-adv-x="0" 
d="M-223 1534q-42 0 -87 32t-80.5 63.5t-55.5 31.5q-22 0 -30.5 -12.5t-8.5 -46.5v-68h-101v90q0 81 27.5 117.5t87.5 36.5q36 0 71.5 -20t59 -44.5t49 -44.5t43.5 -20q41 0 41 57v72h105v-97q0 -78 -29 -112.5t-92 -34.5z" />
    <glyph glyph-name="uni0304.narrow.case" horiz-adv-x="0" 
d="M-535 1630q3 57 17 113h416q-3 -58 -17 -113h-416z" />
    <glyph glyph-name="uni0308.narrow" horiz-adv-x="0" 
d="M-481 1251q-41 0 -66.5 27t-25.5 70q0 41 25.5 67.5t66.5 26.5q40 0 65 -26.5t25 -67.5q0 -43 -25 -70t-65 -27zM-193 1251q-40 0 -65 27t-25 70q0 41 25 67.5t65 26.5t65.5 -26.5t25.5 -67.5q0 -43 -25.5 -70t-65.5 -27z" />
    <glyph glyph-name="uni0302.narrow" horiz-adv-x="0" 
d="M-260 1483l158 -295h-45q-75 31 -181 192q-61 -90 -98 -131.5t-84 -60.5h-41l156 293q18 6 67 6q48 0 68 -4z" />
    <glyph glyph-name="uni030C.narrow" horiz-adv-x="0" 
d="M-141 1485h39l-154 -293q-20 -6 -70 -6q-47 0 -67 6l-158 293h45q76 -29 180 -193q34 49 50.5 72t41 52t46.5 44t47 25z" />
    <glyph glyph-name="uni0306.narrow" horiz-adv-x="0" 
d="M-317 1188q-105 0 -158.5 70t-59.5 190q45 10 103 10q7 -160 115 -160q104 0 114 160q65 0 101 -10q-5 -117 -59 -188.5t-156 -71.5z" />
    <glyph glyph-name="tildecomb.narrow" horiz-adv-x="0" 
d="M-213 1217q-34 0 -74.5 31.5t-71 63t-40.5 31.5q-19 0 -27 -12.5t-8 -42.5v-69h-90v84q0 141 106 141q29 0 60 -20t52 -43.5t42.5 -43.5t32.5 -20q38 0 38 53v74h91v-88q0 -139 -111 -139z" />
    <glyph glyph-name="uni0304.narrow" horiz-adv-x="0" 
d="M-522 1290q3 55 16 115h404q-3 -53 -15 -115h-405z" />
    <glyph glyph-name="uni0328.narrow" horiz-adv-x="0" 
d="M-209 -434q-89 0 -140.5 47.5t-51.5 136.5q0 75 37.5 136t130.5 145l77 -31q-131 -128 -131 -233q0 -49 26.5 -75t72.5 -26q43 0 86 19q-2 -40 -13 -103q-32 -16 -94 -16z" />
    <glyph glyph-name="Logo" horiz-adv-x="2682" 
d="M1710 1059q276 -73 445 -218t169 -317q0 -161 -145.5 -298t-396 -216.5t-545.5 -79.5t-545.5 79.5t-396 216.5t-145.5 298q0 174 169 318t447 217q0 -154 63 -258l342 -590q38 -65 52 -148l12 29q34 80 48 157.5t3.5 159.5t-51.5 152l-270 473q-66 115 -67.5 221.5
t67.5 251.5l12 25q10 -64 55 -143l408 -707q37 -64 51 -145l16 24q63 111 62.5 239t-62.5 234l-272 473q-63 109 -62.5 236t62.5 235l14 25q18 -83 54 -143l346 -590q51 -87 61 -211z" />
    </font>
</defs>
</svg>
